G04 #@! TF.FileFunction,Soldermask,Bot*
%FSLAX46Y46*%
G04 Gerber Fmt 4.6, Leading zero omitted, Abs format (unit mm)*
G04 Created by KiCad (PCBNEW 4.0.7-e2-6376~58~ubuntu14.04.1) date Wed Aug  8 14:37:32 2018*
%MOMM*%
%LPD*%
G01*
G04 APERTURE LIST*
%ADD10C,0.100000*%
%ADD11C,0.010000*%
%ADD12R,0.800000X0.500000*%
%ADD13R,0.500000X0.800000*%
%ADD14R,0.750000X1.200000*%
%ADD15R,1.600000X0.800000*%
%ADD16R,1.000000X1.200000*%
%ADD17R,1.700000X0.600000*%
%ADD18R,2.700000X1.000000*%
%ADD19R,1.200000X0.600000*%
%ADD20R,1.600000X1.600000*%
%ADD21C,3.000000*%
G04 APERTURE END LIST*
D10*
D11*
G36*
X142555321Y-86246193D02*
X142464787Y-86293900D01*
X142407072Y-86363147D01*
X142385300Y-86438609D01*
X142373238Y-86559844D01*
X142370841Y-86665844D01*
X142371487Y-86775935D01*
X142375908Y-86848619D01*
X142387826Y-86897340D01*
X142410966Y-86935541D01*
X142449050Y-86976666D01*
X142459947Y-86987584D01*
X142520932Y-87042237D01*
X142571413Y-87065686D01*
X142632263Y-87066744D01*
X142644281Y-87065433D01*
X142719858Y-87052772D01*
X142779022Y-87036660D01*
X142784004Y-87034628D01*
X142803675Y-87029939D01*
X142816528Y-87041984D01*
X142823994Y-87078887D01*
X142827502Y-87148769D01*
X142828480Y-87259755D01*
X142828498Y-87287487D01*
X142827846Y-87407668D01*
X142824935Y-87485154D01*
X142818337Y-87528092D01*
X142806623Y-87544632D01*
X142788364Y-87542922D01*
X142784004Y-87541192D01*
X142654911Y-87507349D01*
X142542285Y-87521500D01*
X142445515Y-87583743D01*
X142432237Y-87597333D01*
X142407406Y-87626779D01*
X142390359Y-87658535D01*
X142379638Y-87702277D01*
X142373783Y-87767685D01*
X142371337Y-87864435D01*
X142370841Y-88002206D01*
X142370841Y-88345864D01*
X142453473Y-88337897D01*
X142536106Y-88329930D01*
X142543377Y-88051241D01*
X142550537Y-87902730D01*
X142564718Y-87798220D01*
X142588496Y-87731059D01*
X142624444Y-87694593D01*
X142675138Y-87682166D01*
X142686243Y-87681971D01*
X142737635Y-87686481D01*
X142773788Y-87704354D01*
X142797900Y-87743419D01*
X142813169Y-87811506D01*
X142822796Y-87916447D01*
X142828498Y-88030177D01*
X142841211Y-88329930D01*
X142924019Y-88337910D01*
X142990649Y-88334061D01*
X143019661Y-88312442D01*
X143022309Y-88280417D01*
X143024445Y-88203163D01*
X143026036Y-88086302D01*
X143027048Y-87935453D01*
X143027450Y-87756238D01*
X143027208Y-87554276D01*
X143026288Y-87335188D01*
X143025843Y-87262020D01*
X143022073Y-86685704D01*
X142828897Y-86685704D01*
X142816879Y-86775330D01*
X142792295Y-86839388D01*
X142786420Y-86846897D01*
X142719802Y-86888076D01*
X142645104Y-86882657D01*
X142595315Y-86851314D01*
X142565243Y-86796463D01*
X142549188Y-86711350D01*
X142547357Y-86614653D01*
X142559961Y-86525050D01*
X142587209Y-86461220D01*
X142590898Y-86456807D01*
X142656966Y-86416777D01*
X142732520Y-86417418D01*
X142788544Y-86450264D01*
X142814829Y-86504487D01*
X142828247Y-86589195D01*
X142828897Y-86685704D01*
X143022073Y-86685704D01*
X143019189Y-86245045D01*
X142947732Y-86236851D01*
X142882768Y-86240468D01*
X142841299Y-86257685D01*
X142794552Y-86273406D01*
X142755519Y-86259522D01*
X142657866Y-86233058D01*
X142555321Y-86246193D01*
X142555321Y-86246193D01*
G37*
X142555321Y-86246193D02*
X142464787Y-86293900D01*
X142407072Y-86363147D01*
X142385300Y-86438609D01*
X142373238Y-86559844D01*
X142370841Y-86665844D01*
X142371487Y-86775935D01*
X142375908Y-86848619D01*
X142387826Y-86897340D01*
X142410966Y-86935541D01*
X142449050Y-86976666D01*
X142459947Y-86987584D01*
X142520932Y-87042237D01*
X142571413Y-87065686D01*
X142632263Y-87066744D01*
X142644281Y-87065433D01*
X142719858Y-87052772D01*
X142779022Y-87036660D01*
X142784004Y-87034628D01*
X142803675Y-87029939D01*
X142816528Y-87041984D01*
X142823994Y-87078887D01*
X142827502Y-87148769D01*
X142828480Y-87259755D01*
X142828498Y-87287487D01*
X142827846Y-87407668D01*
X142824935Y-87485154D01*
X142818337Y-87528092D01*
X142806623Y-87544632D01*
X142788364Y-87542922D01*
X142784004Y-87541192D01*
X142654911Y-87507349D01*
X142542285Y-87521500D01*
X142445515Y-87583743D01*
X142432237Y-87597333D01*
X142407406Y-87626779D01*
X142390359Y-87658535D01*
X142379638Y-87702277D01*
X142373783Y-87767685D01*
X142371337Y-87864435D01*
X142370841Y-88002206D01*
X142370841Y-88345864D01*
X142453473Y-88337897D01*
X142536106Y-88329930D01*
X142543377Y-88051241D01*
X142550537Y-87902730D01*
X142564718Y-87798220D01*
X142588496Y-87731059D01*
X142624444Y-87694593D01*
X142675138Y-87682166D01*
X142686243Y-87681971D01*
X142737635Y-87686481D01*
X142773788Y-87704354D01*
X142797900Y-87743419D01*
X142813169Y-87811506D01*
X142822796Y-87916447D01*
X142828498Y-88030177D01*
X142841211Y-88329930D01*
X142924019Y-88337910D01*
X142990649Y-88334061D01*
X143019661Y-88312442D01*
X143022309Y-88280417D01*
X143024445Y-88203163D01*
X143026036Y-88086302D01*
X143027048Y-87935453D01*
X143027450Y-87756238D01*
X143027208Y-87554276D01*
X143026288Y-87335188D01*
X143025843Y-87262020D01*
X143022073Y-86685704D01*
X142828897Y-86685704D01*
X142816879Y-86775330D01*
X142792295Y-86839388D01*
X142786420Y-86846897D01*
X142719802Y-86888076D01*
X142645104Y-86882657D01*
X142595315Y-86851314D01*
X142565243Y-86796463D01*
X142549188Y-86711350D01*
X142547357Y-86614653D01*
X142559961Y-86525050D01*
X142587209Y-86461220D01*
X142590898Y-86456807D01*
X142656966Y-86416777D01*
X142732520Y-86417418D01*
X142788544Y-86450264D01*
X142814829Y-86504487D01*
X142828247Y-86589195D01*
X142828897Y-86685704D01*
X143022073Y-86685704D01*
X143019189Y-86245045D01*
X142947732Y-86236851D01*
X142882768Y-86240468D01*
X142841299Y-86257685D01*
X142794552Y-86273406D01*
X142755519Y-86259522D01*
X142657866Y-86233058D01*
X142555321Y-86246193D01*
G36*
X141855958Y-87509504D02*
X141754030Y-87538760D01*
X141672474Y-87586052D01*
X141624560Y-87648745D01*
X141620466Y-87661724D01*
X141615394Y-87709341D01*
X141612401Y-87795312D01*
X141611728Y-87907172D01*
X141613428Y-88024825D01*
X141616946Y-88153515D01*
X141621352Y-88240067D01*
X141628480Y-88293183D01*
X141640159Y-88321566D01*
X141658224Y-88333920D01*
X141679397Y-88338238D01*
X141738835Y-88334468D01*
X141769239Y-88320623D01*
X141817555Y-88309468D01*
X141837760Y-88318282D01*
X141896709Y-88335744D01*
X141980750Y-88339533D01*
X142066009Y-88329696D01*
X142106719Y-88317724D01*
X142174487Y-88270911D01*
X142232545Y-88198756D01*
X142265986Y-88121676D01*
X142269139Y-88095239D01*
X142262488Y-88066497D01*
X142089606Y-88066497D01*
X142075730Y-88116517D01*
X142060651Y-88134154D01*
X142012227Y-88155714D01*
X141937574Y-88164321D01*
X141860006Y-88158475D01*
X141826274Y-88149232D01*
X141795215Y-88112903D01*
X141786056Y-88060243D01*
X141790228Y-88013321D01*
X141812367Y-87992269D01*
X141866904Y-87986816D01*
X141889429Y-87986687D01*
X141991207Y-87997061D01*
X142059682Y-88025171D01*
X142089606Y-88066497D01*
X142262488Y-88066497D01*
X142247779Y-88002944D01*
X142192751Y-87919315D01*
X142117635Y-87864121D01*
X142107739Y-87860285D01*
X142035845Y-87844332D01*
X141943550Y-87835073D01*
X141907700Y-87834134D01*
X141833474Y-87832468D01*
X141797759Y-87822555D01*
X141788227Y-87797025D01*
X141790724Y-87764214D01*
X141801416Y-87719753D01*
X141829951Y-87697559D01*
X141891344Y-87687726D01*
X141908706Y-87686384D01*
X141984871Y-87687831D01*
X142042517Y-87701012D01*
X142053686Y-87707557D01*
X142090727Y-87721154D01*
X142139802Y-87699109D01*
X142152710Y-87690042D01*
X142202885Y-87648133D01*
X142211001Y-87615660D01*
X142176892Y-87577035D01*
X142151296Y-87556300D01*
X142067859Y-87515639D01*
X141964990Y-87500918D01*
X141855958Y-87509504D01*
X141855958Y-87509504D01*
G37*
X141855958Y-87509504D02*
X141754030Y-87538760D01*
X141672474Y-87586052D01*
X141624560Y-87648745D01*
X141620466Y-87661724D01*
X141615394Y-87709341D01*
X141612401Y-87795312D01*
X141611728Y-87907172D01*
X141613428Y-88024825D01*
X141616946Y-88153515D01*
X141621352Y-88240067D01*
X141628480Y-88293183D01*
X141640159Y-88321566D01*
X141658224Y-88333920D01*
X141679397Y-88338238D01*
X141738835Y-88334468D01*
X141769239Y-88320623D01*
X141817555Y-88309468D01*
X141837760Y-88318282D01*
X141896709Y-88335744D01*
X141980750Y-88339533D01*
X142066009Y-88329696D01*
X142106719Y-88317724D01*
X142174487Y-88270911D01*
X142232545Y-88198756D01*
X142265986Y-88121676D01*
X142269139Y-88095239D01*
X142262488Y-88066497D01*
X142089606Y-88066497D01*
X142075730Y-88116517D01*
X142060651Y-88134154D01*
X142012227Y-88155714D01*
X141937574Y-88164321D01*
X141860006Y-88158475D01*
X141826274Y-88149232D01*
X141795215Y-88112903D01*
X141786056Y-88060243D01*
X141790228Y-88013321D01*
X141812367Y-87992269D01*
X141866904Y-87986816D01*
X141889429Y-87986687D01*
X141991207Y-87997061D01*
X142059682Y-88025171D01*
X142089606Y-88066497D01*
X142262488Y-88066497D01*
X142247779Y-88002944D01*
X142192751Y-87919315D01*
X142117635Y-87864121D01*
X142107739Y-87860285D01*
X142035845Y-87844332D01*
X141943550Y-87835073D01*
X141907700Y-87834134D01*
X141833474Y-87832468D01*
X141797759Y-87822555D01*
X141788227Y-87797025D01*
X141790724Y-87764214D01*
X141801416Y-87719753D01*
X141829951Y-87697559D01*
X141891344Y-87687726D01*
X141908706Y-87686384D01*
X141984871Y-87687831D01*
X142042517Y-87701012D01*
X142053686Y-87707557D01*
X142090727Y-87721154D01*
X142139802Y-87699109D01*
X142152710Y-87690042D01*
X142202885Y-87648133D01*
X142211001Y-87615660D01*
X142176892Y-87577035D01*
X142151296Y-87556300D01*
X142067859Y-87515639D01*
X141964990Y-87500918D01*
X141855958Y-87509504D01*
G36*
X141282149Y-87511241D02*
X141247985Y-87529907D01*
X141246669Y-87532675D01*
X141226814Y-87549031D01*
X141182658Y-87532675D01*
X141096132Y-87506994D01*
X141003741Y-87510059D01*
X140935801Y-87537503D01*
X140905916Y-87564307D01*
X140906186Y-87592515D01*
X140933766Y-87639054D01*
X140971800Y-87684111D01*
X141017826Y-87697833D01*
X141070613Y-87693256D01*
X141136100Y-87687107D01*
X141182332Y-87695628D01*
X141213157Y-87725962D01*
X141232421Y-87785248D01*
X141243971Y-87880628D01*
X141251654Y-88019242D01*
X141252122Y-88030177D01*
X141264835Y-88329930D01*
X141347467Y-88337897D01*
X141430100Y-88345864D01*
X141430100Y-87503603D01*
X141343230Y-87503603D01*
X141282149Y-87511241D01*
X141282149Y-87511241D01*
G37*
X141282149Y-87511241D02*
X141247985Y-87529907D01*
X141246669Y-87532675D01*
X141226814Y-87549031D01*
X141182658Y-87532675D01*
X141096132Y-87506994D01*
X141003741Y-87510059D01*
X140935801Y-87537503D01*
X140905916Y-87564307D01*
X140906186Y-87592515D01*
X140933766Y-87639054D01*
X140971800Y-87684111D01*
X141017826Y-87697833D01*
X141070613Y-87693256D01*
X141136100Y-87687107D01*
X141182332Y-87695628D01*
X141213157Y-87725962D01*
X141232421Y-87785248D01*
X141243971Y-87880628D01*
X141251654Y-88019242D01*
X141252122Y-88030177D01*
X141264835Y-88329930D01*
X141347467Y-88337897D01*
X141430100Y-88345864D01*
X141430100Y-87503603D01*
X141343230Y-87503603D01*
X141282149Y-87511241D01*
G36*
X140240984Y-87751501D02*
X140247818Y-88329930D01*
X140330450Y-88337897D01*
X140390961Y-88336461D01*
X140412629Y-88314024D01*
X140413083Y-88307623D01*
X140418802Y-88283985D01*
X140444948Y-88287381D01*
X140483003Y-88305856D01*
X140598751Y-88338814D01*
X140719444Y-88323008D01*
X140737097Y-88316484D01*
X140788335Y-88279956D01*
X140839677Y-88220223D01*
X140846352Y-88210038D01*
X140871577Y-88162216D01*
X140886365Y-88109065D01*
X140892616Y-88036933D01*
X140892231Y-87932167D01*
X140892135Y-87928780D01*
X140718188Y-87928780D01*
X140703686Y-88039833D01*
X140664144Y-88118626D01*
X140605508Y-88160181D01*
X140533723Y-88159517D01*
X140477558Y-88130337D01*
X140443434Y-88082558D01*
X140424212Y-87995921D01*
X140420772Y-87958715D01*
X140423281Y-87831136D01*
X140452996Y-87744800D01*
X140511165Y-87697224D01*
X140557417Y-87686509D01*
X140635115Y-87698333D01*
X140687026Y-87752268D01*
X140713848Y-87849367D01*
X140718188Y-87928780D01*
X140892135Y-87928780D01*
X140891008Y-87889225D01*
X140886693Y-87777463D01*
X140879879Y-87703799D01*
X140866861Y-87655494D01*
X140843932Y-87619809D01*
X140807388Y-87584006D01*
X140800420Y-87577763D01*
X140704434Y-87520339D01*
X140598643Y-87502591D01*
X140498594Y-87526143D01*
X140469591Y-87543183D01*
X140413083Y-87582763D01*
X140413083Y-87173073D01*
X140234150Y-87173073D01*
X140240984Y-87751501D01*
X140240984Y-87751501D01*
G37*
X140240984Y-87751501D02*
X140247818Y-88329930D01*
X140330450Y-88337897D01*
X140390961Y-88336461D01*
X140412629Y-88314024D01*
X140413083Y-88307623D01*
X140418802Y-88283985D01*
X140444948Y-88287381D01*
X140483003Y-88305856D01*
X140598751Y-88338814D01*
X140719444Y-88323008D01*
X140737097Y-88316484D01*
X140788335Y-88279956D01*
X140839677Y-88220223D01*
X140846352Y-88210038D01*
X140871577Y-88162216D01*
X140886365Y-88109065D01*
X140892616Y-88036933D01*
X140892231Y-87932167D01*
X140892135Y-87928780D01*
X140718188Y-87928780D01*
X140703686Y-88039833D01*
X140664144Y-88118626D01*
X140605508Y-88160181D01*
X140533723Y-88159517D01*
X140477558Y-88130337D01*
X140443434Y-88082558D01*
X140424212Y-87995921D01*
X140420772Y-87958715D01*
X140423281Y-87831136D01*
X140452996Y-87744800D01*
X140511165Y-87697224D01*
X140557417Y-87686509D01*
X140635115Y-87698333D01*
X140687026Y-87752268D01*
X140713848Y-87849367D01*
X140718188Y-87928780D01*
X140892135Y-87928780D01*
X140891008Y-87889225D01*
X140886693Y-87777463D01*
X140879879Y-87703799D01*
X140866861Y-87655494D01*
X140843932Y-87619809D01*
X140807388Y-87584006D01*
X140800420Y-87577763D01*
X140704434Y-87520339D01*
X140598643Y-87502591D01*
X140498594Y-87526143D01*
X140469591Y-87543183D01*
X140413083Y-87582763D01*
X140413083Y-87173073D01*
X140234150Y-87173073D01*
X140240984Y-87751501D01*
G36*
X140034324Y-87505668D02*
X140005427Y-87516661D01*
X139981353Y-87543778D01*
X139958502Y-87594216D01*
X139933274Y-87675173D01*
X139902068Y-87793844D01*
X139877687Y-87891341D01*
X139857403Y-87960980D01*
X139839006Y-88004399D01*
X139831636Y-88011666D01*
X139817881Y-87988807D01*
X139793495Y-87927468D01*
X139762335Y-87837915D01*
X139738505Y-87763768D01*
X139702301Y-87651043D01*
X139674815Y-87578197D01*
X139650935Y-87536174D01*
X139625552Y-87515918D01*
X139594450Y-87508478D01*
X139563754Y-87507672D01*
X139539896Y-87519184D01*
X139517803Y-87551341D01*
X139492402Y-87612465D01*
X139458622Y-87710882D01*
X139443940Y-87755495D01*
X139408601Y-87858433D01*
X139377901Y-87938894D01*
X139355613Y-87987522D01*
X139346453Y-87997302D01*
X139334150Y-87968575D01*
X139312573Y-87902140D01*
X139285327Y-87809482D01*
X139268900Y-87750285D01*
X139205297Y-87516316D01*
X139107748Y-87508291D01*
X139045429Y-87505635D01*
X139021725Y-87516759D01*
X139024787Y-87549185D01*
X139027643Y-87559142D01*
X139075506Y-87717775D01*
X139123864Y-87872904D01*
X139170044Y-88016442D01*
X139211367Y-88140302D01*
X139245158Y-88236397D01*
X139268741Y-88296640D01*
X139276826Y-88312146D01*
X139319913Y-88334855D01*
X139366040Y-88337572D01*
X139395619Y-88329624D01*
X139419675Y-88308088D01*
X139442782Y-88264166D01*
X139469513Y-88189059D01*
X139504442Y-88073968D01*
X139506233Y-88067867D01*
X139540603Y-87958763D01*
X139570029Y-87880793D01*
X139591757Y-87840587D01*
X139601259Y-87839038D01*
X139616201Y-87877969D01*
X139639828Y-87951976D01*
X139667716Y-88047004D01*
X139675744Y-88075676D01*
X139710590Y-88194608D01*
X139739838Y-88272325D01*
X139768841Y-88317273D01*
X139802949Y-88337894D01*
X139844922Y-88342642D01*
X139896399Y-88330981D01*
X139917495Y-88310861D01*
X139935925Y-88255917D01*
X139963684Y-88169281D01*
X139997672Y-88061058D01*
X140034789Y-87941349D01*
X140071934Y-87820258D01*
X140106008Y-87707888D01*
X140133911Y-87614342D01*
X140152541Y-87549723D01*
X140158829Y-87524399D01*
X140136496Y-87510537D01*
X140081728Y-87503743D01*
X140071644Y-87503603D01*
X140034324Y-87505668D01*
X140034324Y-87505668D01*
G37*
X140034324Y-87505668D02*
X140005427Y-87516661D01*
X139981353Y-87543778D01*
X139958502Y-87594216D01*
X139933274Y-87675173D01*
X139902068Y-87793844D01*
X139877687Y-87891341D01*
X139857403Y-87960980D01*
X139839006Y-88004399D01*
X139831636Y-88011666D01*
X139817881Y-87988807D01*
X139793495Y-87927468D01*
X139762335Y-87837915D01*
X139738505Y-87763768D01*
X139702301Y-87651043D01*
X139674815Y-87578197D01*
X139650935Y-87536174D01*
X139625552Y-87515918D01*
X139594450Y-87508478D01*
X139563754Y-87507672D01*
X139539896Y-87519184D01*
X139517803Y-87551341D01*
X139492402Y-87612465D01*
X139458622Y-87710882D01*
X139443940Y-87755495D01*
X139408601Y-87858433D01*
X139377901Y-87938894D01*
X139355613Y-87987522D01*
X139346453Y-87997302D01*
X139334150Y-87968575D01*
X139312573Y-87902140D01*
X139285327Y-87809482D01*
X139268900Y-87750285D01*
X139205297Y-87516316D01*
X139107748Y-87508291D01*
X139045429Y-87505635D01*
X139021725Y-87516759D01*
X139024787Y-87549185D01*
X139027643Y-87559142D01*
X139075506Y-87717775D01*
X139123864Y-87872904D01*
X139170044Y-88016442D01*
X139211367Y-88140302D01*
X139245158Y-88236397D01*
X139268741Y-88296640D01*
X139276826Y-88312146D01*
X139319913Y-88334855D01*
X139366040Y-88337572D01*
X139395619Y-88329624D01*
X139419675Y-88308088D01*
X139442782Y-88264166D01*
X139469513Y-88189059D01*
X139504442Y-88073968D01*
X139506233Y-88067867D01*
X139540603Y-87958763D01*
X139570029Y-87880793D01*
X139591757Y-87840587D01*
X139601259Y-87839038D01*
X139616201Y-87877969D01*
X139639828Y-87951976D01*
X139667716Y-88047004D01*
X139675744Y-88075676D01*
X139710590Y-88194608D01*
X139739838Y-88272325D01*
X139768841Y-88317273D01*
X139802949Y-88337894D01*
X139844922Y-88342642D01*
X139896399Y-88330981D01*
X139917495Y-88310861D01*
X139935925Y-88255917D01*
X139963684Y-88169281D01*
X139997672Y-88061058D01*
X140034789Y-87941349D01*
X140071934Y-87820258D01*
X140106008Y-87707888D01*
X140133911Y-87614342D01*
X140152541Y-87549723D01*
X140158829Y-87524399D01*
X140136496Y-87510537D01*
X140081728Y-87503743D01*
X140071644Y-87503603D01*
X140034324Y-87505668D01*
G36*
X138588860Y-87513632D02*
X138497027Y-87538614D01*
X138440934Y-87569970D01*
X138401176Y-87614974D01*
X138375521Y-87681508D01*
X138361738Y-87777457D01*
X138357596Y-87910704D01*
X138359126Y-88025795D01*
X138362586Y-88154246D01*
X138366962Y-88240572D01*
X138374091Y-88293492D01*
X138385809Y-88321723D01*
X138403953Y-88333983D01*
X138424943Y-88338238D01*
X138483995Y-88335157D01*
X138513932Y-88322311D01*
X138560520Y-88311128D01*
X138595165Y-88318572D01*
X138690434Y-88337534D01*
X138798965Y-88331553D01*
X138862132Y-88314478D01*
X138945807Y-88256765D01*
X138998786Y-88169797D01*
X139012552Y-88088208D01*
X138835771Y-88088208D01*
X138821541Y-88134621D01*
X138804925Y-88147826D01*
X138741560Y-88160770D01*
X138664124Y-88161150D01*
X138595474Y-88150254D01*
X138562112Y-88134154D01*
X138537481Y-88085450D01*
X138531602Y-88045165D01*
X138537330Y-88008713D01*
X138563552Y-87991608D01*
X138623823Y-87986796D01*
X138643937Y-87986687D01*
X138722623Y-87990060D01*
X138783923Y-87998502D01*
X138796489Y-88002119D01*
X138826935Y-88035656D01*
X138835771Y-88088208D01*
X139012552Y-88088208D01*
X139015914Y-88068289D01*
X138992035Y-87966958D01*
X138987213Y-87957437D01*
X138931073Y-87901094D01*
X138837286Y-87859362D01*
X138718055Y-87836810D01*
X138657857Y-87834134D01*
X138581869Y-87832612D01*
X138544577Y-87823388D01*
X138533826Y-87799473D01*
X138536269Y-87764214D01*
X138545725Y-87721926D01*
X138570795Y-87699825D01*
X138625564Y-87689630D01*
X138668632Y-87686400D01*
X138746306Y-87686605D01*
X138803323Y-87696041D01*
X138818255Y-87703810D01*
X138855183Y-87710199D01*
X138904819Y-87689220D01*
X138947531Y-87652747D01*
X138963834Y-87615747D01*
X138940735Y-87571674D01*
X138879538Y-87537418D01*
X138792394Y-87514988D01*
X138691451Y-87506390D01*
X138588860Y-87513632D01*
X138588860Y-87513632D01*
G37*
X138588860Y-87513632D02*
X138497027Y-87538614D01*
X138440934Y-87569970D01*
X138401176Y-87614974D01*
X138375521Y-87681508D01*
X138361738Y-87777457D01*
X138357596Y-87910704D01*
X138359126Y-88025795D01*
X138362586Y-88154246D01*
X138366962Y-88240572D01*
X138374091Y-88293492D01*
X138385809Y-88321723D01*
X138403953Y-88333983D01*
X138424943Y-88338238D01*
X138483995Y-88335157D01*
X138513932Y-88322311D01*
X138560520Y-88311128D01*
X138595165Y-88318572D01*
X138690434Y-88337534D01*
X138798965Y-88331553D01*
X138862132Y-88314478D01*
X138945807Y-88256765D01*
X138998786Y-88169797D01*
X139012552Y-88088208D01*
X138835771Y-88088208D01*
X138821541Y-88134621D01*
X138804925Y-88147826D01*
X138741560Y-88160770D01*
X138664124Y-88161150D01*
X138595474Y-88150254D01*
X138562112Y-88134154D01*
X138537481Y-88085450D01*
X138531602Y-88045165D01*
X138537330Y-88008713D01*
X138563552Y-87991608D01*
X138623823Y-87986796D01*
X138643937Y-87986687D01*
X138722623Y-87990060D01*
X138783923Y-87998502D01*
X138796489Y-88002119D01*
X138826935Y-88035656D01*
X138835771Y-88088208D01*
X139012552Y-88088208D01*
X139015914Y-88068289D01*
X138992035Y-87966958D01*
X138987213Y-87957437D01*
X138931073Y-87901094D01*
X138837286Y-87859362D01*
X138718055Y-87836810D01*
X138657857Y-87834134D01*
X138581869Y-87832612D01*
X138544577Y-87823388D01*
X138533826Y-87799473D01*
X138536269Y-87764214D01*
X138545725Y-87721926D01*
X138570795Y-87699825D01*
X138625564Y-87689630D01*
X138668632Y-87686400D01*
X138746306Y-87686605D01*
X138803323Y-87696041D01*
X138818255Y-87703810D01*
X138855183Y-87710199D01*
X138904819Y-87689220D01*
X138947531Y-87652747D01*
X138963834Y-87615747D01*
X138940735Y-87571674D01*
X138879538Y-87537418D01*
X138792394Y-87514988D01*
X138691451Y-87506390D01*
X138588860Y-87513632D01*
G36*
X138045041Y-87512515D02*
X138023094Y-87539981D01*
X138023093Y-87540234D01*
X138017046Y-87562615D01*
X137990011Y-87558336D01*
X137953173Y-87540390D01*
X137855513Y-87509105D01*
X137756485Y-87509197D01*
X137678353Y-87539693D01*
X137647255Y-87566287D01*
X137647436Y-87590666D01*
X137680776Y-87630876D01*
X137688749Y-87639383D01*
X137746692Y-87684747D01*
X137811615Y-87692665D01*
X137828589Y-87690469D01*
X137913567Y-87694544D01*
X137959530Y-87715807D01*
X137981848Y-87737825D01*
X137997174Y-87771053D01*
X138007243Y-87825188D01*
X138013786Y-87909930D01*
X138018537Y-88034975D01*
X138018925Y-88048151D01*
X138027469Y-88342642D01*
X138097320Y-88342642D01*
X138154736Y-88337032D01*
X138184121Y-88325692D01*
X138189897Y-88295697D01*
X138194829Y-88223894D01*
X138198549Y-88119324D01*
X138200693Y-87991028D01*
X138201071Y-87906173D01*
X138201071Y-87503603D01*
X138112082Y-87503603D01*
X138045041Y-87512515D01*
X138045041Y-87512515D01*
G37*
X138045041Y-87512515D02*
X138023094Y-87539981D01*
X138023093Y-87540234D01*
X138017046Y-87562615D01*
X137990011Y-87558336D01*
X137953173Y-87540390D01*
X137855513Y-87509105D01*
X137756485Y-87509197D01*
X137678353Y-87539693D01*
X137647255Y-87566287D01*
X137647436Y-87590666D01*
X137680776Y-87630876D01*
X137688749Y-87639383D01*
X137746692Y-87684747D01*
X137811615Y-87692665D01*
X137828589Y-87690469D01*
X137913567Y-87694544D01*
X137959530Y-87715807D01*
X137981848Y-87737825D01*
X137997174Y-87771053D01*
X138007243Y-87825188D01*
X138013786Y-87909930D01*
X138018537Y-88034975D01*
X138018925Y-88048151D01*
X138027469Y-88342642D01*
X138097320Y-88342642D01*
X138154736Y-88337032D01*
X138184121Y-88325692D01*
X138189897Y-88295697D01*
X138194829Y-88223894D01*
X138198549Y-88119324D01*
X138200693Y-87991028D01*
X138201071Y-87906173D01*
X138201071Y-87503603D01*
X138112082Y-87503603D01*
X138045041Y-87512515D01*
G36*
X137151104Y-87545022D02*
X137056099Y-87618909D01*
X136993589Y-87729238D01*
X136972188Y-87819179D01*
X136965073Y-87895238D01*
X136965945Y-87950203D01*
X136969564Y-87963892D01*
X136999544Y-87973773D01*
X137068405Y-87981495D01*
X137164190Y-87985984D01*
X137223693Y-87986687D01*
X137349625Y-87989616D01*
X137428775Y-88000116D01*
X137464964Y-88020756D01*
X137462013Y-88054102D01*
X137423745Y-88102723D01*
X137412883Y-88113814D01*
X137337889Y-88156013D01*
X137248144Y-88159937D01*
X137167069Y-88127034D01*
X137125542Y-88104741D01*
X137088836Y-88112056D01*
X137046041Y-88142345D01*
X137002743Y-88182632D01*
X136997398Y-88212946D01*
X137011475Y-88234765D01*
X137093360Y-88297104D01*
X137203048Y-88331663D01*
X137324353Y-88336176D01*
X137441091Y-88308376D01*
X137463734Y-88298108D01*
X137556791Y-88224228D01*
X137615980Y-88112956D01*
X137640851Y-87965231D01*
X137641672Y-87928663D01*
X137625961Y-87774099D01*
X137460648Y-87774099D01*
X137459197Y-87808249D01*
X137411337Y-87827721D01*
X137315522Y-87834127D01*
X137311181Y-87834134D01*
X137221364Y-87830914D01*
X137173408Y-87819877D01*
X137158651Y-87798963D01*
X137158629Y-87797812D01*
X137180216Y-87738418D01*
X137234555Y-87699145D01*
X137306011Y-87684475D01*
X137378948Y-87698893D01*
X137417237Y-87723660D01*
X137460648Y-87774099D01*
X137625961Y-87774099D01*
X137625322Y-87767818D01*
X137576993Y-87644535D01*
X137497913Y-87560209D01*
X137389307Y-87516233D01*
X137274620Y-87511628D01*
X137151104Y-87545022D01*
X137151104Y-87545022D01*
G37*
X137151104Y-87545022D02*
X137056099Y-87618909D01*
X136993589Y-87729238D01*
X136972188Y-87819179D01*
X136965073Y-87895238D01*
X136965945Y-87950203D01*
X136969564Y-87963892D01*
X136999544Y-87973773D01*
X137068405Y-87981495D01*
X137164190Y-87985984D01*
X137223693Y-87986687D01*
X137349625Y-87989616D01*
X137428775Y-88000116D01*
X137464964Y-88020756D01*
X137462013Y-88054102D01*
X137423745Y-88102723D01*
X137412883Y-88113814D01*
X137337889Y-88156013D01*
X137248144Y-88159937D01*
X137167069Y-88127034D01*
X137125542Y-88104741D01*
X137088836Y-88112056D01*
X137046041Y-88142345D01*
X137002743Y-88182632D01*
X136997398Y-88212946D01*
X137011475Y-88234765D01*
X137093360Y-88297104D01*
X137203048Y-88331663D01*
X137324353Y-88336176D01*
X137441091Y-88308376D01*
X137463734Y-88298108D01*
X137556791Y-88224228D01*
X137615980Y-88112956D01*
X137640851Y-87965231D01*
X137641672Y-87928663D01*
X137625961Y-87774099D01*
X137460648Y-87774099D01*
X137459197Y-87808249D01*
X137411337Y-87827721D01*
X137315522Y-87834127D01*
X137311181Y-87834134D01*
X137221364Y-87830914D01*
X137173408Y-87819877D01*
X137158651Y-87798963D01*
X137158629Y-87797812D01*
X137180216Y-87738418D01*
X137234555Y-87699145D01*
X137306011Y-87684475D01*
X137378948Y-87698893D01*
X137417237Y-87723660D01*
X137460648Y-87774099D01*
X137625961Y-87774099D01*
X137625322Y-87767818D01*
X137576993Y-87644535D01*
X137497913Y-87560209D01*
X137389307Y-87516233D01*
X137274620Y-87511628D01*
X137151104Y-87545022D01*
G36*
X143404394Y-86240692D02*
X143298447Y-86279936D01*
X143211935Y-86355037D01*
X143197688Y-86374945D01*
X143157938Y-86471255D01*
X143139096Y-86594686D01*
X143141943Y-86725660D01*
X143167257Y-86844601D01*
X143177894Y-86871771D01*
X143249410Y-86977943D01*
X143347719Y-87044732D01*
X143464217Y-87069265D01*
X143590299Y-87048667D01*
X143642112Y-87026837D01*
X143720170Y-86967876D01*
X143775556Y-86893393D01*
X143806648Y-86792622D01*
X143818965Y-86666701D01*
X143816670Y-86623399D01*
X143639635Y-86623399D01*
X143636736Y-86670831D01*
X143615382Y-86788836D01*
X143573067Y-86864104D01*
X143512306Y-86894730D01*
X143435613Y-86878806D01*
X143394530Y-86854524D01*
X143346060Y-86792792D01*
X143320404Y-86702919D01*
X143318234Y-86602542D01*
X143340223Y-86509297D01*
X143379039Y-86448187D01*
X143445201Y-86414303D01*
X143523157Y-86420275D01*
X143594111Y-86464011D01*
X143624488Y-86502605D01*
X143638511Y-86550149D01*
X143639635Y-86623399D01*
X143816670Y-86623399D01*
X143812135Y-86537888D01*
X143785781Y-86428441D01*
X143783482Y-86422763D01*
X143719319Y-86328339D01*
X143626781Y-86265869D01*
X143517822Y-86236328D01*
X143404394Y-86240692D01*
X143404394Y-86240692D01*
G37*
X143404394Y-86240692D02*
X143298447Y-86279936D01*
X143211935Y-86355037D01*
X143197688Y-86374945D01*
X143157938Y-86471255D01*
X143139096Y-86594686D01*
X143141943Y-86725660D01*
X143167257Y-86844601D01*
X143177894Y-86871771D01*
X143249410Y-86977943D01*
X143347719Y-87044732D01*
X143464217Y-87069265D01*
X143590299Y-87048667D01*
X143642112Y-87026837D01*
X143720170Y-86967876D01*
X143775556Y-86893393D01*
X143806648Y-86792622D01*
X143818965Y-86666701D01*
X143816670Y-86623399D01*
X143639635Y-86623399D01*
X143636736Y-86670831D01*
X143615382Y-86788836D01*
X143573067Y-86864104D01*
X143512306Y-86894730D01*
X143435613Y-86878806D01*
X143394530Y-86854524D01*
X143346060Y-86792792D01*
X143320404Y-86702919D01*
X143318234Y-86602542D01*
X143340223Y-86509297D01*
X143379039Y-86448187D01*
X143445201Y-86414303D01*
X143523157Y-86420275D01*
X143594111Y-86464011D01*
X143624488Y-86502605D01*
X143638511Y-86550149D01*
X143639635Y-86623399D01*
X143816670Y-86623399D01*
X143812135Y-86537888D01*
X143785781Y-86428441D01*
X143783482Y-86422763D01*
X143719319Y-86328339D01*
X143626781Y-86265869D01*
X143517822Y-86236328D01*
X143404394Y-86240692D01*
G36*
X141806602Y-86258442D02*
X141767604Y-86274898D01*
X141684751Y-86340070D01*
X141622218Y-86440203D01*
X141587636Y-86561017D01*
X141583211Y-86620070D01*
X141582653Y-86715415D01*
X141836907Y-86715415D01*
X141966735Y-86718050D01*
X142049896Y-86727615D01*
X142090379Y-86746606D01*
X142092173Y-86777514D01*
X142059268Y-86822833D01*
X142040310Y-86842542D01*
X141966412Y-86883734D01*
X141874745Y-86890060D01*
X141785448Y-86860549D01*
X141776893Y-86855243D01*
X141732951Y-86832446D01*
X141699506Y-86841455D01*
X141662978Y-86876370D01*
X141626779Y-86919307D01*
X141624658Y-86946612D01*
X141652225Y-86976315D01*
X141759840Y-87041460D01*
X141887065Y-87067997D01*
X142018391Y-87054093D01*
X142088208Y-87027830D01*
X142170386Y-86960779D01*
X142229038Y-86859221D01*
X142261614Y-86734972D01*
X142265563Y-86599848D01*
X142254047Y-86543095D01*
X142091161Y-86543095D01*
X142068061Y-86553521D01*
X142008019Y-86560684D01*
X141938609Y-86562863D01*
X141852678Y-86560698D01*
X141806251Y-86551954D01*
X141788080Y-86533257D01*
X141786056Y-86517097D01*
X141807055Y-86457628D01*
X141859722Y-86420103D01*
X141928560Y-86407458D01*
X141998074Y-86422626D01*
X142051581Y-86466818D01*
X142081060Y-86515517D01*
X142091161Y-86543095D01*
X142254047Y-86543095D01*
X142238335Y-86465664D01*
X142219728Y-86418353D01*
X142148584Y-86315588D01*
X142051023Y-86253097D01*
X141934533Y-86233257D01*
X141806602Y-86258442D01*
X141806602Y-86258442D01*
G37*
X141806602Y-86258442D02*
X141767604Y-86274898D01*
X141684751Y-86340070D01*
X141622218Y-86440203D01*
X141587636Y-86561017D01*
X141583211Y-86620070D01*
X141582653Y-86715415D01*
X141836907Y-86715415D01*
X141966735Y-86718050D01*
X142049896Y-86727615D01*
X142090379Y-86746606D01*
X142092173Y-86777514D01*
X142059268Y-86822833D01*
X142040310Y-86842542D01*
X141966412Y-86883734D01*
X141874745Y-86890060D01*
X141785448Y-86860549D01*
X141776893Y-86855243D01*
X141732951Y-86832446D01*
X141699506Y-86841455D01*
X141662978Y-86876370D01*
X141626779Y-86919307D01*
X141624658Y-86946612D01*
X141652225Y-86976315D01*
X141759840Y-87041460D01*
X141887065Y-87067997D01*
X142018391Y-87054093D01*
X142088208Y-87027830D01*
X142170386Y-86960779D01*
X142229038Y-86859221D01*
X142261614Y-86734972D01*
X142265563Y-86599848D01*
X142254047Y-86543095D01*
X142091161Y-86543095D01*
X142068061Y-86553521D01*
X142008019Y-86560684D01*
X141938609Y-86562863D01*
X141852678Y-86560698D01*
X141806251Y-86551954D01*
X141788080Y-86533257D01*
X141786056Y-86517097D01*
X141807055Y-86457628D01*
X141859722Y-86420103D01*
X141928560Y-86407458D01*
X141998074Y-86422626D01*
X142051581Y-86466818D01*
X142081060Y-86515517D01*
X142091161Y-86543095D01*
X142254047Y-86543095D01*
X142238335Y-86465664D01*
X142219728Y-86418353D01*
X142148584Y-86315588D01*
X142051023Y-86253097D01*
X141934533Y-86233257D01*
X141806602Y-86258442D01*
G36*
X140997998Y-86248734D02*
X140901843Y-86305172D01*
X140864950Y-86343366D01*
X140846491Y-86374030D01*
X140833846Y-86418493D01*
X140825984Y-86485872D01*
X140821872Y-86585280D01*
X140820476Y-86725834D01*
X140820455Y-86736095D01*
X140819890Y-87074593D01*
X140902523Y-87066626D01*
X140985155Y-87058659D01*
X140992426Y-86779970D01*
X140999586Y-86631459D01*
X141013767Y-86526949D01*
X141037545Y-86459788D01*
X141073493Y-86423321D01*
X141124187Y-86410895D01*
X141135292Y-86410699D01*
X141186685Y-86415210D01*
X141222837Y-86433082D01*
X141246949Y-86472147D01*
X141262219Y-86540235D01*
X141271845Y-86645176D01*
X141277548Y-86758906D01*
X141290260Y-87058659D01*
X141373068Y-87066639D01*
X141441034Y-87062419D01*
X141469123Y-87040096D01*
X141473329Y-87003525D01*
X141476022Y-86926014D01*
X141477054Y-86817459D01*
X141476279Y-86687752D01*
X141475304Y-86625309D01*
X141468238Y-86245045D01*
X141396781Y-86236851D01*
X141331817Y-86240468D01*
X141290348Y-86257685D01*
X141243601Y-86273406D01*
X141204568Y-86259522D01*
X141103683Y-86232339D01*
X140997998Y-86248734D01*
X140997998Y-86248734D01*
G37*
X140997998Y-86248734D02*
X140901843Y-86305172D01*
X140864950Y-86343366D01*
X140846491Y-86374030D01*
X140833846Y-86418493D01*
X140825984Y-86485872D01*
X140821872Y-86585280D01*
X140820476Y-86725834D01*
X140820455Y-86736095D01*
X140819890Y-87074593D01*
X140902523Y-87066626D01*
X140985155Y-87058659D01*
X140992426Y-86779970D01*
X140999586Y-86631459D01*
X141013767Y-86526949D01*
X141037545Y-86459788D01*
X141073493Y-86423321D01*
X141124187Y-86410895D01*
X141135292Y-86410699D01*
X141186685Y-86415210D01*
X141222837Y-86433082D01*
X141246949Y-86472147D01*
X141262219Y-86540235D01*
X141271845Y-86645176D01*
X141277548Y-86758906D01*
X141290260Y-87058659D01*
X141373068Y-87066639D01*
X141441034Y-87062419D01*
X141469123Y-87040096D01*
X141473329Y-87003525D01*
X141476022Y-86926014D01*
X141477054Y-86817459D01*
X141476279Y-86687752D01*
X141475304Y-86625309D01*
X141468238Y-86245045D01*
X141396781Y-86236851D01*
X141331817Y-86240468D01*
X141290348Y-86257685D01*
X141243601Y-86273406D01*
X141204568Y-86259522D01*
X141103683Y-86232339D01*
X140997998Y-86248734D01*
G36*
X139859433Y-86259716D02*
X139801284Y-86283993D01*
X139700020Y-86335655D01*
X139745090Y-86398509D01*
X139792714Y-86443682D01*
X139841011Y-86445278D01*
X139896864Y-86433049D01*
X139977787Y-86421146D01*
X140012493Y-86417308D01*
X140089524Y-86413441D01*
X140130911Y-86423660D01*
X140150107Y-86449681D01*
X140146685Y-86499257D01*
X140101468Y-86537876D01*
X140023237Y-86559870D01*
X139974729Y-86562863D01*
X139852471Y-86581678D01*
X139760601Y-86633642D01*
X139704289Y-86712031D01*
X139688708Y-86810119D01*
X139711717Y-86904841D01*
X139772705Y-86988659D01*
X139868438Y-87044324D01*
X139989668Y-87069191D01*
X140127150Y-87060616D01*
X140196967Y-87043612D01*
X140275938Y-87009389D01*
X140336479Y-86971329D01*
X140399715Y-86922218D01*
X140340238Y-86858908D01*
X140280762Y-86795598D01*
X140200726Y-86844400D01*
X140117384Y-86880340D01*
X140031860Y-86893765D01*
X139956121Y-86886246D01*
X139902132Y-86859360D01*
X139881857Y-86814678D01*
X139883107Y-86802632D01*
X139903645Y-86771693D01*
X139957599Y-86747204D01*
X140044517Y-86726711D01*
X140154684Y-86703586D01*
X140225986Y-86681659D01*
X140269899Y-86654931D01*
X140297897Y-86617402D01*
X140311963Y-86586885D01*
X140333055Y-86480719D01*
X140312310Y-86380748D01*
X140253636Y-86301056D01*
X140227369Y-86282065D01*
X140118242Y-86241851D01*
X139989278Y-86234430D01*
X139859433Y-86259716D01*
X139859433Y-86259716D01*
G37*
X139859433Y-86259716D02*
X139801284Y-86283993D01*
X139700020Y-86335655D01*
X139745090Y-86398509D01*
X139792714Y-86443682D01*
X139841011Y-86445278D01*
X139896864Y-86433049D01*
X139977787Y-86421146D01*
X140012493Y-86417308D01*
X140089524Y-86413441D01*
X140130911Y-86423660D01*
X140150107Y-86449681D01*
X140146685Y-86499257D01*
X140101468Y-86537876D01*
X140023237Y-86559870D01*
X139974729Y-86562863D01*
X139852471Y-86581678D01*
X139760601Y-86633642D01*
X139704289Y-86712031D01*
X139688708Y-86810119D01*
X139711717Y-86904841D01*
X139772705Y-86988659D01*
X139868438Y-87044324D01*
X139989668Y-87069191D01*
X140127150Y-87060616D01*
X140196967Y-87043612D01*
X140275938Y-87009389D01*
X140336479Y-86971329D01*
X140399715Y-86922218D01*
X140340238Y-86858908D01*
X140280762Y-86795598D01*
X140200726Y-86844400D01*
X140117384Y-86880340D01*
X140031860Y-86893765D01*
X139956121Y-86886246D01*
X139902132Y-86859360D01*
X139881857Y-86814678D01*
X139883107Y-86802632D01*
X139903645Y-86771693D01*
X139957599Y-86747204D01*
X140044517Y-86726711D01*
X140154684Y-86703586D01*
X140225986Y-86681659D01*
X140269899Y-86654931D01*
X140297897Y-86617402D01*
X140311963Y-86586885D01*
X140333055Y-86480719D01*
X140312310Y-86380748D01*
X140253636Y-86301056D01*
X140227369Y-86282065D01*
X140118242Y-86241851D01*
X139989278Y-86234430D01*
X139859433Y-86259716D01*
G36*
X139151849Y-86256642D02*
X139050856Y-86313295D01*
X139030835Y-86331574D01*
X138990222Y-86376281D01*
X138965541Y-86420217D01*
X138951934Y-86478697D01*
X138944544Y-86567039D01*
X138942411Y-86610403D01*
X138944095Y-86759401D01*
X138967159Y-86870450D01*
X139015298Y-86953279D01*
X139092207Y-87017616D01*
X139098552Y-87021550D01*
X139202931Y-87060484D01*
X139320392Y-87067364D01*
X139408779Y-87047115D01*
X139461264Y-87013998D01*
X139518452Y-86962740D01*
X139520790Y-86960247D01*
X139573517Y-86871498D01*
X139604058Y-86752867D01*
X139609619Y-86654351D01*
X139421491Y-86654351D01*
X139418826Y-86746411D01*
X139408028Y-86802608D01*
X139384895Y-86837774D01*
X139364983Y-86853813D01*
X139284164Y-86889909D01*
X139211476Y-86876643D01*
X139167237Y-86842542D01*
X139134354Y-86793546D01*
X139119007Y-86721952D01*
X139116386Y-86651852D01*
X139130790Y-86533091D01*
X139172755Y-86452751D01*
X139240407Y-86413716D01*
X139273293Y-86410310D01*
X139346494Y-86426843D01*
X139393677Y-86479264D01*
X139417415Y-86571809D01*
X139421491Y-86654351D01*
X139609619Y-86654351D01*
X139611522Y-86620650D01*
X139595013Y-86491142D01*
X139553639Y-86380642D01*
X139552668Y-86378939D01*
X139479454Y-86298435D01*
X139379407Y-86250415D01*
X139265786Y-86236083D01*
X139151849Y-86256642D01*
X139151849Y-86256642D01*
G37*
X139151849Y-86256642D02*
X139050856Y-86313295D01*
X139030835Y-86331574D01*
X138990222Y-86376281D01*
X138965541Y-86420217D01*
X138951934Y-86478697D01*
X138944544Y-86567039D01*
X138942411Y-86610403D01*
X138944095Y-86759401D01*
X138967159Y-86870450D01*
X139015298Y-86953279D01*
X139092207Y-87017616D01*
X139098552Y-87021550D01*
X139202931Y-87060484D01*
X139320392Y-87067364D01*
X139408779Y-87047115D01*
X139461264Y-87013998D01*
X139518452Y-86962740D01*
X139520790Y-86960247D01*
X139573517Y-86871498D01*
X139604058Y-86752867D01*
X139609619Y-86654351D01*
X139421491Y-86654351D01*
X139418826Y-86746411D01*
X139408028Y-86802608D01*
X139384895Y-86837774D01*
X139364983Y-86853813D01*
X139284164Y-86889909D01*
X139211476Y-86876643D01*
X139167237Y-86842542D01*
X139134354Y-86793546D01*
X139119007Y-86721952D01*
X139116386Y-86651852D01*
X139130790Y-86533091D01*
X139172755Y-86452751D01*
X139240407Y-86413716D01*
X139273293Y-86410310D01*
X139346494Y-86426843D01*
X139393677Y-86479264D01*
X139417415Y-86571809D01*
X139421491Y-86654351D01*
X139609619Y-86654351D01*
X139611522Y-86620650D01*
X139595013Y-86491142D01*
X139553639Y-86380642D01*
X139552668Y-86378939D01*
X139479454Y-86298435D01*
X139379407Y-86250415D01*
X139265786Y-86236083D01*
X139151849Y-86256642D01*
G36*
X138633303Y-86512012D02*
X138632271Y-86637982D01*
X138628094Y-86723671D01*
X138619149Y-86779624D01*
X138603813Y-86816388D01*
X138582452Y-86842542D01*
X138527103Y-86880636D01*
X138480751Y-86893393D01*
X138425401Y-86876137D01*
X138379049Y-86842542D01*
X138356333Y-86814151D01*
X138341513Y-86776355D01*
X138332966Y-86718610D01*
X138329070Y-86630367D01*
X138328198Y-86512012D01*
X138328198Y-86232332D01*
X138148961Y-86232332D01*
X138155947Y-86645495D01*
X138162933Y-87058659D01*
X138245566Y-87066626D01*
X138305220Y-87065597D01*
X138327308Y-87043949D01*
X138328198Y-87034191D01*
X138333031Y-87009224D01*
X138356519Y-87010329D01*
X138403212Y-87032580D01*
X138519491Y-87067547D01*
X138634237Y-87051875D01*
X138646016Y-87047335D01*
X138701015Y-87012865D01*
X138747718Y-86970083D01*
X138768813Y-86941098D01*
X138783714Y-86902626D01*
X138793817Y-86845287D01*
X138800520Y-86759701D01*
X138805223Y-86636485D01*
X138806895Y-86572988D01*
X138815221Y-86232332D01*
X138633303Y-86232332D01*
X138633303Y-86512012D01*
X138633303Y-86512012D01*
G37*
X138633303Y-86512012D02*
X138632271Y-86637982D01*
X138628094Y-86723671D01*
X138619149Y-86779624D01*
X138603813Y-86816388D01*
X138582452Y-86842542D01*
X138527103Y-86880636D01*
X138480751Y-86893393D01*
X138425401Y-86876137D01*
X138379049Y-86842542D01*
X138356333Y-86814151D01*
X138341513Y-86776355D01*
X138332966Y-86718610D01*
X138329070Y-86630367D01*
X138328198Y-86512012D01*
X138328198Y-86232332D01*
X138148961Y-86232332D01*
X138155947Y-86645495D01*
X138162933Y-87058659D01*
X138245566Y-87066626D01*
X138305220Y-87065597D01*
X138327308Y-87043949D01*
X138328198Y-87034191D01*
X138333031Y-87009224D01*
X138356519Y-87010329D01*
X138403212Y-87032580D01*
X138519491Y-87067547D01*
X138634237Y-87051875D01*
X138646016Y-87047335D01*
X138701015Y-87012865D01*
X138747718Y-86970083D01*
X138768813Y-86941098D01*
X138783714Y-86902626D01*
X138793817Y-86845287D01*
X138800520Y-86759701D01*
X138805223Y-86636485D01*
X138806895Y-86572988D01*
X138815221Y-86232332D01*
X138633303Y-86232332D01*
X138633303Y-86512012D01*
G36*
X137843802Y-86240102D02*
X137820152Y-86265645D01*
X137819690Y-86271912D01*
X137815094Y-86297279D01*
X137792306Y-86291308D01*
X137763182Y-86271912D01*
X137684986Y-86240903D01*
X137590204Y-86234362D01*
X137503763Y-86252591D01*
X137474950Y-86268421D01*
X137444233Y-86294730D01*
X137444123Y-86319070D01*
X137476772Y-86358944D01*
X137487491Y-86370396D01*
X137542013Y-86415652D01*
X137599024Y-86425397D01*
X137631304Y-86420913D01*
X137704021Y-86419295D01*
X137760462Y-86452954D01*
X137766456Y-86458778D01*
X137790136Y-86487475D01*
X137805593Y-86523958D01*
X137814532Y-86578903D01*
X137818662Y-86662985D01*
X137819689Y-86786879D01*
X137819690Y-86791692D01*
X137819690Y-87071371D01*
X137997668Y-87071371D01*
X137997668Y-86232332D01*
X137908679Y-86232332D01*
X137843802Y-86240102D01*
X137843802Y-86240102D01*
G37*
X137843802Y-86240102D02*
X137820152Y-86265645D01*
X137819690Y-86271912D01*
X137815094Y-86297279D01*
X137792306Y-86291308D01*
X137763182Y-86271912D01*
X137684986Y-86240903D01*
X137590204Y-86234362D01*
X137503763Y-86252591D01*
X137474950Y-86268421D01*
X137444233Y-86294730D01*
X137444123Y-86319070D01*
X137476772Y-86358944D01*
X137487491Y-86370396D01*
X137542013Y-86415652D01*
X137599024Y-86425397D01*
X137631304Y-86420913D01*
X137704021Y-86419295D01*
X137760462Y-86452954D01*
X137766456Y-86458778D01*
X137790136Y-86487475D01*
X137805593Y-86523958D01*
X137814532Y-86578903D01*
X137818662Y-86662985D01*
X137819689Y-86786879D01*
X137819690Y-86791692D01*
X137819690Y-87071371D01*
X137997668Y-87071371D01*
X137997668Y-86232332D01*
X137908679Y-86232332D01*
X137843802Y-86240102D01*
G36*
X136995512Y-86246893D02*
X136903738Y-86289539D01*
X136837684Y-86340298D01*
X136815193Y-86379090D01*
X136833917Y-86415816D01*
X136867274Y-86443411D01*
X136915939Y-86473053D01*
X136952735Y-86470552D01*
X136986483Y-86449767D01*
X137073318Y-86413634D01*
X137155269Y-86422397D01*
X137223721Y-86470240D01*
X137270058Y-86551345D01*
X137285756Y-86651852D01*
X137267810Y-86758739D01*
X137219714Y-86837789D01*
X137150084Y-86883186D01*
X137067535Y-86889112D01*
X136986483Y-86853936D01*
X136941986Y-86829262D01*
X136904502Y-86835723D01*
X136867274Y-86860292D01*
X136821807Y-86902130D01*
X136818520Y-86939150D01*
X136858790Y-86983087D01*
X136884004Y-87002700D01*
X136983663Y-87049186D01*
X137102431Y-87063950D01*
X137218539Y-87045509D01*
X137259824Y-87028264D01*
X137366458Y-86949116D01*
X137433314Y-86841300D01*
X137462200Y-86701495D01*
X137463734Y-86654051D01*
X137450466Y-86508610D01*
X137417275Y-86411878D01*
X137340874Y-86319221D01*
X137236127Y-86258697D01*
X137116513Y-86233517D01*
X136995512Y-86246893D01*
X136995512Y-86246893D01*
G37*
X136995512Y-86246893D02*
X136903738Y-86289539D01*
X136837684Y-86340298D01*
X136815193Y-86379090D01*
X136833917Y-86415816D01*
X136867274Y-86443411D01*
X136915939Y-86473053D01*
X136952735Y-86470552D01*
X136986483Y-86449767D01*
X137073318Y-86413634D01*
X137155269Y-86422397D01*
X137223721Y-86470240D01*
X137270058Y-86551345D01*
X137285756Y-86651852D01*
X137267810Y-86758739D01*
X137219714Y-86837789D01*
X137150084Y-86883186D01*
X137067535Y-86889112D01*
X136986483Y-86853936D01*
X136941986Y-86829262D01*
X136904502Y-86835723D01*
X136867274Y-86860292D01*
X136821807Y-86902130D01*
X136818520Y-86939150D01*
X136858790Y-86983087D01*
X136884004Y-87002700D01*
X136983663Y-87049186D01*
X137102431Y-87063950D01*
X137218539Y-87045509D01*
X137259824Y-87028264D01*
X137366458Y-86949116D01*
X137433314Y-86841300D01*
X137462200Y-86701495D01*
X137463734Y-86654051D01*
X137450466Y-86508610D01*
X137417275Y-86411878D01*
X137340874Y-86319221D01*
X137236127Y-86258697D01*
X137116513Y-86233517D01*
X136995512Y-86246893D01*
G36*
X136315968Y-86257606D02*
X136280427Y-86272661D01*
X136195712Y-86328983D01*
X136140280Y-86408793D01*
X136107706Y-86522845D01*
X136100372Y-86574072D01*
X136083760Y-86715415D01*
X136341514Y-86715415D01*
X136472281Y-86717983D01*
X136556407Y-86727336D01*
X136597917Y-86745949D01*
X136600837Y-86776294D01*
X136569195Y-86820845D01*
X136548418Y-86842542D01*
X136474520Y-86883734D01*
X136382854Y-86890060D01*
X136293556Y-86860549D01*
X136285001Y-86855243D01*
X136241059Y-86832446D01*
X136207614Y-86841455D01*
X136171086Y-86876370D01*
X136134887Y-86919307D01*
X136132766Y-86946612D01*
X136160333Y-86976315D01*
X136267948Y-87041460D01*
X136395173Y-87067997D01*
X136526499Y-87054093D01*
X136596316Y-87027830D01*
X136678495Y-86960779D01*
X136737147Y-86859221D01*
X136769722Y-86734972D01*
X136773671Y-86599848D01*
X136762156Y-86543095D01*
X136599269Y-86543095D01*
X136576169Y-86553521D01*
X136516127Y-86560684D01*
X136446717Y-86562863D01*
X136360786Y-86560698D01*
X136314359Y-86551954D01*
X136296189Y-86533257D01*
X136294164Y-86517097D01*
X136315163Y-86457628D01*
X136367830Y-86420103D01*
X136436668Y-86407458D01*
X136506182Y-86422626D01*
X136559689Y-86466818D01*
X136589168Y-86515517D01*
X136599269Y-86543095D01*
X136762156Y-86543095D01*
X136746444Y-86465664D01*
X136727836Y-86418353D01*
X136656664Y-86315898D01*
X136558856Y-86253184D01*
X136442572Y-86232868D01*
X136315968Y-86257606D01*
X136315968Y-86257606D01*
G37*
X136315968Y-86257606D02*
X136280427Y-86272661D01*
X136195712Y-86328983D01*
X136140280Y-86408793D01*
X136107706Y-86522845D01*
X136100372Y-86574072D01*
X136083760Y-86715415D01*
X136341514Y-86715415D01*
X136472281Y-86717983D01*
X136556407Y-86727336D01*
X136597917Y-86745949D01*
X136600837Y-86776294D01*
X136569195Y-86820845D01*
X136548418Y-86842542D01*
X136474520Y-86883734D01*
X136382854Y-86890060D01*
X136293556Y-86860549D01*
X136285001Y-86855243D01*
X136241059Y-86832446D01*
X136207614Y-86841455D01*
X136171086Y-86876370D01*
X136134887Y-86919307D01*
X136132766Y-86946612D01*
X136160333Y-86976315D01*
X136267948Y-87041460D01*
X136395173Y-87067997D01*
X136526499Y-87054093D01*
X136596316Y-87027830D01*
X136678495Y-86960779D01*
X136737147Y-86859221D01*
X136769722Y-86734972D01*
X136773671Y-86599848D01*
X136762156Y-86543095D01*
X136599269Y-86543095D01*
X136576169Y-86553521D01*
X136516127Y-86560684D01*
X136446717Y-86562863D01*
X136360786Y-86560698D01*
X136314359Y-86551954D01*
X136296189Y-86533257D01*
X136294164Y-86517097D01*
X136315163Y-86457628D01*
X136367830Y-86420103D01*
X136436668Y-86407458D01*
X136506182Y-86422626D01*
X136559689Y-86466818D01*
X136589168Y-86515517D01*
X136599269Y-86543095D01*
X136762156Y-86543095D01*
X136746444Y-86465664D01*
X136727836Y-86418353D01*
X136656664Y-86315898D01*
X136558856Y-86253184D01*
X136442572Y-86232868D01*
X136315968Y-86257606D01*
G36*
X139882769Y-80207442D02*
X139763407Y-80211821D01*
X139661495Y-80218509D01*
X139588108Y-80227338D01*
X139554322Y-80238138D01*
X139554194Y-80238288D01*
X139540514Y-80273595D01*
X139520501Y-80349236D01*
X139496455Y-80455433D01*
X139470675Y-80582405D01*
X139460038Y-80638739D01*
X139434002Y-80771059D01*
X139408328Y-80886238D01*
X139385397Y-80974622D01*
X139367591Y-81026560D01*
X139362231Y-81035168D01*
X139328614Y-81057539D01*
X139263661Y-81089552D01*
X139162518Y-81133368D01*
X139020331Y-81191153D01*
X138948037Y-81219781D01*
X138817826Y-81271052D01*
X138491074Y-81043884D01*
X138377345Y-80965942D01*
X138277352Y-80899532D01*
X138198876Y-80849656D01*
X138149698Y-80821316D01*
X138137769Y-80816717D01*
X138109302Y-80834202D01*
X138054223Y-80881472D01*
X137980194Y-80950743D01*
X137894874Y-81034235D01*
X137805927Y-81124166D01*
X137721012Y-81212753D01*
X137647791Y-81292217D01*
X137593926Y-81354775D01*
X137567077Y-81392645D01*
X137565435Y-81398042D01*
X137579249Y-81429963D01*
X137617279Y-81495199D01*
X137674411Y-81585529D01*
X137745530Y-81692730D01*
X137781552Y-81745469D01*
X137857039Y-81855843D01*
X137921032Y-81951021D01*
X137968494Y-82023381D01*
X137994383Y-82065300D01*
X137997668Y-82072381D01*
X137987758Y-82105478D01*
X137961399Y-82172311D01*
X137923645Y-82261570D01*
X137879554Y-82361945D01*
X137834179Y-82462126D01*
X137792576Y-82550804D01*
X137759801Y-82616669D01*
X137740908Y-82648410D01*
X137739724Y-82649447D01*
X137706028Y-82659731D01*
X137633896Y-82675723D01*
X137535080Y-82694951D01*
X137456407Y-82709000D01*
X137331610Y-82730941D01*
X137211227Y-82752857D01*
X137113262Y-82771439D01*
X137075996Y-82778927D01*
X136955225Y-82804113D01*
X136955225Y-83219813D01*
X136955695Y-83375139D01*
X136957614Y-83486983D01*
X136961746Y-83562709D01*
X136968857Y-83609681D01*
X136979710Y-83635263D01*
X136995071Y-83646819D01*
X136999720Y-83648384D01*
X137043767Y-83658517D01*
X137123739Y-83674675D01*
X137225484Y-83694041D01*
X137273043Y-83702770D01*
X137392406Y-83724852D01*
X137508387Y-83747029D01*
X137600716Y-83765405D01*
X137620974Y-83769637D01*
X137740075Y-83794989D01*
X137860865Y-84098979D01*
X137981654Y-84402970D01*
X137773545Y-84706046D01*
X137699288Y-84816413D01*
X137636733Y-84913626D01*
X137591076Y-84989279D01*
X137567515Y-85034964D01*
X137565435Y-85042733D01*
X137582721Y-85071611D01*
X137629449Y-85127420D01*
X137697926Y-85202404D01*
X137780459Y-85288803D01*
X137869353Y-85378859D01*
X137956917Y-85464814D01*
X138035455Y-85538910D01*
X138097276Y-85593388D01*
X138134685Y-85620490D01*
X138139977Y-85622122D01*
X138169649Y-85608443D01*
X138232815Y-85570845D01*
X138321249Y-85514486D01*
X138426728Y-85444523D01*
X138470092Y-85415086D01*
X138773143Y-85208049D01*
X138921970Y-85290413D01*
X138999911Y-85329034D01*
X139060738Y-85350872D01*
X139091101Y-85351253D01*
X139105826Y-85322937D01*
X139137174Y-85253852D01*
X139182440Y-85150261D01*
X139238918Y-85018431D01*
X139303903Y-84864625D01*
X139374690Y-84695108D01*
X139380387Y-84681381D01*
X139649370Y-84033033D01*
X139592638Y-83987516D01*
X139465043Y-83881862D01*
X139371060Y-83795223D01*
X139301931Y-83718493D01*
X139248901Y-83642568D01*
X139230606Y-83611054D01*
X139194308Y-83540980D01*
X139171793Y-83479882D01*
X139159824Y-83411646D01*
X139155167Y-83320158D01*
X139154525Y-83232132D01*
X139162476Y-83063368D01*
X139190046Y-82928794D01*
X139242803Y-82813727D01*
X139326319Y-82703486D01*
X139374418Y-82652551D01*
X139531561Y-82524070D01*
X139703009Y-82443505D01*
X139893603Y-82408810D01*
X139955279Y-82407040D01*
X140163209Y-82430597D01*
X140347939Y-82498775D01*
X140506563Y-82609773D01*
X140636175Y-82761789D01*
X140695909Y-82866000D01*
X140761453Y-83055298D01*
X140779144Y-83254916D01*
X140748497Y-83456679D01*
X140733833Y-83504699D01*
X140676788Y-83622619D01*
X140588409Y-83746666D01*
X140482630Y-83859806D01*
X140373838Y-83944728D01*
X140318247Y-83987171D01*
X140287874Y-84026084D01*
X140285956Y-84034666D01*
X140295279Y-84066282D01*
X140321195Y-84137218D01*
X140360630Y-84239903D01*
X140410505Y-84366766D01*
X140467746Y-84510234D01*
X140529274Y-84662736D01*
X140592014Y-84816701D01*
X140652890Y-84964556D01*
X140708824Y-85098730D01*
X140756740Y-85211652D01*
X140793562Y-85295750D01*
X140816213Y-85343451D01*
X140820705Y-85350748D01*
X140850767Y-85350646D01*
X140912325Y-85330416D01*
X140992296Y-85294397D01*
X140995667Y-85292703D01*
X141152290Y-85213639D01*
X141451243Y-85417881D01*
X141561198Y-85491044D01*
X141658353Y-85552048D01*
X141734116Y-85595766D01*
X141779896Y-85617072D01*
X141787195Y-85618292D01*
X141817252Y-85599510D01*
X141875062Y-85550410D01*
X141953398Y-85477578D01*
X142045033Y-85387603D01*
X142087033Y-85344968D01*
X142180392Y-85248985D01*
X142260875Y-85165750D01*
X142321892Y-85102116D01*
X142356854Y-85064935D01*
X142362300Y-85058699D01*
X142352984Y-85033055D01*
X142319088Y-84973450D01*
X142265304Y-84887508D01*
X142196323Y-84782849D01*
X142156015Y-84723576D01*
X141937301Y-84405228D01*
X142056431Y-84104716D01*
X142101736Y-83990900D01*
X142139995Y-83895664D01*
X142167497Y-83828183D01*
X142180532Y-83797633D01*
X142180971Y-83796852D01*
X142206496Y-83789882D01*
X142273268Y-83775541D01*
X142372509Y-83755612D01*
X142495447Y-83731880D01*
X142564646Y-83718848D01*
X142942913Y-83648197D01*
X142946354Y-83439578D01*
X142774772Y-83439578D01*
X142773410Y-83496430D01*
X142771075Y-83511812D01*
X142744442Y-83516336D01*
X142677412Y-83528720D01*
X142579514Y-83547176D01*
X142460279Y-83569921D01*
X142434551Y-83574858D01*
X142269006Y-83609836D01*
X142149509Y-83642202D01*
X142077970Y-83671403D01*
X142062362Y-83682916D01*
X142030800Y-83730136D01*
X141989426Y-83812741D01*
X141942417Y-83919753D01*
X141893953Y-84040195D01*
X141848212Y-84163088D01*
X141809374Y-84277455D01*
X141781616Y-84372319D01*
X141769117Y-84436701D01*
X141769485Y-84452331D01*
X141788423Y-84497854D01*
X141830533Y-84574396D01*
X141889663Y-84671429D01*
X141959662Y-84778430D01*
X141962562Y-84782710D01*
X142142661Y-85048201D01*
X141958261Y-85233840D01*
X141878796Y-85310094D01*
X141810402Y-85368841D01*
X141761890Y-85402899D01*
X141744379Y-85408166D01*
X141712686Y-85389838D01*
X141648930Y-85348630D01*
X141562687Y-85290850D01*
X141473634Y-85229808D01*
X141345047Y-85144996D01*
X141245103Y-85091141D01*
X141164236Y-85065648D01*
X141092877Y-85065920D01*
X141021458Y-85089364D01*
X140998048Y-85100808D01*
X140944153Y-85120645D01*
X140911753Y-85117841D01*
X140910531Y-85116286D01*
X140897042Y-85086919D01*
X140867365Y-85017834D01*
X140824586Y-84916364D01*
X140771793Y-84789848D01*
X140712074Y-84645620D01*
X140694984Y-84604159D01*
X140493384Y-84114598D01*
X140630323Y-83989444D01*
X140774201Y-83826241D01*
X140879878Y-83638679D01*
X140944271Y-83435788D01*
X140964298Y-83226596D01*
X140946692Y-83062654D01*
X140879469Y-82849194D01*
X140773643Y-82662160D01*
X140635038Y-82505038D01*
X140469475Y-82381316D01*
X140282778Y-82294481D01*
X140080769Y-82248022D01*
X139869271Y-82245424D01*
X139655940Y-82289584D01*
X139449256Y-82381118D01*
X139274247Y-82510087D01*
X139134486Y-82671545D01*
X139033548Y-82860548D01*
X138975008Y-83072147D01*
X138961083Y-83251100D01*
X138986033Y-83478357D01*
X139057558Y-83687170D01*
X139173953Y-83873822D01*
X139312225Y-84016861D01*
X139425670Y-84113830D01*
X139217083Y-84620078D01*
X139155426Y-84769307D01*
X139100324Y-84901876D01*
X139054689Y-85010847D01*
X139021431Y-85089286D01*
X139003458Y-85130255D01*
X139001241Y-85134557D01*
X138976406Y-85129730D01*
X138925098Y-85107094D01*
X138916608Y-85102776D01*
X138849643Y-85074287D01*
X138786202Y-85064784D01*
X138717191Y-85076885D01*
X138633517Y-85113210D01*
X138526088Y-85176378D01*
X138420314Y-85245724D01*
X138147885Y-85428686D01*
X137959560Y-85239368D01*
X137771234Y-85050050D01*
X137960727Y-84771787D01*
X138054878Y-84627244D01*
X138117434Y-84516751D01*
X138147495Y-84441966D01*
X138150220Y-84422316D01*
X138139936Y-84363725D01*
X138112316Y-84271498D01*
X138072207Y-84157758D01*
X138024457Y-84034627D01*
X137973914Y-83914224D01*
X137925424Y-83808674D01*
X137883836Y-83730096D01*
X137859624Y-83695659D01*
X137823984Y-83668140D01*
X137768000Y-83643407D01*
X137683181Y-83618786D01*
X137561035Y-83591599D01*
X137476458Y-83574889D01*
X137354144Y-83551497D01*
X137251341Y-83532031D01*
X137177544Y-83518273D01*
X137142250Y-83512009D01*
X137140636Y-83511812D01*
X137137576Y-83488143D01*
X137135127Y-83424163D01*
X137133586Y-83330410D01*
X137133203Y-83246558D01*
X137134210Y-83125946D01*
X137138216Y-83046905D01*
X137146701Y-83000175D01*
X137161144Y-82976499D01*
X137177698Y-82968019D01*
X137219363Y-82958356D01*
X137299362Y-82942021D01*
X137405984Y-82921339D01*
X137521087Y-82899818D01*
X137662442Y-82871750D01*
X137761874Y-82846440D01*
X137828016Y-82821171D01*
X137869502Y-82793229D01*
X137873943Y-82788837D01*
X137907337Y-82740204D01*
X137952128Y-82656268D01*
X138003214Y-82548948D01*
X138055489Y-82430166D01*
X138103851Y-82311840D01*
X138143194Y-82205893D01*
X138168415Y-82124243D01*
X138174998Y-82085723D01*
X138159705Y-82033684D01*
X138114949Y-81946985D01*
X138043392Y-81830385D01*
X137974338Y-81727049D01*
X137773030Y-81434203D01*
X137955867Y-81252587D01*
X138034402Y-81176395D01*
X138100204Y-81115936D01*
X138144716Y-81078883D01*
X138158430Y-81070971D01*
X138185690Y-81084479D01*
X138246494Y-81121475D01*
X138332464Y-81176668D01*
X138435222Y-81244763D01*
X138460303Y-81261662D01*
X138592945Y-81348546D01*
X138692641Y-81406958D01*
X138766016Y-81440360D01*
X138819697Y-81452213D01*
X138825349Y-81452352D01*
X138890254Y-81441501D01*
X138986265Y-81412431D01*
X139100952Y-81370373D01*
X139221883Y-81320552D01*
X139336627Y-81268198D01*
X139432754Y-81218538D01*
X139497833Y-81176800D01*
X139512502Y-81163364D01*
X139539280Y-81119543D01*
X139564998Y-81046672D01*
X139591557Y-80937940D01*
X139620860Y-80786540D01*
X139626128Y-80756775D01*
X139686882Y-80409910D01*
X139960993Y-80409910D01*
X140072161Y-80411814D01*
X140161665Y-80416971D01*
X140219142Y-80424548D01*
X140235105Y-80431938D01*
X140239589Y-80463806D01*
X140251877Y-80535762D01*
X140270224Y-80637947D01*
X140292887Y-80760501D01*
X140299192Y-80794067D01*
X140333337Y-80959627D01*
X140364967Y-81081456D01*
X140393319Y-81156840D01*
X140407250Y-81177532D01*
X140456609Y-81211091D01*
X140541961Y-81254806D01*
X140650768Y-81303655D01*
X140770489Y-81352616D01*
X140888587Y-81396665D01*
X140992521Y-81430782D01*
X141069753Y-81449942D01*
X141093374Y-81452352D01*
X141142857Y-81445080D01*
X141204701Y-81420481D01*
X141286869Y-81374381D01*
X141397326Y-81302606D01*
X141457162Y-81261662D01*
X141561119Y-81190819D01*
X141650435Y-81131900D01*
X141716674Y-81090327D01*
X141751401Y-81071523D01*
X141753786Y-81070971D01*
X141779316Y-81088011D01*
X141831578Y-81133973D01*
X141902065Y-81201118D01*
X141956437Y-81255305D01*
X142138259Y-81439639D01*
X141936732Y-81739432D01*
X141863974Y-81850892D01*
X141802902Y-81950594D01*
X141758743Y-82029529D01*
X141736723Y-82078689D01*
X141735205Y-82086777D01*
X141745972Y-82136117D01*
X141774900Y-82219291D01*
X141816927Y-82324892D01*
X141866993Y-82441516D01*
X141920038Y-82557755D01*
X141971000Y-82662205D01*
X142014819Y-82743460D01*
X142046434Y-82790114D01*
X142047985Y-82791715D01*
X142086344Y-82818826D01*
X142148186Y-82843706D01*
X142241540Y-82868764D01*
X142374440Y-82896410D01*
X142434404Y-82907623D01*
X142764935Y-82968152D01*
X142772151Y-83239982D01*
X142774367Y-83350627D01*
X142774772Y-83439578D01*
X142946354Y-83439578D01*
X142956835Y-82804373D01*
X142835459Y-82779477D01*
X142756255Y-82763953D01*
X142645353Y-82743141D01*
X142521152Y-82720467D01*
X142459830Y-82709506D01*
X142349558Y-82687857D01*
X142256951Y-82665782D01*
X142194309Y-82646427D01*
X142175516Y-82636820D01*
X142153051Y-82602361D01*
X142117402Y-82533061D01*
X142074084Y-82441367D01*
X142028614Y-82339724D01*
X141986509Y-82240578D01*
X141953285Y-82156376D01*
X141934460Y-82099563D01*
X141932249Y-82087988D01*
X141944906Y-82054761D01*
X141982015Y-81988167D01*
X142038643Y-81896342D01*
X142109858Y-81787421D01*
X142153401Y-81723255D01*
X142377897Y-81396661D01*
X142088748Y-81106689D01*
X141989791Y-81008710D01*
X141902728Y-80924877D01*
X141834065Y-80861272D01*
X141790312Y-80823974D01*
X141778357Y-80816717D01*
X141751071Y-80830455D01*
X141689864Y-80868332D01*
X141602485Y-80925338D01*
X141496681Y-80996466D01*
X141436216Y-81037879D01*
X141322284Y-81114433D01*
X141220810Y-81178947D01*
X141140049Y-81226452D01*
X141088257Y-81251978D01*
X141075661Y-81254933D01*
X141026405Y-81242122D01*
X140948074Y-81213603D01*
X140852689Y-81174701D01*
X140752270Y-81130739D01*
X140658835Y-81087042D01*
X140584405Y-81048935D01*
X140541000Y-81021743D01*
X140535216Y-81015527D01*
X140524556Y-80979575D01*
X140507204Y-80903367D01*
X140485233Y-80796737D01*
X140460720Y-80669517D01*
X140450373Y-80613447D01*
X140424740Y-80482039D01*
X140399428Y-80368681D01*
X140376775Y-80282741D01*
X140359121Y-80233584D01*
X140353665Y-80226099D01*
X140313194Y-80216398D01*
X140234793Y-80209851D01*
X140129538Y-80206288D01*
X140008504Y-80205542D01*
X139882769Y-80207442D01*
X139882769Y-80207442D01*
G37*
X139882769Y-80207442D02*
X139763407Y-80211821D01*
X139661495Y-80218509D01*
X139588108Y-80227338D01*
X139554322Y-80238138D01*
X139554194Y-80238288D01*
X139540514Y-80273595D01*
X139520501Y-80349236D01*
X139496455Y-80455433D01*
X139470675Y-80582405D01*
X139460038Y-80638739D01*
X139434002Y-80771059D01*
X139408328Y-80886238D01*
X139385397Y-80974622D01*
X139367591Y-81026560D01*
X139362231Y-81035168D01*
X139328614Y-81057539D01*
X139263661Y-81089552D01*
X139162518Y-81133368D01*
X139020331Y-81191153D01*
X138948037Y-81219781D01*
X138817826Y-81271052D01*
X138491074Y-81043884D01*
X138377345Y-80965942D01*
X138277352Y-80899532D01*
X138198876Y-80849656D01*
X138149698Y-80821316D01*
X138137769Y-80816717D01*
X138109302Y-80834202D01*
X138054223Y-80881472D01*
X137980194Y-80950743D01*
X137894874Y-81034235D01*
X137805927Y-81124166D01*
X137721012Y-81212753D01*
X137647791Y-81292217D01*
X137593926Y-81354775D01*
X137567077Y-81392645D01*
X137565435Y-81398042D01*
X137579249Y-81429963D01*
X137617279Y-81495199D01*
X137674411Y-81585529D01*
X137745530Y-81692730D01*
X137781552Y-81745469D01*
X137857039Y-81855843D01*
X137921032Y-81951021D01*
X137968494Y-82023381D01*
X137994383Y-82065300D01*
X137997668Y-82072381D01*
X137987758Y-82105478D01*
X137961399Y-82172311D01*
X137923645Y-82261570D01*
X137879554Y-82361945D01*
X137834179Y-82462126D01*
X137792576Y-82550804D01*
X137759801Y-82616669D01*
X137740908Y-82648410D01*
X137739724Y-82649447D01*
X137706028Y-82659731D01*
X137633896Y-82675723D01*
X137535080Y-82694951D01*
X137456407Y-82709000D01*
X137331610Y-82730941D01*
X137211227Y-82752857D01*
X137113262Y-82771439D01*
X137075996Y-82778927D01*
X136955225Y-82804113D01*
X136955225Y-83219813D01*
X136955695Y-83375139D01*
X136957614Y-83486983D01*
X136961746Y-83562709D01*
X136968857Y-83609681D01*
X136979710Y-83635263D01*
X136995071Y-83646819D01*
X136999720Y-83648384D01*
X137043767Y-83658517D01*
X137123739Y-83674675D01*
X137225484Y-83694041D01*
X137273043Y-83702770D01*
X137392406Y-83724852D01*
X137508387Y-83747029D01*
X137600716Y-83765405D01*
X137620974Y-83769637D01*
X137740075Y-83794989D01*
X137860865Y-84098979D01*
X137981654Y-84402970D01*
X137773545Y-84706046D01*
X137699288Y-84816413D01*
X137636733Y-84913626D01*
X137591076Y-84989279D01*
X137567515Y-85034964D01*
X137565435Y-85042733D01*
X137582721Y-85071611D01*
X137629449Y-85127420D01*
X137697926Y-85202404D01*
X137780459Y-85288803D01*
X137869353Y-85378859D01*
X137956917Y-85464814D01*
X138035455Y-85538910D01*
X138097276Y-85593388D01*
X138134685Y-85620490D01*
X138139977Y-85622122D01*
X138169649Y-85608443D01*
X138232815Y-85570845D01*
X138321249Y-85514486D01*
X138426728Y-85444523D01*
X138470092Y-85415086D01*
X138773143Y-85208049D01*
X138921970Y-85290413D01*
X138999911Y-85329034D01*
X139060738Y-85350872D01*
X139091101Y-85351253D01*
X139105826Y-85322937D01*
X139137174Y-85253852D01*
X139182440Y-85150261D01*
X139238918Y-85018431D01*
X139303903Y-84864625D01*
X139374690Y-84695108D01*
X139380387Y-84681381D01*
X139649370Y-84033033D01*
X139592638Y-83987516D01*
X139465043Y-83881862D01*
X139371060Y-83795223D01*
X139301931Y-83718493D01*
X139248901Y-83642568D01*
X139230606Y-83611054D01*
X139194308Y-83540980D01*
X139171793Y-83479882D01*
X139159824Y-83411646D01*
X139155167Y-83320158D01*
X139154525Y-83232132D01*
X139162476Y-83063368D01*
X139190046Y-82928794D01*
X139242803Y-82813727D01*
X139326319Y-82703486D01*
X139374418Y-82652551D01*
X139531561Y-82524070D01*
X139703009Y-82443505D01*
X139893603Y-82408810D01*
X139955279Y-82407040D01*
X140163209Y-82430597D01*
X140347939Y-82498775D01*
X140506563Y-82609773D01*
X140636175Y-82761789D01*
X140695909Y-82866000D01*
X140761453Y-83055298D01*
X140779144Y-83254916D01*
X140748497Y-83456679D01*
X140733833Y-83504699D01*
X140676788Y-83622619D01*
X140588409Y-83746666D01*
X140482630Y-83859806D01*
X140373838Y-83944728D01*
X140318247Y-83987171D01*
X140287874Y-84026084D01*
X140285956Y-84034666D01*
X140295279Y-84066282D01*
X140321195Y-84137218D01*
X140360630Y-84239903D01*
X140410505Y-84366766D01*
X140467746Y-84510234D01*
X140529274Y-84662736D01*
X140592014Y-84816701D01*
X140652890Y-84964556D01*
X140708824Y-85098730D01*
X140756740Y-85211652D01*
X140793562Y-85295750D01*
X140816213Y-85343451D01*
X140820705Y-85350748D01*
X140850767Y-85350646D01*
X140912325Y-85330416D01*
X140992296Y-85294397D01*
X140995667Y-85292703D01*
X141152290Y-85213639D01*
X141451243Y-85417881D01*
X141561198Y-85491044D01*
X141658353Y-85552048D01*
X141734116Y-85595766D01*
X141779896Y-85617072D01*
X141787195Y-85618292D01*
X141817252Y-85599510D01*
X141875062Y-85550410D01*
X141953398Y-85477578D01*
X142045033Y-85387603D01*
X142087033Y-85344968D01*
X142180392Y-85248985D01*
X142260875Y-85165750D01*
X142321892Y-85102116D01*
X142356854Y-85064935D01*
X142362300Y-85058699D01*
X142352984Y-85033055D01*
X142319088Y-84973450D01*
X142265304Y-84887508D01*
X142196323Y-84782849D01*
X142156015Y-84723576D01*
X141937301Y-84405228D01*
X142056431Y-84104716D01*
X142101736Y-83990900D01*
X142139995Y-83895664D01*
X142167497Y-83828183D01*
X142180532Y-83797633D01*
X142180971Y-83796852D01*
X142206496Y-83789882D01*
X142273268Y-83775541D01*
X142372509Y-83755612D01*
X142495447Y-83731880D01*
X142564646Y-83718848D01*
X142942913Y-83648197D01*
X142946354Y-83439578D01*
X142774772Y-83439578D01*
X142773410Y-83496430D01*
X142771075Y-83511812D01*
X142744442Y-83516336D01*
X142677412Y-83528720D01*
X142579514Y-83547176D01*
X142460279Y-83569921D01*
X142434551Y-83574858D01*
X142269006Y-83609836D01*
X142149509Y-83642202D01*
X142077970Y-83671403D01*
X142062362Y-83682916D01*
X142030800Y-83730136D01*
X141989426Y-83812741D01*
X141942417Y-83919753D01*
X141893953Y-84040195D01*
X141848212Y-84163088D01*
X141809374Y-84277455D01*
X141781616Y-84372319D01*
X141769117Y-84436701D01*
X141769485Y-84452331D01*
X141788423Y-84497854D01*
X141830533Y-84574396D01*
X141889663Y-84671429D01*
X141959662Y-84778430D01*
X141962562Y-84782710D01*
X142142661Y-85048201D01*
X141958261Y-85233840D01*
X141878796Y-85310094D01*
X141810402Y-85368841D01*
X141761890Y-85402899D01*
X141744379Y-85408166D01*
X141712686Y-85389838D01*
X141648930Y-85348630D01*
X141562687Y-85290850D01*
X141473634Y-85229808D01*
X141345047Y-85144996D01*
X141245103Y-85091141D01*
X141164236Y-85065648D01*
X141092877Y-85065920D01*
X141021458Y-85089364D01*
X140998048Y-85100808D01*
X140944153Y-85120645D01*
X140911753Y-85117841D01*
X140910531Y-85116286D01*
X140897042Y-85086919D01*
X140867365Y-85017834D01*
X140824586Y-84916364D01*
X140771793Y-84789848D01*
X140712074Y-84645620D01*
X140694984Y-84604159D01*
X140493384Y-84114598D01*
X140630323Y-83989444D01*
X140774201Y-83826241D01*
X140879878Y-83638679D01*
X140944271Y-83435788D01*
X140964298Y-83226596D01*
X140946692Y-83062654D01*
X140879469Y-82849194D01*
X140773643Y-82662160D01*
X140635038Y-82505038D01*
X140469475Y-82381316D01*
X140282778Y-82294481D01*
X140080769Y-82248022D01*
X139869271Y-82245424D01*
X139655940Y-82289584D01*
X139449256Y-82381118D01*
X139274247Y-82510087D01*
X139134486Y-82671545D01*
X139033548Y-82860548D01*
X138975008Y-83072147D01*
X138961083Y-83251100D01*
X138986033Y-83478357D01*
X139057558Y-83687170D01*
X139173953Y-83873822D01*
X139312225Y-84016861D01*
X139425670Y-84113830D01*
X139217083Y-84620078D01*
X139155426Y-84769307D01*
X139100324Y-84901876D01*
X139054689Y-85010847D01*
X139021431Y-85089286D01*
X139003458Y-85130255D01*
X139001241Y-85134557D01*
X138976406Y-85129730D01*
X138925098Y-85107094D01*
X138916608Y-85102776D01*
X138849643Y-85074287D01*
X138786202Y-85064784D01*
X138717191Y-85076885D01*
X138633517Y-85113210D01*
X138526088Y-85176378D01*
X138420314Y-85245724D01*
X138147885Y-85428686D01*
X137959560Y-85239368D01*
X137771234Y-85050050D01*
X137960727Y-84771787D01*
X138054878Y-84627244D01*
X138117434Y-84516751D01*
X138147495Y-84441966D01*
X138150220Y-84422316D01*
X138139936Y-84363725D01*
X138112316Y-84271498D01*
X138072207Y-84157758D01*
X138024457Y-84034627D01*
X137973914Y-83914224D01*
X137925424Y-83808674D01*
X137883836Y-83730096D01*
X137859624Y-83695659D01*
X137823984Y-83668140D01*
X137768000Y-83643407D01*
X137683181Y-83618786D01*
X137561035Y-83591599D01*
X137476458Y-83574889D01*
X137354144Y-83551497D01*
X137251341Y-83532031D01*
X137177544Y-83518273D01*
X137142250Y-83512009D01*
X137140636Y-83511812D01*
X137137576Y-83488143D01*
X137135127Y-83424163D01*
X137133586Y-83330410D01*
X137133203Y-83246558D01*
X137134210Y-83125946D01*
X137138216Y-83046905D01*
X137146701Y-83000175D01*
X137161144Y-82976499D01*
X137177698Y-82968019D01*
X137219363Y-82958356D01*
X137299362Y-82942021D01*
X137405984Y-82921339D01*
X137521087Y-82899818D01*
X137662442Y-82871750D01*
X137761874Y-82846440D01*
X137828016Y-82821171D01*
X137869502Y-82793229D01*
X137873943Y-82788837D01*
X137907337Y-82740204D01*
X137952128Y-82656268D01*
X138003214Y-82548948D01*
X138055489Y-82430166D01*
X138103851Y-82311840D01*
X138143194Y-82205893D01*
X138168415Y-82124243D01*
X138174998Y-82085723D01*
X138159705Y-82033684D01*
X138114949Y-81946985D01*
X138043392Y-81830385D01*
X137974338Y-81727049D01*
X137773030Y-81434203D01*
X137955867Y-81252587D01*
X138034402Y-81176395D01*
X138100204Y-81115936D01*
X138144716Y-81078883D01*
X138158430Y-81070971D01*
X138185690Y-81084479D01*
X138246494Y-81121475D01*
X138332464Y-81176668D01*
X138435222Y-81244763D01*
X138460303Y-81261662D01*
X138592945Y-81348546D01*
X138692641Y-81406958D01*
X138766016Y-81440360D01*
X138819697Y-81452213D01*
X138825349Y-81452352D01*
X138890254Y-81441501D01*
X138986265Y-81412431D01*
X139100952Y-81370373D01*
X139221883Y-81320552D01*
X139336627Y-81268198D01*
X139432754Y-81218538D01*
X139497833Y-81176800D01*
X139512502Y-81163364D01*
X139539280Y-81119543D01*
X139564998Y-81046672D01*
X139591557Y-80937940D01*
X139620860Y-80786540D01*
X139626128Y-80756775D01*
X139686882Y-80409910D01*
X139960993Y-80409910D01*
X140072161Y-80411814D01*
X140161665Y-80416971D01*
X140219142Y-80424548D01*
X140235105Y-80431938D01*
X140239589Y-80463806D01*
X140251877Y-80535762D01*
X140270224Y-80637947D01*
X140292887Y-80760501D01*
X140299192Y-80794067D01*
X140333337Y-80959627D01*
X140364967Y-81081456D01*
X140393319Y-81156840D01*
X140407250Y-81177532D01*
X140456609Y-81211091D01*
X140541961Y-81254806D01*
X140650768Y-81303655D01*
X140770489Y-81352616D01*
X140888587Y-81396665D01*
X140992521Y-81430782D01*
X141069753Y-81449942D01*
X141093374Y-81452352D01*
X141142857Y-81445080D01*
X141204701Y-81420481D01*
X141286869Y-81374381D01*
X141397326Y-81302606D01*
X141457162Y-81261662D01*
X141561119Y-81190819D01*
X141650435Y-81131900D01*
X141716674Y-81090327D01*
X141751401Y-81071523D01*
X141753786Y-81070971D01*
X141779316Y-81088011D01*
X141831578Y-81133973D01*
X141902065Y-81201118D01*
X141956437Y-81255305D01*
X142138259Y-81439639D01*
X141936732Y-81739432D01*
X141863974Y-81850892D01*
X141802902Y-81950594D01*
X141758743Y-82029529D01*
X141736723Y-82078689D01*
X141735205Y-82086777D01*
X141745972Y-82136117D01*
X141774900Y-82219291D01*
X141816927Y-82324892D01*
X141866993Y-82441516D01*
X141920038Y-82557755D01*
X141971000Y-82662205D01*
X142014819Y-82743460D01*
X142046434Y-82790114D01*
X142047985Y-82791715D01*
X142086344Y-82818826D01*
X142148186Y-82843706D01*
X142241540Y-82868764D01*
X142374440Y-82896410D01*
X142434404Y-82907623D01*
X142764935Y-82968152D01*
X142772151Y-83239982D01*
X142774367Y-83350627D01*
X142774772Y-83439578D01*
X142946354Y-83439578D01*
X142956835Y-82804373D01*
X142835459Y-82779477D01*
X142756255Y-82763953D01*
X142645353Y-82743141D01*
X142521152Y-82720467D01*
X142459830Y-82709506D01*
X142349558Y-82687857D01*
X142256951Y-82665782D01*
X142194309Y-82646427D01*
X142175516Y-82636820D01*
X142153051Y-82602361D01*
X142117402Y-82533061D01*
X142074084Y-82441367D01*
X142028614Y-82339724D01*
X141986509Y-82240578D01*
X141953285Y-82156376D01*
X141934460Y-82099563D01*
X141932249Y-82087988D01*
X141944906Y-82054761D01*
X141982015Y-81988167D01*
X142038643Y-81896342D01*
X142109858Y-81787421D01*
X142153401Y-81723255D01*
X142377897Y-81396661D01*
X142088748Y-81106689D01*
X141989791Y-81008710D01*
X141902728Y-80924877D01*
X141834065Y-80861272D01*
X141790312Y-80823974D01*
X141778357Y-80816717D01*
X141751071Y-80830455D01*
X141689864Y-80868332D01*
X141602485Y-80925338D01*
X141496681Y-80996466D01*
X141436216Y-81037879D01*
X141322284Y-81114433D01*
X141220810Y-81178947D01*
X141140049Y-81226452D01*
X141088257Y-81251978D01*
X141075661Y-81254933D01*
X141026405Y-81242122D01*
X140948074Y-81213603D01*
X140852689Y-81174701D01*
X140752270Y-81130739D01*
X140658835Y-81087042D01*
X140584405Y-81048935D01*
X140541000Y-81021743D01*
X140535216Y-81015527D01*
X140524556Y-80979575D01*
X140507204Y-80903367D01*
X140485233Y-80796737D01*
X140460720Y-80669517D01*
X140450373Y-80613447D01*
X140424740Y-80482039D01*
X140399428Y-80368681D01*
X140376775Y-80282741D01*
X140359121Y-80233584D01*
X140353665Y-80226099D01*
X140313194Y-80216398D01*
X140234793Y-80209851D01*
X140129538Y-80206288D01*
X140008504Y-80205542D01*
X139882769Y-80207442D01*
D12*
X156530000Y-95000000D03*
X157730000Y-95000000D03*
X154430000Y-89000000D03*
X155630000Y-89000000D03*
D13*
X145500000Y-90600000D03*
X145500000Y-89400000D03*
X164730000Y-93200000D03*
X164730000Y-92000000D03*
D12*
X154430000Y-90000000D03*
X155630000Y-90000000D03*
X159430000Y-92500000D03*
X160630000Y-92500000D03*
X162430000Y-90000000D03*
X163630000Y-90000000D03*
D14*
X163280000Y-80300000D03*
X163280000Y-82200000D03*
X169230000Y-80300000D03*
X169230000Y-82200000D03*
D15*
X147300000Y-89200000D03*
X147300000Y-90800000D03*
X152700000Y-89200000D03*
X152700000Y-90800000D03*
D16*
X153000000Y-89000000D03*
X153000000Y-91000000D03*
X147000000Y-89000000D03*
X147000000Y-91000000D03*
D10*
G36*
X152550000Y-88400000D02*
X153100000Y-88800000D01*
X151900000Y-88800000D01*
X152450000Y-88400000D01*
X152550000Y-88400000D01*
X152550000Y-88400000D01*
G37*
G36*
X152450000Y-91600000D02*
X151900000Y-91200000D01*
X153100000Y-91200000D01*
X152550000Y-91600000D01*
X152450000Y-91600000D01*
X152450000Y-91600000D01*
G37*
G36*
X147550000Y-88400000D02*
X148100000Y-88800000D01*
X146900000Y-88800000D01*
X147450000Y-88400000D01*
X147550000Y-88400000D01*
X147550000Y-88400000D01*
G37*
G36*
X147450000Y-91600000D02*
X146900000Y-91200000D01*
X148100000Y-91200000D01*
X147550000Y-91600000D01*
X147450000Y-91600000D01*
X147450000Y-91600000D01*
G37*
D17*
X184930000Y-92625000D03*
X184930000Y-93875000D03*
X184930000Y-91375000D03*
X184930000Y-90125000D03*
D18*
X187980000Y-95800000D03*
X187980000Y-88200000D03*
D10*
G36*
X181956687Y-85532932D02*
X183158769Y-84330850D01*
X183583033Y-84755114D01*
X182380951Y-85957196D01*
X181956687Y-85532932D01*
X181956687Y-85532932D01*
G37*
G36*
X182840571Y-86416816D02*
X184042653Y-85214734D01*
X184466917Y-85638998D01*
X183264835Y-86841080D01*
X182840571Y-86416816D01*
X182840571Y-86416816D01*
G37*
G36*
X181072804Y-84649049D02*
X182274886Y-83446967D01*
X182699150Y-83871231D01*
X181497068Y-85073313D01*
X181072804Y-84649049D01*
X181072804Y-84649049D01*
G37*
G36*
X180188920Y-83765165D02*
X181391002Y-82563083D01*
X181815266Y-82987347D01*
X180613184Y-84189429D01*
X180188920Y-83765165D01*
X180188920Y-83765165D01*
G37*
G36*
X185863452Y-85833453D02*
X187772641Y-83924264D01*
X188479748Y-84631371D01*
X186570559Y-86540560D01*
X185863452Y-85833453D01*
X185863452Y-85833453D01*
G37*
G36*
X180489440Y-80459441D02*
X182398629Y-78550252D01*
X183105736Y-79257359D01*
X181196547Y-81166548D01*
X180489440Y-80459441D01*
X180489440Y-80459441D01*
G37*
G36*
X175276010Y-83211971D02*
X175127845Y-81518440D01*
X175725562Y-81466147D01*
X175873727Y-83159678D01*
X175276010Y-83211971D01*
X175276010Y-83211971D01*
G37*
G36*
X176521254Y-83103026D02*
X176373089Y-81409495D01*
X176970806Y-81357202D01*
X177118971Y-83050733D01*
X176521254Y-83103026D01*
X176521254Y-83103026D01*
G37*
G36*
X174030767Y-83320915D02*
X173882602Y-81627384D01*
X174480319Y-81575091D01*
X174628484Y-83268622D01*
X174030767Y-83320915D01*
X174030767Y-83320915D01*
G37*
G36*
X172785524Y-83429860D02*
X172637359Y-81736329D01*
X173235076Y-81684036D01*
X173383241Y-83377567D01*
X172785524Y-83429860D01*
X172785524Y-83429860D01*
G37*
G36*
X178017443Y-80412386D02*
X177782122Y-77722660D01*
X178778317Y-77635504D01*
X179013638Y-80325230D01*
X178017443Y-80412386D01*
X178017443Y-80412386D01*
G37*
G36*
X170446363Y-81074770D02*
X170211042Y-78385044D01*
X171207237Y-78297888D01*
X171442558Y-80987614D01*
X170446363Y-81074770D01*
X170446363Y-81074770D01*
G37*
G36*
X149965808Y-84459789D02*
X150025137Y-82760825D01*
X150624772Y-82781765D01*
X150565443Y-84480729D01*
X149965808Y-84459789D01*
X149965808Y-84459789D01*
G37*
G36*
X151215047Y-84503413D02*
X151274376Y-82804449D01*
X151874011Y-82825389D01*
X151814682Y-84524353D01*
X151215047Y-84503413D01*
X151215047Y-84503413D01*
G37*
G36*
X148716570Y-84416164D02*
X148775899Y-82717200D01*
X149375534Y-82738140D01*
X149316205Y-84437104D01*
X148716570Y-84416164D01*
X148716570Y-84416164D01*
G37*
G36*
X147467331Y-84372540D02*
X147526660Y-82673576D01*
X148126295Y-82694516D01*
X148066966Y-84393480D01*
X147467331Y-84372540D01*
X147467331Y-84372540D01*
G37*
G36*
X153027989Y-82015168D02*
X153122218Y-79316813D01*
X154121609Y-79351712D01*
X154027380Y-82050067D01*
X153027989Y-82015168D01*
X153027989Y-82015168D01*
G37*
G36*
X145432619Y-81749932D02*
X145526848Y-79051577D01*
X146526239Y-79086476D01*
X146432010Y-81784831D01*
X145432619Y-81749932D01*
X145432619Y-81749932D01*
G37*
D17*
X135630000Y-81375000D03*
X135630000Y-80125000D03*
X135630000Y-82625000D03*
X135630000Y-83875000D03*
D18*
X132580000Y-78200000D03*
X132580000Y-85800000D03*
D10*
G36*
X138603313Y-94467068D02*
X137401231Y-95669150D01*
X136976967Y-95244886D01*
X138179049Y-94042804D01*
X138603313Y-94467068D01*
X138603313Y-94467068D01*
G37*
G36*
X137719429Y-93583184D02*
X136517347Y-94785266D01*
X136093083Y-94361002D01*
X137295165Y-93158920D01*
X137719429Y-93583184D01*
X137719429Y-93583184D01*
G37*
G36*
X139487196Y-95350951D02*
X138285114Y-96553033D01*
X137860850Y-96128769D01*
X139062932Y-94926687D01*
X139487196Y-95350951D01*
X139487196Y-95350951D01*
G37*
G36*
X140371080Y-96234835D02*
X139168998Y-97436917D01*
X138744734Y-97012653D01*
X139946816Y-95810571D01*
X140371080Y-96234835D01*
X140371080Y-96234835D01*
G37*
G36*
X134696548Y-94166547D02*
X132787359Y-96075736D01*
X132080252Y-95368629D01*
X133989441Y-93459440D01*
X134696548Y-94166547D01*
X134696548Y-94166547D01*
G37*
G36*
X140070560Y-99540559D02*
X138161371Y-101449748D01*
X137454264Y-100742641D01*
X139363453Y-98833452D01*
X140070560Y-99540559D01*
X140070560Y-99540559D01*
G37*
D19*
X152380000Y-95000000D03*
X154680000Y-94050000D03*
X154680000Y-95950000D03*
X158380000Y-90000000D03*
X160680000Y-89050000D03*
X160680000Y-90950000D03*
D20*
X161530000Y-81250000D03*
X157930000Y-81250000D03*
D21*
X142900000Y-99100000D03*
X155730000Y-83300000D03*
D19*
X167380000Y-81250000D03*
X167380000Y-80300000D03*
X167380000Y-82200000D03*
X165080000Y-82200000D03*
X165080000Y-80300000D03*
D10*
G36*
X178874525Y-92486740D02*
X178804938Y-91991606D01*
X179597153Y-91880268D01*
X179666740Y-92375402D01*
X178874525Y-92486740D01*
X178874525Y-92486740D01*
G37*
G36*
X180062847Y-92319732D02*
X179993260Y-91824598D01*
X180785475Y-91713260D01*
X180855062Y-92208394D01*
X180062847Y-92319732D01*
X180062847Y-92319732D01*
G37*
G36*
X172383883Y-87030330D02*
X172030330Y-87383883D01*
X171464645Y-86818198D01*
X171818198Y-86464645D01*
X172383883Y-87030330D01*
X172383883Y-87030330D01*
G37*
G36*
X171535355Y-86181802D02*
X171181802Y-86535355D01*
X170616117Y-85969670D01*
X170969670Y-85616117D01*
X171535355Y-86181802D01*
X171535355Y-86181802D01*
G37*
G36*
X149096656Y-96708615D02*
X149303834Y-98395943D01*
X148708306Y-98469065D01*
X148501128Y-96781737D01*
X149096656Y-96708615D01*
X149096656Y-96708615D01*
G37*
G36*
X147855973Y-96860952D02*
X148063151Y-98548280D01*
X147467623Y-98621402D01*
X147260445Y-96934074D01*
X147855973Y-96860952D01*
X147855973Y-96860952D01*
G37*
G36*
X150337338Y-96556278D02*
X150544516Y-98243606D01*
X149948988Y-98316728D01*
X149741810Y-96629400D01*
X150337338Y-96556278D01*
X150337338Y-96556278D01*
G37*
G36*
X151578021Y-96403942D02*
X151785199Y-98091270D01*
X151189671Y-98164392D01*
X150982493Y-96477064D01*
X151578021Y-96403942D01*
X151578021Y-96403942D01*
G37*
G36*
X146454597Y-99602169D02*
X146783645Y-102282044D01*
X145791099Y-102403913D01*
X145462051Y-99724038D01*
X146454597Y-99602169D01*
X146454597Y-99602169D01*
G37*
G36*
X153997948Y-98675962D02*
X154326996Y-101355837D01*
X153334450Y-101477706D01*
X153005402Y-98797831D01*
X153997948Y-98675962D01*
X153997948Y-98675962D01*
G37*
G36*
X165930130Y-95445486D02*
X166221206Y-96814892D01*
X165243058Y-97022804D01*
X164951982Y-95653398D01*
X165930130Y-95445486D01*
X165930130Y-95445486D01*
G37*
G36*
X161821910Y-96318715D02*
X162112986Y-97688121D01*
X161134838Y-97896033D01*
X160843762Y-96526627D01*
X161821910Y-96318715D01*
X161821910Y-96318715D01*
G37*
G36*
X168277203Y-97349101D02*
X168485114Y-98327248D01*
X166528819Y-98743071D01*
X166320908Y-97764924D01*
X168277203Y-97349101D01*
X168277203Y-97349101D01*
G37*
G36*
X161430169Y-98804483D02*
X161638080Y-99782630D01*
X159681785Y-100198453D01*
X159473874Y-99220306D01*
X161430169Y-98804483D01*
X161430169Y-98804483D01*
G37*
G36*
X167939340Y-92969848D02*
X168575736Y-92333452D01*
X168787868Y-92545584D01*
X168151472Y-93181980D01*
X167939340Y-92969848D01*
X167939340Y-92969848D01*
G37*
G36*
X167585787Y-92616295D02*
X168434315Y-91767767D01*
X168646447Y-91979899D01*
X167797919Y-92828427D01*
X167585787Y-92616295D01*
X167585787Y-92616295D01*
G37*
G36*
X167232233Y-92262742D02*
X168080761Y-91414214D01*
X168292893Y-91626346D01*
X167444365Y-92474874D01*
X167232233Y-92262742D01*
X167232233Y-92262742D01*
G37*
G36*
X166878680Y-91909188D02*
X167727208Y-91060660D01*
X167939340Y-91272792D01*
X167090812Y-92121320D01*
X166878680Y-91909188D01*
X166878680Y-91909188D01*
G37*
G36*
X166525126Y-91555635D02*
X167373654Y-90707107D01*
X167585786Y-90919239D01*
X166737258Y-91767767D01*
X166525126Y-91555635D01*
X166525126Y-91555635D01*
G37*
G36*
X166171573Y-91202081D02*
X167020101Y-90353553D01*
X167232233Y-90565685D01*
X166383705Y-91414213D01*
X166171573Y-91202081D01*
X166171573Y-91202081D01*
G37*
G36*
X165818020Y-90848528D02*
X166454416Y-90212132D01*
X166666548Y-90424264D01*
X166030152Y-91060660D01*
X165818020Y-90848528D01*
X165818020Y-90848528D01*
G37*
G36*
X166030152Y-88939340D02*
X166666548Y-89575736D01*
X166454416Y-89787868D01*
X165818020Y-89151472D01*
X166030152Y-88939340D01*
X166030152Y-88939340D01*
G37*
G36*
X166383705Y-88585787D02*
X167232233Y-89434315D01*
X167020101Y-89646447D01*
X166171573Y-88797919D01*
X166383705Y-88585787D01*
X166383705Y-88585787D01*
G37*
G36*
X166737258Y-88232233D02*
X167585786Y-89080761D01*
X167373654Y-89292893D01*
X166525126Y-88444365D01*
X166737258Y-88232233D01*
X166737258Y-88232233D01*
G37*
G36*
X167090812Y-87878680D02*
X167939340Y-88727208D01*
X167727208Y-88939340D01*
X166878680Y-88090812D01*
X167090812Y-87878680D01*
X167090812Y-87878680D01*
G37*
G36*
X167444365Y-87525126D02*
X168292893Y-88373654D01*
X168080761Y-88585786D01*
X167232233Y-87737258D01*
X167444365Y-87525126D01*
X167444365Y-87525126D01*
G37*
G36*
X167797919Y-87171573D02*
X168646447Y-88020101D01*
X168434315Y-88232233D01*
X167585787Y-87383705D01*
X167797919Y-87171573D01*
X167797919Y-87171573D01*
G37*
G36*
X168151472Y-86818020D02*
X168787868Y-87454416D01*
X168575736Y-87666548D01*
X167939340Y-87030152D01*
X168151472Y-86818020D01*
X168151472Y-86818020D01*
G37*
G36*
X169212132Y-87454416D02*
X169848528Y-86818020D01*
X170060660Y-87030152D01*
X169424264Y-87666548D01*
X169212132Y-87454416D01*
X169212132Y-87454416D01*
G37*
G36*
X169353553Y-88020101D02*
X170202081Y-87171573D01*
X170414213Y-87383705D01*
X169565685Y-88232233D01*
X169353553Y-88020101D01*
X169353553Y-88020101D01*
G37*
G36*
X169707107Y-88373654D02*
X170555635Y-87525126D01*
X170767767Y-87737258D01*
X169919239Y-88585786D01*
X169707107Y-88373654D01*
X169707107Y-88373654D01*
G37*
G36*
X170060660Y-88727208D02*
X170909188Y-87878680D01*
X171121320Y-88090812D01*
X170272792Y-88939340D01*
X170060660Y-88727208D01*
X170060660Y-88727208D01*
G37*
G36*
X170414214Y-89080761D02*
X171262742Y-88232233D01*
X171474874Y-88444365D01*
X170626346Y-89292893D01*
X170414214Y-89080761D01*
X170414214Y-89080761D01*
G37*
G36*
X170767767Y-89434315D02*
X171616295Y-88585787D01*
X171828427Y-88797919D01*
X170979899Y-89646447D01*
X170767767Y-89434315D01*
X170767767Y-89434315D01*
G37*
G36*
X171333452Y-89575736D02*
X171969848Y-88939340D01*
X172181980Y-89151472D01*
X171545584Y-89787868D01*
X171333452Y-89575736D01*
X171333452Y-89575736D01*
G37*
G36*
X171545584Y-90212132D02*
X172181980Y-90848528D01*
X171969848Y-91060660D01*
X171333452Y-90424264D01*
X171545584Y-90212132D01*
X171545584Y-90212132D01*
G37*
G36*
X170979899Y-90353553D02*
X171828427Y-91202081D01*
X171616295Y-91414213D01*
X170767767Y-90565685D01*
X170979899Y-90353553D01*
X170979899Y-90353553D01*
G37*
G36*
X170626346Y-90707107D02*
X171474874Y-91555635D01*
X171262742Y-91767767D01*
X170414214Y-90919239D01*
X170626346Y-90707107D01*
X170626346Y-90707107D01*
G37*
G36*
X170272792Y-91060660D02*
X171121320Y-91909188D01*
X170909188Y-92121320D01*
X170060660Y-91272792D01*
X170272792Y-91060660D01*
X170272792Y-91060660D01*
G37*
G36*
X169919239Y-91414214D02*
X170767767Y-92262742D01*
X170555635Y-92474874D01*
X169707107Y-91626346D01*
X169919239Y-91414214D01*
X169919239Y-91414214D01*
G37*
G36*
X169565685Y-91767767D02*
X170414213Y-92616295D01*
X170202081Y-92828427D01*
X169353553Y-91979899D01*
X169565685Y-91767767D01*
X169565685Y-91767767D01*
G37*
G36*
X169424264Y-92333452D02*
X170060660Y-92969848D01*
X169848528Y-93181980D01*
X169212132Y-92545584D01*
X169424264Y-92333452D01*
X169424264Y-92333452D01*
G37*
G36*
X168257538Y-92651651D02*
X168823224Y-92085965D01*
X168823224Y-92510229D01*
X168681802Y-92651651D01*
X168257538Y-92651651D01*
X168257538Y-92651651D01*
G37*
G36*
X169176776Y-92085965D02*
X169742462Y-92651651D01*
X169318198Y-92651651D01*
X169176776Y-92510229D01*
X169176776Y-92085965D01*
X169176776Y-92085965D01*
G37*
G36*
X168823224Y-87914035D02*
X168257538Y-87348349D01*
X168681802Y-87348349D01*
X168823224Y-87489771D01*
X168823224Y-87914035D01*
X168823224Y-87914035D01*
G37*
G36*
X169742462Y-87348349D02*
X169176776Y-87914035D01*
X169176776Y-87489771D01*
X169318198Y-87348349D01*
X169742462Y-87348349D01*
X169742462Y-87348349D01*
G37*
G36*
X166914035Y-90176776D02*
X166348349Y-90742462D01*
X166348349Y-90318198D01*
X166489771Y-90176776D01*
X166914035Y-90176776D01*
X166914035Y-90176776D01*
G37*
G36*
X166348349Y-89257538D02*
X166914035Y-89823224D01*
X166489771Y-89823224D01*
X166348349Y-89681802D01*
X166348349Y-89257538D01*
X166348349Y-89257538D01*
G37*
G36*
X171085965Y-89823224D02*
X171651651Y-89257538D01*
X171651651Y-89681802D01*
X171510229Y-89823224D01*
X171085965Y-89823224D01*
X171085965Y-89823224D01*
G37*
G36*
X171651651Y-90742462D02*
X171085965Y-90176776D01*
X171510229Y-90176776D01*
X171651651Y-90318198D01*
X171651651Y-90742462D01*
X171651651Y-90742462D01*
G37*
G36*
X175786106Y-92032091D02*
X176022701Y-93715547D01*
X175428540Y-93799051D01*
X175191945Y-92115595D01*
X175786106Y-92032091D01*
X175786106Y-92032091D01*
G37*
G36*
X174548271Y-92206057D02*
X174784866Y-93889513D01*
X174190705Y-93973017D01*
X173954110Y-92289561D01*
X174548271Y-92206057D01*
X174548271Y-92206057D01*
G37*
G36*
X177023941Y-91858125D02*
X177260536Y-93541581D01*
X176666375Y-93625085D01*
X176429780Y-91941629D01*
X177023941Y-91858125D01*
X177023941Y-91858125D01*
G37*
G36*
X178261776Y-91684158D02*
X178498371Y-93367614D01*
X177904210Y-93451118D01*
X177667615Y-91767662D01*
X178261776Y-91684158D01*
X178261776Y-91684158D01*
G37*
G36*
X171882845Y-95155720D02*
X172258613Y-97829443D01*
X171268345Y-97968616D01*
X170892577Y-95294893D01*
X171882845Y-95155720D01*
X171882845Y-95155720D01*
G37*
G36*
X180795257Y-93903162D02*
X181171025Y-96576885D01*
X180180757Y-96716058D01*
X179804989Y-94042335D01*
X180795257Y-93903162D01*
X180795257Y-93903162D01*
G37*
G36*
X172716275Y-92463528D02*
X173310436Y-92380024D01*
X173547031Y-94063480D01*
X172952870Y-94146984D01*
X172716275Y-92463528D01*
X172716275Y-92463528D01*
G37*
D19*
X155380000Y-92500000D03*
X157680000Y-91550000D03*
X157680000Y-93450000D03*
M02*
