M48
;DRILL file {KiCad 4.0.5-e0-6337~49~ubuntu14.04.1} date Mon May 15 20:50:25 2017
;FORMAT={-:-/ absolute / metric / decimal}
FMAT,2
METRIC,TZ
T1C0.400
T2C3.000
%
G90
G05
M71
T1
X133.4Y-80.85
X139.4Y-98.1
X144.6Y-97.
X145.791Y-92.709
X147.4Y-80.8
X151.2Y-96.6
X151.79Y-100.
X154.15Y-87.1
X154.684Y-81.371
X155.8Y-86.6
X155.8Y-87.5
X156.3Y-91.4
X156.4Y-89.35
X159.Y-87.5
X159.Y-88.4
X161.51Y-98.1
X164.484Y-92.99
X164.6Y-91.
X164.637Y-91.871
X164.8Y-83.2
X164.986Y-90.214
X166.65Y-78.85
X168.5Y-93.9
X169.Y-91.6
X169.9Y-89.4
X170.5Y-90.1
X171.3Y-92.5
X172.583Y-86.383
X173.5Y-80.3
X174.1Y-87.8
X174.2Y-93.9
X175.1Y-84.
X176.2Y-99.1
X177.8Y-80.35
X179.4Y-98.1
X179.7Y-83.4
X182.3Y-96.8
X182.3Y-100.7
X182.4Y-82.35
X184.5Y-94.6
X184.9Y-86.6
X186.2Y-94.485
X186.65Y-89.6
T2
X150.Y-90.
T0
M30
