G04 #@! TF.FileFunction,Legend,Top*
%FSLAX46Y46*%
G04 Gerber Fmt 4.6, Leading zero omitted, Abs format (unit mm)*
G04 Created by KiCad (PCBNEW 4.0.5-e0-6337~49~ubuntu14.04.1) date Mon May 15 20:50:12 2017*
%MOMM*%
%LPD*%
G01*
G04 APERTURE LIST*
%ADD10C,0.100000*%
%ADD11C,0.190000*%
G04 APERTURE END LIST*
D10*
D11*
X161336669Y-99915000D02*
X161336669Y-100801667D01*
X161336669Y-100041667D02*
X161400002Y-99978333D01*
X161526669Y-99915000D01*
X161716669Y-99915000D01*
X161843335Y-99978333D01*
X161906669Y-100105000D01*
X161906669Y-100801667D01*
X163046668Y-100738333D02*
X162920002Y-100801667D01*
X162666668Y-100801667D01*
X162540002Y-100738333D01*
X162476668Y-100611667D01*
X162476668Y-100105000D01*
X162540002Y-99978333D01*
X162666668Y-99915000D01*
X162920002Y-99915000D01*
X163046668Y-99978333D01*
X163110002Y-100105000D01*
X163110002Y-100231667D01*
X162476668Y-100358333D01*
X164250002Y-99915000D02*
X164250002Y-100801667D01*
X163680002Y-99915000D02*
X163680002Y-100611667D01*
X163743335Y-100738333D01*
X163870002Y-100801667D01*
X164060002Y-100801667D01*
X164186668Y-100738333D01*
X164250002Y-100675000D01*
X164883335Y-100801667D02*
X164883335Y-99915000D01*
X164883335Y-100168333D02*
X164946668Y-100041667D01*
X165010001Y-99978333D01*
X165136668Y-99915000D01*
X165263335Y-99915000D01*
X165896668Y-100801667D02*
X165770001Y-100738333D01*
X165706668Y-100675000D01*
X165643334Y-100548333D01*
X165643334Y-100168333D01*
X165706668Y-100041667D01*
X165770001Y-99978333D01*
X165896668Y-99915000D01*
X166086668Y-99915000D01*
X166213334Y-99978333D01*
X166276668Y-100041667D01*
X166340001Y-100168333D01*
X166340001Y-100548333D01*
X166276668Y-100675000D01*
X166213334Y-100738333D01*
X166086668Y-100801667D01*
X165896668Y-100801667D01*
X166720001Y-99915000D02*
X167226667Y-99915000D01*
X166910001Y-99471667D02*
X166910001Y-100611667D01*
X166973334Y-100738333D01*
X167100001Y-100801667D01*
X167226667Y-100801667D01*
X167670001Y-100801667D02*
X167670001Y-99915000D01*
X167670001Y-99471667D02*
X167606667Y-99535000D01*
X167670001Y-99598333D01*
X167733334Y-99535000D01*
X167670001Y-99471667D01*
X167670001Y-99598333D01*
X168303334Y-99915000D02*
X168303334Y-100801667D01*
X168303334Y-100041667D02*
X168366667Y-99978333D01*
X168493334Y-99915000D01*
X168683334Y-99915000D01*
X168810000Y-99978333D01*
X168873334Y-100105000D01*
X168873334Y-100801667D01*
X169506667Y-100801667D02*
X169506667Y-99471667D01*
X169633333Y-100295000D02*
X170013333Y-100801667D01*
X170013333Y-99915000D02*
X169506667Y-100421667D01*
X171090000Y-100738333D02*
X170963334Y-100801667D01*
X170710000Y-100801667D01*
X170583334Y-100738333D01*
X170520000Y-100611667D01*
X170520000Y-100105000D01*
X170583334Y-99978333D01*
X170710000Y-99915000D01*
X170963334Y-99915000D01*
X171090000Y-99978333D01*
X171153334Y-100105000D01*
X171153334Y-100231667D01*
X170520000Y-100358333D01*
X171723334Y-100801667D02*
X171723334Y-99915000D01*
X171723334Y-100168333D02*
X171786667Y-100041667D01*
X171850000Y-99978333D01*
X171976667Y-99915000D01*
X172103334Y-99915000D01*
X172546667Y-100675000D02*
X172610000Y-100738333D01*
X172546667Y-100801667D01*
X172483333Y-100738333D01*
X172546667Y-100675000D01*
X172546667Y-100801667D01*
X173750000Y-100738333D02*
X173623333Y-100801667D01*
X173370000Y-100801667D01*
X173243333Y-100738333D01*
X173180000Y-100675000D01*
X173116666Y-100548333D01*
X173116666Y-100168333D01*
X173180000Y-100041667D01*
X173243333Y-99978333D01*
X173370000Y-99915000D01*
X173623333Y-99915000D01*
X173750000Y-99978333D01*
X174510000Y-100801667D02*
X174383333Y-100738333D01*
X174320000Y-100675000D01*
X174256666Y-100548333D01*
X174256666Y-100168333D01*
X174320000Y-100041667D01*
X174383333Y-99978333D01*
X174510000Y-99915000D01*
X174700000Y-99915000D01*
X174826666Y-99978333D01*
X174890000Y-100041667D01*
X174953333Y-100168333D01*
X174953333Y-100548333D01*
X174890000Y-100675000D01*
X174826666Y-100738333D01*
X174700000Y-100801667D01*
X174510000Y-100801667D01*
X175523333Y-100801667D02*
X175523333Y-99915000D01*
X175523333Y-100041667D02*
X175586666Y-99978333D01*
X175713333Y-99915000D01*
X175903333Y-99915000D01*
X176029999Y-99978333D01*
X176093333Y-100105000D01*
X176093333Y-100801667D01*
X176093333Y-100105000D02*
X176156666Y-99978333D01*
X176283333Y-99915000D01*
X176473333Y-99915000D01*
X176599999Y-99978333D01*
X176663333Y-100105000D01*
X176663333Y-100801667D01*
X162401461Y-98801667D02*
X162567711Y-97471667D01*
X163034794Y-98801667D02*
X163201044Y-97471667D01*
X163794794Y-98801667D01*
X163961044Y-97471667D01*
X164404377Y-97471667D02*
X165164377Y-97471667D01*
X164618127Y-98801667D02*
X164784377Y-97471667D01*
X165528543Y-98105000D02*
X165971876Y-98105000D01*
X166074793Y-98801667D02*
X165441460Y-98801667D01*
X165607710Y-97471667D01*
X166241043Y-97471667D01*
X167404793Y-98801667D02*
X167040625Y-98168333D01*
X166644793Y-98801667D02*
X166811043Y-97471667D01*
X167317709Y-97471667D01*
X167436459Y-97535000D01*
X167491875Y-97598333D01*
X167539376Y-97725000D01*
X167515626Y-97915000D01*
X167436459Y-98041667D01*
X167365209Y-98105000D01*
X167230625Y-98168333D01*
X166723959Y-98168333D01*
X167974793Y-98801667D02*
X168141043Y-97471667D01*
X168734793Y-98801667D01*
X168901043Y-97471667D01*
X169455209Y-98105000D02*
X169898542Y-98105000D01*
X170001459Y-98801667D02*
X169368126Y-98801667D01*
X169534376Y-97471667D01*
X170167709Y-97471667D01*
X170737709Y-97471667D02*
X170603125Y-98548333D01*
X170650625Y-98675000D01*
X170706041Y-98738333D01*
X170824792Y-98801667D01*
X171078125Y-98801667D01*
X171212708Y-98738333D01*
X171283958Y-98675000D01*
X171363125Y-98548333D01*
X171497709Y-97471667D01*
X172724792Y-98801667D02*
X172360624Y-98168333D01*
X171964792Y-98801667D02*
X172131042Y-97471667D01*
X172637708Y-97471667D01*
X172756458Y-97535000D01*
X172811874Y-97598333D01*
X172859375Y-97725000D01*
X172835625Y-97915000D01*
X172756458Y-98041667D01*
X172685208Y-98105000D01*
X172550624Y-98168333D01*
X172043958Y-98168333D01*
X173714375Y-97471667D02*
X173967708Y-97471667D01*
X174086458Y-97535000D01*
X174197292Y-97661667D01*
X174228958Y-97915000D01*
X174173541Y-98358333D01*
X174078542Y-98611667D01*
X173936041Y-98738333D01*
X173801458Y-98801667D01*
X173548125Y-98801667D01*
X173429374Y-98738333D01*
X173318542Y-98611667D01*
X173286874Y-98358333D01*
X173342291Y-97915000D01*
X173437292Y-97661667D01*
X173579791Y-97535000D01*
X173714375Y-97471667D01*
X174688125Y-98801667D02*
X174854375Y-97471667D01*
X175448125Y-98801667D01*
X175614375Y-97471667D01*
M02*
