G04 #@! TF.FileFunction,Other,Fab,Bot*
%FSLAX46Y46*%
G04 Gerber Fmt 4.6, Leading zero omitted, Abs format (unit mm)*
G04 Created by KiCad (PCBNEW 4.0.7-e2-6376~58~ubuntu14.04.1) date Wed Aug  8 14:37:32 2018*
%MOMM*%
%LPD*%
G01*
G04 APERTURE LIST*
%ADD10C,0.100000*%
%ADD11C,0.150000*%
G04 APERTURE END LIST*
D10*
D11*
X156630000Y-94750000D02*
X156630000Y-95250000D01*
X157630000Y-94750000D02*
X156630000Y-94750000D01*
X157630000Y-95250000D02*
X157630000Y-94750000D01*
X156630000Y-95250000D02*
X157630000Y-95250000D01*
X154530000Y-88750000D02*
X154530000Y-89250000D01*
X155530000Y-88750000D02*
X154530000Y-88750000D01*
X155530000Y-89250000D02*
X155530000Y-88750000D01*
X154530000Y-89250000D02*
X155530000Y-89250000D01*
X145250000Y-90500000D02*
X145750000Y-90500000D01*
X145250000Y-89500000D02*
X145250000Y-90500000D01*
X145750000Y-89500000D02*
X145250000Y-89500000D01*
X145750000Y-90500000D02*
X145750000Y-89500000D01*
X164480000Y-93100000D02*
X164980000Y-93100000D01*
X164480000Y-92100000D02*
X164480000Y-93100000D01*
X164980000Y-92100000D02*
X164480000Y-92100000D01*
X164980000Y-93100000D02*
X164980000Y-92100000D01*
X154530000Y-89750000D02*
X154530000Y-90250000D01*
X155530000Y-89750000D02*
X154530000Y-89750000D01*
X155530000Y-90250000D02*
X155530000Y-89750000D01*
X154530000Y-90250000D02*
X155530000Y-90250000D01*
X159530000Y-92250000D02*
X159530000Y-92750000D01*
X160530000Y-92250000D02*
X159530000Y-92250000D01*
X160530000Y-92750000D02*
X160530000Y-92250000D01*
X159530000Y-92750000D02*
X160530000Y-92750000D01*
X162530000Y-89750000D02*
X162530000Y-90250000D01*
X163530000Y-89750000D02*
X162530000Y-89750000D01*
X163530000Y-90250000D02*
X163530000Y-89750000D01*
X162530000Y-90250000D02*
X163530000Y-90250000D01*
D10*
X163680000Y-80450000D02*
X162880000Y-80450000D01*
X163680000Y-82050000D02*
X163680000Y-80450000D01*
X162880000Y-82050000D02*
X163680000Y-82050000D01*
X162880000Y-80450000D02*
X162880000Y-82050000D01*
X169630000Y-80450000D02*
X168830000Y-80450000D01*
X169630000Y-82050000D02*
X169630000Y-80450000D01*
X168830000Y-82050000D02*
X169630000Y-82050000D01*
X168830000Y-80450000D02*
X168830000Y-82050000D01*
D11*
X179300073Y-91922020D02*
X179369659Y-92417154D01*
X180290341Y-91782846D02*
X179300073Y-91922020D01*
X180359927Y-92277980D02*
X180290341Y-91782846D01*
X179369659Y-92417154D02*
X180359927Y-92277980D01*
X171676777Y-87030330D02*
X172030330Y-86676777D01*
X170969670Y-86323223D02*
X171676777Y-87030330D01*
X171323223Y-85969670D02*
X170969670Y-86323223D01*
X172030330Y-86676777D02*
X171323223Y-85969670D01*
X157296666Y-96452381D02*
X157630000Y-95976190D01*
X157868095Y-96452381D02*
X157868095Y-95452381D01*
X157487142Y-95452381D01*
X157391904Y-95500000D01*
X157344285Y-95547619D01*
X157296666Y-95642857D01*
X157296666Y-95785714D01*
X157344285Y-95880952D01*
X157391904Y-95928571D01*
X157487142Y-95976190D01*
X157868095Y-95976190D01*
X156963333Y-95452381D02*
X156296666Y-95452381D01*
X156725238Y-96452381D01*
X155196666Y-88452381D02*
X155530000Y-87976190D01*
X155768095Y-88452381D02*
X155768095Y-87452381D01*
X155387142Y-87452381D01*
X155291904Y-87500000D01*
X155244285Y-87547619D01*
X155196666Y-87642857D01*
X155196666Y-87785714D01*
X155244285Y-87880952D01*
X155291904Y-87928571D01*
X155387142Y-87976190D01*
X155768095Y-87976190D01*
X154815714Y-87547619D02*
X154768095Y-87500000D01*
X154672857Y-87452381D01*
X154434761Y-87452381D01*
X154339523Y-87500000D01*
X154291904Y-87547619D01*
X154244285Y-87642857D01*
X154244285Y-87738095D01*
X154291904Y-87880952D01*
X154863333Y-88452381D01*
X154244285Y-88452381D01*
X144982381Y-89833334D02*
X144506190Y-89500000D01*
X144982381Y-89261905D02*
X143982381Y-89261905D01*
X143982381Y-89642858D01*
X144030000Y-89738096D01*
X144077619Y-89785715D01*
X144172857Y-89833334D01*
X144315714Y-89833334D01*
X144410952Y-89785715D01*
X144458571Y-89738096D01*
X144506190Y-89642858D01*
X144506190Y-89261905D01*
X143982381Y-90166667D02*
X143982381Y-90785715D01*
X144363333Y-90452381D01*
X144363333Y-90595239D01*
X144410952Y-90690477D01*
X144458571Y-90738096D01*
X144553810Y-90785715D01*
X144791905Y-90785715D01*
X144887143Y-90738096D01*
X144934762Y-90690477D01*
X144982381Y-90595239D01*
X144982381Y-90309524D01*
X144934762Y-90214286D01*
X144887143Y-90166667D01*
X164232381Y-92433334D02*
X163756190Y-92100000D01*
X164232381Y-91861905D02*
X163232381Y-91861905D01*
X163232381Y-92242858D01*
X163280000Y-92338096D01*
X163327619Y-92385715D01*
X163422857Y-92433334D01*
X163565714Y-92433334D01*
X163660952Y-92385715D01*
X163708571Y-92338096D01*
X163756190Y-92242858D01*
X163756190Y-91861905D01*
X163565714Y-93290477D02*
X164232381Y-93290477D01*
X163184762Y-93052381D02*
X163899048Y-92814286D01*
X163899048Y-93433334D01*
X154946666Y-91452381D02*
X155280000Y-90976190D01*
X155518095Y-91452381D02*
X155518095Y-90452381D01*
X155137142Y-90452381D01*
X155041904Y-90500000D01*
X154994285Y-90547619D01*
X154946666Y-90642857D01*
X154946666Y-90785714D01*
X154994285Y-90880952D01*
X155041904Y-90928571D01*
X155137142Y-90976190D01*
X155518095Y-90976190D01*
X153994285Y-91452381D02*
X154565714Y-91452381D01*
X154280000Y-91452381D02*
X154280000Y-90452381D01*
X154375238Y-90595238D01*
X154470476Y-90690476D01*
X154565714Y-90738095D01*
X160196666Y-93952381D02*
X160530000Y-93476190D01*
X160768095Y-93952381D02*
X160768095Y-92952381D01*
X160387142Y-92952381D01*
X160291904Y-93000000D01*
X160244285Y-93047619D01*
X160196666Y-93142857D01*
X160196666Y-93285714D01*
X160244285Y-93380952D01*
X160291904Y-93428571D01*
X160387142Y-93476190D01*
X160768095Y-93476190D01*
X159291904Y-92952381D02*
X159768095Y-92952381D01*
X159815714Y-93428571D01*
X159768095Y-93380952D01*
X159672857Y-93333333D01*
X159434761Y-93333333D01*
X159339523Y-93380952D01*
X159291904Y-93428571D01*
X159244285Y-93523810D01*
X159244285Y-93761905D01*
X159291904Y-93857143D01*
X159339523Y-93904762D01*
X159434761Y-93952381D01*
X159672857Y-93952381D01*
X159768095Y-93904762D01*
X159815714Y-93857143D01*
X163196666Y-89452381D02*
X163530000Y-88976190D01*
X163768095Y-89452381D02*
X163768095Y-88452381D01*
X163387142Y-88452381D01*
X163291904Y-88500000D01*
X163244285Y-88547619D01*
X163196666Y-88642857D01*
X163196666Y-88785714D01*
X163244285Y-88880952D01*
X163291904Y-88928571D01*
X163387142Y-88976190D01*
X163768095Y-88976190D01*
X162339523Y-88452381D02*
X162530000Y-88452381D01*
X162625238Y-88500000D01*
X162672857Y-88547619D01*
X162768095Y-88690476D01*
X162815714Y-88880952D01*
X162815714Y-89261905D01*
X162768095Y-89357143D01*
X162720476Y-89404762D01*
X162625238Y-89452381D01*
X162434761Y-89452381D01*
X162339523Y-89404762D01*
X162291904Y-89357143D01*
X162244285Y-89261905D01*
X162244285Y-89023810D01*
X162291904Y-88928571D01*
X162339523Y-88880952D01*
X162434761Y-88833333D01*
X162625238Y-88833333D01*
X162720476Y-88880952D01*
X162768095Y-88928571D01*
X162815714Y-89023810D01*
X163637143Y-83083334D02*
X163684762Y-83035715D01*
X163732381Y-82892858D01*
X163732381Y-82797620D01*
X163684762Y-82654762D01*
X163589524Y-82559524D01*
X163494286Y-82511905D01*
X163303810Y-82464286D01*
X163160952Y-82464286D01*
X162970476Y-82511905D01*
X162875238Y-82559524D01*
X162780000Y-82654762D01*
X162732381Y-82797620D01*
X162732381Y-82892858D01*
X162780000Y-83035715D01*
X162827619Y-83083334D01*
X163065714Y-83940477D02*
X163732381Y-83940477D01*
X162684762Y-83702381D02*
X163399048Y-83464286D01*
X163399048Y-84083334D01*
X169637143Y-83083334D02*
X169684762Y-83035715D01*
X169732381Y-82892858D01*
X169732381Y-82797620D01*
X169684762Y-82654762D01*
X169589524Y-82559524D01*
X169494286Y-82511905D01*
X169303810Y-82464286D01*
X169160952Y-82464286D01*
X168970476Y-82511905D01*
X168875238Y-82559524D01*
X168780000Y-82654762D01*
X168732381Y-82797620D01*
X168732381Y-82892858D01*
X168780000Y-83035715D01*
X168827619Y-83083334D01*
X169732381Y-84035715D02*
X169732381Y-83464286D01*
X169732381Y-83750000D02*
X168732381Y-83750000D01*
X168875238Y-83654762D01*
X168970476Y-83559524D01*
X169018095Y-83464286D01*
X150738095Y-90452381D02*
X150738095Y-89452381D01*
X150500000Y-89452381D01*
X150357142Y-89500000D01*
X150261904Y-89595238D01*
X150214285Y-89690476D01*
X150166666Y-89880952D01*
X150166666Y-90023810D01*
X150214285Y-90214286D01*
X150261904Y-90309524D01*
X150357142Y-90404762D01*
X150500000Y-90452381D01*
X150738095Y-90452381D01*
X149214285Y-90452381D02*
X149785714Y-90452381D01*
X149500000Y-90452381D02*
X149500000Y-89452381D01*
X149595238Y-89595238D01*
X149690476Y-89690476D01*
X149785714Y-89738095D01*
X188068095Y-92452381D02*
X188068095Y-91452381D01*
X187687142Y-91452381D01*
X187591904Y-91500000D01*
X187544285Y-91547619D01*
X187496666Y-91642857D01*
X187496666Y-91785714D01*
X187544285Y-91880952D01*
X187591904Y-91928571D01*
X187687142Y-91976190D01*
X188068095Y-91976190D01*
X186591904Y-91452381D02*
X187068095Y-91452381D01*
X187115714Y-91928571D01*
X187068095Y-91880952D01*
X186972857Y-91833333D01*
X186734761Y-91833333D01*
X186639523Y-91880952D01*
X186591904Y-91928571D01*
X186544285Y-92023810D01*
X186544285Y-92261905D01*
X186591904Y-92357143D01*
X186639523Y-92404762D01*
X186734761Y-92452381D01*
X186972857Y-92452381D01*
X187068095Y-92404762D01*
X187115714Y-92357143D01*
X184866769Y-82802995D02*
X184159662Y-82095888D01*
X183890287Y-82365262D01*
X183856616Y-82466278D01*
X183856616Y-82533621D01*
X183890287Y-82634636D01*
X183991303Y-82735651D01*
X184092318Y-82769323D01*
X184159661Y-82769323D01*
X184260676Y-82735651D01*
X184530051Y-82466277D01*
X183519899Y-82735651D02*
X183048494Y-83207056D01*
X184058647Y-83611117D01*
X174282661Y-80777378D02*
X175278855Y-80690222D01*
X175245653Y-80310719D01*
X175189915Y-80219994D01*
X175138327Y-80176706D01*
X175039301Y-80137569D01*
X174896987Y-80150020D01*
X174806262Y-80205758D01*
X174762975Y-80257346D01*
X174723837Y-80356372D01*
X174757040Y-80735875D01*
X175154347Y-79267086D02*
X175170948Y-79456839D01*
X175131811Y-79555864D01*
X175088523Y-79607452D01*
X174954511Y-79714779D01*
X174768910Y-79778818D01*
X174389406Y-79812020D01*
X174290381Y-79772883D01*
X174238792Y-79729595D01*
X174183054Y-79638870D01*
X174166453Y-79449118D01*
X174205590Y-79350092D01*
X174248878Y-79298504D01*
X174339603Y-79242765D01*
X174576792Y-79222014D01*
X174675819Y-79261151D01*
X174727407Y-79304439D01*
X174783145Y-79395164D01*
X174799746Y-79584916D01*
X174760609Y-79683942D01*
X174717322Y-79735530D01*
X174626595Y-79791269D01*
X150232295Y-80478568D02*
X149232904Y-80443669D01*
X149219609Y-80824390D01*
X149263875Y-80921232D01*
X149309803Y-80970484D01*
X149403321Y-81021397D01*
X149546091Y-81026383D01*
X149642933Y-80982117D01*
X149692185Y-80936189D01*
X149743099Y-80842671D01*
X149756394Y-80461950D01*
X150179114Y-82001450D02*
X150199057Y-81430369D01*
X150189086Y-81715909D02*
X149189695Y-81681010D01*
X149335789Y-81590815D01*
X149434292Y-81498959D01*
X149485206Y-81405441D01*
X133968095Y-82452381D02*
X133968095Y-81452381D01*
X133587142Y-81452381D01*
X133491904Y-81500000D01*
X133444285Y-81547619D01*
X133396666Y-81642857D01*
X133396666Y-81785714D01*
X133444285Y-81880952D01*
X133491904Y-81928571D01*
X133587142Y-81976190D01*
X133968095Y-81976190D01*
X133015714Y-81547619D02*
X132968095Y-81500000D01*
X132872857Y-81452381D01*
X132634761Y-81452381D01*
X132539523Y-81500000D01*
X132491904Y-81547619D01*
X132444285Y-81642857D01*
X132444285Y-81738095D01*
X132491904Y-81880952D01*
X133063333Y-82452381D01*
X132444285Y-82452381D01*
X137376819Y-96792945D02*
X136669712Y-96085838D01*
X136400337Y-96355212D01*
X136366666Y-96456228D01*
X136366666Y-96523571D01*
X136400337Y-96624586D01*
X136501353Y-96725601D01*
X136602368Y-96759273D01*
X136669711Y-96759273D01*
X136770726Y-96725601D01*
X137040101Y-96456227D01*
X136029949Y-96725601D02*
X135592215Y-97163334D01*
X136097292Y-97197005D01*
X135996276Y-97298021D01*
X135962604Y-97399036D01*
X135962604Y-97466380D01*
X135996277Y-97567396D01*
X136164635Y-97735754D01*
X136265651Y-97769426D01*
X136332994Y-97769426D01*
X136434009Y-97735754D01*
X136636040Y-97533723D01*
X136669712Y-97432708D01*
X136669712Y-97365365D01*
X154077619Y-94904762D02*
X154030000Y-94809524D01*
X153934762Y-94714286D01*
X153791905Y-94571429D01*
X153744286Y-94476190D01*
X153744286Y-94380952D01*
X153982381Y-94428571D02*
X153934762Y-94333333D01*
X153839524Y-94238095D01*
X153649048Y-94190476D01*
X153315714Y-94190476D01*
X153125238Y-94238095D01*
X153030000Y-94333333D01*
X152982381Y-94428571D01*
X152982381Y-94619048D01*
X153030000Y-94714286D01*
X153125238Y-94809524D01*
X153315714Y-94857143D01*
X153649048Y-94857143D01*
X153839524Y-94809524D01*
X153934762Y-94714286D01*
X153982381Y-94619048D01*
X153982381Y-94428571D01*
X152982381Y-95190476D02*
X152982381Y-95809524D01*
X153363333Y-95476190D01*
X153363333Y-95619048D01*
X153410952Y-95714286D01*
X153458571Y-95761905D01*
X153553810Y-95809524D01*
X153791905Y-95809524D01*
X153887143Y-95761905D01*
X153934762Y-95714286D01*
X153982381Y-95619048D01*
X153982381Y-95333333D01*
X153934762Y-95238095D01*
X153887143Y-95190476D01*
X160077619Y-89904762D02*
X160030000Y-89809524D01*
X159934762Y-89714286D01*
X159791905Y-89571429D01*
X159744286Y-89476190D01*
X159744286Y-89380952D01*
X159982381Y-89428571D02*
X159934762Y-89333333D01*
X159839524Y-89238095D01*
X159649048Y-89190476D01*
X159315714Y-89190476D01*
X159125238Y-89238095D01*
X159030000Y-89333333D01*
X158982381Y-89428571D01*
X158982381Y-89619048D01*
X159030000Y-89714286D01*
X159125238Y-89809524D01*
X159315714Y-89857143D01*
X159649048Y-89857143D01*
X159839524Y-89809524D01*
X159934762Y-89714286D01*
X159982381Y-89619048D01*
X159982381Y-89428571D01*
X159077619Y-90238095D02*
X159030000Y-90285714D01*
X158982381Y-90380952D01*
X158982381Y-90619048D01*
X159030000Y-90714286D01*
X159077619Y-90761905D01*
X159172857Y-90809524D01*
X159268095Y-90809524D01*
X159410952Y-90761905D01*
X159982381Y-90190476D01*
X159982381Y-90809524D01*
X159896666Y-81607143D02*
X159944285Y-81654762D01*
X160087142Y-81702381D01*
X160182380Y-81702381D01*
X160325238Y-81654762D01*
X160420476Y-81559524D01*
X160468095Y-81464286D01*
X160515714Y-81273810D01*
X160515714Y-81130952D01*
X160468095Y-80940476D01*
X160420476Y-80845238D01*
X160325238Y-80750000D01*
X160182380Y-80702381D01*
X160087142Y-80702381D01*
X159944285Y-80750000D01*
X159896666Y-80797619D01*
X159515714Y-80797619D02*
X159468095Y-80750000D01*
X159372857Y-80702381D01*
X159134761Y-80702381D01*
X159039523Y-80750000D01*
X158991904Y-80797619D01*
X158944285Y-80892857D01*
X158944285Y-80988095D01*
X158991904Y-81130952D01*
X159563333Y-81702381D01*
X158944285Y-81702381D01*
X165682381Y-80488095D02*
X166491905Y-80488095D01*
X166587143Y-80535714D01*
X166634762Y-80583333D01*
X166682381Y-80678571D01*
X166682381Y-80869048D01*
X166634762Y-80964286D01*
X166587143Y-81011905D01*
X166491905Y-81059524D01*
X165682381Y-81059524D01*
X165777619Y-81488095D02*
X165730000Y-81535714D01*
X165682381Y-81630952D01*
X165682381Y-81869048D01*
X165730000Y-81964286D01*
X165777619Y-82011905D01*
X165872857Y-82059524D01*
X165968095Y-82059524D01*
X166110952Y-82011905D01*
X166682381Y-81440476D01*
X166682381Y-82059524D01*
X179870783Y-91580472D02*
X179924566Y-91621000D01*
X180072660Y-91648274D01*
X180166971Y-91635019D01*
X180301811Y-91567982D01*
X180382868Y-91460416D01*
X180416769Y-91359478D01*
X180437415Y-91164228D01*
X180417533Y-91022760D01*
X180343868Y-90840765D01*
X180283458Y-90753081D01*
X180175893Y-90672025D01*
X180027798Y-90644751D01*
X179933486Y-90658006D01*
X179798647Y-90725043D01*
X179758119Y-90778826D01*
X178848907Y-90810433D02*
X179320464Y-90744161D01*
X179433892Y-91209089D01*
X179380110Y-91168561D01*
X179279171Y-91134660D01*
X179043392Y-91167796D01*
X178955708Y-91228206D01*
X178915180Y-91281989D01*
X178881279Y-91382929D01*
X178914416Y-91618707D01*
X178974826Y-91706390D01*
X179028609Y-91746919D01*
X179129547Y-91780820D01*
X179365326Y-91747683D01*
X179453010Y-91687273D01*
X179493538Y-91633490D01*
X170645312Y-87620389D02*
X170645312Y-87687732D01*
X170712656Y-87822419D01*
X170779999Y-87889763D01*
X170914687Y-87957107D01*
X171049374Y-87957107D01*
X171150389Y-87923435D01*
X171318747Y-87822420D01*
X171419763Y-87721404D01*
X171520778Y-87553045D01*
X171554450Y-87452030D01*
X171554450Y-87317343D01*
X171487106Y-87182656D01*
X171419763Y-87115312D01*
X171285076Y-87047969D01*
X171217732Y-87047969D01*
X171049374Y-86744924D02*
X170611641Y-86307190D01*
X170577970Y-86812267D01*
X170476954Y-86711251D01*
X170375939Y-86677579D01*
X170308595Y-86677579D01*
X170207579Y-86711252D01*
X170039221Y-86879610D01*
X170005549Y-86980626D01*
X170005549Y-87047969D01*
X170039221Y-87148984D01*
X170241252Y-87351015D01*
X170342267Y-87384687D01*
X170409610Y-87384687D01*
X149456251Y-100682507D02*
X150448797Y-100560637D01*
X150402371Y-100182524D01*
X150343500Y-100093799D01*
X150290433Y-100052338D01*
X150190101Y-100016681D01*
X150048309Y-100034091D01*
X149959584Y-100092961D01*
X149918124Y-100146029D01*
X149882466Y-100246360D01*
X149928893Y-100624474D01*
X149943850Y-99183337D02*
X149282152Y-99264583D01*
X150350979Y-99373232D02*
X149671033Y-99696602D01*
X149595590Y-99082168D01*
X165222307Y-98207775D02*
X165092473Y-98284056D01*
X164859580Y-98333558D01*
X164756522Y-98306781D01*
X164700043Y-98270103D01*
X164633664Y-98186847D01*
X164613863Y-98093690D01*
X164640640Y-97990633D01*
X164677318Y-97934154D01*
X164760574Y-97867773D01*
X164936988Y-97781593D01*
X165020244Y-97715213D01*
X165056922Y-97658734D01*
X165083699Y-97555677D01*
X165063898Y-97462520D01*
X164997519Y-97379264D01*
X164941040Y-97342586D01*
X164837982Y-97315808D01*
X164605089Y-97365311D01*
X164475255Y-97441591D01*
X164139305Y-97464317D02*
X164114325Y-98491967D01*
X163779502Y-97832892D01*
X163741697Y-98571172D01*
X163300893Y-97642527D01*
X162623814Y-98808785D02*
X163182756Y-98689978D01*
X162903285Y-98749382D02*
X162695374Y-97771234D01*
X162818232Y-97891168D01*
X162931190Y-97964524D01*
X163034247Y-97991301D01*
X169925973Y-90151523D02*
X169353553Y-90723943D01*
X169252538Y-90757615D01*
X169185195Y-90757615D01*
X169084180Y-90723943D01*
X168949492Y-90589255D01*
X168915820Y-90488240D01*
X168915820Y-90420897D01*
X168949492Y-90319882D01*
X169521912Y-89747462D01*
X168107698Y-89747462D02*
X168511760Y-90151523D01*
X168309729Y-89949493D02*
X169016836Y-89242386D01*
X168983164Y-89410745D01*
X168983164Y-89545431D01*
X169016836Y-89646447D01*
X175623918Y-96284139D02*
X176614186Y-96144966D01*
X176561167Y-95767720D01*
X176500757Y-95680037D01*
X176446974Y-95639508D01*
X176346036Y-95605607D01*
X176204569Y-95625489D01*
X176116885Y-95685899D01*
X176076357Y-95739682D01*
X176042456Y-95840621D01*
X176095474Y-96217866D01*
X176030730Y-95072877D02*
X176091141Y-95160561D01*
X176144923Y-95201089D01*
X176245862Y-95234990D01*
X176293017Y-95228363D01*
X176380701Y-95167953D01*
X176421230Y-95114170D01*
X176455131Y-95013231D01*
X176428621Y-94824608D01*
X176368211Y-94736924D01*
X176314428Y-94696396D01*
X176213490Y-94662495D01*
X176166334Y-94669122D01*
X176078650Y-94729532D01*
X176038122Y-94783315D01*
X176004221Y-94884254D01*
X176030730Y-95072877D01*
X175996829Y-95173815D01*
X175956301Y-95227598D01*
X175868616Y-95288008D01*
X175679994Y-95314518D01*
X175579056Y-95280617D01*
X175525273Y-95240088D01*
X175464863Y-95152404D01*
X175438353Y-94963781D01*
X175472254Y-94862843D01*
X175512783Y-94809060D01*
X175600466Y-94748650D01*
X175789089Y-94722141D01*
X175890028Y-94756041D01*
X175943811Y-94796570D01*
X176004221Y-94884254D01*
X157077619Y-92404762D02*
X157030000Y-92309524D01*
X156934762Y-92214286D01*
X156791905Y-92071429D01*
X156744286Y-91976190D01*
X156744286Y-91880952D01*
X156982381Y-91928571D02*
X156934762Y-91833333D01*
X156839524Y-91738095D01*
X156649048Y-91690476D01*
X156315714Y-91690476D01*
X156125238Y-91738095D01*
X156030000Y-91833333D01*
X155982381Y-91928571D01*
X155982381Y-92119048D01*
X156030000Y-92214286D01*
X156125238Y-92309524D01*
X156315714Y-92357143D01*
X156649048Y-92357143D01*
X156839524Y-92309524D01*
X156934762Y-92214286D01*
X156982381Y-92119048D01*
X156982381Y-91928571D01*
X156982381Y-93309524D02*
X156982381Y-92738095D01*
X156982381Y-93023809D02*
X155982381Y-93023809D01*
X156125238Y-92928571D01*
X156220476Y-92833333D01*
X156268095Y-92738095D01*
M02*
