G04 #@! TF.FileFunction,Profile,NP*
%FSLAX46Y46*%
G04 Gerber Fmt 4.6, Leading zero omitted, Abs format (unit mm)*
G04 Created by KiCad (PCBNEW 4.0.7-e2-6376~58~ubuntu14.04.1) date Wed May 23 14:48:08 2018*
%MOMM*%
%LPD*%
G01*
G04 APERTURE LIST*
%ADD10C,0.100000*%
G04 APERTURE END LIST*
D10*
X131007191Y-90070789D02*
X131007188Y-77603600D01*
X131021753Y-90769487D02*
X131007191Y-90070789D01*
X131065128Y-91452893D02*
X131021753Y-90769487D01*
X131136815Y-92120555D02*
X131065128Y-91452893D01*
X131236330Y-92772023D02*
X131136815Y-92120555D01*
X131363180Y-93406842D02*
X131236330Y-92772023D01*
X131516878Y-94024562D02*
X131363180Y-93406842D01*
X131696928Y-94624730D02*
X131516878Y-94024562D01*
X131902845Y-95206898D02*
X131696928Y-94624730D01*
X132134138Y-95770611D02*
X131902845Y-95206898D01*
X132390317Y-96315416D02*
X132134138Y-95770611D01*
X132670888Y-96840866D02*
X132390317Y-96315416D01*
X132975363Y-97346503D02*
X132670888Y-96840866D01*
X133303258Y-97831881D02*
X132975363Y-97346503D01*
X133654074Y-98296545D02*
X133303258Y-97831881D01*
X134027324Y-98740043D02*
X133654074Y-98296545D01*
X134422517Y-99161926D02*
X134027324Y-98740043D01*
X134839167Y-99561739D02*
X134422517Y-99161926D01*
X135276781Y-99939033D02*
X134839167Y-99561739D01*
X135734867Y-100293355D02*
X135276781Y-99939033D01*
X136212938Y-100624252D02*
X135734867Y-100293355D01*
X136710501Y-100931273D02*
X136212938Y-100624252D01*
X137227069Y-101213967D02*
X136710501Y-100931273D01*
X137762149Y-101471884D02*
X137227069Y-101213967D01*
X138315253Y-101704568D02*
X137762149Y-101471884D01*
X138885890Y-101911569D02*
X138315253Y-101704568D01*
X139473569Y-102092437D02*
X138885890Y-101911569D01*
X140077802Y-102246717D02*
X139473569Y-102092437D01*
X140698095Y-102373959D02*
X140077802Y-102246717D01*
X141333961Y-102473714D02*
X140698095Y-102373959D01*
X141984913Y-102545525D02*
X141333961Y-102473714D01*
X142650452Y-102588942D02*
X141984913Y-102545525D01*
X143330097Y-102603505D02*
X142650452Y-102588942D01*
X143981985Y-102598989D02*
X143330097Y-102603505D01*
X144633323Y-102585584D02*
X143981985Y-102598989D01*
X145284246Y-102563627D02*
X144633323Y-102585584D01*
X145934886Y-102533364D02*
X145284246Y-102563627D01*
X146585372Y-102495095D02*
X145934886Y-102533364D01*
X147235841Y-102449107D02*
X146585372Y-102495095D01*
X147886419Y-102395682D02*
X147235841Y-102449107D01*
X148537243Y-102335109D02*
X147886419Y-102395682D01*
X149188440Y-102267674D02*
X148537243Y-102335109D01*
X149840148Y-102193662D02*
X149188440Y-102267674D01*
X150492496Y-102113361D02*
X149840148Y-102193662D01*
X151145615Y-102027052D02*
X150492496Y-102113361D01*
X151799639Y-101935025D02*
X151145615Y-102027052D01*
X152454700Y-101837565D02*
X151799639Y-101935025D01*
X153110925Y-101734960D02*
X152454700Y-101837565D01*
X153768455Y-101627493D02*
X153110925Y-101734960D01*
X154427416Y-101515451D02*
X153768455Y-101627493D01*
X155087940Y-101399119D02*
X154427416Y-101515451D01*
X155750160Y-101278782D02*
X155087940Y-101399119D01*
X156414212Y-101154731D02*
X155750160Y-101278782D01*
X157080220Y-101027249D02*
X156414212Y-101154731D01*
X157748325Y-100896619D02*
X157080220Y-101027249D01*
X158418651Y-100763131D02*
X157748325Y-100896619D01*
X159091333Y-100627069D02*
X158418651Y-100763131D01*
X159766504Y-100488718D02*
X159091333Y-100627069D01*
X160444298Y-100348369D02*
X159766504Y-100488718D01*
X161124843Y-100206301D02*
X160444298Y-100348369D01*
X161808272Y-100062805D02*
X161124843Y-100206301D01*
X162494718Y-99918163D02*
X161808272Y-100062805D01*
X163184311Y-99772666D02*
X162494718Y-99918163D01*
X163877187Y-99626597D02*
X163184311Y-99772666D01*
X164573477Y-99480239D02*
X163877187Y-99626597D01*
X165273309Y-99333884D02*
X164573477Y-99480239D01*
X165976818Y-99187814D02*
X165273309Y-99333884D01*
X166684135Y-99042318D02*
X165976818Y-99187814D01*
X167395394Y-98897676D02*
X166684135Y-99042318D01*
X168110729Y-98754180D02*
X167395394Y-98897676D01*
X168830263Y-98612112D02*
X168110729Y-98754180D01*
X169554138Y-98471763D02*
X168830263Y-98612112D01*
X170282480Y-98333412D02*
X169554138Y-98471763D01*
X171015425Y-98197350D02*
X170282480Y-98333412D01*
X171753100Y-98063862D02*
X171015425Y-98197350D01*
X172495641Y-97933232D02*
X171753100Y-98063862D01*
X173243180Y-97805750D02*
X172495641Y-97933232D01*
X173995850Y-97681699D02*
X173243180Y-97805750D01*
X174753777Y-97561362D02*
X173995850Y-97681699D01*
X175517098Y-97445030D02*
X174753777Y-97561362D01*
X176285948Y-97332988D02*
X175517098Y-97445030D01*
X177060450Y-97225520D02*
X176285948Y-97332988D01*
X177840744Y-97122916D02*
X177060450Y-97225520D01*
X178626958Y-97025456D02*
X177840744Y-97122916D01*
X179419227Y-96933429D02*
X178626958Y-97025456D01*
X180217678Y-96847120D02*
X179419227Y-96933429D01*
X181022449Y-96766819D02*
X180217678Y-96847120D01*
X181833669Y-96692806D02*
X181022449Y-96766819D01*
X182651470Y-96625372D02*
X181833669Y-96692806D01*
X183475985Y-96564799D02*
X182651470Y-96625372D01*
X184307347Y-96511374D02*
X183475985Y-96564799D01*
X185145682Y-96465386D02*
X184307347Y-96511374D01*
X185991129Y-96427117D02*
X185145682Y-96465386D01*
X186843819Y-96396854D02*
X185991129Y-96427117D01*
X187703880Y-96374869D02*
X186843819Y-96396854D01*
X188571448Y-96361463D02*
X187703880Y-96374869D01*
X189446653Y-96356948D02*
X188571448Y-96361463D01*
X189446653Y-90070772D02*
X189446653Y-96356948D01*
X189431949Y-89375653D02*
X189446653Y-90070772D01*
X189388157Y-88691027D02*
X189431949Y-89375653D01*
X189315750Y-88017812D02*
X189388157Y-88691027D01*
X189215202Y-87356935D02*
X189315750Y-88017812D01*
X189086992Y-86709314D02*
X189215202Y-87356935D01*
X188931594Y-86075869D02*
X189086992Y-86709314D01*
X188749485Y-85457528D02*
X188931594Y-86075869D01*
X188541140Y-84855210D02*
X188749485Y-85457528D01*
X188307034Y-84269836D02*
X188541140Y-84855210D01*
X188047640Y-83702329D02*
X188307034Y-84269836D01*
X187763437Y-83153610D02*
X188047640Y-83702329D01*
X187454900Y-82624604D02*
X187763437Y-83153610D01*
X187122505Y-82116229D02*
X187454900Y-82624604D01*
X186766727Y-81629410D02*
X187122505Y-82116229D01*
X186388041Y-81165067D02*
X186766727Y-81629410D01*
X185986922Y-80724120D02*
X186388041Y-81165067D01*
X185563845Y-80307495D02*
X185986922Y-80724120D01*
X185119289Y-79916115D02*
X185563845Y-80307495D01*
X184653726Y-79550897D02*
X185119289Y-79916115D01*
X184167632Y-79212763D02*
X184653726Y-79550897D01*
X183661487Y-78902641D02*
X184167632Y-79212763D01*
X183135760Y-78621448D02*
X183661487Y-78902641D01*
X182590930Y-78370107D02*
X183135760Y-78621448D01*
X182027474Y-78149539D02*
X182590930Y-78370107D01*
X181445864Y-77960667D02*
X182027474Y-78149539D01*
X180846577Y-77804415D02*
X181445864Y-77960667D01*
X180230088Y-77681699D02*
X180846577Y-77804415D01*
X179596874Y-77593448D02*
X180230088Y-77681699D01*
X178947410Y-77540580D02*
X179596874Y-77593448D01*
X178282173Y-77524013D02*
X178947410Y-77540580D01*
X177601636Y-77544672D02*
X178282173Y-77524013D01*
X176906275Y-77603487D02*
X177601636Y-77544672D01*
X175431085Y-77764695D02*
X176906275Y-77603487D01*
X173994684Y-77915746D02*
X175431085Y-77764695D01*
X172596366Y-78056888D02*
X173994684Y-77915746D01*
X171235412Y-78188364D02*
X172596366Y-78056888D01*
X169911112Y-78310417D02*
X171235412Y-78188364D01*
X168622753Y-78423292D02*
X169911112Y-78310417D01*
X167369622Y-78527229D02*
X168622753Y-78423292D01*
X166151006Y-78622473D02*
X167369622Y-78527229D01*
X164966195Y-78709270D02*
X166151006Y-78622473D01*
X163814474Y-78787864D02*
X164966195Y-78709270D01*
X162695133Y-78858495D02*
X163814474Y-78787864D01*
X161607454Y-78921411D02*
X162695133Y-78858495D01*
X160550729Y-78976854D02*
X161607454Y-78921411D01*
X159524245Y-79025066D02*
X160550729Y-78976854D01*
X158527286Y-79066290D02*
X159524245Y-79025066D01*
X157559143Y-79100775D02*
X158527286Y-79066290D01*
X156619103Y-79128771D02*
X157559143Y-79100775D01*
X155706453Y-79150502D02*
X156619103Y-79128771D01*
X154820478Y-79166222D02*
X155706453Y-79150502D01*
X153960471Y-79176184D02*
X154820478Y-79166222D01*
X153125714Y-79180615D02*
X153960471Y-79176184D01*
X152315493Y-79179769D02*
X153125714Y-79180615D01*
X151529101Y-79173870D02*
X152315493Y-79179769D01*
X150765825Y-79163202D02*
X151529101Y-79173870D01*
X150024947Y-79147962D02*
X150765825Y-79163202D01*
X149305760Y-79128432D02*
X150024947Y-79147962D01*
X148607548Y-79104839D02*
X149305760Y-79128432D01*
X147929599Y-79077435D02*
X148607548Y-79104839D01*
X147271200Y-79046444D02*
X147929599Y-79077435D01*
X146631639Y-79012123D02*
X147271200Y-79046444D01*
X146010206Y-78974717D02*
X146631639Y-79012123D01*
X145406185Y-78934464D02*
X146010206Y-78974717D01*
X144818864Y-78891614D02*
X145406185Y-78934464D01*
X144247531Y-78846408D02*
X144818864Y-78891614D01*
X143691471Y-78799090D02*
X144247531Y-78846408D01*
X143149974Y-78749905D02*
X143691471Y-78799090D01*
X142622328Y-78699093D02*
X143149974Y-78749905D01*
X142107820Y-78646899D02*
X142622328Y-78699093D01*
X141605736Y-78593571D02*
X142107820Y-78646899D01*
X141115363Y-78539347D02*
X141605736Y-78593571D01*
X140635989Y-78484475D02*
X141115363Y-78539347D01*
X140166902Y-78429196D02*
X140635989Y-78484475D01*
X139707391Y-78373753D02*
X140166902Y-78429196D01*
X139256741Y-78318395D02*
X139707391Y-78373753D01*
X138814239Y-78263359D02*
X139256741Y-78318395D01*
X138379171Y-78208893D02*
X138814239Y-78263359D01*
X137950828Y-78155237D02*
X138379171Y-78208893D01*
X137528497Y-78102639D02*
X137950828Y-78155237D01*
X137111465Y-78051340D02*
X137528497Y-78102639D01*
X136699017Y-78001584D02*
X137111465Y-78051340D01*
X136290444Y-77953618D02*
X136699017Y-78001584D01*
X135885029Y-77907680D02*
X136290444Y-77953618D01*
X135482064Y-77864018D02*
X135885029Y-77907680D01*
X135080834Y-77822872D02*
X135482064Y-77864018D01*
X134680626Y-77784490D02*
X135080834Y-77822872D01*
X134280726Y-77749114D02*
X134680626Y-77784490D01*
X133880427Y-77716986D02*
X134280726Y-77749114D01*
X133479011Y-77688351D02*
X133880427Y-77716986D01*
X133075767Y-77663459D02*
X133479011Y-77688351D01*
X132669982Y-77642547D02*
X133075767Y-77663459D01*
X132260946Y-77625867D02*
X132669982Y-77642547D01*
X131847942Y-77613647D02*
X132260946Y-77625867D01*
X131430262Y-77606140D02*
X131847942Y-77613647D01*
X131007188Y-77603600D02*
X131430262Y-77606140D01*
X131007188Y-90070874D02*
X131007188Y-77603600D01*
X189446653Y-90070874D02*
X189446653Y-96357049D01*
M02*
