G04 #@! TF.FileFunction,Paste,Bot*
%FSLAX46Y46*%
G04 Gerber Fmt 4.6, Leading zero omitted, Abs format (unit mm)*
G04 Created by KiCad (PCBNEW 4.0.5-e0-6337~49~ubuntu14.04.1) date Mon May 15 20:50:12 2017*
%MOMM*%
%LPD*%
G01*
G04 APERTURE LIST*
%ADD10C,0.100000*%
%ADD11R,0.600000X1.700000*%
%ADD12R,1.000000X2.700000*%
%ADD13R,1.600000X0.800000*%
%ADD14R,1.000000X1.200000*%
%ADD15R,1.700000X0.600000*%
%ADD16R,2.700000X1.000000*%
%ADD17R,1.200000X1.000000*%
%ADD18R,1.800000X1.250000*%
%ADD19R,0.800000X0.500000*%
%ADD20R,0.500000X0.800000*%
%ADD21R,0.800000X0.300000*%
%ADD22R,0.600000X1.200000*%
%ADD23R,9.000000X1.000000*%
%ADD24R,1.000000X1.400000*%
%ADD25R,0.300000X0.800000*%
G04 APERTURE END LIST*
D10*
D11*
X175625000Y-82150000D03*
X176875000Y-82150000D03*
X174375000Y-82150000D03*
X173125000Y-82150000D03*
D12*
X178800000Y-79100000D03*
X171200000Y-79100000D03*
D13*
X147300000Y-89200000D03*
X147300000Y-90800000D03*
X152700000Y-89200000D03*
X152700000Y-90800000D03*
D14*
X153000000Y-89000000D03*
X153000000Y-91000000D03*
X147000000Y-89000000D03*
X147000000Y-91000000D03*
D10*
G36*
X152550000Y-88400000D02*
X153100000Y-88800000D01*
X151900000Y-88800000D01*
X152450000Y-88400000D01*
X152550000Y-88400000D01*
X152550000Y-88400000D01*
G37*
G36*
X152450000Y-91600000D02*
X151900000Y-91200000D01*
X153100000Y-91200000D01*
X152550000Y-91600000D01*
X152450000Y-91600000D01*
X152450000Y-91600000D01*
G37*
G36*
X147550000Y-88400000D02*
X148100000Y-88800000D01*
X146900000Y-88800000D01*
X147450000Y-88400000D01*
X147550000Y-88400000D01*
X147550000Y-88400000D01*
G37*
G36*
X147450000Y-91600000D02*
X146900000Y-91200000D01*
X148100000Y-91200000D01*
X147550000Y-91600000D01*
X147450000Y-91600000D01*
X147450000Y-91600000D01*
G37*
D15*
X135650000Y-81375000D03*
X135650000Y-80125000D03*
X135650000Y-82625000D03*
X135650000Y-83875000D03*
D16*
X132600000Y-78200000D03*
X132600000Y-85800000D03*
D10*
G36*
X138568288Y-94472093D02*
X137366206Y-95674175D01*
X136941942Y-95249911D01*
X138144024Y-94047829D01*
X138568288Y-94472093D01*
X138568288Y-94472093D01*
G37*
G36*
X137684404Y-93588210D02*
X136482322Y-94790292D01*
X136058058Y-94366028D01*
X137260140Y-93163946D01*
X137684404Y-93588210D01*
X137684404Y-93588210D01*
G37*
G36*
X139452171Y-95355976D02*
X138250089Y-96558058D01*
X137825825Y-96133794D01*
X139027907Y-94931712D01*
X139452171Y-95355976D01*
X139452171Y-95355976D01*
G37*
G36*
X140336054Y-96239860D02*
X139133972Y-97441942D01*
X138709708Y-97017678D01*
X139911790Y-95815596D01*
X140336054Y-96239860D01*
X140336054Y-96239860D01*
G37*
G36*
X134661523Y-94171573D02*
X132752334Y-96080762D01*
X132045227Y-95373655D01*
X133954416Y-93464466D01*
X134661523Y-94171573D01*
X134661523Y-94171573D01*
G37*
G36*
X140035534Y-99545584D02*
X138126345Y-101454773D01*
X137419238Y-100747666D01*
X139328427Y-98838477D01*
X140035534Y-99545584D01*
X140035534Y-99545584D01*
G37*
D17*
X168000000Y-80000000D03*
X168000000Y-82000000D03*
D18*
X163700000Y-84500000D03*
X166300000Y-84500000D03*
D10*
G36*
X172383883Y-87030330D02*
X172030330Y-87383883D01*
X171464645Y-86818198D01*
X171818198Y-86464645D01*
X172383883Y-87030330D01*
X172383883Y-87030330D01*
G37*
G36*
X171535355Y-86181802D02*
X171181802Y-86535355D01*
X170616117Y-85969670D01*
X170969670Y-85616117D01*
X171535355Y-86181802D01*
X171535355Y-86181802D01*
G37*
D17*
X162000000Y-82000000D03*
X162000000Y-80000000D03*
D19*
X173600000Y-95800000D03*
X174800000Y-95800000D03*
D11*
X150625000Y-82150000D03*
X151875000Y-82150000D03*
X149375000Y-82150000D03*
X148125000Y-82150000D03*
D12*
X153800000Y-79100000D03*
X146200000Y-79100000D03*
D11*
X149125000Y-97850000D03*
X147875000Y-97850000D03*
X150375000Y-97850000D03*
X151625000Y-97850000D03*
D12*
X145950000Y-100900000D03*
X153550000Y-100900000D03*
D10*
G36*
X181931712Y-85527907D02*
X183133794Y-84325825D01*
X183558058Y-84750089D01*
X182355976Y-85952171D01*
X181931712Y-85527907D01*
X181931712Y-85527907D01*
G37*
G36*
X182815596Y-86411790D02*
X184017678Y-85209708D01*
X184441942Y-85633972D01*
X183239860Y-86836054D01*
X182815596Y-86411790D01*
X182815596Y-86411790D01*
G37*
G36*
X181047829Y-84644024D02*
X182249911Y-83441942D01*
X182674175Y-83866206D01*
X181472093Y-85068288D01*
X181047829Y-84644024D01*
X181047829Y-84644024D01*
G37*
G36*
X180163946Y-83760140D02*
X181366028Y-82558058D01*
X181790292Y-82982322D01*
X180588210Y-84184404D01*
X180163946Y-83760140D01*
X180163946Y-83760140D01*
G37*
G36*
X185838477Y-85828427D02*
X187747666Y-83919238D01*
X188454773Y-84626345D01*
X186545584Y-86535534D01*
X185838477Y-85828427D01*
X185838477Y-85828427D01*
G37*
G36*
X180464466Y-80454416D02*
X182373655Y-78545227D01*
X183080762Y-79252334D01*
X181171573Y-81161523D01*
X180464466Y-80454416D01*
X180464466Y-80454416D01*
G37*
D15*
X184850000Y-92625000D03*
X184850000Y-93875000D03*
X184850000Y-91375000D03*
X184850000Y-90125000D03*
D16*
X187900000Y-95800000D03*
X187900000Y-88200000D03*
D20*
X155000000Y-92000000D03*
X155000000Y-93200000D03*
X155000000Y-88200000D03*
X155000000Y-87000000D03*
X145500000Y-90600000D03*
X145500000Y-89400000D03*
D19*
X166500000Y-93500000D03*
X165300000Y-93500000D03*
D21*
X163150000Y-90750000D03*
X163150000Y-90250000D03*
X163150000Y-89750000D03*
X163150000Y-89250000D03*
X161850000Y-89250000D03*
X161850000Y-89750000D03*
X161850000Y-90250000D03*
X161850000Y-90750000D03*
D22*
X165000000Y-79850000D03*
X164050000Y-79850000D03*
X165950000Y-79850000D03*
X165950000Y-82150000D03*
X164050000Y-82150000D03*
D10*
G36*
X167946353Y-92958215D02*
X168582749Y-92321819D01*
X168794881Y-92533951D01*
X168158485Y-93170347D01*
X167946353Y-92958215D01*
X167946353Y-92958215D01*
G37*
G36*
X167592800Y-92604662D02*
X168441328Y-91756134D01*
X168653460Y-91968266D01*
X167804932Y-92816794D01*
X167592800Y-92604662D01*
X167592800Y-92604662D01*
G37*
G36*
X167239246Y-92251108D02*
X168087774Y-91402580D01*
X168299906Y-91614712D01*
X167451378Y-92463240D01*
X167239246Y-92251108D01*
X167239246Y-92251108D01*
G37*
G36*
X166885693Y-91897555D02*
X167734221Y-91049027D01*
X167946353Y-91261159D01*
X167097825Y-92109687D01*
X166885693Y-91897555D01*
X166885693Y-91897555D01*
G37*
G36*
X166532139Y-91544002D02*
X167380667Y-90695474D01*
X167592799Y-90907606D01*
X166744271Y-91756134D01*
X166532139Y-91544002D01*
X166532139Y-91544002D01*
G37*
G36*
X166178586Y-91190448D02*
X167027114Y-90341920D01*
X167239246Y-90554052D01*
X166390718Y-91402580D01*
X166178586Y-91190448D01*
X166178586Y-91190448D01*
G37*
G36*
X165825033Y-90836895D02*
X166461429Y-90200499D01*
X166673561Y-90412631D01*
X166037165Y-91049027D01*
X165825033Y-90836895D01*
X165825033Y-90836895D01*
G37*
G36*
X166037165Y-88927707D02*
X166673561Y-89564103D01*
X166461429Y-89776235D01*
X165825033Y-89139839D01*
X166037165Y-88927707D01*
X166037165Y-88927707D01*
G37*
G36*
X166390718Y-88574153D02*
X167239246Y-89422681D01*
X167027114Y-89634813D01*
X166178586Y-88786285D01*
X166390718Y-88574153D01*
X166390718Y-88574153D01*
G37*
G36*
X166744271Y-88220600D02*
X167592799Y-89069128D01*
X167380667Y-89281260D01*
X166532139Y-88432732D01*
X166744271Y-88220600D01*
X166744271Y-88220600D01*
G37*
G36*
X167097825Y-87867046D02*
X167946353Y-88715574D01*
X167734221Y-88927706D01*
X166885693Y-88079178D01*
X167097825Y-87867046D01*
X167097825Y-87867046D01*
G37*
G36*
X167451378Y-87513493D02*
X168299906Y-88362021D01*
X168087774Y-88574153D01*
X167239246Y-87725625D01*
X167451378Y-87513493D01*
X167451378Y-87513493D01*
G37*
G36*
X167804932Y-87159940D02*
X168653460Y-88008468D01*
X168441328Y-88220600D01*
X167592800Y-87372072D01*
X167804932Y-87159940D01*
X167804932Y-87159940D01*
G37*
G36*
X168158485Y-86806386D02*
X168794881Y-87442782D01*
X168582749Y-87654914D01*
X167946353Y-87018518D01*
X168158485Y-86806386D01*
X168158485Y-86806386D01*
G37*
G36*
X169219145Y-87442782D02*
X169855541Y-86806386D01*
X170067673Y-87018518D01*
X169431277Y-87654914D01*
X169219145Y-87442782D01*
X169219145Y-87442782D01*
G37*
G36*
X169360567Y-88008468D02*
X170209095Y-87159940D01*
X170421227Y-87372072D01*
X169572699Y-88220600D01*
X169360567Y-88008468D01*
X169360567Y-88008468D01*
G37*
G36*
X169714120Y-88362021D02*
X170562648Y-87513493D01*
X170774780Y-87725625D01*
X169926252Y-88574153D01*
X169714120Y-88362021D01*
X169714120Y-88362021D01*
G37*
G36*
X170067673Y-88715574D02*
X170916201Y-87867046D01*
X171128333Y-88079178D01*
X170279805Y-88927706D01*
X170067673Y-88715574D01*
X170067673Y-88715574D01*
G37*
G36*
X170421227Y-89069128D02*
X171269755Y-88220600D01*
X171481887Y-88432732D01*
X170633359Y-89281260D01*
X170421227Y-89069128D01*
X170421227Y-89069128D01*
G37*
G36*
X170774780Y-89422681D02*
X171623308Y-88574153D01*
X171835440Y-88786285D01*
X170986912Y-89634813D01*
X170774780Y-89422681D01*
X170774780Y-89422681D01*
G37*
G36*
X171340466Y-89564103D02*
X171976862Y-88927707D01*
X172188994Y-89139839D01*
X171552598Y-89776235D01*
X171340466Y-89564103D01*
X171340466Y-89564103D01*
G37*
G36*
X171552598Y-90200499D02*
X172188994Y-90836895D01*
X171976862Y-91049027D01*
X171340466Y-90412631D01*
X171552598Y-90200499D01*
X171552598Y-90200499D01*
G37*
G36*
X170986912Y-90341920D02*
X171835440Y-91190448D01*
X171623308Y-91402580D01*
X170774780Y-90554052D01*
X170986912Y-90341920D01*
X170986912Y-90341920D01*
G37*
G36*
X170633359Y-90695474D02*
X171481887Y-91544002D01*
X171269755Y-91756134D01*
X170421227Y-90907606D01*
X170633359Y-90695474D01*
X170633359Y-90695474D01*
G37*
G36*
X170279805Y-91049027D02*
X171128333Y-91897555D01*
X170916201Y-92109687D01*
X170067673Y-91261159D01*
X170279805Y-91049027D01*
X170279805Y-91049027D01*
G37*
G36*
X169926252Y-91402580D02*
X170774780Y-92251108D01*
X170562648Y-92463240D01*
X169714120Y-91614712D01*
X169926252Y-91402580D01*
X169926252Y-91402580D01*
G37*
G36*
X169572699Y-91756134D02*
X170421227Y-92604662D01*
X170209095Y-92816794D01*
X169360567Y-91968266D01*
X169572699Y-91756134D01*
X169572699Y-91756134D01*
G37*
G36*
X169431277Y-92321819D02*
X170067673Y-92958215D01*
X169855541Y-93170347D01*
X169219145Y-92533951D01*
X169431277Y-92321819D01*
X169431277Y-92321819D01*
G37*
G36*
X168264551Y-92640017D02*
X168830237Y-92074331D01*
X168830237Y-92498595D01*
X168688815Y-92640017D01*
X168264551Y-92640017D01*
X168264551Y-92640017D01*
G37*
G36*
X169183789Y-92074331D02*
X169749475Y-92640017D01*
X169325211Y-92640017D01*
X169183789Y-92498595D01*
X169183789Y-92074331D01*
X169183789Y-92074331D01*
G37*
G36*
X168830237Y-87902402D02*
X168264551Y-87336716D01*
X168688815Y-87336716D01*
X168830237Y-87478138D01*
X168830237Y-87902402D01*
X168830237Y-87902402D01*
G37*
G36*
X169749475Y-87336716D02*
X169183789Y-87902402D01*
X169183789Y-87478138D01*
X169325211Y-87336716D01*
X169749475Y-87336716D01*
X169749475Y-87336716D01*
G37*
G36*
X166921048Y-90165143D02*
X166355362Y-90730829D01*
X166355362Y-90306565D01*
X166496784Y-90165143D01*
X166921048Y-90165143D01*
X166921048Y-90165143D01*
G37*
G36*
X166355362Y-89245904D02*
X166921048Y-89811590D01*
X166496784Y-89811590D01*
X166355362Y-89670168D01*
X166355362Y-89245904D01*
X166355362Y-89245904D01*
G37*
G36*
X171092978Y-89811590D02*
X171658664Y-89245904D01*
X171658664Y-89670168D01*
X171517242Y-89811590D01*
X171092978Y-89811590D01*
X171092978Y-89811590D01*
G37*
G36*
X171658664Y-90730829D02*
X171092978Y-90165143D01*
X171517242Y-90165143D01*
X171658664Y-90306565D01*
X171658664Y-90730829D01*
X171658664Y-90730829D01*
G37*
D23*
X181500000Y-101750000D03*
D24*
X183600000Y-99600000D03*
X179400000Y-99600000D03*
D25*
X158050000Y-88600000D03*
X157400000Y-88600000D03*
X156750000Y-88600000D03*
X156750000Y-86600000D03*
X157400000Y-86600000D03*
X158050000Y-86600000D03*
X156750000Y-91600000D03*
X157400000Y-91600000D03*
X158050000Y-91600000D03*
X158050000Y-93600000D03*
X157400000Y-93600000D03*
X156750000Y-93600000D03*
D11*
X170250000Y-97850000D03*
X169000000Y-97850000D03*
X171500000Y-97850000D03*
X172750000Y-97850000D03*
D12*
X163325000Y-100900000D03*
X174675000Y-100900000D03*
D11*
X167750000Y-97850000D03*
X166500000Y-97850000D03*
X165250000Y-97850000D03*
M02*
