G04 #@! TF.FileFunction,Soldermask,Bot*
%FSLAX46Y46*%
G04 Gerber Fmt 4.6, Leading zero omitted, Abs format (unit mm)*
G04 Created by KiCad (PCBNEW 4.0.5-e0-6337~49~ubuntu14.04.1) date Mon May 15 20:50:12 2017*
%MOMM*%
%LPD*%
G01*
G04 APERTURE LIST*
%ADD10C,0.100000*%
%ADD11C,0.010000*%
%ADD12R,0.600000X1.700000*%
%ADD13R,1.000000X2.700000*%
%ADD14R,1.600000X0.800000*%
%ADD15R,1.000000X1.200000*%
%ADD16R,1.700000X0.600000*%
%ADD17R,2.700000X1.000000*%
%ADD18R,1.200000X1.000000*%
%ADD19R,1.800000X1.250000*%
%ADD20R,0.800000X0.500000*%
%ADD21R,0.500000X0.800000*%
%ADD22R,0.800000X0.300000*%
%ADD23R,0.600000X1.200000*%
%ADD24C,3.000000*%
%ADD25R,9.000000X1.000000*%
%ADD26R,1.000000X1.400000*%
%ADD27R,0.300000X0.800000*%
G04 APERTURE END LIST*
D10*
D11*
G36*
X142825321Y-85946193D02*
X142734787Y-85993900D01*
X142677072Y-86063147D01*
X142655300Y-86138609D01*
X142643238Y-86259844D01*
X142640841Y-86365844D01*
X142641487Y-86475935D01*
X142645908Y-86548619D01*
X142657826Y-86597340D01*
X142680966Y-86635541D01*
X142719050Y-86676666D01*
X142729947Y-86687584D01*
X142790932Y-86742237D01*
X142841413Y-86765686D01*
X142902263Y-86766744D01*
X142914281Y-86765433D01*
X142989858Y-86752772D01*
X143049022Y-86736660D01*
X143054004Y-86734628D01*
X143073675Y-86729939D01*
X143086528Y-86741984D01*
X143093994Y-86778887D01*
X143097502Y-86848769D01*
X143098480Y-86959755D01*
X143098498Y-86987487D01*
X143097846Y-87107668D01*
X143094935Y-87185154D01*
X143088337Y-87228092D01*
X143076623Y-87244632D01*
X143058364Y-87242922D01*
X143054004Y-87241192D01*
X142924911Y-87207349D01*
X142812285Y-87221500D01*
X142715515Y-87283743D01*
X142702237Y-87297333D01*
X142677406Y-87326779D01*
X142660359Y-87358535D01*
X142649638Y-87402277D01*
X142643783Y-87467685D01*
X142641337Y-87564435D01*
X142640841Y-87702206D01*
X142640841Y-88045864D01*
X142723473Y-88037897D01*
X142806106Y-88029930D01*
X142813377Y-87751241D01*
X142820537Y-87602730D01*
X142834718Y-87498220D01*
X142858496Y-87431059D01*
X142894444Y-87394593D01*
X142945138Y-87382166D01*
X142956243Y-87381971D01*
X143007635Y-87386481D01*
X143043788Y-87404354D01*
X143067900Y-87443419D01*
X143083169Y-87511506D01*
X143092796Y-87616447D01*
X143098498Y-87730177D01*
X143111211Y-88029930D01*
X143194019Y-88037910D01*
X143260649Y-88034061D01*
X143289661Y-88012442D01*
X143292309Y-87980417D01*
X143294445Y-87903163D01*
X143296036Y-87786302D01*
X143297048Y-87635453D01*
X143297450Y-87456238D01*
X143297208Y-87254276D01*
X143296288Y-87035188D01*
X143295843Y-86962020D01*
X143292073Y-86385704D01*
X143098897Y-86385704D01*
X143086879Y-86475330D01*
X143062295Y-86539388D01*
X143056420Y-86546897D01*
X142989802Y-86588076D01*
X142915104Y-86582657D01*
X142865315Y-86551314D01*
X142835243Y-86496463D01*
X142819188Y-86411350D01*
X142817357Y-86314653D01*
X142829961Y-86225050D01*
X142857209Y-86161220D01*
X142860898Y-86156807D01*
X142926966Y-86116777D01*
X143002520Y-86117418D01*
X143058544Y-86150264D01*
X143084829Y-86204487D01*
X143098247Y-86289195D01*
X143098897Y-86385704D01*
X143292073Y-86385704D01*
X143289189Y-85945045D01*
X143217732Y-85936851D01*
X143152768Y-85940468D01*
X143111299Y-85957685D01*
X143064552Y-85973406D01*
X143025519Y-85959522D01*
X142927866Y-85933058D01*
X142825321Y-85946193D01*
X142825321Y-85946193D01*
G37*
X142825321Y-85946193D02*
X142734787Y-85993900D01*
X142677072Y-86063147D01*
X142655300Y-86138609D01*
X142643238Y-86259844D01*
X142640841Y-86365844D01*
X142641487Y-86475935D01*
X142645908Y-86548619D01*
X142657826Y-86597340D01*
X142680966Y-86635541D01*
X142719050Y-86676666D01*
X142729947Y-86687584D01*
X142790932Y-86742237D01*
X142841413Y-86765686D01*
X142902263Y-86766744D01*
X142914281Y-86765433D01*
X142989858Y-86752772D01*
X143049022Y-86736660D01*
X143054004Y-86734628D01*
X143073675Y-86729939D01*
X143086528Y-86741984D01*
X143093994Y-86778887D01*
X143097502Y-86848769D01*
X143098480Y-86959755D01*
X143098498Y-86987487D01*
X143097846Y-87107668D01*
X143094935Y-87185154D01*
X143088337Y-87228092D01*
X143076623Y-87244632D01*
X143058364Y-87242922D01*
X143054004Y-87241192D01*
X142924911Y-87207349D01*
X142812285Y-87221500D01*
X142715515Y-87283743D01*
X142702237Y-87297333D01*
X142677406Y-87326779D01*
X142660359Y-87358535D01*
X142649638Y-87402277D01*
X142643783Y-87467685D01*
X142641337Y-87564435D01*
X142640841Y-87702206D01*
X142640841Y-88045864D01*
X142723473Y-88037897D01*
X142806106Y-88029930D01*
X142813377Y-87751241D01*
X142820537Y-87602730D01*
X142834718Y-87498220D01*
X142858496Y-87431059D01*
X142894444Y-87394593D01*
X142945138Y-87382166D01*
X142956243Y-87381971D01*
X143007635Y-87386481D01*
X143043788Y-87404354D01*
X143067900Y-87443419D01*
X143083169Y-87511506D01*
X143092796Y-87616447D01*
X143098498Y-87730177D01*
X143111211Y-88029930D01*
X143194019Y-88037910D01*
X143260649Y-88034061D01*
X143289661Y-88012442D01*
X143292309Y-87980417D01*
X143294445Y-87903163D01*
X143296036Y-87786302D01*
X143297048Y-87635453D01*
X143297450Y-87456238D01*
X143297208Y-87254276D01*
X143296288Y-87035188D01*
X143295843Y-86962020D01*
X143292073Y-86385704D01*
X143098897Y-86385704D01*
X143086879Y-86475330D01*
X143062295Y-86539388D01*
X143056420Y-86546897D01*
X142989802Y-86588076D01*
X142915104Y-86582657D01*
X142865315Y-86551314D01*
X142835243Y-86496463D01*
X142819188Y-86411350D01*
X142817357Y-86314653D01*
X142829961Y-86225050D01*
X142857209Y-86161220D01*
X142860898Y-86156807D01*
X142926966Y-86116777D01*
X143002520Y-86117418D01*
X143058544Y-86150264D01*
X143084829Y-86204487D01*
X143098247Y-86289195D01*
X143098897Y-86385704D01*
X143292073Y-86385704D01*
X143289189Y-85945045D01*
X143217732Y-85936851D01*
X143152768Y-85940468D01*
X143111299Y-85957685D01*
X143064552Y-85973406D01*
X143025519Y-85959522D01*
X142927866Y-85933058D01*
X142825321Y-85946193D01*
G36*
X142125958Y-87209504D02*
X142024030Y-87238760D01*
X141942474Y-87286052D01*
X141894560Y-87348745D01*
X141890466Y-87361724D01*
X141885394Y-87409341D01*
X141882401Y-87495312D01*
X141881728Y-87607172D01*
X141883428Y-87724825D01*
X141886946Y-87853515D01*
X141891352Y-87940067D01*
X141898480Y-87993183D01*
X141910159Y-88021566D01*
X141928224Y-88033920D01*
X141949397Y-88038238D01*
X142008835Y-88034468D01*
X142039239Y-88020623D01*
X142087555Y-88009468D01*
X142107760Y-88018282D01*
X142166709Y-88035744D01*
X142250750Y-88039533D01*
X142336009Y-88029696D01*
X142376719Y-88017724D01*
X142444487Y-87970911D01*
X142502545Y-87898756D01*
X142535986Y-87821676D01*
X142539139Y-87795239D01*
X142532488Y-87766497D01*
X142359606Y-87766497D01*
X142345730Y-87816517D01*
X142330651Y-87834154D01*
X142282227Y-87855714D01*
X142207574Y-87864321D01*
X142130006Y-87858475D01*
X142096274Y-87849232D01*
X142065215Y-87812903D01*
X142056056Y-87760243D01*
X142060228Y-87713321D01*
X142082367Y-87692269D01*
X142136904Y-87686816D01*
X142159429Y-87686687D01*
X142261207Y-87697061D01*
X142329682Y-87725171D01*
X142359606Y-87766497D01*
X142532488Y-87766497D01*
X142517779Y-87702944D01*
X142462751Y-87619315D01*
X142387635Y-87564121D01*
X142377739Y-87560285D01*
X142305845Y-87544332D01*
X142213550Y-87535073D01*
X142177700Y-87534134D01*
X142103474Y-87532468D01*
X142067759Y-87522555D01*
X142058227Y-87497025D01*
X142060724Y-87464214D01*
X142071416Y-87419753D01*
X142099951Y-87397559D01*
X142161344Y-87387726D01*
X142178706Y-87386384D01*
X142254871Y-87387831D01*
X142312517Y-87401012D01*
X142323686Y-87407557D01*
X142360727Y-87421154D01*
X142409802Y-87399109D01*
X142422710Y-87390042D01*
X142472885Y-87348133D01*
X142481001Y-87315660D01*
X142446892Y-87277035D01*
X142421296Y-87256300D01*
X142337859Y-87215639D01*
X142234990Y-87200918D01*
X142125958Y-87209504D01*
X142125958Y-87209504D01*
G37*
X142125958Y-87209504D02*
X142024030Y-87238760D01*
X141942474Y-87286052D01*
X141894560Y-87348745D01*
X141890466Y-87361724D01*
X141885394Y-87409341D01*
X141882401Y-87495312D01*
X141881728Y-87607172D01*
X141883428Y-87724825D01*
X141886946Y-87853515D01*
X141891352Y-87940067D01*
X141898480Y-87993183D01*
X141910159Y-88021566D01*
X141928224Y-88033920D01*
X141949397Y-88038238D01*
X142008835Y-88034468D01*
X142039239Y-88020623D01*
X142087555Y-88009468D01*
X142107760Y-88018282D01*
X142166709Y-88035744D01*
X142250750Y-88039533D01*
X142336009Y-88029696D01*
X142376719Y-88017724D01*
X142444487Y-87970911D01*
X142502545Y-87898756D01*
X142535986Y-87821676D01*
X142539139Y-87795239D01*
X142532488Y-87766497D01*
X142359606Y-87766497D01*
X142345730Y-87816517D01*
X142330651Y-87834154D01*
X142282227Y-87855714D01*
X142207574Y-87864321D01*
X142130006Y-87858475D01*
X142096274Y-87849232D01*
X142065215Y-87812903D01*
X142056056Y-87760243D01*
X142060228Y-87713321D01*
X142082367Y-87692269D01*
X142136904Y-87686816D01*
X142159429Y-87686687D01*
X142261207Y-87697061D01*
X142329682Y-87725171D01*
X142359606Y-87766497D01*
X142532488Y-87766497D01*
X142517779Y-87702944D01*
X142462751Y-87619315D01*
X142387635Y-87564121D01*
X142377739Y-87560285D01*
X142305845Y-87544332D01*
X142213550Y-87535073D01*
X142177700Y-87534134D01*
X142103474Y-87532468D01*
X142067759Y-87522555D01*
X142058227Y-87497025D01*
X142060724Y-87464214D01*
X142071416Y-87419753D01*
X142099951Y-87397559D01*
X142161344Y-87387726D01*
X142178706Y-87386384D01*
X142254871Y-87387831D01*
X142312517Y-87401012D01*
X142323686Y-87407557D01*
X142360727Y-87421154D01*
X142409802Y-87399109D01*
X142422710Y-87390042D01*
X142472885Y-87348133D01*
X142481001Y-87315660D01*
X142446892Y-87277035D01*
X142421296Y-87256300D01*
X142337859Y-87215639D01*
X142234990Y-87200918D01*
X142125958Y-87209504D01*
G36*
X141552149Y-87211241D02*
X141517985Y-87229907D01*
X141516669Y-87232675D01*
X141496814Y-87249031D01*
X141452658Y-87232675D01*
X141366132Y-87206994D01*
X141273741Y-87210059D01*
X141205801Y-87237503D01*
X141175916Y-87264307D01*
X141176186Y-87292515D01*
X141203766Y-87339054D01*
X141241800Y-87384111D01*
X141287826Y-87397833D01*
X141340613Y-87393256D01*
X141406100Y-87387107D01*
X141452332Y-87395628D01*
X141483157Y-87425962D01*
X141502421Y-87485248D01*
X141513971Y-87580628D01*
X141521654Y-87719242D01*
X141522122Y-87730177D01*
X141534835Y-88029930D01*
X141617467Y-88037897D01*
X141700100Y-88045864D01*
X141700100Y-87203603D01*
X141613230Y-87203603D01*
X141552149Y-87211241D01*
X141552149Y-87211241D01*
G37*
X141552149Y-87211241D02*
X141517985Y-87229907D01*
X141516669Y-87232675D01*
X141496814Y-87249031D01*
X141452658Y-87232675D01*
X141366132Y-87206994D01*
X141273741Y-87210059D01*
X141205801Y-87237503D01*
X141175916Y-87264307D01*
X141176186Y-87292515D01*
X141203766Y-87339054D01*
X141241800Y-87384111D01*
X141287826Y-87397833D01*
X141340613Y-87393256D01*
X141406100Y-87387107D01*
X141452332Y-87395628D01*
X141483157Y-87425962D01*
X141502421Y-87485248D01*
X141513971Y-87580628D01*
X141521654Y-87719242D01*
X141522122Y-87730177D01*
X141534835Y-88029930D01*
X141617467Y-88037897D01*
X141700100Y-88045864D01*
X141700100Y-87203603D01*
X141613230Y-87203603D01*
X141552149Y-87211241D01*
G36*
X140510984Y-87451501D02*
X140517818Y-88029930D01*
X140600450Y-88037897D01*
X140660961Y-88036461D01*
X140682629Y-88014024D01*
X140683083Y-88007623D01*
X140688802Y-87983985D01*
X140714948Y-87987381D01*
X140753003Y-88005856D01*
X140868751Y-88038814D01*
X140989444Y-88023008D01*
X141007097Y-88016484D01*
X141058335Y-87979956D01*
X141109677Y-87920223D01*
X141116352Y-87910038D01*
X141141577Y-87862216D01*
X141156365Y-87809065D01*
X141162616Y-87736933D01*
X141162231Y-87632167D01*
X141162135Y-87628780D01*
X140988188Y-87628780D01*
X140973686Y-87739833D01*
X140934144Y-87818626D01*
X140875508Y-87860181D01*
X140803723Y-87859517D01*
X140747558Y-87830337D01*
X140713434Y-87782558D01*
X140694212Y-87695921D01*
X140690772Y-87658715D01*
X140693281Y-87531136D01*
X140722996Y-87444800D01*
X140781165Y-87397224D01*
X140827417Y-87386509D01*
X140905115Y-87398333D01*
X140957026Y-87452268D01*
X140983848Y-87549367D01*
X140988188Y-87628780D01*
X141162135Y-87628780D01*
X141161008Y-87589225D01*
X141156693Y-87477463D01*
X141149879Y-87403799D01*
X141136861Y-87355494D01*
X141113932Y-87319809D01*
X141077388Y-87284006D01*
X141070420Y-87277763D01*
X140974434Y-87220339D01*
X140868643Y-87202591D01*
X140768594Y-87226143D01*
X140739591Y-87243183D01*
X140683083Y-87282763D01*
X140683083Y-86873073D01*
X140504150Y-86873073D01*
X140510984Y-87451501D01*
X140510984Y-87451501D01*
G37*
X140510984Y-87451501D02*
X140517818Y-88029930D01*
X140600450Y-88037897D01*
X140660961Y-88036461D01*
X140682629Y-88014024D01*
X140683083Y-88007623D01*
X140688802Y-87983985D01*
X140714948Y-87987381D01*
X140753003Y-88005856D01*
X140868751Y-88038814D01*
X140989444Y-88023008D01*
X141007097Y-88016484D01*
X141058335Y-87979956D01*
X141109677Y-87920223D01*
X141116352Y-87910038D01*
X141141577Y-87862216D01*
X141156365Y-87809065D01*
X141162616Y-87736933D01*
X141162231Y-87632167D01*
X141162135Y-87628780D01*
X140988188Y-87628780D01*
X140973686Y-87739833D01*
X140934144Y-87818626D01*
X140875508Y-87860181D01*
X140803723Y-87859517D01*
X140747558Y-87830337D01*
X140713434Y-87782558D01*
X140694212Y-87695921D01*
X140690772Y-87658715D01*
X140693281Y-87531136D01*
X140722996Y-87444800D01*
X140781165Y-87397224D01*
X140827417Y-87386509D01*
X140905115Y-87398333D01*
X140957026Y-87452268D01*
X140983848Y-87549367D01*
X140988188Y-87628780D01*
X141162135Y-87628780D01*
X141161008Y-87589225D01*
X141156693Y-87477463D01*
X141149879Y-87403799D01*
X141136861Y-87355494D01*
X141113932Y-87319809D01*
X141077388Y-87284006D01*
X141070420Y-87277763D01*
X140974434Y-87220339D01*
X140868643Y-87202591D01*
X140768594Y-87226143D01*
X140739591Y-87243183D01*
X140683083Y-87282763D01*
X140683083Y-86873073D01*
X140504150Y-86873073D01*
X140510984Y-87451501D01*
G36*
X140304324Y-87205668D02*
X140275427Y-87216661D01*
X140251353Y-87243778D01*
X140228502Y-87294216D01*
X140203274Y-87375173D01*
X140172068Y-87493844D01*
X140147687Y-87591341D01*
X140127403Y-87660980D01*
X140109006Y-87704399D01*
X140101636Y-87711666D01*
X140087881Y-87688807D01*
X140063495Y-87627468D01*
X140032335Y-87537915D01*
X140008505Y-87463768D01*
X139972301Y-87351043D01*
X139944815Y-87278197D01*
X139920935Y-87236174D01*
X139895552Y-87215918D01*
X139864450Y-87208478D01*
X139833754Y-87207672D01*
X139809896Y-87219184D01*
X139787803Y-87251341D01*
X139762402Y-87312465D01*
X139728622Y-87410882D01*
X139713940Y-87455495D01*
X139678601Y-87558433D01*
X139647901Y-87638894D01*
X139625613Y-87687522D01*
X139616453Y-87697302D01*
X139604150Y-87668575D01*
X139582573Y-87602140D01*
X139555327Y-87509482D01*
X139538900Y-87450285D01*
X139475297Y-87216316D01*
X139377748Y-87208291D01*
X139315429Y-87205635D01*
X139291725Y-87216759D01*
X139294787Y-87249185D01*
X139297643Y-87259142D01*
X139345506Y-87417775D01*
X139393864Y-87572904D01*
X139440044Y-87716442D01*
X139481367Y-87840302D01*
X139515158Y-87936397D01*
X139538741Y-87996640D01*
X139546826Y-88012146D01*
X139589913Y-88034855D01*
X139636040Y-88037572D01*
X139665619Y-88029624D01*
X139689675Y-88008088D01*
X139712782Y-87964166D01*
X139739513Y-87889059D01*
X139774442Y-87773968D01*
X139776233Y-87767867D01*
X139810603Y-87658763D01*
X139840029Y-87580793D01*
X139861757Y-87540587D01*
X139871259Y-87539038D01*
X139886201Y-87577969D01*
X139909828Y-87651976D01*
X139937716Y-87747004D01*
X139945744Y-87775676D01*
X139980590Y-87894608D01*
X140009838Y-87972325D01*
X140038841Y-88017273D01*
X140072949Y-88037894D01*
X140114922Y-88042642D01*
X140166399Y-88030981D01*
X140187495Y-88010861D01*
X140205925Y-87955917D01*
X140233684Y-87869281D01*
X140267672Y-87761058D01*
X140304789Y-87641349D01*
X140341934Y-87520258D01*
X140376008Y-87407888D01*
X140403911Y-87314342D01*
X140422541Y-87249723D01*
X140428829Y-87224399D01*
X140406496Y-87210537D01*
X140351728Y-87203743D01*
X140341644Y-87203603D01*
X140304324Y-87205668D01*
X140304324Y-87205668D01*
G37*
X140304324Y-87205668D02*
X140275427Y-87216661D01*
X140251353Y-87243778D01*
X140228502Y-87294216D01*
X140203274Y-87375173D01*
X140172068Y-87493844D01*
X140147687Y-87591341D01*
X140127403Y-87660980D01*
X140109006Y-87704399D01*
X140101636Y-87711666D01*
X140087881Y-87688807D01*
X140063495Y-87627468D01*
X140032335Y-87537915D01*
X140008505Y-87463768D01*
X139972301Y-87351043D01*
X139944815Y-87278197D01*
X139920935Y-87236174D01*
X139895552Y-87215918D01*
X139864450Y-87208478D01*
X139833754Y-87207672D01*
X139809896Y-87219184D01*
X139787803Y-87251341D01*
X139762402Y-87312465D01*
X139728622Y-87410882D01*
X139713940Y-87455495D01*
X139678601Y-87558433D01*
X139647901Y-87638894D01*
X139625613Y-87687522D01*
X139616453Y-87697302D01*
X139604150Y-87668575D01*
X139582573Y-87602140D01*
X139555327Y-87509482D01*
X139538900Y-87450285D01*
X139475297Y-87216316D01*
X139377748Y-87208291D01*
X139315429Y-87205635D01*
X139291725Y-87216759D01*
X139294787Y-87249185D01*
X139297643Y-87259142D01*
X139345506Y-87417775D01*
X139393864Y-87572904D01*
X139440044Y-87716442D01*
X139481367Y-87840302D01*
X139515158Y-87936397D01*
X139538741Y-87996640D01*
X139546826Y-88012146D01*
X139589913Y-88034855D01*
X139636040Y-88037572D01*
X139665619Y-88029624D01*
X139689675Y-88008088D01*
X139712782Y-87964166D01*
X139739513Y-87889059D01*
X139774442Y-87773968D01*
X139776233Y-87767867D01*
X139810603Y-87658763D01*
X139840029Y-87580793D01*
X139861757Y-87540587D01*
X139871259Y-87539038D01*
X139886201Y-87577969D01*
X139909828Y-87651976D01*
X139937716Y-87747004D01*
X139945744Y-87775676D01*
X139980590Y-87894608D01*
X140009838Y-87972325D01*
X140038841Y-88017273D01*
X140072949Y-88037894D01*
X140114922Y-88042642D01*
X140166399Y-88030981D01*
X140187495Y-88010861D01*
X140205925Y-87955917D01*
X140233684Y-87869281D01*
X140267672Y-87761058D01*
X140304789Y-87641349D01*
X140341934Y-87520258D01*
X140376008Y-87407888D01*
X140403911Y-87314342D01*
X140422541Y-87249723D01*
X140428829Y-87224399D01*
X140406496Y-87210537D01*
X140351728Y-87203743D01*
X140341644Y-87203603D01*
X140304324Y-87205668D01*
G36*
X138858860Y-87213632D02*
X138767027Y-87238614D01*
X138710934Y-87269970D01*
X138671176Y-87314974D01*
X138645521Y-87381508D01*
X138631738Y-87477457D01*
X138627596Y-87610704D01*
X138629126Y-87725795D01*
X138632586Y-87854246D01*
X138636962Y-87940572D01*
X138644091Y-87993492D01*
X138655809Y-88021723D01*
X138673953Y-88033983D01*
X138694943Y-88038238D01*
X138753995Y-88035157D01*
X138783932Y-88022311D01*
X138830520Y-88011128D01*
X138865165Y-88018572D01*
X138960434Y-88037534D01*
X139068965Y-88031553D01*
X139132132Y-88014478D01*
X139215807Y-87956765D01*
X139268786Y-87869797D01*
X139282552Y-87788208D01*
X139105771Y-87788208D01*
X139091541Y-87834621D01*
X139074925Y-87847826D01*
X139011560Y-87860770D01*
X138934124Y-87861150D01*
X138865474Y-87850254D01*
X138832112Y-87834154D01*
X138807481Y-87785450D01*
X138801602Y-87745165D01*
X138807330Y-87708713D01*
X138833552Y-87691608D01*
X138893823Y-87686796D01*
X138913937Y-87686687D01*
X138992623Y-87690060D01*
X139053923Y-87698502D01*
X139066489Y-87702119D01*
X139096935Y-87735656D01*
X139105771Y-87788208D01*
X139282552Y-87788208D01*
X139285914Y-87768289D01*
X139262035Y-87666958D01*
X139257213Y-87657437D01*
X139201073Y-87601094D01*
X139107286Y-87559362D01*
X138988055Y-87536810D01*
X138927857Y-87534134D01*
X138851869Y-87532612D01*
X138814577Y-87523388D01*
X138803826Y-87499473D01*
X138806269Y-87464214D01*
X138815725Y-87421926D01*
X138840795Y-87399825D01*
X138895564Y-87389630D01*
X138938632Y-87386400D01*
X139016306Y-87386605D01*
X139073323Y-87396041D01*
X139088255Y-87403810D01*
X139125183Y-87410199D01*
X139174819Y-87389220D01*
X139217531Y-87352747D01*
X139233834Y-87315747D01*
X139210735Y-87271674D01*
X139149538Y-87237418D01*
X139062394Y-87214988D01*
X138961451Y-87206390D01*
X138858860Y-87213632D01*
X138858860Y-87213632D01*
G37*
X138858860Y-87213632D02*
X138767027Y-87238614D01*
X138710934Y-87269970D01*
X138671176Y-87314974D01*
X138645521Y-87381508D01*
X138631738Y-87477457D01*
X138627596Y-87610704D01*
X138629126Y-87725795D01*
X138632586Y-87854246D01*
X138636962Y-87940572D01*
X138644091Y-87993492D01*
X138655809Y-88021723D01*
X138673953Y-88033983D01*
X138694943Y-88038238D01*
X138753995Y-88035157D01*
X138783932Y-88022311D01*
X138830520Y-88011128D01*
X138865165Y-88018572D01*
X138960434Y-88037534D01*
X139068965Y-88031553D01*
X139132132Y-88014478D01*
X139215807Y-87956765D01*
X139268786Y-87869797D01*
X139282552Y-87788208D01*
X139105771Y-87788208D01*
X139091541Y-87834621D01*
X139074925Y-87847826D01*
X139011560Y-87860770D01*
X138934124Y-87861150D01*
X138865474Y-87850254D01*
X138832112Y-87834154D01*
X138807481Y-87785450D01*
X138801602Y-87745165D01*
X138807330Y-87708713D01*
X138833552Y-87691608D01*
X138893823Y-87686796D01*
X138913937Y-87686687D01*
X138992623Y-87690060D01*
X139053923Y-87698502D01*
X139066489Y-87702119D01*
X139096935Y-87735656D01*
X139105771Y-87788208D01*
X139282552Y-87788208D01*
X139285914Y-87768289D01*
X139262035Y-87666958D01*
X139257213Y-87657437D01*
X139201073Y-87601094D01*
X139107286Y-87559362D01*
X138988055Y-87536810D01*
X138927857Y-87534134D01*
X138851869Y-87532612D01*
X138814577Y-87523388D01*
X138803826Y-87499473D01*
X138806269Y-87464214D01*
X138815725Y-87421926D01*
X138840795Y-87399825D01*
X138895564Y-87389630D01*
X138938632Y-87386400D01*
X139016306Y-87386605D01*
X139073323Y-87396041D01*
X139088255Y-87403810D01*
X139125183Y-87410199D01*
X139174819Y-87389220D01*
X139217531Y-87352747D01*
X139233834Y-87315747D01*
X139210735Y-87271674D01*
X139149538Y-87237418D01*
X139062394Y-87214988D01*
X138961451Y-87206390D01*
X138858860Y-87213632D01*
G36*
X138315041Y-87212515D02*
X138293094Y-87239981D01*
X138293093Y-87240234D01*
X138287046Y-87262615D01*
X138260011Y-87258336D01*
X138223173Y-87240390D01*
X138125513Y-87209105D01*
X138026485Y-87209197D01*
X137948353Y-87239693D01*
X137917255Y-87266287D01*
X137917436Y-87290666D01*
X137950776Y-87330876D01*
X137958749Y-87339383D01*
X138016692Y-87384747D01*
X138081615Y-87392665D01*
X138098589Y-87390469D01*
X138183567Y-87394544D01*
X138229530Y-87415807D01*
X138251848Y-87437825D01*
X138267174Y-87471053D01*
X138277243Y-87525188D01*
X138283786Y-87609930D01*
X138288537Y-87734975D01*
X138288925Y-87748151D01*
X138297469Y-88042642D01*
X138367320Y-88042642D01*
X138424736Y-88037032D01*
X138454121Y-88025692D01*
X138459897Y-87995697D01*
X138464829Y-87923894D01*
X138468549Y-87819324D01*
X138470693Y-87691028D01*
X138471071Y-87606173D01*
X138471071Y-87203603D01*
X138382082Y-87203603D01*
X138315041Y-87212515D01*
X138315041Y-87212515D01*
G37*
X138315041Y-87212515D02*
X138293094Y-87239981D01*
X138293093Y-87240234D01*
X138287046Y-87262615D01*
X138260011Y-87258336D01*
X138223173Y-87240390D01*
X138125513Y-87209105D01*
X138026485Y-87209197D01*
X137948353Y-87239693D01*
X137917255Y-87266287D01*
X137917436Y-87290666D01*
X137950776Y-87330876D01*
X137958749Y-87339383D01*
X138016692Y-87384747D01*
X138081615Y-87392665D01*
X138098589Y-87390469D01*
X138183567Y-87394544D01*
X138229530Y-87415807D01*
X138251848Y-87437825D01*
X138267174Y-87471053D01*
X138277243Y-87525188D01*
X138283786Y-87609930D01*
X138288537Y-87734975D01*
X138288925Y-87748151D01*
X138297469Y-88042642D01*
X138367320Y-88042642D01*
X138424736Y-88037032D01*
X138454121Y-88025692D01*
X138459897Y-87995697D01*
X138464829Y-87923894D01*
X138468549Y-87819324D01*
X138470693Y-87691028D01*
X138471071Y-87606173D01*
X138471071Y-87203603D01*
X138382082Y-87203603D01*
X138315041Y-87212515D01*
G36*
X137421104Y-87245022D02*
X137326099Y-87318909D01*
X137263589Y-87429238D01*
X137242188Y-87519179D01*
X137235073Y-87595238D01*
X137235945Y-87650203D01*
X137239564Y-87663892D01*
X137269544Y-87673773D01*
X137338405Y-87681495D01*
X137434190Y-87685984D01*
X137493693Y-87686687D01*
X137619625Y-87689616D01*
X137698775Y-87700116D01*
X137734964Y-87720756D01*
X137732013Y-87754102D01*
X137693745Y-87802723D01*
X137682883Y-87813814D01*
X137607889Y-87856013D01*
X137518144Y-87859937D01*
X137437069Y-87827034D01*
X137395542Y-87804741D01*
X137358836Y-87812056D01*
X137316041Y-87842345D01*
X137272743Y-87882632D01*
X137267398Y-87912946D01*
X137281475Y-87934765D01*
X137363360Y-87997104D01*
X137473048Y-88031663D01*
X137594353Y-88036176D01*
X137711091Y-88008376D01*
X137733734Y-87998108D01*
X137826791Y-87924228D01*
X137885980Y-87812956D01*
X137910851Y-87665231D01*
X137911672Y-87628663D01*
X137895961Y-87474099D01*
X137730648Y-87474099D01*
X137729197Y-87508249D01*
X137681337Y-87527721D01*
X137585522Y-87534127D01*
X137581181Y-87534134D01*
X137491364Y-87530914D01*
X137443408Y-87519877D01*
X137428651Y-87498963D01*
X137428629Y-87497812D01*
X137450216Y-87438418D01*
X137504555Y-87399145D01*
X137576011Y-87384475D01*
X137648948Y-87398893D01*
X137687237Y-87423660D01*
X137730648Y-87474099D01*
X137895961Y-87474099D01*
X137895322Y-87467818D01*
X137846993Y-87344535D01*
X137767913Y-87260209D01*
X137659307Y-87216233D01*
X137544620Y-87211628D01*
X137421104Y-87245022D01*
X137421104Y-87245022D01*
G37*
X137421104Y-87245022D02*
X137326099Y-87318909D01*
X137263589Y-87429238D01*
X137242188Y-87519179D01*
X137235073Y-87595238D01*
X137235945Y-87650203D01*
X137239564Y-87663892D01*
X137269544Y-87673773D01*
X137338405Y-87681495D01*
X137434190Y-87685984D01*
X137493693Y-87686687D01*
X137619625Y-87689616D01*
X137698775Y-87700116D01*
X137734964Y-87720756D01*
X137732013Y-87754102D01*
X137693745Y-87802723D01*
X137682883Y-87813814D01*
X137607889Y-87856013D01*
X137518144Y-87859937D01*
X137437069Y-87827034D01*
X137395542Y-87804741D01*
X137358836Y-87812056D01*
X137316041Y-87842345D01*
X137272743Y-87882632D01*
X137267398Y-87912946D01*
X137281475Y-87934765D01*
X137363360Y-87997104D01*
X137473048Y-88031663D01*
X137594353Y-88036176D01*
X137711091Y-88008376D01*
X137733734Y-87998108D01*
X137826791Y-87924228D01*
X137885980Y-87812956D01*
X137910851Y-87665231D01*
X137911672Y-87628663D01*
X137895961Y-87474099D01*
X137730648Y-87474099D01*
X137729197Y-87508249D01*
X137681337Y-87527721D01*
X137585522Y-87534127D01*
X137581181Y-87534134D01*
X137491364Y-87530914D01*
X137443408Y-87519877D01*
X137428651Y-87498963D01*
X137428629Y-87497812D01*
X137450216Y-87438418D01*
X137504555Y-87399145D01*
X137576011Y-87384475D01*
X137648948Y-87398893D01*
X137687237Y-87423660D01*
X137730648Y-87474099D01*
X137895961Y-87474099D01*
X137895322Y-87467818D01*
X137846993Y-87344535D01*
X137767913Y-87260209D01*
X137659307Y-87216233D01*
X137544620Y-87211628D01*
X137421104Y-87245022D01*
G36*
X143674394Y-85940692D02*
X143568447Y-85979936D01*
X143481935Y-86055037D01*
X143467688Y-86074945D01*
X143427938Y-86171255D01*
X143409096Y-86294686D01*
X143411943Y-86425660D01*
X143437257Y-86544601D01*
X143447894Y-86571771D01*
X143519410Y-86677943D01*
X143617719Y-86744732D01*
X143734217Y-86769265D01*
X143860299Y-86748667D01*
X143912112Y-86726837D01*
X143990170Y-86667876D01*
X144045556Y-86593393D01*
X144076648Y-86492622D01*
X144088965Y-86366701D01*
X144086670Y-86323399D01*
X143909635Y-86323399D01*
X143906736Y-86370831D01*
X143885382Y-86488836D01*
X143843067Y-86564104D01*
X143782306Y-86594730D01*
X143705613Y-86578806D01*
X143664530Y-86554524D01*
X143616060Y-86492792D01*
X143590404Y-86402919D01*
X143588234Y-86302542D01*
X143610223Y-86209297D01*
X143649039Y-86148187D01*
X143715201Y-86114303D01*
X143793157Y-86120275D01*
X143864111Y-86164011D01*
X143894488Y-86202605D01*
X143908511Y-86250149D01*
X143909635Y-86323399D01*
X144086670Y-86323399D01*
X144082135Y-86237888D01*
X144055781Y-86128441D01*
X144053482Y-86122763D01*
X143989319Y-86028339D01*
X143896781Y-85965869D01*
X143787822Y-85936328D01*
X143674394Y-85940692D01*
X143674394Y-85940692D01*
G37*
X143674394Y-85940692D02*
X143568447Y-85979936D01*
X143481935Y-86055037D01*
X143467688Y-86074945D01*
X143427938Y-86171255D01*
X143409096Y-86294686D01*
X143411943Y-86425660D01*
X143437257Y-86544601D01*
X143447894Y-86571771D01*
X143519410Y-86677943D01*
X143617719Y-86744732D01*
X143734217Y-86769265D01*
X143860299Y-86748667D01*
X143912112Y-86726837D01*
X143990170Y-86667876D01*
X144045556Y-86593393D01*
X144076648Y-86492622D01*
X144088965Y-86366701D01*
X144086670Y-86323399D01*
X143909635Y-86323399D01*
X143906736Y-86370831D01*
X143885382Y-86488836D01*
X143843067Y-86564104D01*
X143782306Y-86594730D01*
X143705613Y-86578806D01*
X143664530Y-86554524D01*
X143616060Y-86492792D01*
X143590404Y-86402919D01*
X143588234Y-86302542D01*
X143610223Y-86209297D01*
X143649039Y-86148187D01*
X143715201Y-86114303D01*
X143793157Y-86120275D01*
X143864111Y-86164011D01*
X143894488Y-86202605D01*
X143908511Y-86250149D01*
X143909635Y-86323399D01*
X144086670Y-86323399D01*
X144082135Y-86237888D01*
X144055781Y-86128441D01*
X144053482Y-86122763D01*
X143989319Y-86028339D01*
X143896781Y-85965869D01*
X143787822Y-85936328D01*
X143674394Y-85940692D01*
G36*
X142076602Y-85958442D02*
X142037604Y-85974898D01*
X141954751Y-86040070D01*
X141892218Y-86140203D01*
X141857636Y-86261017D01*
X141853211Y-86320070D01*
X141852653Y-86415415D01*
X142106907Y-86415415D01*
X142236735Y-86418050D01*
X142319896Y-86427615D01*
X142360379Y-86446606D01*
X142362173Y-86477514D01*
X142329268Y-86522833D01*
X142310310Y-86542542D01*
X142236412Y-86583734D01*
X142144745Y-86590060D01*
X142055448Y-86560549D01*
X142046893Y-86555243D01*
X142002951Y-86532446D01*
X141969506Y-86541455D01*
X141932978Y-86576370D01*
X141896779Y-86619307D01*
X141894658Y-86646612D01*
X141922225Y-86676315D01*
X142029840Y-86741460D01*
X142157065Y-86767997D01*
X142288391Y-86754093D01*
X142358208Y-86727830D01*
X142440386Y-86660779D01*
X142499038Y-86559221D01*
X142531614Y-86434972D01*
X142535563Y-86299848D01*
X142524047Y-86243095D01*
X142361161Y-86243095D01*
X142338061Y-86253521D01*
X142278019Y-86260684D01*
X142208609Y-86262863D01*
X142122678Y-86260698D01*
X142076251Y-86251954D01*
X142058080Y-86233257D01*
X142056056Y-86217097D01*
X142077055Y-86157628D01*
X142129722Y-86120103D01*
X142198560Y-86107458D01*
X142268074Y-86122626D01*
X142321581Y-86166818D01*
X142351060Y-86215517D01*
X142361161Y-86243095D01*
X142524047Y-86243095D01*
X142508335Y-86165664D01*
X142489728Y-86118353D01*
X142418584Y-86015588D01*
X142321023Y-85953097D01*
X142204533Y-85933257D01*
X142076602Y-85958442D01*
X142076602Y-85958442D01*
G37*
X142076602Y-85958442D02*
X142037604Y-85974898D01*
X141954751Y-86040070D01*
X141892218Y-86140203D01*
X141857636Y-86261017D01*
X141853211Y-86320070D01*
X141852653Y-86415415D01*
X142106907Y-86415415D01*
X142236735Y-86418050D01*
X142319896Y-86427615D01*
X142360379Y-86446606D01*
X142362173Y-86477514D01*
X142329268Y-86522833D01*
X142310310Y-86542542D01*
X142236412Y-86583734D01*
X142144745Y-86590060D01*
X142055448Y-86560549D01*
X142046893Y-86555243D01*
X142002951Y-86532446D01*
X141969506Y-86541455D01*
X141932978Y-86576370D01*
X141896779Y-86619307D01*
X141894658Y-86646612D01*
X141922225Y-86676315D01*
X142029840Y-86741460D01*
X142157065Y-86767997D01*
X142288391Y-86754093D01*
X142358208Y-86727830D01*
X142440386Y-86660779D01*
X142499038Y-86559221D01*
X142531614Y-86434972D01*
X142535563Y-86299848D01*
X142524047Y-86243095D01*
X142361161Y-86243095D01*
X142338061Y-86253521D01*
X142278019Y-86260684D01*
X142208609Y-86262863D01*
X142122678Y-86260698D01*
X142076251Y-86251954D01*
X142058080Y-86233257D01*
X142056056Y-86217097D01*
X142077055Y-86157628D01*
X142129722Y-86120103D01*
X142198560Y-86107458D01*
X142268074Y-86122626D01*
X142321581Y-86166818D01*
X142351060Y-86215517D01*
X142361161Y-86243095D01*
X142524047Y-86243095D01*
X142508335Y-86165664D01*
X142489728Y-86118353D01*
X142418584Y-86015588D01*
X142321023Y-85953097D01*
X142204533Y-85933257D01*
X142076602Y-85958442D01*
G36*
X141267998Y-85948734D02*
X141171843Y-86005172D01*
X141134950Y-86043366D01*
X141116491Y-86074030D01*
X141103846Y-86118493D01*
X141095984Y-86185872D01*
X141091872Y-86285280D01*
X141090476Y-86425834D01*
X141090455Y-86436095D01*
X141089890Y-86774593D01*
X141172523Y-86766626D01*
X141255155Y-86758659D01*
X141262426Y-86479970D01*
X141269586Y-86331459D01*
X141283767Y-86226949D01*
X141307545Y-86159788D01*
X141343493Y-86123321D01*
X141394187Y-86110895D01*
X141405292Y-86110699D01*
X141456685Y-86115210D01*
X141492837Y-86133082D01*
X141516949Y-86172147D01*
X141532219Y-86240235D01*
X141541845Y-86345176D01*
X141547548Y-86458906D01*
X141560260Y-86758659D01*
X141643068Y-86766639D01*
X141711034Y-86762419D01*
X141739123Y-86740096D01*
X141743329Y-86703525D01*
X141746022Y-86626014D01*
X141747054Y-86517459D01*
X141746279Y-86387752D01*
X141745304Y-86325309D01*
X141738238Y-85945045D01*
X141666781Y-85936851D01*
X141601817Y-85940468D01*
X141560348Y-85957685D01*
X141513601Y-85973406D01*
X141474568Y-85959522D01*
X141373683Y-85932339D01*
X141267998Y-85948734D01*
X141267998Y-85948734D01*
G37*
X141267998Y-85948734D02*
X141171843Y-86005172D01*
X141134950Y-86043366D01*
X141116491Y-86074030D01*
X141103846Y-86118493D01*
X141095984Y-86185872D01*
X141091872Y-86285280D01*
X141090476Y-86425834D01*
X141090455Y-86436095D01*
X141089890Y-86774593D01*
X141172523Y-86766626D01*
X141255155Y-86758659D01*
X141262426Y-86479970D01*
X141269586Y-86331459D01*
X141283767Y-86226949D01*
X141307545Y-86159788D01*
X141343493Y-86123321D01*
X141394187Y-86110895D01*
X141405292Y-86110699D01*
X141456685Y-86115210D01*
X141492837Y-86133082D01*
X141516949Y-86172147D01*
X141532219Y-86240235D01*
X141541845Y-86345176D01*
X141547548Y-86458906D01*
X141560260Y-86758659D01*
X141643068Y-86766639D01*
X141711034Y-86762419D01*
X141739123Y-86740096D01*
X141743329Y-86703525D01*
X141746022Y-86626014D01*
X141747054Y-86517459D01*
X141746279Y-86387752D01*
X141745304Y-86325309D01*
X141738238Y-85945045D01*
X141666781Y-85936851D01*
X141601817Y-85940468D01*
X141560348Y-85957685D01*
X141513601Y-85973406D01*
X141474568Y-85959522D01*
X141373683Y-85932339D01*
X141267998Y-85948734D01*
G36*
X140129433Y-85959716D02*
X140071284Y-85983993D01*
X139970020Y-86035655D01*
X140015090Y-86098509D01*
X140062714Y-86143682D01*
X140111011Y-86145278D01*
X140166864Y-86133049D01*
X140247787Y-86121146D01*
X140282493Y-86117308D01*
X140359524Y-86113441D01*
X140400911Y-86123660D01*
X140420107Y-86149681D01*
X140416685Y-86199257D01*
X140371468Y-86237876D01*
X140293237Y-86259870D01*
X140244729Y-86262863D01*
X140122471Y-86281678D01*
X140030601Y-86333642D01*
X139974289Y-86412031D01*
X139958708Y-86510119D01*
X139981717Y-86604841D01*
X140042705Y-86688659D01*
X140138438Y-86744324D01*
X140259668Y-86769191D01*
X140397150Y-86760616D01*
X140466967Y-86743612D01*
X140545938Y-86709389D01*
X140606479Y-86671329D01*
X140669715Y-86622218D01*
X140610238Y-86558908D01*
X140550762Y-86495598D01*
X140470726Y-86544400D01*
X140387384Y-86580340D01*
X140301860Y-86593765D01*
X140226121Y-86586246D01*
X140172132Y-86559360D01*
X140151857Y-86514678D01*
X140153107Y-86502632D01*
X140173645Y-86471693D01*
X140227599Y-86447204D01*
X140314517Y-86426711D01*
X140424684Y-86403586D01*
X140495986Y-86381659D01*
X140539899Y-86354931D01*
X140567897Y-86317402D01*
X140581963Y-86286885D01*
X140603055Y-86180719D01*
X140582310Y-86080748D01*
X140523636Y-86001056D01*
X140497369Y-85982065D01*
X140388242Y-85941851D01*
X140259278Y-85934430D01*
X140129433Y-85959716D01*
X140129433Y-85959716D01*
G37*
X140129433Y-85959716D02*
X140071284Y-85983993D01*
X139970020Y-86035655D01*
X140015090Y-86098509D01*
X140062714Y-86143682D01*
X140111011Y-86145278D01*
X140166864Y-86133049D01*
X140247787Y-86121146D01*
X140282493Y-86117308D01*
X140359524Y-86113441D01*
X140400911Y-86123660D01*
X140420107Y-86149681D01*
X140416685Y-86199257D01*
X140371468Y-86237876D01*
X140293237Y-86259870D01*
X140244729Y-86262863D01*
X140122471Y-86281678D01*
X140030601Y-86333642D01*
X139974289Y-86412031D01*
X139958708Y-86510119D01*
X139981717Y-86604841D01*
X140042705Y-86688659D01*
X140138438Y-86744324D01*
X140259668Y-86769191D01*
X140397150Y-86760616D01*
X140466967Y-86743612D01*
X140545938Y-86709389D01*
X140606479Y-86671329D01*
X140669715Y-86622218D01*
X140610238Y-86558908D01*
X140550762Y-86495598D01*
X140470726Y-86544400D01*
X140387384Y-86580340D01*
X140301860Y-86593765D01*
X140226121Y-86586246D01*
X140172132Y-86559360D01*
X140151857Y-86514678D01*
X140153107Y-86502632D01*
X140173645Y-86471693D01*
X140227599Y-86447204D01*
X140314517Y-86426711D01*
X140424684Y-86403586D01*
X140495986Y-86381659D01*
X140539899Y-86354931D01*
X140567897Y-86317402D01*
X140581963Y-86286885D01*
X140603055Y-86180719D01*
X140582310Y-86080748D01*
X140523636Y-86001056D01*
X140497369Y-85982065D01*
X140388242Y-85941851D01*
X140259278Y-85934430D01*
X140129433Y-85959716D01*
G36*
X139421849Y-85956642D02*
X139320856Y-86013295D01*
X139300835Y-86031574D01*
X139260222Y-86076281D01*
X139235541Y-86120217D01*
X139221934Y-86178697D01*
X139214544Y-86267039D01*
X139212411Y-86310403D01*
X139214095Y-86459401D01*
X139237159Y-86570450D01*
X139285298Y-86653279D01*
X139362207Y-86717616D01*
X139368552Y-86721550D01*
X139472931Y-86760484D01*
X139590392Y-86767364D01*
X139678779Y-86747115D01*
X139731264Y-86713998D01*
X139788452Y-86662740D01*
X139790790Y-86660247D01*
X139843517Y-86571498D01*
X139874058Y-86452867D01*
X139879619Y-86354351D01*
X139691491Y-86354351D01*
X139688826Y-86446411D01*
X139678028Y-86502608D01*
X139654895Y-86537774D01*
X139634983Y-86553813D01*
X139554164Y-86589909D01*
X139481476Y-86576643D01*
X139437237Y-86542542D01*
X139404354Y-86493546D01*
X139389007Y-86421952D01*
X139386386Y-86351852D01*
X139400790Y-86233091D01*
X139442755Y-86152751D01*
X139510407Y-86113716D01*
X139543293Y-86110310D01*
X139616494Y-86126843D01*
X139663677Y-86179264D01*
X139687415Y-86271809D01*
X139691491Y-86354351D01*
X139879619Y-86354351D01*
X139881522Y-86320650D01*
X139865013Y-86191142D01*
X139823639Y-86080642D01*
X139822668Y-86078939D01*
X139749454Y-85998435D01*
X139649407Y-85950415D01*
X139535786Y-85936083D01*
X139421849Y-85956642D01*
X139421849Y-85956642D01*
G37*
X139421849Y-85956642D02*
X139320856Y-86013295D01*
X139300835Y-86031574D01*
X139260222Y-86076281D01*
X139235541Y-86120217D01*
X139221934Y-86178697D01*
X139214544Y-86267039D01*
X139212411Y-86310403D01*
X139214095Y-86459401D01*
X139237159Y-86570450D01*
X139285298Y-86653279D01*
X139362207Y-86717616D01*
X139368552Y-86721550D01*
X139472931Y-86760484D01*
X139590392Y-86767364D01*
X139678779Y-86747115D01*
X139731264Y-86713998D01*
X139788452Y-86662740D01*
X139790790Y-86660247D01*
X139843517Y-86571498D01*
X139874058Y-86452867D01*
X139879619Y-86354351D01*
X139691491Y-86354351D01*
X139688826Y-86446411D01*
X139678028Y-86502608D01*
X139654895Y-86537774D01*
X139634983Y-86553813D01*
X139554164Y-86589909D01*
X139481476Y-86576643D01*
X139437237Y-86542542D01*
X139404354Y-86493546D01*
X139389007Y-86421952D01*
X139386386Y-86351852D01*
X139400790Y-86233091D01*
X139442755Y-86152751D01*
X139510407Y-86113716D01*
X139543293Y-86110310D01*
X139616494Y-86126843D01*
X139663677Y-86179264D01*
X139687415Y-86271809D01*
X139691491Y-86354351D01*
X139879619Y-86354351D01*
X139881522Y-86320650D01*
X139865013Y-86191142D01*
X139823639Y-86080642D01*
X139822668Y-86078939D01*
X139749454Y-85998435D01*
X139649407Y-85950415D01*
X139535786Y-85936083D01*
X139421849Y-85956642D01*
G36*
X138903303Y-86212012D02*
X138902271Y-86337982D01*
X138898094Y-86423671D01*
X138889149Y-86479624D01*
X138873813Y-86516388D01*
X138852452Y-86542542D01*
X138797103Y-86580636D01*
X138750751Y-86593393D01*
X138695401Y-86576137D01*
X138649049Y-86542542D01*
X138626333Y-86514151D01*
X138611513Y-86476355D01*
X138602966Y-86418610D01*
X138599070Y-86330367D01*
X138598198Y-86212012D01*
X138598198Y-85932332D01*
X138418961Y-85932332D01*
X138425947Y-86345495D01*
X138432933Y-86758659D01*
X138515566Y-86766626D01*
X138575220Y-86765597D01*
X138597308Y-86743949D01*
X138598198Y-86734191D01*
X138603031Y-86709224D01*
X138626519Y-86710329D01*
X138673212Y-86732580D01*
X138789491Y-86767547D01*
X138904237Y-86751875D01*
X138916016Y-86747335D01*
X138971015Y-86712865D01*
X139017718Y-86670083D01*
X139038813Y-86641098D01*
X139053714Y-86602626D01*
X139063817Y-86545287D01*
X139070520Y-86459701D01*
X139075223Y-86336485D01*
X139076895Y-86272988D01*
X139085221Y-85932332D01*
X138903303Y-85932332D01*
X138903303Y-86212012D01*
X138903303Y-86212012D01*
G37*
X138903303Y-86212012D02*
X138902271Y-86337982D01*
X138898094Y-86423671D01*
X138889149Y-86479624D01*
X138873813Y-86516388D01*
X138852452Y-86542542D01*
X138797103Y-86580636D01*
X138750751Y-86593393D01*
X138695401Y-86576137D01*
X138649049Y-86542542D01*
X138626333Y-86514151D01*
X138611513Y-86476355D01*
X138602966Y-86418610D01*
X138599070Y-86330367D01*
X138598198Y-86212012D01*
X138598198Y-85932332D01*
X138418961Y-85932332D01*
X138425947Y-86345495D01*
X138432933Y-86758659D01*
X138515566Y-86766626D01*
X138575220Y-86765597D01*
X138597308Y-86743949D01*
X138598198Y-86734191D01*
X138603031Y-86709224D01*
X138626519Y-86710329D01*
X138673212Y-86732580D01*
X138789491Y-86767547D01*
X138904237Y-86751875D01*
X138916016Y-86747335D01*
X138971015Y-86712865D01*
X139017718Y-86670083D01*
X139038813Y-86641098D01*
X139053714Y-86602626D01*
X139063817Y-86545287D01*
X139070520Y-86459701D01*
X139075223Y-86336485D01*
X139076895Y-86272988D01*
X139085221Y-85932332D01*
X138903303Y-85932332D01*
X138903303Y-86212012D01*
G36*
X138113802Y-85940102D02*
X138090152Y-85965645D01*
X138089690Y-85971912D01*
X138085094Y-85997279D01*
X138062306Y-85991308D01*
X138033182Y-85971912D01*
X137954986Y-85940903D01*
X137860204Y-85934362D01*
X137773763Y-85952591D01*
X137744950Y-85968421D01*
X137714233Y-85994730D01*
X137714123Y-86019070D01*
X137746772Y-86058944D01*
X137757491Y-86070396D01*
X137812013Y-86115652D01*
X137869024Y-86125397D01*
X137901304Y-86120913D01*
X137974021Y-86119295D01*
X138030462Y-86152954D01*
X138036456Y-86158778D01*
X138060136Y-86187475D01*
X138075593Y-86223958D01*
X138084532Y-86278903D01*
X138088662Y-86362985D01*
X138089689Y-86486879D01*
X138089690Y-86491692D01*
X138089690Y-86771371D01*
X138267668Y-86771371D01*
X138267668Y-85932332D01*
X138178679Y-85932332D01*
X138113802Y-85940102D01*
X138113802Y-85940102D01*
G37*
X138113802Y-85940102D02*
X138090152Y-85965645D01*
X138089690Y-85971912D01*
X138085094Y-85997279D01*
X138062306Y-85991308D01*
X138033182Y-85971912D01*
X137954986Y-85940903D01*
X137860204Y-85934362D01*
X137773763Y-85952591D01*
X137744950Y-85968421D01*
X137714233Y-85994730D01*
X137714123Y-86019070D01*
X137746772Y-86058944D01*
X137757491Y-86070396D01*
X137812013Y-86115652D01*
X137869024Y-86125397D01*
X137901304Y-86120913D01*
X137974021Y-86119295D01*
X138030462Y-86152954D01*
X138036456Y-86158778D01*
X138060136Y-86187475D01*
X138075593Y-86223958D01*
X138084532Y-86278903D01*
X138088662Y-86362985D01*
X138089689Y-86486879D01*
X138089690Y-86491692D01*
X138089690Y-86771371D01*
X138267668Y-86771371D01*
X138267668Y-85932332D01*
X138178679Y-85932332D01*
X138113802Y-85940102D01*
G36*
X137265512Y-85946893D02*
X137173738Y-85989539D01*
X137107684Y-86040298D01*
X137085193Y-86079090D01*
X137103917Y-86115816D01*
X137137274Y-86143411D01*
X137185939Y-86173053D01*
X137222735Y-86170552D01*
X137256483Y-86149767D01*
X137343318Y-86113634D01*
X137425269Y-86122397D01*
X137493721Y-86170240D01*
X137540058Y-86251345D01*
X137555756Y-86351852D01*
X137537810Y-86458739D01*
X137489714Y-86537789D01*
X137420084Y-86583186D01*
X137337535Y-86589112D01*
X137256483Y-86553936D01*
X137211986Y-86529262D01*
X137174502Y-86535723D01*
X137137274Y-86560292D01*
X137091807Y-86602130D01*
X137088520Y-86639150D01*
X137128790Y-86683087D01*
X137154004Y-86702700D01*
X137253663Y-86749186D01*
X137372431Y-86763950D01*
X137488539Y-86745509D01*
X137529824Y-86728264D01*
X137636458Y-86649116D01*
X137703314Y-86541300D01*
X137732200Y-86401495D01*
X137733734Y-86354051D01*
X137720466Y-86208610D01*
X137687275Y-86111878D01*
X137610874Y-86019221D01*
X137506127Y-85958697D01*
X137386513Y-85933517D01*
X137265512Y-85946893D01*
X137265512Y-85946893D01*
G37*
X137265512Y-85946893D02*
X137173738Y-85989539D01*
X137107684Y-86040298D01*
X137085193Y-86079090D01*
X137103917Y-86115816D01*
X137137274Y-86143411D01*
X137185939Y-86173053D01*
X137222735Y-86170552D01*
X137256483Y-86149767D01*
X137343318Y-86113634D01*
X137425269Y-86122397D01*
X137493721Y-86170240D01*
X137540058Y-86251345D01*
X137555756Y-86351852D01*
X137537810Y-86458739D01*
X137489714Y-86537789D01*
X137420084Y-86583186D01*
X137337535Y-86589112D01*
X137256483Y-86553936D01*
X137211986Y-86529262D01*
X137174502Y-86535723D01*
X137137274Y-86560292D01*
X137091807Y-86602130D01*
X137088520Y-86639150D01*
X137128790Y-86683087D01*
X137154004Y-86702700D01*
X137253663Y-86749186D01*
X137372431Y-86763950D01*
X137488539Y-86745509D01*
X137529824Y-86728264D01*
X137636458Y-86649116D01*
X137703314Y-86541300D01*
X137732200Y-86401495D01*
X137733734Y-86354051D01*
X137720466Y-86208610D01*
X137687275Y-86111878D01*
X137610874Y-86019221D01*
X137506127Y-85958697D01*
X137386513Y-85933517D01*
X137265512Y-85946893D01*
G36*
X136585968Y-85957606D02*
X136550427Y-85972661D01*
X136465712Y-86028983D01*
X136410280Y-86108793D01*
X136377706Y-86222845D01*
X136370372Y-86274072D01*
X136353760Y-86415415D01*
X136611514Y-86415415D01*
X136742281Y-86417983D01*
X136826407Y-86427336D01*
X136867917Y-86445949D01*
X136870837Y-86476294D01*
X136839195Y-86520845D01*
X136818418Y-86542542D01*
X136744520Y-86583734D01*
X136652854Y-86590060D01*
X136563556Y-86560549D01*
X136555001Y-86555243D01*
X136511059Y-86532446D01*
X136477614Y-86541455D01*
X136441086Y-86576370D01*
X136404887Y-86619307D01*
X136402766Y-86646612D01*
X136430333Y-86676315D01*
X136537948Y-86741460D01*
X136665173Y-86767997D01*
X136796499Y-86754093D01*
X136866316Y-86727830D01*
X136948495Y-86660779D01*
X137007147Y-86559221D01*
X137039722Y-86434972D01*
X137043671Y-86299848D01*
X137032156Y-86243095D01*
X136869269Y-86243095D01*
X136846169Y-86253521D01*
X136786127Y-86260684D01*
X136716717Y-86262863D01*
X136630786Y-86260698D01*
X136584359Y-86251954D01*
X136566189Y-86233257D01*
X136564164Y-86217097D01*
X136585163Y-86157628D01*
X136637830Y-86120103D01*
X136706668Y-86107458D01*
X136776182Y-86122626D01*
X136829689Y-86166818D01*
X136859168Y-86215517D01*
X136869269Y-86243095D01*
X137032156Y-86243095D01*
X137016444Y-86165664D01*
X136997836Y-86118353D01*
X136926664Y-86015898D01*
X136828856Y-85953184D01*
X136712572Y-85932868D01*
X136585968Y-85957606D01*
X136585968Y-85957606D01*
G37*
X136585968Y-85957606D02*
X136550427Y-85972661D01*
X136465712Y-86028983D01*
X136410280Y-86108793D01*
X136377706Y-86222845D01*
X136370372Y-86274072D01*
X136353760Y-86415415D01*
X136611514Y-86415415D01*
X136742281Y-86417983D01*
X136826407Y-86427336D01*
X136867917Y-86445949D01*
X136870837Y-86476294D01*
X136839195Y-86520845D01*
X136818418Y-86542542D01*
X136744520Y-86583734D01*
X136652854Y-86590060D01*
X136563556Y-86560549D01*
X136555001Y-86555243D01*
X136511059Y-86532446D01*
X136477614Y-86541455D01*
X136441086Y-86576370D01*
X136404887Y-86619307D01*
X136402766Y-86646612D01*
X136430333Y-86676315D01*
X136537948Y-86741460D01*
X136665173Y-86767997D01*
X136796499Y-86754093D01*
X136866316Y-86727830D01*
X136948495Y-86660779D01*
X137007147Y-86559221D01*
X137039722Y-86434972D01*
X137043671Y-86299848D01*
X137032156Y-86243095D01*
X136869269Y-86243095D01*
X136846169Y-86253521D01*
X136786127Y-86260684D01*
X136716717Y-86262863D01*
X136630786Y-86260698D01*
X136584359Y-86251954D01*
X136566189Y-86233257D01*
X136564164Y-86217097D01*
X136585163Y-86157628D01*
X136637830Y-86120103D01*
X136706668Y-86107458D01*
X136776182Y-86122626D01*
X136829689Y-86166818D01*
X136859168Y-86215517D01*
X136869269Y-86243095D01*
X137032156Y-86243095D01*
X137016444Y-86165664D01*
X136997836Y-86118353D01*
X136926664Y-86015898D01*
X136828856Y-85953184D01*
X136712572Y-85932868D01*
X136585968Y-85957606D01*
G36*
X140152769Y-79907442D02*
X140033407Y-79911821D01*
X139931495Y-79918509D01*
X139858108Y-79927338D01*
X139824322Y-79938138D01*
X139824194Y-79938288D01*
X139810514Y-79973595D01*
X139790501Y-80049236D01*
X139766455Y-80155433D01*
X139740675Y-80282405D01*
X139730038Y-80338739D01*
X139704002Y-80471059D01*
X139678328Y-80586238D01*
X139655397Y-80674622D01*
X139637591Y-80726560D01*
X139632231Y-80735168D01*
X139598614Y-80757539D01*
X139533661Y-80789552D01*
X139432518Y-80833368D01*
X139290331Y-80891153D01*
X139218037Y-80919781D01*
X139087826Y-80971052D01*
X138761074Y-80743884D01*
X138647345Y-80665942D01*
X138547352Y-80599532D01*
X138468876Y-80549656D01*
X138419698Y-80521316D01*
X138407769Y-80516717D01*
X138379302Y-80534202D01*
X138324223Y-80581472D01*
X138250194Y-80650743D01*
X138164874Y-80734235D01*
X138075927Y-80824166D01*
X137991012Y-80912753D01*
X137917791Y-80992217D01*
X137863926Y-81054775D01*
X137837077Y-81092645D01*
X137835435Y-81098042D01*
X137849249Y-81129963D01*
X137887279Y-81195199D01*
X137944411Y-81285529D01*
X138015530Y-81392730D01*
X138051552Y-81445469D01*
X138127039Y-81555843D01*
X138191032Y-81651021D01*
X138238494Y-81723381D01*
X138264383Y-81765300D01*
X138267668Y-81772381D01*
X138257758Y-81805478D01*
X138231399Y-81872311D01*
X138193645Y-81961570D01*
X138149554Y-82061945D01*
X138104179Y-82162126D01*
X138062576Y-82250804D01*
X138029801Y-82316669D01*
X138010908Y-82348410D01*
X138009724Y-82349447D01*
X137976028Y-82359731D01*
X137903896Y-82375723D01*
X137805080Y-82394951D01*
X137726407Y-82409000D01*
X137601610Y-82430941D01*
X137481227Y-82452857D01*
X137383262Y-82471439D01*
X137345996Y-82478927D01*
X137225225Y-82504113D01*
X137225225Y-82919813D01*
X137225695Y-83075139D01*
X137227614Y-83186983D01*
X137231746Y-83262709D01*
X137238857Y-83309681D01*
X137249710Y-83335263D01*
X137265071Y-83346819D01*
X137269720Y-83348384D01*
X137313767Y-83358517D01*
X137393739Y-83374675D01*
X137495484Y-83394041D01*
X137543043Y-83402770D01*
X137662406Y-83424852D01*
X137778387Y-83447029D01*
X137870716Y-83465405D01*
X137890974Y-83469637D01*
X138010075Y-83494989D01*
X138130865Y-83798979D01*
X138251654Y-84102970D01*
X138043545Y-84406046D01*
X137969288Y-84516413D01*
X137906733Y-84613626D01*
X137861076Y-84689279D01*
X137837515Y-84734964D01*
X137835435Y-84742733D01*
X137852721Y-84771611D01*
X137899449Y-84827420D01*
X137967926Y-84902404D01*
X138050459Y-84988803D01*
X138139353Y-85078859D01*
X138226917Y-85164814D01*
X138305455Y-85238910D01*
X138367276Y-85293388D01*
X138404685Y-85320490D01*
X138409977Y-85322122D01*
X138439649Y-85308443D01*
X138502815Y-85270845D01*
X138591249Y-85214486D01*
X138696728Y-85144523D01*
X138740092Y-85115086D01*
X139043143Y-84908049D01*
X139191970Y-84990413D01*
X139269911Y-85029034D01*
X139330738Y-85050872D01*
X139361101Y-85051253D01*
X139375826Y-85022937D01*
X139407174Y-84953852D01*
X139452440Y-84850261D01*
X139508918Y-84718431D01*
X139573903Y-84564625D01*
X139644690Y-84395108D01*
X139650387Y-84381381D01*
X139919370Y-83733033D01*
X139862638Y-83687516D01*
X139735043Y-83581862D01*
X139641060Y-83495223D01*
X139571931Y-83418493D01*
X139518901Y-83342568D01*
X139500606Y-83311054D01*
X139464308Y-83240980D01*
X139441793Y-83179882D01*
X139429824Y-83111646D01*
X139425167Y-83020158D01*
X139424525Y-82932132D01*
X139432476Y-82763368D01*
X139460046Y-82628794D01*
X139512803Y-82513727D01*
X139596319Y-82403486D01*
X139644418Y-82352551D01*
X139801561Y-82224070D01*
X139973009Y-82143505D01*
X140163603Y-82108810D01*
X140225279Y-82107040D01*
X140433209Y-82130597D01*
X140617939Y-82198775D01*
X140776563Y-82309773D01*
X140906175Y-82461789D01*
X140965909Y-82566000D01*
X141031453Y-82755298D01*
X141049144Y-82954916D01*
X141018497Y-83156679D01*
X141003833Y-83204699D01*
X140946788Y-83322619D01*
X140858409Y-83446666D01*
X140752630Y-83559806D01*
X140643838Y-83644728D01*
X140588247Y-83687171D01*
X140557874Y-83726084D01*
X140555956Y-83734666D01*
X140565279Y-83766282D01*
X140591195Y-83837218D01*
X140630630Y-83939903D01*
X140680505Y-84066766D01*
X140737746Y-84210234D01*
X140799274Y-84362736D01*
X140862014Y-84516701D01*
X140922890Y-84664556D01*
X140978824Y-84798730D01*
X141026740Y-84911652D01*
X141063562Y-84995750D01*
X141086213Y-85043451D01*
X141090705Y-85050748D01*
X141120767Y-85050646D01*
X141182325Y-85030416D01*
X141262296Y-84994397D01*
X141265667Y-84992703D01*
X141422290Y-84913639D01*
X141721243Y-85117881D01*
X141831198Y-85191044D01*
X141928353Y-85252048D01*
X142004116Y-85295766D01*
X142049896Y-85317072D01*
X142057195Y-85318292D01*
X142087252Y-85299510D01*
X142145062Y-85250410D01*
X142223398Y-85177578D01*
X142315033Y-85087603D01*
X142357033Y-85044968D01*
X142450392Y-84948985D01*
X142530875Y-84865750D01*
X142591892Y-84802116D01*
X142626854Y-84764935D01*
X142632300Y-84758699D01*
X142622984Y-84733055D01*
X142589088Y-84673450D01*
X142535304Y-84587508D01*
X142466323Y-84482849D01*
X142426015Y-84423576D01*
X142207301Y-84105228D01*
X142326431Y-83804716D01*
X142371736Y-83690900D01*
X142409995Y-83595664D01*
X142437497Y-83528183D01*
X142450532Y-83497633D01*
X142450971Y-83496852D01*
X142476496Y-83489882D01*
X142543268Y-83475541D01*
X142642509Y-83455612D01*
X142765447Y-83431880D01*
X142834646Y-83418848D01*
X143212913Y-83348197D01*
X143216354Y-83139578D01*
X143044772Y-83139578D01*
X143043410Y-83196430D01*
X143041075Y-83211812D01*
X143014442Y-83216336D01*
X142947412Y-83228720D01*
X142849514Y-83247176D01*
X142730279Y-83269921D01*
X142704551Y-83274858D01*
X142539006Y-83309836D01*
X142419509Y-83342202D01*
X142347970Y-83371403D01*
X142332362Y-83382916D01*
X142300800Y-83430136D01*
X142259426Y-83512741D01*
X142212417Y-83619753D01*
X142163953Y-83740195D01*
X142118212Y-83863088D01*
X142079374Y-83977455D01*
X142051616Y-84072319D01*
X142039117Y-84136701D01*
X142039485Y-84152331D01*
X142058423Y-84197854D01*
X142100533Y-84274396D01*
X142159663Y-84371429D01*
X142229662Y-84478430D01*
X142232562Y-84482710D01*
X142412661Y-84748201D01*
X142228261Y-84933840D01*
X142148796Y-85010094D01*
X142080402Y-85068841D01*
X142031890Y-85102899D01*
X142014379Y-85108166D01*
X141982686Y-85089838D01*
X141918930Y-85048630D01*
X141832687Y-84990850D01*
X141743634Y-84929808D01*
X141615047Y-84844996D01*
X141515103Y-84791141D01*
X141434236Y-84765648D01*
X141362877Y-84765920D01*
X141291458Y-84789364D01*
X141268048Y-84800808D01*
X141214153Y-84820645D01*
X141181753Y-84817841D01*
X141180531Y-84816286D01*
X141167042Y-84786919D01*
X141137365Y-84717834D01*
X141094586Y-84616364D01*
X141041793Y-84489848D01*
X140982074Y-84345620D01*
X140964984Y-84304159D01*
X140763384Y-83814598D01*
X140900323Y-83689444D01*
X141044201Y-83526241D01*
X141149878Y-83338679D01*
X141214271Y-83135788D01*
X141234298Y-82926596D01*
X141216692Y-82762654D01*
X141149469Y-82549194D01*
X141043643Y-82362160D01*
X140905038Y-82205038D01*
X140739475Y-82081316D01*
X140552778Y-81994481D01*
X140350769Y-81948022D01*
X140139271Y-81945424D01*
X139925940Y-81989584D01*
X139719256Y-82081118D01*
X139544247Y-82210087D01*
X139404486Y-82371545D01*
X139303548Y-82560548D01*
X139245008Y-82772147D01*
X139231083Y-82951100D01*
X139256033Y-83178357D01*
X139327558Y-83387170D01*
X139443953Y-83573822D01*
X139582225Y-83716861D01*
X139695670Y-83813830D01*
X139487083Y-84320078D01*
X139425426Y-84469307D01*
X139370324Y-84601876D01*
X139324689Y-84710847D01*
X139291431Y-84789286D01*
X139273458Y-84830255D01*
X139271241Y-84834557D01*
X139246406Y-84829730D01*
X139195098Y-84807094D01*
X139186608Y-84802776D01*
X139119643Y-84774287D01*
X139056202Y-84764784D01*
X138987191Y-84776885D01*
X138903517Y-84813210D01*
X138796088Y-84876378D01*
X138690314Y-84945724D01*
X138417885Y-85128686D01*
X138229560Y-84939368D01*
X138041234Y-84750050D01*
X138230727Y-84471787D01*
X138324878Y-84327244D01*
X138387434Y-84216751D01*
X138417495Y-84141966D01*
X138420220Y-84122316D01*
X138409936Y-84063725D01*
X138382316Y-83971498D01*
X138342207Y-83857758D01*
X138294457Y-83734627D01*
X138243914Y-83614224D01*
X138195424Y-83508674D01*
X138153836Y-83430096D01*
X138129624Y-83395659D01*
X138093984Y-83368140D01*
X138038000Y-83343407D01*
X137953181Y-83318786D01*
X137831035Y-83291599D01*
X137746458Y-83274889D01*
X137624144Y-83251497D01*
X137521341Y-83232031D01*
X137447544Y-83218273D01*
X137412250Y-83212009D01*
X137410636Y-83211812D01*
X137407576Y-83188143D01*
X137405127Y-83124163D01*
X137403586Y-83030410D01*
X137403203Y-82946558D01*
X137404210Y-82825946D01*
X137408216Y-82746905D01*
X137416701Y-82700175D01*
X137431144Y-82676499D01*
X137447698Y-82668019D01*
X137489363Y-82658356D01*
X137569362Y-82642021D01*
X137675984Y-82621339D01*
X137791087Y-82599818D01*
X137932442Y-82571750D01*
X138031874Y-82546440D01*
X138098016Y-82521171D01*
X138139502Y-82493229D01*
X138143943Y-82488837D01*
X138177337Y-82440204D01*
X138222128Y-82356268D01*
X138273214Y-82248948D01*
X138325489Y-82130166D01*
X138373851Y-82011840D01*
X138413194Y-81905893D01*
X138438415Y-81824243D01*
X138444998Y-81785723D01*
X138429705Y-81733684D01*
X138384949Y-81646985D01*
X138313392Y-81530385D01*
X138244338Y-81427049D01*
X138043030Y-81134203D01*
X138225867Y-80952587D01*
X138304402Y-80876395D01*
X138370204Y-80815936D01*
X138414716Y-80778883D01*
X138428430Y-80770971D01*
X138455690Y-80784479D01*
X138516494Y-80821475D01*
X138602464Y-80876668D01*
X138705222Y-80944763D01*
X138730303Y-80961662D01*
X138862945Y-81048546D01*
X138962641Y-81106958D01*
X139036016Y-81140360D01*
X139089697Y-81152213D01*
X139095349Y-81152352D01*
X139160254Y-81141501D01*
X139256265Y-81112431D01*
X139370952Y-81070373D01*
X139491883Y-81020552D01*
X139606627Y-80968198D01*
X139702754Y-80918538D01*
X139767833Y-80876800D01*
X139782502Y-80863364D01*
X139809280Y-80819543D01*
X139834998Y-80746672D01*
X139861557Y-80637940D01*
X139890860Y-80486540D01*
X139896128Y-80456775D01*
X139956882Y-80109910D01*
X140230993Y-80109910D01*
X140342161Y-80111814D01*
X140431665Y-80116971D01*
X140489142Y-80124548D01*
X140505105Y-80131938D01*
X140509589Y-80163806D01*
X140521877Y-80235762D01*
X140540224Y-80337947D01*
X140562887Y-80460501D01*
X140569192Y-80494067D01*
X140603337Y-80659627D01*
X140634967Y-80781456D01*
X140663319Y-80856840D01*
X140677250Y-80877532D01*
X140726609Y-80911091D01*
X140811961Y-80954806D01*
X140920768Y-81003655D01*
X141040489Y-81052616D01*
X141158587Y-81096665D01*
X141262521Y-81130782D01*
X141339753Y-81149942D01*
X141363374Y-81152352D01*
X141412857Y-81145080D01*
X141474701Y-81120481D01*
X141556869Y-81074381D01*
X141667326Y-81002606D01*
X141727162Y-80961662D01*
X141831119Y-80890819D01*
X141920435Y-80831900D01*
X141986674Y-80790327D01*
X142021401Y-80771523D01*
X142023786Y-80770971D01*
X142049316Y-80788011D01*
X142101578Y-80833973D01*
X142172065Y-80901118D01*
X142226437Y-80955305D01*
X142408259Y-81139639D01*
X142206732Y-81439432D01*
X142133974Y-81550892D01*
X142072902Y-81650594D01*
X142028743Y-81729529D01*
X142006723Y-81778689D01*
X142005205Y-81786777D01*
X142015972Y-81836117D01*
X142044900Y-81919291D01*
X142086927Y-82024892D01*
X142136993Y-82141516D01*
X142190038Y-82257755D01*
X142241000Y-82362205D01*
X142284819Y-82443460D01*
X142316434Y-82490114D01*
X142317985Y-82491715D01*
X142356344Y-82518826D01*
X142418186Y-82543706D01*
X142511540Y-82568764D01*
X142644440Y-82596410D01*
X142704404Y-82607623D01*
X143034935Y-82668152D01*
X143042151Y-82939982D01*
X143044367Y-83050627D01*
X143044772Y-83139578D01*
X143216354Y-83139578D01*
X143226835Y-82504373D01*
X143105459Y-82479477D01*
X143026255Y-82463953D01*
X142915353Y-82443141D01*
X142791152Y-82420467D01*
X142729830Y-82409506D01*
X142619558Y-82387857D01*
X142526951Y-82365782D01*
X142464309Y-82346427D01*
X142445516Y-82336820D01*
X142423051Y-82302361D01*
X142387402Y-82233061D01*
X142344084Y-82141367D01*
X142298614Y-82039724D01*
X142256509Y-81940578D01*
X142223285Y-81856376D01*
X142204460Y-81799563D01*
X142202249Y-81787988D01*
X142214906Y-81754761D01*
X142252015Y-81688167D01*
X142308643Y-81596342D01*
X142379858Y-81487421D01*
X142423401Y-81423255D01*
X142647897Y-81096661D01*
X142358748Y-80806689D01*
X142259791Y-80708710D01*
X142172728Y-80624877D01*
X142104065Y-80561272D01*
X142060312Y-80523974D01*
X142048357Y-80516717D01*
X142021071Y-80530455D01*
X141959864Y-80568332D01*
X141872485Y-80625338D01*
X141766681Y-80696466D01*
X141706216Y-80737879D01*
X141592284Y-80814433D01*
X141490810Y-80878947D01*
X141410049Y-80926452D01*
X141358257Y-80951978D01*
X141345661Y-80954933D01*
X141296405Y-80942122D01*
X141218074Y-80913603D01*
X141122689Y-80874701D01*
X141022270Y-80830739D01*
X140928835Y-80787042D01*
X140854405Y-80748935D01*
X140811000Y-80721743D01*
X140805216Y-80715527D01*
X140794556Y-80679575D01*
X140777204Y-80603367D01*
X140755233Y-80496737D01*
X140730720Y-80369517D01*
X140720373Y-80313447D01*
X140694740Y-80182039D01*
X140669428Y-80068681D01*
X140646775Y-79982741D01*
X140629121Y-79933584D01*
X140623665Y-79926099D01*
X140583194Y-79916398D01*
X140504793Y-79909851D01*
X140399538Y-79906288D01*
X140278504Y-79905542D01*
X140152769Y-79907442D01*
X140152769Y-79907442D01*
G37*
X140152769Y-79907442D02*
X140033407Y-79911821D01*
X139931495Y-79918509D01*
X139858108Y-79927338D01*
X139824322Y-79938138D01*
X139824194Y-79938288D01*
X139810514Y-79973595D01*
X139790501Y-80049236D01*
X139766455Y-80155433D01*
X139740675Y-80282405D01*
X139730038Y-80338739D01*
X139704002Y-80471059D01*
X139678328Y-80586238D01*
X139655397Y-80674622D01*
X139637591Y-80726560D01*
X139632231Y-80735168D01*
X139598614Y-80757539D01*
X139533661Y-80789552D01*
X139432518Y-80833368D01*
X139290331Y-80891153D01*
X139218037Y-80919781D01*
X139087826Y-80971052D01*
X138761074Y-80743884D01*
X138647345Y-80665942D01*
X138547352Y-80599532D01*
X138468876Y-80549656D01*
X138419698Y-80521316D01*
X138407769Y-80516717D01*
X138379302Y-80534202D01*
X138324223Y-80581472D01*
X138250194Y-80650743D01*
X138164874Y-80734235D01*
X138075927Y-80824166D01*
X137991012Y-80912753D01*
X137917791Y-80992217D01*
X137863926Y-81054775D01*
X137837077Y-81092645D01*
X137835435Y-81098042D01*
X137849249Y-81129963D01*
X137887279Y-81195199D01*
X137944411Y-81285529D01*
X138015530Y-81392730D01*
X138051552Y-81445469D01*
X138127039Y-81555843D01*
X138191032Y-81651021D01*
X138238494Y-81723381D01*
X138264383Y-81765300D01*
X138267668Y-81772381D01*
X138257758Y-81805478D01*
X138231399Y-81872311D01*
X138193645Y-81961570D01*
X138149554Y-82061945D01*
X138104179Y-82162126D01*
X138062576Y-82250804D01*
X138029801Y-82316669D01*
X138010908Y-82348410D01*
X138009724Y-82349447D01*
X137976028Y-82359731D01*
X137903896Y-82375723D01*
X137805080Y-82394951D01*
X137726407Y-82409000D01*
X137601610Y-82430941D01*
X137481227Y-82452857D01*
X137383262Y-82471439D01*
X137345996Y-82478927D01*
X137225225Y-82504113D01*
X137225225Y-82919813D01*
X137225695Y-83075139D01*
X137227614Y-83186983D01*
X137231746Y-83262709D01*
X137238857Y-83309681D01*
X137249710Y-83335263D01*
X137265071Y-83346819D01*
X137269720Y-83348384D01*
X137313767Y-83358517D01*
X137393739Y-83374675D01*
X137495484Y-83394041D01*
X137543043Y-83402770D01*
X137662406Y-83424852D01*
X137778387Y-83447029D01*
X137870716Y-83465405D01*
X137890974Y-83469637D01*
X138010075Y-83494989D01*
X138130865Y-83798979D01*
X138251654Y-84102970D01*
X138043545Y-84406046D01*
X137969288Y-84516413D01*
X137906733Y-84613626D01*
X137861076Y-84689279D01*
X137837515Y-84734964D01*
X137835435Y-84742733D01*
X137852721Y-84771611D01*
X137899449Y-84827420D01*
X137967926Y-84902404D01*
X138050459Y-84988803D01*
X138139353Y-85078859D01*
X138226917Y-85164814D01*
X138305455Y-85238910D01*
X138367276Y-85293388D01*
X138404685Y-85320490D01*
X138409977Y-85322122D01*
X138439649Y-85308443D01*
X138502815Y-85270845D01*
X138591249Y-85214486D01*
X138696728Y-85144523D01*
X138740092Y-85115086D01*
X139043143Y-84908049D01*
X139191970Y-84990413D01*
X139269911Y-85029034D01*
X139330738Y-85050872D01*
X139361101Y-85051253D01*
X139375826Y-85022937D01*
X139407174Y-84953852D01*
X139452440Y-84850261D01*
X139508918Y-84718431D01*
X139573903Y-84564625D01*
X139644690Y-84395108D01*
X139650387Y-84381381D01*
X139919370Y-83733033D01*
X139862638Y-83687516D01*
X139735043Y-83581862D01*
X139641060Y-83495223D01*
X139571931Y-83418493D01*
X139518901Y-83342568D01*
X139500606Y-83311054D01*
X139464308Y-83240980D01*
X139441793Y-83179882D01*
X139429824Y-83111646D01*
X139425167Y-83020158D01*
X139424525Y-82932132D01*
X139432476Y-82763368D01*
X139460046Y-82628794D01*
X139512803Y-82513727D01*
X139596319Y-82403486D01*
X139644418Y-82352551D01*
X139801561Y-82224070D01*
X139973009Y-82143505D01*
X140163603Y-82108810D01*
X140225279Y-82107040D01*
X140433209Y-82130597D01*
X140617939Y-82198775D01*
X140776563Y-82309773D01*
X140906175Y-82461789D01*
X140965909Y-82566000D01*
X141031453Y-82755298D01*
X141049144Y-82954916D01*
X141018497Y-83156679D01*
X141003833Y-83204699D01*
X140946788Y-83322619D01*
X140858409Y-83446666D01*
X140752630Y-83559806D01*
X140643838Y-83644728D01*
X140588247Y-83687171D01*
X140557874Y-83726084D01*
X140555956Y-83734666D01*
X140565279Y-83766282D01*
X140591195Y-83837218D01*
X140630630Y-83939903D01*
X140680505Y-84066766D01*
X140737746Y-84210234D01*
X140799274Y-84362736D01*
X140862014Y-84516701D01*
X140922890Y-84664556D01*
X140978824Y-84798730D01*
X141026740Y-84911652D01*
X141063562Y-84995750D01*
X141086213Y-85043451D01*
X141090705Y-85050748D01*
X141120767Y-85050646D01*
X141182325Y-85030416D01*
X141262296Y-84994397D01*
X141265667Y-84992703D01*
X141422290Y-84913639D01*
X141721243Y-85117881D01*
X141831198Y-85191044D01*
X141928353Y-85252048D01*
X142004116Y-85295766D01*
X142049896Y-85317072D01*
X142057195Y-85318292D01*
X142087252Y-85299510D01*
X142145062Y-85250410D01*
X142223398Y-85177578D01*
X142315033Y-85087603D01*
X142357033Y-85044968D01*
X142450392Y-84948985D01*
X142530875Y-84865750D01*
X142591892Y-84802116D01*
X142626854Y-84764935D01*
X142632300Y-84758699D01*
X142622984Y-84733055D01*
X142589088Y-84673450D01*
X142535304Y-84587508D01*
X142466323Y-84482849D01*
X142426015Y-84423576D01*
X142207301Y-84105228D01*
X142326431Y-83804716D01*
X142371736Y-83690900D01*
X142409995Y-83595664D01*
X142437497Y-83528183D01*
X142450532Y-83497633D01*
X142450971Y-83496852D01*
X142476496Y-83489882D01*
X142543268Y-83475541D01*
X142642509Y-83455612D01*
X142765447Y-83431880D01*
X142834646Y-83418848D01*
X143212913Y-83348197D01*
X143216354Y-83139578D01*
X143044772Y-83139578D01*
X143043410Y-83196430D01*
X143041075Y-83211812D01*
X143014442Y-83216336D01*
X142947412Y-83228720D01*
X142849514Y-83247176D01*
X142730279Y-83269921D01*
X142704551Y-83274858D01*
X142539006Y-83309836D01*
X142419509Y-83342202D01*
X142347970Y-83371403D01*
X142332362Y-83382916D01*
X142300800Y-83430136D01*
X142259426Y-83512741D01*
X142212417Y-83619753D01*
X142163953Y-83740195D01*
X142118212Y-83863088D01*
X142079374Y-83977455D01*
X142051616Y-84072319D01*
X142039117Y-84136701D01*
X142039485Y-84152331D01*
X142058423Y-84197854D01*
X142100533Y-84274396D01*
X142159663Y-84371429D01*
X142229662Y-84478430D01*
X142232562Y-84482710D01*
X142412661Y-84748201D01*
X142228261Y-84933840D01*
X142148796Y-85010094D01*
X142080402Y-85068841D01*
X142031890Y-85102899D01*
X142014379Y-85108166D01*
X141982686Y-85089838D01*
X141918930Y-85048630D01*
X141832687Y-84990850D01*
X141743634Y-84929808D01*
X141615047Y-84844996D01*
X141515103Y-84791141D01*
X141434236Y-84765648D01*
X141362877Y-84765920D01*
X141291458Y-84789364D01*
X141268048Y-84800808D01*
X141214153Y-84820645D01*
X141181753Y-84817841D01*
X141180531Y-84816286D01*
X141167042Y-84786919D01*
X141137365Y-84717834D01*
X141094586Y-84616364D01*
X141041793Y-84489848D01*
X140982074Y-84345620D01*
X140964984Y-84304159D01*
X140763384Y-83814598D01*
X140900323Y-83689444D01*
X141044201Y-83526241D01*
X141149878Y-83338679D01*
X141214271Y-83135788D01*
X141234298Y-82926596D01*
X141216692Y-82762654D01*
X141149469Y-82549194D01*
X141043643Y-82362160D01*
X140905038Y-82205038D01*
X140739475Y-82081316D01*
X140552778Y-81994481D01*
X140350769Y-81948022D01*
X140139271Y-81945424D01*
X139925940Y-81989584D01*
X139719256Y-82081118D01*
X139544247Y-82210087D01*
X139404486Y-82371545D01*
X139303548Y-82560548D01*
X139245008Y-82772147D01*
X139231083Y-82951100D01*
X139256033Y-83178357D01*
X139327558Y-83387170D01*
X139443953Y-83573822D01*
X139582225Y-83716861D01*
X139695670Y-83813830D01*
X139487083Y-84320078D01*
X139425426Y-84469307D01*
X139370324Y-84601876D01*
X139324689Y-84710847D01*
X139291431Y-84789286D01*
X139273458Y-84830255D01*
X139271241Y-84834557D01*
X139246406Y-84829730D01*
X139195098Y-84807094D01*
X139186608Y-84802776D01*
X139119643Y-84774287D01*
X139056202Y-84764784D01*
X138987191Y-84776885D01*
X138903517Y-84813210D01*
X138796088Y-84876378D01*
X138690314Y-84945724D01*
X138417885Y-85128686D01*
X138229560Y-84939368D01*
X138041234Y-84750050D01*
X138230727Y-84471787D01*
X138324878Y-84327244D01*
X138387434Y-84216751D01*
X138417495Y-84141966D01*
X138420220Y-84122316D01*
X138409936Y-84063725D01*
X138382316Y-83971498D01*
X138342207Y-83857758D01*
X138294457Y-83734627D01*
X138243914Y-83614224D01*
X138195424Y-83508674D01*
X138153836Y-83430096D01*
X138129624Y-83395659D01*
X138093984Y-83368140D01*
X138038000Y-83343407D01*
X137953181Y-83318786D01*
X137831035Y-83291599D01*
X137746458Y-83274889D01*
X137624144Y-83251497D01*
X137521341Y-83232031D01*
X137447544Y-83218273D01*
X137412250Y-83212009D01*
X137410636Y-83211812D01*
X137407576Y-83188143D01*
X137405127Y-83124163D01*
X137403586Y-83030410D01*
X137403203Y-82946558D01*
X137404210Y-82825946D01*
X137408216Y-82746905D01*
X137416701Y-82700175D01*
X137431144Y-82676499D01*
X137447698Y-82668019D01*
X137489363Y-82658356D01*
X137569362Y-82642021D01*
X137675984Y-82621339D01*
X137791087Y-82599818D01*
X137932442Y-82571750D01*
X138031874Y-82546440D01*
X138098016Y-82521171D01*
X138139502Y-82493229D01*
X138143943Y-82488837D01*
X138177337Y-82440204D01*
X138222128Y-82356268D01*
X138273214Y-82248948D01*
X138325489Y-82130166D01*
X138373851Y-82011840D01*
X138413194Y-81905893D01*
X138438415Y-81824243D01*
X138444998Y-81785723D01*
X138429705Y-81733684D01*
X138384949Y-81646985D01*
X138313392Y-81530385D01*
X138244338Y-81427049D01*
X138043030Y-81134203D01*
X138225867Y-80952587D01*
X138304402Y-80876395D01*
X138370204Y-80815936D01*
X138414716Y-80778883D01*
X138428430Y-80770971D01*
X138455690Y-80784479D01*
X138516494Y-80821475D01*
X138602464Y-80876668D01*
X138705222Y-80944763D01*
X138730303Y-80961662D01*
X138862945Y-81048546D01*
X138962641Y-81106958D01*
X139036016Y-81140360D01*
X139089697Y-81152213D01*
X139095349Y-81152352D01*
X139160254Y-81141501D01*
X139256265Y-81112431D01*
X139370952Y-81070373D01*
X139491883Y-81020552D01*
X139606627Y-80968198D01*
X139702754Y-80918538D01*
X139767833Y-80876800D01*
X139782502Y-80863364D01*
X139809280Y-80819543D01*
X139834998Y-80746672D01*
X139861557Y-80637940D01*
X139890860Y-80486540D01*
X139896128Y-80456775D01*
X139956882Y-80109910D01*
X140230993Y-80109910D01*
X140342161Y-80111814D01*
X140431665Y-80116971D01*
X140489142Y-80124548D01*
X140505105Y-80131938D01*
X140509589Y-80163806D01*
X140521877Y-80235762D01*
X140540224Y-80337947D01*
X140562887Y-80460501D01*
X140569192Y-80494067D01*
X140603337Y-80659627D01*
X140634967Y-80781456D01*
X140663319Y-80856840D01*
X140677250Y-80877532D01*
X140726609Y-80911091D01*
X140811961Y-80954806D01*
X140920768Y-81003655D01*
X141040489Y-81052616D01*
X141158587Y-81096665D01*
X141262521Y-81130782D01*
X141339753Y-81149942D01*
X141363374Y-81152352D01*
X141412857Y-81145080D01*
X141474701Y-81120481D01*
X141556869Y-81074381D01*
X141667326Y-81002606D01*
X141727162Y-80961662D01*
X141831119Y-80890819D01*
X141920435Y-80831900D01*
X141986674Y-80790327D01*
X142021401Y-80771523D01*
X142023786Y-80770971D01*
X142049316Y-80788011D01*
X142101578Y-80833973D01*
X142172065Y-80901118D01*
X142226437Y-80955305D01*
X142408259Y-81139639D01*
X142206732Y-81439432D01*
X142133974Y-81550892D01*
X142072902Y-81650594D01*
X142028743Y-81729529D01*
X142006723Y-81778689D01*
X142005205Y-81786777D01*
X142015972Y-81836117D01*
X142044900Y-81919291D01*
X142086927Y-82024892D01*
X142136993Y-82141516D01*
X142190038Y-82257755D01*
X142241000Y-82362205D01*
X142284819Y-82443460D01*
X142316434Y-82490114D01*
X142317985Y-82491715D01*
X142356344Y-82518826D01*
X142418186Y-82543706D01*
X142511540Y-82568764D01*
X142644440Y-82596410D01*
X142704404Y-82607623D01*
X143034935Y-82668152D01*
X143042151Y-82939982D01*
X143044367Y-83050627D01*
X143044772Y-83139578D01*
X143216354Y-83139578D01*
X143226835Y-82504373D01*
X143105459Y-82479477D01*
X143026255Y-82463953D01*
X142915353Y-82443141D01*
X142791152Y-82420467D01*
X142729830Y-82409506D01*
X142619558Y-82387857D01*
X142526951Y-82365782D01*
X142464309Y-82346427D01*
X142445516Y-82336820D01*
X142423051Y-82302361D01*
X142387402Y-82233061D01*
X142344084Y-82141367D01*
X142298614Y-82039724D01*
X142256509Y-81940578D01*
X142223285Y-81856376D01*
X142204460Y-81799563D01*
X142202249Y-81787988D01*
X142214906Y-81754761D01*
X142252015Y-81688167D01*
X142308643Y-81596342D01*
X142379858Y-81487421D01*
X142423401Y-81423255D01*
X142647897Y-81096661D01*
X142358748Y-80806689D01*
X142259791Y-80708710D01*
X142172728Y-80624877D01*
X142104065Y-80561272D01*
X142060312Y-80523974D01*
X142048357Y-80516717D01*
X142021071Y-80530455D01*
X141959864Y-80568332D01*
X141872485Y-80625338D01*
X141766681Y-80696466D01*
X141706216Y-80737879D01*
X141592284Y-80814433D01*
X141490810Y-80878947D01*
X141410049Y-80926452D01*
X141358257Y-80951978D01*
X141345661Y-80954933D01*
X141296405Y-80942122D01*
X141218074Y-80913603D01*
X141122689Y-80874701D01*
X141022270Y-80830739D01*
X140928835Y-80787042D01*
X140854405Y-80748935D01*
X140811000Y-80721743D01*
X140805216Y-80715527D01*
X140794556Y-80679575D01*
X140777204Y-80603367D01*
X140755233Y-80496737D01*
X140730720Y-80369517D01*
X140720373Y-80313447D01*
X140694740Y-80182039D01*
X140669428Y-80068681D01*
X140646775Y-79982741D01*
X140629121Y-79933584D01*
X140623665Y-79926099D01*
X140583194Y-79916398D01*
X140504793Y-79909851D01*
X140399538Y-79906288D01*
X140278504Y-79905542D01*
X140152769Y-79907442D01*
D12*
X175625000Y-82150000D03*
X176875000Y-82150000D03*
X174375000Y-82150000D03*
X173125000Y-82150000D03*
D13*
X178800000Y-79100000D03*
X171200000Y-79100000D03*
D14*
X147300000Y-89200000D03*
X147300000Y-90800000D03*
X152700000Y-89200000D03*
X152700000Y-90800000D03*
D15*
X153000000Y-89000000D03*
X153000000Y-91000000D03*
X147000000Y-89000000D03*
X147000000Y-91000000D03*
D10*
G36*
X152550000Y-88400000D02*
X153100000Y-88800000D01*
X151900000Y-88800000D01*
X152450000Y-88400000D01*
X152550000Y-88400000D01*
X152550000Y-88400000D01*
G37*
G36*
X152450000Y-91600000D02*
X151900000Y-91200000D01*
X153100000Y-91200000D01*
X152550000Y-91600000D01*
X152450000Y-91600000D01*
X152450000Y-91600000D01*
G37*
G36*
X147550000Y-88400000D02*
X148100000Y-88800000D01*
X146900000Y-88800000D01*
X147450000Y-88400000D01*
X147550000Y-88400000D01*
X147550000Y-88400000D01*
G37*
G36*
X147450000Y-91600000D02*
X146900000Y-91200000D01*
X148100000Y-91200000D01*
X147550000Y-91600000D01*
X147450000Y-91600000D01*
X147450000Y-91600000D01*
G37*
D16*
X135650000Y-81375000D03*
X135650000Y-80125000D03*
X135650000Y-82625000D03*
X135650000Y-83875000D03*
D17*
X132600000Y-78200000D03*
X132600000Y-85800000D03*
D10*
G36*
X138568288Y-94472093D02*
X137366206Y-95674175D01*
X136941942Y-95249911D01*
X138144024Y-94047829D01*
X138568288Y-94472093D01*
X138568288Y-94472093D01*
G37*
G36*
X137684404Y-93588210D02*
X136482322Y-94790292D01*
X136058058Y-94366028D01*
X137260140Y-93163946D01*
X137684404Y-93588210D01*
X137684404Y-93588210D01*
G37*
G36*
X139452171Y-95355976D02*
X138250089Y-96558058D01*
X137825825Y-96133794D01*
X139027907Y-94931712D01*
X139452171Y-95355976D01*
X139452171Y-95355976D01*
G37*
G36*
X140336054Y-96239860D02*
X139133972Y-97441942D01*
X138709708Y-97017678D01*
X139911790Y-95815596D01*
X140336054Y-96239860D01*
X140336054Y-96239860D01*
G37*
G36*
X134661523Y-94171573D02*
X132752334Y-96080762D01*
X132045227Y-95373655D01*
X133954416Y-93464466D01*
X134661523Y-94171573D01*
X134661523Y-94171573D01*
G37*
G36*
X140035534Y-99545584D02*
X138126345Y-101454773D01*
X137419238Y-100747666D01*
X139328427Y-98838477D01*
X140035534Y-99545584D01*
X140035534Y-99545584D01*
G37*
D18*
X168000000Y-80000000D03*
X168000000Y-82000000D03*
D19*
X163700000Y-84500000D03*
X166300000Y-84500000D03*
D10*
G36*
X172383883Y-87030330D02*
X172030330Y-87383883D01*
X171464645Y-86818198D01*
X171818198Y-86464645D01*
X172383883Y-87030330D01*
X172383883Y-87030330D01*
G37*
G36*
X171535355Y-86181802D02*
X171181802Y-86535355D01*
X170616117Y-85969670D01*
X170969670Y-85616117D01*
X171535355Y-86181802D01*
X171535355Y-86181802D01*
G37*
D18*
X162000000Y-82000000D03*
X162000000Y-80000000D03*
D20*
X173600000Y-95800000D03*
X174800000Y-95800000D03*
D12*
X150625000Y-82150000D03*
X151875000Y-82150000D03*
X149375000Y-82150000D03*
X148125000Y-82150000D03*
D13*
X153800000Y-79100000D03*
X146200000Y-79100000D03*
D12*
X149125000Y-97850000D03*
X147875000Y-97850000D03*
X150375000Y-97850000D03*
X151625000Y-97850000D03*
D13*
X145950000Y-100900000D03*
X153550000Y-100900000D03*
D10*
G36*
X181931712Y-85527907D02*
X183133794Y-84325825D01*
X183558058Y-84750089D01*
X182355976Y-85952171D01*
X181931712Y-85527907D01*
X181931712Y-85527907D01*
G37*
G36*
X182815596Y-86411790D02*
X184017678Y-85209708D01*
X184441942Y-85633972D01*
X183239860Y-86836054D01*
X182815596Y-86411790D01*
X182815596Y-86411790D01*
G37*
G36*
X181047829Y-84644024D02*
X182249911Y-83441942D01*
X182674175Y-83866206D01*
X181472093Y-85068288D01*
X181047829Y-84644024D01*
X181047829Y-84644024D01*
G37*
G36*
X180163946Y-83760140D02*
X181366028Y-82558058D01*
X181790292Y-82982322D01*
X180588210Y-84184404D01*
X180163946Y-83760140D01*
X180163946Y-83760140D01*
G37*
G36*
X185838477Y-85828427D02*
X187747666Y-83919238D01*
X188454773Y-84626345D01*
X186545584Y-86535534D01*
X185838477Y-85828427D01*
X185838477Y-85828427D01*
G37*
G36*
X180464466Y-80454416D02*
X182373655Y-78545227D01*
X183080762Y-79252334D01*
X181171573Y-81161523D01*
X180464466Y-80454416D01*
X180464466Y-80454416D01*
G37*
D16*
X184850000Y-92625000D03*
X184850000Y-93875000D03*
X184850000Y-91375000D03*
X184850000Y-90125000D03*
D17*
X187900000Y-95800000D03*
X187900000Y-88200000D03*
D21*
X155000000Y-92000000D03*
X155000000Y-93200000D03*
X155000000Y-88200000D03*
X155000000Y-87000000D03*
X145500000Y-90600000D03*
X145500000Y-89400000D03*
D20*
X166500000Y-93500000D03*
X165300000Y-93500000D03*
D22*
X163150000Y-90750000D03*
X163150000Y-90250000D03*
X163150000Y-89750000D03*
X163150000Y-89250000D03*
X161850000Y-89250000D03*
X161850000Y-89750000D03*
X161850000Y-90250000D03*
X161850000Y-90750000D03*
D23*
X165000000Y-79850000D03*
X164050000Y-79850000D03*
X165950000Y-79850000D03*
X165950000Y-82150000D03*
X164050000Y-82150000D03*
D24*
X186900000Y-99100000D03*
X142900000Y-99100000D03*
D10*
G36*
X167946353Y-92958215D02*
X168582749Y-92321819D01*
X168794881Y-92533951D01*
X168158485Y-93170347D01*
X167946353Y-92958215D01*
X167946353Y-92958215D01*
G37*
G36*
X167592800Y-92604662D02*
X168441328Y-91756134D01*
X168653460Y-91968266D01*
X167804932Y-92816794D01*
X167592800Y-92604662D01*
X167592800Y-92604662D01*
G37*
G36*
X167239246Y-92251108D02*
X168087774Y-91402580D01*
X168299906Y-91614712D01*
X167451378Y-92463240D01*
X167239246Y-92251108D01*
X167239246Y-92251108D01*
G37*
G36*
X166885693Y-91897555D02*
X167734221Y-91049027D01*
X167946353Y-91261159D01*
X167097825Y-92109687D01*
X166885693Y-91897555D01*
X166885693Y-91897555D01*
G37*
G36*
X166532139Y-91544002D02*
X167380667Y-90695474D01*
X167592799Y-90907606D01*
X166744271Y-91756134D01*
X166532139Y-91544002D01*
X166532139Y-91544002D01*
G37*
G36*
X166178586Y-91190448D02*
X167027114Y-90341920D01*
X167239246Y-90554052D01*
X166390718Y-91402580D01*
X166178586Y-91190448D01*
X166178586Y-91190448D01*
G37*
G36*
X165825033Y-90836895D02*
X166461429Y-90200499D01*
X166673561Y-90412631D01*
X166037165Y-91049027D01*
X165825033Y-90836895D01*
X165825033Y-90836895D01*
G37*
G36*
X166037165Y-88927707D02*
X166673561Y-89564103D01*
X166461429Y-89776235D01*
X165825033Y-89139839D01*
X166037165Y-88927707D01*
X166037165Y-88927707D01*
G37*
G36*
X166390718Y-88574153D02*
X167239246Y-89422681D01*
X167027114Y-89634813D01*
X166178586Y-88786285D01*
X166390718Y-88574153D01*
X166390718Y-88574153D01*
G37*
G36*
X166744271Y-88220600D02*
X167592799Y-89069128D01*
X167380667Y-89281260D01*
X166532139Y-88432732D01*
X166744271Y-88220600D01*
X166744271Y-88220600D01*
G37*
G36*
X167097825Y-87867046D02*
X167946353Y-88715574D01*
X167734221Y-88927706D01*
X166885693Y-88079178D01*
X167097825Y-87867046D01*
X167097825Y-87867046D01*
G37*
G36*
X167451378Y-87513493D02*
X168299906Y-88362021D01*
X168087774Y-88574153D01*
X167239246Y-87725625D01*
X167451378Y-87513493D01*
X167451378Y-87513493D01*
G37*
G36*
X167804932Y-87159940D02*
X168653460Y-88008468D01*
X168441328Y-88220600D01*
X167592800Y-87372072D01*
X167804932Y-87159940D01*
X167804932Y-87159940D01*
G37*
G36*
X168158485Y-86806386D02*
X168794881Y-87442782D01*
X168582749Y-87654914D01*
X167946353Y-87018518D01*
X168158485Y-86806386D01*
X168158485Y-86806386D01*
G37*
G36*
X169219145Y-87442782D02*
X169855541Y-86806386D01*
X170067673Y-87018518D01*
X169431277Y-87654914D01*
X169219145Y-87442782D01*
X169219145Y-87442782D01*
G37*
G36*
X169360567Y-88008468D02*
X170209095Y-87159940D01*
X170421227Y-87372072D01*
X169572699Y-88220600D01*
X169360567Y-88008468D01*
X169360567Y-88008468D01*
G37*
G36*
X169714120Y-88362021D02*
X170562648Y-87513493D01*
X170774780Y-87725625D01*
X169926252Y-88574153D01*
X169714120Y-88362021D01*
X169714120Y-88362021D01*
G37*
G36*
X170067673Y-88715574D02*
X170916201Y-87867046D01*
X171128333Y-88079178D01*
X170279805Y-88927706D01*
X170067673Y-88715574D01*
X170067673Y-88715574D01*
G37*
G36*
X170421227Y-89069128D02*
X171269755Y-88220600D01*
X171481887Y-88432732D01*
X170633359Y-89281260D01*
X170421227Y-89069128D01*
X170421227Y-89069128D01*
G37*
G36*
X170774780Y-89422681D02*
X171623308Y-88574153D01*
X171835440Y-88786285D01*
X170986912Y-89634813D01*
X170774780Y-89422681D01*
X170774780Y-89422681D01*
G37*
G36*
X171340466Y-89564103D02*
X171976862Y-88927707D01*
X172188994Y-89139839D01*
X171552598Y-89776235D01*
X171340466Y-89564103D01*
X171340466Y-89564103D01*
G37*
G36*
X171552598Y-90200499D02*
X172188994Y-90836895D01*
X171976862Y-91049027D01*
X171340466Y-90412631D01*
X171552598Y-90200499D01*
X171552598Y-90200499D01*
G37*
G36*
X170986912Y-90341920D02*
X171835440Y-91190448D01*
X171623308Y-91402580D01*
X170774780Y-90554052D01*
X170986912Y-90341920D01*
X170986912Y-90341920D01*
G37*
G36*
X170633359Y-90695474D02*
X171481887Y-91544002D01*
X171269755Y-91756134D01*
X170421227Y-90907606D01*
X170633359Y-90695474D01*
X170633359Y-90695474D01*
G37*
G36*
X170279805Y-91049027D02*
X171128333Y-91897555D01*
X170916201Y-92109687D01*
X170067673Y-91261159D01*
X170279805Y-91049027D01*
X170279805Y-91049027D01*
G37*
G36*
X169926252Y-91402580D02*
X170774780Y-92251108D01*
X170562648Y-92463240D01*
X169714120Y-91614712D01*
X169926252Y-91402580D01*
X169926252Y-91402580D01*
G37*
G36*
X169572699Y-91756134D02*
X170421227Y-92604662D01*
X170209095Y-92816794D01*
X169360567Y-91968266D01*
X169572699Y-91756134D01*
X169572699Y-91756134D01*
G37*
G36*
X169431277Y-92321819D02*
X170067673Y-92958215D01*
X169855541Y-93170347D01*
X169219145Y-92533951D01*
X169431277Y-92321819D01*
X169431277Y-92321819D01*
G37*
G36*
X168264551Y-92640017D02*
X168830237Y-92074331D01*
X168830237Y-92498595D01*
X168688815Y-92640017D01*
X168264551Y-92640017D01*
X168264551Y-92640017D01*
G37*
G36*
X169183789Y-92074331D02*
X169749475Y-92640017D01*
X169325211Y-92640017D01*
X169183789Y-92498595D01*
X169183789Y-92074331D01*
X169183789Y-92074331D01*
G37*
G36*
X168830237Y-87902402D02*
X168264551Y-87336716D01*
X168688815Y-87336716D01*
X168830237Y-87478138D01*
X168830237Y-87902402D01*
X168830237Y-87902402D01*
G37*
G36*
X169749475Y-87336716D02*
X169183789Y-87902402D01*
X169183789Y-87478138D01*
X169325211Y-87336716D01*
X169749475Y-87336716D01*
X169749475Y-87336716D01*
G37*
G36*
X166921048Y-90165143D02*
X166355362Y-90730829D01*
X166355362Y-90306565D01*
X166496784Y-90165143D01*
X166921048Y-90165143D01*
X166921048Y-90165143D01*
G37*
G36*
X166355362Y-89245904D02*
X166921048Y-89811590D01*
X166496784Y-89811590D01*
X166355362Y-89670168D01*
X166355362Y-89245904D01*
X166355362Y-89245904D01*
G37*
G36*
X171092978Y-89811590D02*
X171658664Y-89245904D01*
X171658664Y-89670168D01*
X171517242Y-89811590D01*
X171092978Y-89811590D01*
X171092978Y-89811590D01*
G37*
G36*
X171658664Y-90730829D02*
X171092978Y-90165143D01*
X171517242Y-90165143D01*
X171658664Y-90306565D01*
X171658664Y-90730829D01*
X171658664Y-90730829D01*
G37*
D25*
X181500000Y-101750000D03*
D26*
X183600000Y-99600000D03*
X179400000Y-99600000D03*
D27*
X158050000Y-88600000D03*
X157400000Y-88600000D03*
X156750000Y-88600000D03*
X156750000Y-86600000D03*
X157400000Y-86600000D03*
X158050000Y-86600000D03*
X156750000Y-91600000D03*
X157400000Y-91600000D03*
X158050000Y-91600000D03*
X158050000Y-93600000D03*
X157400000Y-93600000D03*
X156750000Y-93600000D03*
D12*
X170250000Y-97850000D03*
X169000000Y-97850000D03*
X171500000Y-97850000D03*
X172750000Y-97850000D03*
D13*
X163325000Y-100900000D03*
X174675000Y-100900000D03*
D12*
X167750000Y-97850000D03*
X166500000Y-97850000D03*
X165250000Y-97850000D03*
M02*
