G04 #@! TF.FileFunction,Copper,L1,Top,Signal*
%FSLAX46Y46*%
G04 Gerber Fmt 4.6, Leading zero omitted, Abs format (unit mm)*
G04 Created by KiCad (PCBNEW 4.0.5-e0-6337~49~ubuntu14.04.1) date Mon May 15 20:50:12 2017*
%MOMM*%
%LPD*%
G01*
G04 APERTURE LIST*
%ADD10C,0.100000*%
%ADD11C,0.170000*%
%ADD12C,0.140000*%
%ADD13C,0.285000*%
%ADD14C,0.010000*%
%ADD15C,3.000000*%
%ADD16C,0.600000*%
%ADD17C,0.500000*%
%ADD18C,0.200000*%
G04 APERTURE END LIST*
D10*
D11*
X189021429Y-92528571D02*
X188964286Y-92585714D01*
X188792857Y-92642857D01*
X188678571Y-92642857D01*
X188507143Y-92585714D01*
X188392857Y-92471429D01*
X188335714Y-92357143D01*
X188278571Y-92128571D01*
X188278571Y-91957143D01*
X188335714Y-91728571D01*
X188392857Y-91614286D01*
X188507143Y-91500000D01*
X188678571Y-91442857D01*
X188792857Y-91442857D01*
X188964286Y-91500000D01*
X189021429Y-91557143D01*
X184985714Y-81764286D02*
X185157143Y-81821429D01*
X185214286Y-81878571D01*
X185271429Y-81992857D01*
X185271429Y-82164286D01*
X185214286Y-82278571D01*
X185157143Y-82335714D01*
X185042857Y-82392857D01*
X184585714Y-82392857D01*
X184585714Y-81192857D01*
X184985714Y-81192857D01*
X185100000Y-81250000D01*
X185157143Y-81307143D01*
X185214286Y-81421429D01*
X185214286Y-81535714D01*
X185157143Y-81650000D01*
X185100000Y-81707143D01*
X184985714Y-81764286D01*
X184585714Y-81764286D01*
X174614286Y-78800000D02*
X175185715Y-78800000D01*
X174500001Y-79142857D02*
X174900001Y-77942857D01*
X175300001Y-79142857D01*
D12*
X177888095Y-94659524D02*
X177650000Y-94373810D01*
X177459524Y-94659524D02*
X177459524Y-93992857D01*
X177745238Y-93992857D01*
X177840476Y-94040476D01*
X177888095Y-94135714D01*
X177888095Y-94230952D01*
X177840476Y-94326190D01*
X177745238Y-94373810D01*
X177459524Y-94373810D01*
X177650000Y-93659524D02*
X177411905Y-93707143D01*
X177173809Y-93850000D01*
X177030952Y-94088095D01*
X176983333Y-94326190D01*
X177030952Y-94564286D01*
X177173809Y-94802381D01*
X177411905Y-94945238D01*
X177650000Y-94992857D01*
X177888095Y-94945238D01*
X178126190Y-94802381D01*
X178269047Y-94564286D01*
X178316667Y-94326190D01*
X178269047Y-94088095D01*
X178126190Y-93850000D01*
X177888095Y-93707143D01*
X177650000Y-93659524D01*
D11*
X148628572Y-100342857D02*
X148628572Y-101142857D01*
X148342858Y-99885714D02*
X148057143Y-100742857D01*
X148800001Y-100742857D01*
X136000001Y-98442857D02*
X136742858Y-98442857D01*
X136342858Y-98900000D01*
X136514286Y-98900000D01*
X136628572Y-98957143D01*
X136685715Y-99014286D01*
X136742858Y-99128571D01*
X136742858Y-99414286D01*
X136685715Y-99528571D01*
X136628572Y-99585714D01*
X136514286Y-99642857D01*
X136171429Y-99642857D01*
X136057143Y-99585714D01*
X136000001Y-99528571D01*
X132057143Y-80557143D02*
X132114286Y-80500000D01*
X132228572Y-80442857D01*
X132514286Y-80442857D01*
X132628572Y-80500000D01*
X132685715Y-80557143D01*
X132742858Y-80671429D01*
X132742858Y-80785714D01*
X132685715Y-80957143D01*
X132000001Y-81642857D01*
X132742858Y-81642857D01*
X150242858Y-79642857D02*
X149557143Y-79642857D01*
X149900001Y-79642857D02*
X149900001Y-78442857D01*
X149785715Y-78614286D01*
X149671429Y-78728571D01*
X149557143Y-78785714D01*
D13*
X161142856Y-96504762D02*
X161142856Y-94504762D01*
X162285714Y-96504762D01*
X162285714Y-94504762D01*
X163999999Y-96409524D02*
X163809523Y-96504762D01*
X163428571Y-96504762D01*
X163238094Y-96409524D01*
X163142856Y-96219048D01*
X163142856Y-95457143D01*
X163238094Y-95266667D01*
X163428571Y-95171429D01*
X163809523Y-95171429D01*
X163999999Y-95266667D01*
X164095237Y-95457143D01*
X164095237Y-95647619D01*
X163142856Y-95838095D01*
X165809523Y-95171429D02*
X165809523Y-96504762D01*
X164952380Y-95171429D02*
X164952380Y-96219048D01*
X165047619Y-96409524D01*
X165238095Y-96504762D01*
X165523809Y-96504762D01*
X165714285Y-96409524D01*
X165809523Y-96314286D01*
X166761904Y-96504762D02*
X166761904Y-95171429D01*
X166761904Y-95552381D02*
X166857143Y-95361905D01*
X166952381Y-95266667D01*
X167142857Y-95171429D01*
X167333333Y-95171429D01*
X168285714Y-96504762D02*
X168095238Y-96409524D01*
X167999999Y-96314286D01*
X167904761Y-96123810D01*
X167904761Y-95552381D01*
X167999999Y-95361905D01*
X168095238Y-95266667D01*
X168285714Y-95171429D01*
X168571428Y-95171429D01*
X168761904Y-95266667D01*
X168857142Y-95361905D01*
X168952380Y-95552381D01*
X168952380Y-96123810D01*
X168857142Y-96314286D01*
X168761904Y-96409524D01*
X168571428Y-96504762D01*
X168285714Y-96504762D01*
X170476190Y-95457143D02*
X170761904Y-95552381D01*
X170857143Y-95647619D01*
X170952381Y-95838095D01*
X170952381Y-96123810D01*
X170857143Y-96314286D01*
X170761904Y-96409524D01*
X170571428Y-96504762D01*
X169809523Y-96504762D01*
X169809523Y-94504762D01*
X170476190Y-94504762D01*
X170666666Y-94600000D01*
X170761904Y-94695238D01*
X170857143Y-94885714D01*
X170857143Y-95076190D01*
X170761904Y-95266667D01*
X170666666Y-95361905D01*
X170476190Y-95457143D01*
X169809523Y-95457143D01*
X171619047Y-95171429D02*
X172095238Y-96504762D01*
X172571428Y-95171429D02*
X172095238Y-96504762D01*
X171904762Y-96980952D01*
X171809523Y-97076190D01*
X171619047Y-97171429D01*
X173047619Y-95171429D02*
X173809524Y-95171429D01*
X173333333Y-94504762D02*
X173333333Y-96219048D01*
X173428572Y-96409524D01*
X173619048Y-96504762D01*
X173809524Y-96504762D01*
X175238095Y-96409524D02*
X175047619Y-96504762D01*
X174666667Y-96504762D01*
X174476190Y-96409524D01*
X174380952Y-96219048D01*
X174380952Y-95457143D01*
X174476190Y-95266667D01*
X174666667Y-95171429D01*
X175047619Y-95171429D01*
X175238095Y-95266667D01*
X175333333Y-95457143D01*
X175333333Y-95647619D01*
X174380952Y-95838095D01*
X176095238Y-96409524D02*
X176285715Y-96504762D01*
X176666667Y-96504762D01*
X176857143Y-96409524D01*
X176952381Y-96219048D01*
X176952381Y-96123810D01*
X176857143Y-95933333D01*
X176666667Y-95838095D01*
X176380953Y-95838095D01*
X176190476Y-95742857D01*
X176095238Y-95552381D01*
X176095238Y-95457143D01*
X176190476Y-95266667D01*
X176380953Y-95171429D01*
X176666667Y-95171429D01*
X176857143Y-95266667D01*
D14*
G36*
X176067648Y-78046415D02*
X176216265Y-78112184D01*
X176274556Y-78221252D01*
X176245867Y-78380681D01*
X176236817Y-78403345D01*
X176207110Y-78487982D01*
X176192868Y-78577214D01*
X176196592Y-78686852D01*
X176220780Y-78832712D01*
X176267933Y-79030607D01*
X176340549Y-79296349D01*
X176423759Y-79586000D01*
X176507020Y-79876662D01*
X176571954Y-80084484D01*
X176630838Y-80210440D01*
X176695950Y-80255501D01*
X176779567Y-80220642D01*
X176893966Y-80106834D01*
X177051425Y-79915052D01*
X177259467Y-79652234D01*
X177508344Y-79338538D01*
X177699756Y-79093969D01*
X177840439Y-78908911D01*
X177937130Y-78773746D01*
X177996565Y-78678860D01*
X178025482Y-78614634D01*
X178030618Y-78571453D01*
X178027050Y-78556559D01*
X178029385Y-78461948D01*
X178050251Y-78404900D01*
X178134970Y-78337686D01*
X178268567Y-78316217D01*
X178409201Y-78340493D01*
X178510317Y-78404900D01*
X178606504Y-78562090D01*
X178631295Y-78714598D01*
X178589256Y-78839594D01*
X178484952Y-78914249D01*
X178406202Y-78925600D01*
X178306528Y-78951025D01*
X178182508Y-79031594D01*
X178027623Y-79173750D01*
X177835355Y-79383934D01*
X177599185Y-79668587D01*
X177403791Y-79916200D01*
X177017015Y-80432334D01*
X176675556Y-80925921D01*
X176385183Y-81387313D01*
X176151665Y-81806859D01*
X175980769Y-82174910D01*
X175884211Y-82458208D01*
X175846921Y-82620403D01*
X175837824Y-82746799D01*
X175858928Y-82881243D01*
X175912120Y-83067182D01*
X176097372Y-83565452D01*
X176357213Y-84111537D01*
X176683760Y-84693915D01*
X177069128Y-85301066D01*
X177505434Y-85921469D01*
X177984795Y-86543600D01*
X178499327Y-87155941D01*
X179041146Y-87746968D01*
X179284512Y-87995651D01*
X179565073Y-88270309D01*
X179792314Y-88475994D01*
X179979185Y-88620745D01*
X180138638Y-88712601D01*
X180283621Y-88759603D01*
X180427085Y-88769789D01*
X180518192Y-88761523D01*
X180793212Y-88685587D01*
X181096101Y-88537585D01*
X181403331Y-88333092D01*
X181691375Y-88087683D01*
X181927731Y-87828405D01*
X182196999Y-87430539D01*
X182449790Y-86949073D01*
X182681408Y-86401322D01*
X182887158Y-85804601D01*
X183062345Y-85176224D01*
X183202273Y-84533506D01*
X183302247Y-83893762D01*
X183357572Y-83274307D01*
X183363553Y-82692454D01*
X183356969Y-82557800D01*
X183331831Y-82230470D01*
X183299926Y-81990206D01*
X183256774Y-81822497D01*
X183197895Y-81712834D01*
X183118811Y-81646708D01*
X183069006Y-81624986D01*
X182926945Y-81536354D01*
X182868312Y-81413320D01*
X182891791Y-81277524D01*
X182996063Y-81150605D01*
X183101853Y-81085322D01*
X183249541Y-81030980D01*
X183362083Y-81035520D01*
X183405817Y-81052151D01*
X183469267Y-81089820D01*
X183503956Y-81147222D01*
X183517076Y-81250614D01*
X183515818Y-81426253D01*
X183515109Y-81451179D01*
X183516750Y-81636229D01*
X183528602Y-81889617D01*
X183548727Y-82178809D01*
X183575183Y-82471272D01*
X183576945Y-82488359D01*
X183605773Y-82784547D01*
X183621078Y-83014037D01*
X183622351Y-83210895D01*
X183609076Y-83409186D01*
X183580744Y-83642977D01*
X183557078Y-83809159D01*
X183504264Y-84176509D01*
X183466810Y-84456655D01*
X183444094Y-84662727D01*
X183435493Y-84807856D01*
X183440383Y-84905172D01*
X183458140Y-84967806D01*
X183488142Y-85008889D01*
X183499637Y-85019141D01*
X183572515Y-85060087D01*
X183659121Y-85048608D01*
X183746340Y-85010809D01*
X184000109Y-84859884D01*
X184268527Y-84652434D01*
X184514487Y-84419361D01*
X184657803Y-84251762D01*
X184806141Y-84036443D01*
X184938097Y-83809326D01*
X185043484Y-83592111D01*
X185112115Y-83406497D01*
X185133802Y-83274186D01*
X185129360Y-83247256D01*
X185122190Y-83102931D01*
X185187450Y-83000002D01*
X185301147Y-82947851D01*
X185439288Y-82955861D01*
X185577877Y-83033413D01*
X185606129Y-83060828D01*
X185696462Y-83205904D01*
X185694676Y-83336830D01*
X185604100Y-83436246D01*
X185528028Y-83468280D01*
X185440211Y-83508830D01*
X185355215Y-83586679D01*
X185257986Y-83719506D01*
X185133469Y-83924991D01*
X185121628Y-83945532D01*
X184799054Y-84419913D01*
X184418584Y-84815841D01*
X183968253Y-85145490D01*
X183904073Y-85184041D01*
X183714875Y-85299969D01*
X183553366Y-85407681D01*
X183444483Y-85490183D01*
X183419566Y-85514241D01*
X183365197Y-85606971D01*
X183296373Y-85763956D01*
X183227555Y-85952052D01*
X183224465Y-85961400D01*
X183159783Y-86138542D01*
X183062893Y-86379462D01*
X182945429Y-86656285D01*
X182819028Y-86941135D01*
X182779161Y-87028200D01*
X182582549Y-87460956D01*
X182430619Y-87811720D01*
X182320399Y-88088230D01*
X182248914Y-88298222D01*
X182213192Y-88449436D01*
X182207688Y-88515259D01*
X182248654Y-88668547D01*
X182364000Y-88868195D01*
X182543734Y-89103957D01*
X182777868Y-89365587D01*
X183056411Y-89642837D01*
X183369373Y-89925461D01*
X183706763Y-90203212D01*
X184058593Y-90465843D01*
X184213800Y-90572898D01*
X184483365Y-90750856D01*
X184686252Y-90876276D01*
X184837470Y-90957029D01*
X184952029Y-91000989D01*
X185044938Y-91016029D01*
X185059088Y-91016277D01*
X185281950Y-90999119D01*
X185576195Y-90952194D01*
X185918117Y-90881522D01*
X186284009Y-90793119D01*
X186650166Y-90693005D01*
X186992880Y-90587197D01*
X187288445Y-90481713D01*
X187468968Y-90404505D01*
X187640891Y-90316092D01*
X187744019Y-90239616D01*
X187804341Y-90150416D01*
X187839315Y-90053078D01*
X187922607Y-89874200D01*
X188034481Y-89781061D01*
X188165174Y-89780586D01*
X188201074Y-89796518D01*
X188326851Y-89910937D01*
X188412061Y-90078617D01*
X188450304Y-90267280D01*
X188435181Y-90444644D01*
X188360293Y-90578430D01*
X188356737Y-90581722D01*
X188286409Y-90632434D01*
X188206395Y-90646054D01*
X188080788Y-90625096D01*
X188004838Y-90606340D01*
X187880104Y-90577964D01*
X187776223Y-90569860D01*
X187664222Y-90586216D01*
X187515125Y-90631223D01*
X187303601Y-90707716D01*
X186840328Y-90872715D01*
X186448421Y-90996778D01*
X186109007Y-91085655D01*
X185956786Y-91117975D01*
X185687261Y-91194579D01*
X185510381Y-91303201D01*
X185421155Y-91447765D01*
X185407600Y-91549531D01*
X185416454Y-91626426D01*
X185449880Y-91709440D01*
X185518174Y-91812941D01*
X185631632Y-91951298D01*
X185800548Y-92138878D01*
X185928300Y-92276224D01*
X186296826Y-92663256D01*
X186608893Y-92975793D01*
X186870924Y-93219140D01*
X187089346Y-93398602D01*
X187270585Y-93519483D01*
X187421067Y-93587088D01*
X187540177Y-93606800D01*
X187716819Y-93637224D01*
X187812726Y-93699700D01*
X187887270Y-93850520D01*
X187885630Y-94028004D01*
X187815741Y-94201833D01*
X187685538Y-94341690D01*
X187636788Y-94372017D01*
X187508328Y-94390479D01*
X187383232Y-94323591D01*
X187281380Y-94186253D01*
X187239089Y-94073987D01*
X187210236Y-94004937D01*
X187151685Y-93912663D01*
X187057085Y-93789889D01*
X186920087Y-93629342D01*
X186734342Y-93423745D01*
X186493499Y-93165823D01*
X186191211Y-92848301D01*
X185954394Y-92601971D01*
X185613001Y-92248951D01*
X185329115Y-91958777D01*
X185090577Y-91720346D01*
X184885229Y-91522553D01*
X184700910Y-91354290D01*
X184525462Y-91204454D01*
X184346724Y-91061939D01*
X184152538Y-90915639D01*
X183934400Y-90757078D01*
X183525624Y-90458106D01*
X183160088Y-90180867D01*
X182845894Y-89931980D01*
X182591144Y-89718062D01*
X182403939Y-89545733D01*
X182292381Y-89421611D01*
X182283002Y-89408063D01*
X182193936Y-89305501D01*
X182060251Y-89185877D01*
X181994546Y-89135391D01*
X181757850Y-89010435D01*
X181522903Y-88984411D01*
X181280127Y-89057363D01*
X181140400Y-89139280D01*
X180244353Y-89699714D01*
X179280523Y-90216901D01*
X178273724Y-90679839D01*
X177248769Y-91077524D01*
X176230471Y-91398955D01*
X175780499Y-91515915D01*
X175281995Y-91629970D01*
X174834822Y-91716412D01*
X174406901Y-91779365D01*
X173966152Y-91822950D01*
X173480493Y-91851291D01*
X173063200Y-91865131D01*
X172516886Y-91871972D01*
X172043135Y-91860428D01*
X171614059Y-91827384D01*
X171201774Y-91769725D01*
X170778396Y-91684335D01*
X170316039Y-91568100D01*
X170254431Y-91551333D01*
X169955147Y-91465250D01*
X169658121Y-91370583D01*
X169351451Y-91262436D01*
X169023234Y-91135916D01*
X168661567Y-90986129D01*
X168254545Y-90808179D01*
X167790266Y-90597173D01*
X167256827Y-90348217D01*
X166789400Y-90126598D01*
X166204030Y-89849079D01*
X165699162Y-89613683D01*
X165264554Y-89416830D01*
X164889966Y-89254941D01*
X164565159Y-89124437D01*
X164279893Y-89021738D01*
X164023928Y-88943264D01*
X163787023Y-88885436D01*
X163558938Y-88844674D01*
X163329435Y-88817399D01*
X163088272Y-88800032D01*
X162979400Y-88794760D01*
X162713996Y-88788748D01*
X162456794Y-88796057D01*
X162197545Y-88819419D01*
X161925999Y-88861566D01*
X161631908Y-88925229D01*
X161305022Y-89013139D01*
X160935093Y-89128029D01*
X160511871Y-89272628D01*
X160025108Y-89449669D01*
X159464554Y-89661884D01*
X158890000Y-89884619D01*
X158484013Y-90041875D01*
X158074024Y-90198211D01*
X157678896Y-90346615D01*
X157317494Y-90480069D01*
X157008681Y-90591561D01*
X156771320Y-90674074D01*
X156731000Y-90687498D01*
X156474362Y-90770174D01*
X156244400Y-90839160D01*
X156018886Y-90899829D01*
X155775589Y-90957550D01*
X155492281Y-91017695D01*
X155146731Y-91085635D01*
X154853016Y-91141250D01*
X154584560Y-91203719D01*
X154320367Y-91292856D01*
X154046872Y-91416053D01*
X153750512Y-91580704D01*
X153417721Y-91794200D01*
X153034936Y-92063934D01*
X152691355Y-92319314D01*
X152407670Y-92532968D01*
X152136596Y-92735694D01*
X151893516Y-92916096D01*
X151693814Y-93062781D01*
X151552874Y-93164351D01*
X151513618Y-93191692D01*
X151314803Y-93352953D01*
X151121983Y-93554723D01*
X150948281Y-93777480D01*
X150806815Y-94001701D01*
X150710706Y-94207864D01*
X150673074Y-94376448D01*
X150678555Y-94434220D01*
X150724670Y-94521426D01*
X150825635Y-94661722D01*
X150965978Y-94834873D01*
X151110604Y-94999271D01*
X151290335Y-95207111D01*
X151460250Y-95423050D01*
X151597874Y-95617513D01*
X151664861Y-95728590D01*
X151754500Y-95913233D01*
X151829002Y-96094316D01*
X151881056Y-96249945D01*
X151903349Y-96358227D01*
X151888567Y-96397268D01*
X151888205Y-96397235D01*
X151844229Y-96359014D01*
X151749994Y-96257720D01*
X151619530Y-96108953D01*
X151473200Y-95935916D01*
X151264971Y-95694030D01*
X151058571Y-95469074D01*
X150865459Y-95272050D01*
X150697098Y-95113958D01*
X150564948Y-95005800D01*
X150480470Y-94958578D01*
X150458779Y-94962207D01*
X150432031Y-95024049D01*
X150383901Y-95164322D01*
X150320669Y-95363697D01*
X150248617Y-95602844D01*
X150230655Y-95664200D01*
X150140457Y-95963742D01*
X150040226Y-96280039D01*
X149942676Y-96573800D01*
X149866323Y-96790124D01*
X149739202Y-97161868D01*
X149656115Y-97481087D01*
X149610019Y-97783084D01*
X149593874Y-98103163D01*
X149593600Y-98157483D01*
X149593600Y-98528699D01*
X150055096Y-99221123D01*
X150322887Y-99633688D01*
X150531465Y-99981508D01*
X150686975Y-100277626D01*
X150795561Y-100535085D01*
X150863366Y-100766930D01*
X150896534Y-100986203D01*
X150898421Y-101011431D01*
X150921457Y-101353800D01*
X150595494Y-100744200D01*
X150363204Y-100315760D01*
X150170227Y-99973601D01*
X150012838Y-99711966D01*
X149887313Y-99525102D01*
X149789929Y-99407252D01*
X149716960Y-99352662D01*
X149691500Y-99347200D01*
X149669410Y-99393683D01*
X149645112Y-99516355D01*
X149623423Y-99690048D01*
X149621006Y-99715500D01*
X149568497Y-100171653D01*
X149496452Y-100627471D01*
X149410798Y-101050362D01*
X149317462Y-101407733D01*
X149307287Y-101440671D01*
X149230136Y-101664679D01*
X149166317Y-101809425D01*
X149119711Y-101870897D01*
X149094197Y-101845082D01*
X149093654Y-101727967D01*
X149101433Y-101653571D01*
X149132509Y-101352136D01*
X149161236Y-100978193D01*
X149186431Y-100558660D01*
X149206912Y-100120459D01*
X149221498Y-99690509D01*
X149229007Y-99295731D01*
X149228257Y-98963045D01*
X149224915Y-98840919D01*
X149205343Y-98470544D01*
X149175800Y-98193366D01*
X149131502Y-98001111D01*
X149067664Y-97885511D01*
X148979502Y-97838291D01*
X148862233Y-97851182D01*
X148711073Y-97915912D01*
X148694828Y-97924430D01*
X148505440Y-98052140D01*
X148269183Y-98255960D01*
X147994314Y-98526657D01*
X147689090Y-98854996D01*
X147361769Y-99231745D01*
X147020609Y-99647669D01*
X146673867Y-100093535D01*
X146329801Y-100560110D01*
X146298086Y-100604431D01*
X146153376Y-100804587D01*
X146027662Y-100973618D01*
X145933712Y-101094691D01*
X145884297Y-101150974D01*
X145882495Y-101152271D01*
X145863488Y-101136814D01*
X145887454Y-101046936D01*
X145947481Y-100896727D01*
X146036659Y-100700277D01*
X146148076Y-100471674D01*
X146274819Y-100225010D01*
X146409980Y-99974374D01*
X146546644Y-99733855D01*
X146677903Y-99517543D01*
X146705628Y-99474200D01*
X146991824Y-99057386D01*
X147293258Y-98673418D01*
X147626394Y-98304737D01*
X148007698Y-97933782D01*
X148453634Y-97542993D01*
X148730249Y-97314997D01*
X148963544Y-97120974D01*
X149130035Y-96968086D01*
X149246001Y-96838992D01*
X149327722Y-96716348D01*
X149368983Y-96634515D01*
X149449061Y-96433399D01*
X149542162Y-96158391D01*
X149640947Y-95835139D01*
X149738076Y-95489289D01*
X149826210Y-95146488D01*
X149898012Y-94832383D01*
X149927754Y-94681845D01*
X149970831Y-94345144D01*
X149958808Y-94068007D01*
X149883380Y-93837148D01*
X149736240Y-93639278D01*
X149509083Y-93461110D01*
X149193606Y-93289358D01*
X149003518Y-93203193D01*
X148768377Y-93098431D01*
X148542973Y-92992932D01*
X148359452Y-92901974D01*
X148281478Y-92859973D01*
X148080296Y-92771768D01*
X147937402Y-92765365D01*
X147852803Y-92812144D01*
X147718128Y-92913734D01*
X147553755Y-93051742D01*
X147380064Y-93207776D01*
X147217433Y-93363444D01*
X147086242Y-93500354D01*
X147006870Y-93600113D01*
X147000682Y-93610756D01*
X146981773Y-93707753D01*
X146981418Y-93872352D01*
X146995268Y-94035131D01*
X147009409Y-94503404D01*
X146932527Y-94935923D01*
X146828279Y-95214108D01*
X146747642Y-95368594D01*
X146644981Y-95535826D01*
X146535031Y-95695534D01*
X146432525Y-95827447D01*
X146352197Y-95911296D01*
X146309587Y-95927721D01*
X146313337Y-95872803D01*
X146341335Y-95743622D01*
X146388294Y-95563123D01*
X146416720Y-95462569D01*
X146526290Y-95045441D01*
X146593241Y-94699839D01*
X146617399Y-94430109D01*
X146598592Y-94240596D01*
X146536650Y-94135646D01*
X146470100Y-94114800D01*
X146403228Y-94148240D01*
X146282934Y-94238727D01*
X146127681Y-94371507D01*
X145993298Y-94495800D01*
X145827868Y-94650632D01*
X145688376Y-94775187D01*
X145591478Y-94854963D01*
X145555705Y-94876800D01*
X145529185Y-94836989D01*
X145546085Y-94733470D01*
X145598321Y-94590116D01*
X145677811Y-94430799D01*
X145741414Y-94328301D01*
X145833348Y-94210731D01*
X145981918Y-94040796D01*
X146170557Y-93836590D01*
X146382700Y-93616205D01*
X146518340Y-93479800D01*
X146825868Y-93171731D01*
X147065281Y-92922410D01*
X147242700Y-92721222D01*
X147364247Y-92557551D01*
X147436045Y-92420781D01*
X147464215Y-92300297D01*
X147454880Y-92185482D01*
X147414161Y-92065722D01*
X147378135Y-91988925D01*
X147232750Y-91767442D01*
X147028757Y-91592002D01*
X146996038Y-91570460D01*
X146799089Y-91465476D01*
X146594748Y-91403128D01*
X146376948Y-91386396D01*
X146139620Y-91418263D01*
X145876698Y-91501710D01*
X145582114Y-91639717D01*
X145249800Y-91835267D01*
X144873688Y-92091341D01*
X144447712Y-92410921D01*
X143965803Y-92796987D01*
X143421894Y-93252522D01*
X143218317Y-93426721D01*
X142660813Y-93903792D01*
X142168659Y-94319669D01*
X141732180Y-94681670D01*
X141341699Y-94997112D01*
X140987542Y-95273313D01*
X140660034Y-95517589D01*
X140349498Y-95737259D01*
X140046260Y-95939640D01*
X139740643Y-96132049D01*
X139422974Y-96321804D01*
X139283892Y-96402320D01*
X139039539Y-96545697D01*
X138855675Y-96667674D01*
X138717412Y-96787663D01*
X138609861Y-96925078D01*
X138518135Y-97099330D01*
X138427345Y-97329832D01*
X138322603Y-97635995D01*
X138311028Y-97670800D01*
X138115854Y-98209535D01*
X137915809Y-98667870D01*
X137713708Y-99040658D01*
X137512366Y-99322754D01*
X137314600Y-99509013D01*
X137299413Y-99519357D01*
X137176177Y-99597524D01*
X137091178Y-99645177D01*
X137072504Y-99652000D01*
X137084065Y-99609572D01*
X137134346Y-99493391D01*
X137215712Y-99320111D01*
X137320524Y-99106388D01*
X137346220Y-99055100D01*
X137559424Y-98609963D01*
X137716179Y-98232360D01*
X137821476Y-97908906D01*
X137880303Y-97626214D01*
X137881160Y-97620000D01*
X137885195Y-97402893D01*
X137835522Y-97245239D01*
X137738627Y-97160354D01*
X137652470Y-97150607D01*
X137521519Y-97188302D01*
X137316769Y-97278593D01*
X137048016Y-97416325D01*
X136725052Y-97596347D01*
X136357673Y-97813505D01*
X136146749Y-97942856D01*
X135899060Y-98094437D01*
X135657545Y-98238489D01*
X135447206Y-98360341D01*
X135293044Y-98445321D01*
X135272399Y-98455970D01*
X135118566Y-98521766D01*
X134945141Y-98578014D01*
X134777966Y-98618875D01*
X134642883Y-98638511D01*
X134565733Y-98631081D01*
X134556800Y-98617652D01*
X134597383Y-98581558D01*
X134710855Y-98498856D01*
X134884794Y-98378123D01*
X135106781Y-98227934D01*
X135364395Y-98056864D01*
X135458500Y-97995070D01*
X135849812Y-97737106D01*
X136161009Y-97527811D01*
X136398463Y-97362534D01*
X136568545Y-97236627D01*
X136677626Y-97145441D01*
X136732077Y-97084326D01*
X136741200Y-97059082D01*
X136691739Y-97011172D01*
X136547498Y-96953506D01*
X136314692Y-96887418D01*
X135999533Y-96814241D01*
X135608236Y-96735309D01*
X135147013Y-96651955D01*
X134622079Y-96565512D01*
X134039646Y-96477314D01*
X134009964Y-96473003D01*
X133633835Y-96415573D01*
X133357990Y-96366457D01*
X133181517Y-96324916D01*
X133103504Y-96290216D01*
X133123039Y-96261619D01*
X133239209Y-96238390D01*
X133451102Y-96219790D01*
X133681815Y-96208041D01*
X133935309Y-96202067D01*
X134184772Y-96206923D01*
X134446720Y-96224516D01*
X134737671Y-96256753D01*
X135074142Y-96305542D01*
X135472652Y-96372788D01*
X135949718Y-96460399D01*
X136077321Y-96484589D01*
X136403009Y-96543277D01*
X136722432Y-96594848D01*
X137011167Y-96635793D01*
X137244792Y-96662598D01*
X137377823Y-96671559D01*
X137533963Y-96672788D01*
X137660714Y-96663084D01*
X137782846Y-96635113D01*
X137925128Y-96581537D01*
X138112331Y-96495019D01*
X138321101Y-96392175D01*
X138683588Y-96202670D01*
X139072440Y-95983064D01*
X139476460Y-95741097D01*
X139884452Y-95484510D01*
X140285216Y-95221041D01*
X140667557Y-94958430D01*
X141020277Y-94704417D01*
X141332177Y-94466742D01*
X141592062Y-94253144D01*
X141788734Y-94071363D01*
X141910994Y-93929138D01*
X141930379Y-93897437D01*
X141957095Y-93813372D01*
X141919762Y-93738742D01*
X141853343Y-93675914D01*
X141743451Y-93609471D01*
X141563064Y-93528848D01*
X141340431Y-93443781D01*
X141103802Y-93364007D01*
X140881427Y-93299264D01*
X140701556Y-93259289D01*
X140621147Y-93251200D01*
X140520466Y-93276695D01*
X140361469Y-93344985D01*
X140171210Y-93443778D01*
X140075654Y-93499066D01*
X139871721Y-93619615D01*
X139679932Y-93730028D01*
X139531178Y-93812628D01*
X139489299Y-93834604D01*
X139374272Y-93874389D01*
X139208851Y-93909578D01*
X139018595Y-93937617D01*
X138829065Y-93955950D01*
X138665817Y-93962021D01*
X138554412Y-93953277D01*
X138519552Y-93931558D01*
X138562314Y-93893662D01*
X138680251Y-93818210D01*
X138858212Y-93714166D01*
X139081047Y-93590492D01*
X139240178Y-93505200D01*
X139485195Y-93373066D01*
X139696448Y-93254338D01*
X139858361Y-93158152D01*
X139955360Y-93093649D01*
X139976125Y-93073400D01*
X139941134Y-93029389D01*
X139834272Y-92947284D01*
X139672176Y-92838879D01*
X139474587Y-92717800D01*
X139023184Y-92425833D01*
X138661700Y-92132612D01*
X138378850Y-91827961D01*
X138202843Y-91571277D01*
X138113997Y-91413354D01*
X138054147Y-91292143D01*
X138034649Y-91230935D01*
X138035764Y-91228502D01*
X138081442Y-91248500D01*
X138180267Y-91322198D01*
X138311215Y-91433860D01*
X138316611Y-91438702D01*
X138922172Y-91920148D01*
X139588593Y-92328830D01*
X140321624Y-92667705D01*
X141127011Y-92939732D01*
X141352151Y-93000694D01*
X141741679Y-93089233D01*
X142075366Y-93137062D01*
X142350043Y-93149600D01*
X142563802Y-93143450D01*
X142743210Y-93118724D01*
X142907483Y-93066005D01*
X143075842Y-92975877D01*
X143267505Y-92838924D01*
X143501690Y-92645730D01*
X143661093Y-92507252D01*
X143909156Y-92291772D01*
X144192824Y-92048757D01*
X144469265Y-91814771D01*
X144614294Y-91693548D01*
X144822754Y-91512069D01*
X144991409Y-91348756D01*
X145105199Y-91218960D01*
X145145919Y-91151614D01*
X145154201Y-90979662D01*
X145073767Y-90782034D01*
X145064078Y-90769180D01*
X147417814Y-90769180D01*
X147523796Y-91024202D01*
X147588712Y-91170310D01*
X147641397Y-91241895D01*
X147705853Y-91259356D01*
X147786189Y-91247213D01*
X148025196Y-91200453D01*
X148191839Y-91180641D01*
X148313216Y-91193974D01*
X148416422Y-91246648D01*
X148528552Y-91344861D01*
X148621126Y-91438167D01*
X148893252Y-91715983D01*
X148815776Y-92055637D01*
X148738301Y-92395291D01*
X148950050Y-92489457D01*
X149089932Y-92547280D01*
X149194169Y-92582589D01*
X149217706Y-92587211D01*
X149272492Y-92549241D01*
X149357030Y-92447192D01*
X149431508Y-92336800D01*
X149589403Y-92082800D01*
X150036001Y-92083808D01*
X150482600Y-92084816D01*
X150632799Y-92337808D01*
X150719470Y-92474147D01*
X150788824Y-92565997D01*
X150819087Y-92590800D01*
X150883059Y-92572270D01*
X151006447Y-92524973D01*
X151091506Y-92489497D01*
X151236595Y-92417112D01*
X151299419Y-92354361D01*
X151300805Y-92298997D01*
X151273432Y-92195775D01*
X151236824Y-92042587D01*
X151222932Y-91981200D01*
X151172088Y-91752600D01*
X151470122Y-91453229D01*
X151768156Y-91153859D01*
X151998773Y-91211929D01*
X152203055Y-91257412D01*
X152335169Y-91264088D01*
X152419429Y-91224993D01*
X152480145Y-91133164D01*
X152509084Y-91065771D01*
X152559632Y-90928602D01*
X152588330Y-90829716D01*
X152590800Y-90811302D01*
X152550793Y-90759704D01*
X152447178Y-90677712D01*
X152336800Y-90604773D01*
X152216133Y-90527247D01*
X152138137Y-90457168D01*
X152096213Y-90372104D01*
X152083766Y-90249619D01*
X152094196Y-90067282D01*
X152115670Y-89852815D01*
X152137624Y-89677793D01*
X152170342Y-89570310D01*
X152233103Y-89496661D01*
X152345184Y-89423142D01*
X152369670Y-89408736D01*
X152496873Y-89322248D01*
X152576816Y-89244922D01*
X152590800Y-89213976D01*
X152573258Y-89137894D01*
X152530867Y-89011213D01*
X152478980Y-88875185D01*
X152432946Y-88771064D01*
X152415004Y-88741576D01*
X152363111Y-88745149D01*
X152239641Y-88767918D01*
X152077443Y-88803563D01*
X151752600Y-88879373D01*
X151468021Y-88597820D01*
X151183443Y-88316266D01*
X151251327Y-88027833D01*
X151288381Y-87861775D01*
X151313369Y-87733337D01*
X151320006Y-87682801D01*
X151277746Y-87637247D01*
X151172910Y-87576764D01*
X151039800Y-87517044D01*
X150912717Y-87473779D01*
X150836501Y-87461605D01*
X150784460Y-87502531D01*
X150704442Y-87605642D01*
X150649654Y-87690205D01*
X150556664Y-87827682D01*
X150475565Y-87895660D01*
X150375794Y-87916944D01*
X150344854Y-87917641D01*
X150192433Y-87924205D01*
X150000212Y-87940287D01*
X149915936Y-87949544D01*
X149654073Y-87981006D01*
X149467240Y-87699616D01*
X149280408Y-87418226D01*
X149056063Y-87494668D01*
X148916436Y-87549405D01*
X148822053Y-87599677D01*
X148803596Y-87616613D01*
X148797959Y-87687153D01*
X148811604Y-87824778D01*
X148836269Y-87971135D01*
X148897065Y-88280154D01*
X148623032Y-88559783D01*
X148496744Y-88687568D01*
X148400771Y-88768399D01*
X148308545Y-88808600D01*
X148193497Y-88814497D01*
X148029058Y-88792415D01*
X147811789Y-88752913D01*
X147699629Y-88738118D01*
X147633798Y-88761506D01*
X147583901Y-88844673D01*
X147545089Y-88942394D01*
X147494636Y-89080600D01*
X147464131Y-89175929D01*
X147460000Y-89196302D01*
X147499295Y-89238086D01*
X147601233Y-89314783D01*
X147714000Y-89390400D01*
X147968000Y-89553391D01*
X147968000Y-90435733D01*
X147692907Y-90602456D01*
X147417814Y-90769180D01*
X145064078Y-90769180D01*
X144911664Y-90566996D01*
X144674941Y-90342814D01*
X144370643Y-90117752D01*
X144145300Y-89978006D01*
X144012432Y-89896502D01*
X143924790Y-89834339D01*
X143904000Y-89811604D01*
X143948409Y-89798305D01*
X144064540Y-89809003D01*
X144226746Y-89838679D01*
X144409380Y-89882313D01*
X144586796Y-89934884D01*
X144653060Y-89958224D01*
X144864346Y-90064353D01*
X145093300Y-90223117D01*
X145213856Y-90325175D01*
X145418886Y-90508754D01*
X145573589Y-90632478D01*
X145699843Y-90707967D01*
X145819529Y-90746842D01*
X145954527Y-90760722D01*
X146036203Y-90761921D01*
X146305981Y-90732818D01*
X146529775Y-90651726D01*
X146686847Y-90527732D01*
X146731732Y-90457200D01*
X146761889Y-90348305D01*
X146792849Y-90162607D01*
X146822460Y-89924858D01*
X146848566Y-89659810D01*
X146869015Y-89392218D01*
X146881654Y-89146835D01*
X146884327Y-88948412D01*
X146874883Y-88821704D01*
X146874283Y-88818761D01*
X146828826Y-88657635D01*
X146757693Y-88505971D01*
X146651272Y-88353800D01*
X146499954Y-88191154D01*
X146294129Y-88008067D01*
X146024185Y-87794572D01*
X145680513Y-87540699D01*
X145555000Y-87450452D01*
X144587673Y-86799363D01*
X143574318Y-86199891D01*
X142710200Y-85745336D01*
X142293542Y-85543021D01*
X141879316Y-85353081D01*
X141479476Y-85180112D01*
X141105975Y-85028709D01*
X140770769Y-84903469D01*
X140485812Y-84808987D01*
X140263057Y-84749859D01*
X140114460Y-84730682D01*
X140081037Y-84734539D01*
X140007227Y-84780604D01*
X139880036Y-84888550D01*
X139714121Y-85044801D01*
X139524136Y-85235781D01*
X139407131Y-85358780D01*
X139068528Y-85705999D01*
X138783286Y-85966815D01*
X138551418Y-86141220D01*
X138372933Y-86229204D01*
X138301472Y-86240800D01*
X138278152Y-86219340D01*
X138313286Y-86150309D01*
X138411847Y-86026728D01*
X138578807Y-85841621D01*
X138609019Y-85809227D01*
X138869097Y-85509053D01*
X139079272Y-85221025D01*
X139231152Y-84958916D01*
X139316345Y-84736495D01*
X139332000Y-84622768D01*
X139285677Y-84447807D01*
X139146846Y-84314580D01*
X138915714Y-84223270D01*
X138865725Y-84211599D01*
X138643560Y-84173807D01*
X138416326Y-84157914D01*
X138170267Y-84165887D01*
X137891622Y-84199693D01*
X137566633Y-84261298D01*
X137181541Y-84352668D01*
X136722588Y-84475771D01*
X136423260Y-84560720D01*
X135772225Y-84744167D01*
X135201652Y-84895271D01*
X134696613Y-85016658D01*
X134242177Y-85110956D01*
X133823416Y-85180792D01*
X133425401Y-85228795D01*
X133033203Y-85257592D01*
X132631892Y-85269809D01*
X132391280Y-85270349D01*
X132092470Y-85266538D01*
X131887088Y-85259080D01*
X131776259Y-85247192D01*
X131761109Y-85230095D01*
X131842763Y-85207005D01*
X132022348Y-85177143D01*
X132300988Y-85139727D01*
X132638375Y-85098831D01*
X132907615Y-85064659D01*
X133152640Y-85028942D01*
X133349528Y-84995486D01*
X133474361Y-84968097D01*
X133489275Y-84963440D01*
X133611829Y-84895581D01*
X133638367Y-84813795D01*
X133573078Y-84720933D01*
X133420151Y-84619847D01*
X133183775Y-84513388D01*
X132868140Y-84404409D01*
X132526976Y-84308385D01*
X132395209Y-84270083D01*
X132349793Y-84240203D01*
X132377390Y-84207553D01*
X132394660Y-84197351D01*
X132539649Y-84163147D01*
X132764142Y-84172874D01*
X133056978Y-84224608D01*
X133406998Y-84316424D01*
X133769506Y-84434492D01*
X134019206Y-84519841D01*
X134242059Y-84591006D01*
X134416840Y-84641562D01*
X134522325Y-84665087D01*
X134534559Y-84666000D01*
X134613244Y-84652066D01*
X134773778Y-84613023D01*
X135000712Y-84553012D01*
X135278594Y-84476172D01*
X135591975Y-84386641D01*
X135755687Y-84338840D01*
X136098069Y-84239883D01*
X136428665Y-84147498D01*
X136727923Y-84066909D01*
X136976290Y-84003339D01*
X137154216Y-83962013D01*
X137198400Y-83953384D01*
X137439961Y-83901250D01*
X137582305Y-83844122D01*
X137625924Y-83776607D01*
X137571311Y-83693317D01*
X137418957Y-83588859D01*
X137240399Y-83493157D01*
X136968713Y-83380100D01*
X136599113Y-83265040D01*
X136135251Y-83148681D01*
X135580775Y-83031731D01*
X134939336Y-82914896D01*
X134214586Y-82798881D01*
X133410173Y-82684393D01*
X132529749Y-82572139D01*
X132397800Y-82556304D01*
X132063725Y-82514661D01*
X131828362Y-82479868D01*
X131689217Y-82449827D01*
X131643794Y-82422442D01*
X131689600Y-82395613D01*
X131824142Y-82367242D01*
X132044924Y-82335233D01*
X132123049Y-82325182D01*
X132510260Y-82297793D01*
X132972086Y-82301606D01*
X133486762Y-82335673D01*
X134032524Y-82399045D01*
X134125000Y-82412393D01*
X134387226Y-82451349D01*
X134654770Y-82491151D01*
X134883927Y-82525294D01*
X134958408Y-82536411D01*
X135193954Y-82565323D01*
X135346320Y-82562374D01*
X135431083Y-82519573D01*
X135463820Y-82428930D01*
X135460107Y-82282455D01*
X135459797Y-82279206D01*
X135419631Y-82105129D01*
X135328405Y-81857699D01*
X135191491Y-81548055D01*
X135014258Y-81187332D01*
X134802078Y-80786666D01*
X134560323Y-80357193D01*
X134407500Y-80097332D01*
X134269682Y-79862819D01*
X134154823Y-79660034D01*
X134071260Y-79504296D01*
X134027327Y-79410926D01*
X134023381Y-79391285D01*
X134083060Y-79397295D01*
X134190165Y-79463307D01*
X134325293Y-79572791D01*
X134469042Y-79709220D01*
X134602013Y-79856066D01*
X134666030Y-79938768D01*
X134759423Y-80077721D01*
X134889874Y-80283680D01*
X135044250Y-80535314D01*
X135209418Y-80811291D01*
X135330129Y-81017372D01*
X135604126Y-81479097D01*
X135844543Y-81857856D01*
X136059939Y-82163132D01*
X136258873Y-82404408D01*
X136449904Y-82591169D01*
X136641591Y-82732896D01*
X136842493Y-82839074D01*
X137040903Y-82912910D01*
X137172664Y-82959573D01*
X137379208Y-83039133D01*
X137642061Y-83144175D01*
X137942746Y-83267285D01*
X138262790Y-83401044D01*
X138366800Y-83445109D01*
X139002243Y-83710500D01*
X139594722Y-83948469D01*
X140137343Y-84156613D01*
X140623216Y-84332526D01*
X141045448Y-84473805D01*
X141397148Y-84578045D01*
X141671425Y-84642843D01*
X141861385Y-84665793D01*
X141865850Y-84665810D01*
X142105557Y-84618257D01*
X142308414Y-84478914D01*
X142470928Y-84251959D01*
X142589605Y-83941570D01*
X142632889Y-83748280D01*
X142658256Y-83573580D01*
X142686449Y-83325401D01*
X142715082Y-83031730D01*
X142741772Y-82720553D01*
X142764134Y-82419859D01*
X142779783Y-82157633D01*
X142786336Y-81961864D01*
X142786400Y-81946411D01*
X142780775Y-81857097D01*
X142758812Y-81767287D01*
X142712880Y-81665161D01*
X142635347Y-81538900D01*
X142518582Y-81376684D01*
X142354952Y-81166692D01*
X142136827Y-80897106D01*
X142005437Y-80736873D01*
X141719390Y-80357673D01*
X141501897Y-80001837D01*
X141360050Y-79681713D01*
X141321213Y-79545692D01*
X141298445Y-79396633D01*
X141316064Y-79339433D01*
X141371827Y-79375467D01*
X141441981Y-79471700D01*
X141622284Y-79738092D01*
X141822177Y-80009026D01*
X142031325Y-80272991D01*
X142239394Y-80518475D01*
X142436049Y-80733969D01*
X142610955Y-80907960D01*
X142753777Y-81028938D01*
X142854181Y-81085391D01*
X142889323Y-81083782D01*
X142919626Y-81028082D01*
X142969881Y-80897970D01*
X143031503Y-80716545D01*
X143063351Y-80615569D01*
X143155474Y-80345702D01*
X143271097Y-80047709D01*
X143386892Y-79781337D01*
X143399196Y-79755368D01*
X143504676Y-79556518D01*
X143623294Y-79366158D01*
X143742855Y-79199760D01*
X143851162Y-79072795D01*
X143936019Y-79000734D01*
X143985231Y-78999049D01*
X143989189Y-79006913D01*
X143980448Y-79074002D01*
X143942028Y-79215506D01*
X143880090Y-79410768D01*
X143800794Y-79639136D01*
X143799791Y-79641913D01*
X143597141Y-80219231D01*
X143435936Y-80717854D01*
X143313312Y-81150518D01*
X143226403Y-81529955D01*
X143172345Y-81868901D01*
X143148272Y-82180089D01*
X143151320Y-82476254D01*
X143153561Y-82514343D01*
X143177701Y-82747200D01*
X143218814Y-82901627D01*
X143282228Y-82976207D01*
X143373273Y-82969525D01*
X143497277Y-82880165D01*
X143659569Y-82706710D01*
X143865479Y-82447745D01*
X143979800Y-82294785D01*
X144151107Y-82067370D01*
X144315539Y-81857884D01*
X144457301Y-81685858D01*
X144560598Y-81570820D01*
X144582400Y-81549730D01*
X144708086Y-81445489D01*
X144855619Y-81336269D01*
X144997962Y-81240513D01*
X145108073Y-81176664D01*
X145152608Y-81160800D01*
X145160335Y-81182670D01*
X145128034Y-81251869D01*
X145052006Y-81373774D01*
X144928551Y-81553766D01*
X144753970Y-81797223D01*
X144524564Y-82109525D01*
X144236634Y-82496052D01*
X144208908Y-82533082D01*
X143795171Y-83092134D01*
X143447100Y-83577106D01*
X143163295Y-83990240D01*
X142942360Y-84333781D01*
X142782898Y-84609971D01*
X142683512Y-84821054D01*
X142642804Y-84969274D01*
X142648872Y-85037883D01*
X142705396Y-85095017D01*
X142829512Y-85179411D01*
X142996935Y-85274951D01*
X143039477Y-85297044D01*
X143208573Y-85385722D01*
X143384794Y-85483895D01*
X143578792Y-85598281D01*
X143801220Y-85735597D01*
X144062730Y-85902560D01*
X144373975Y-86105890D01*
X144745607Y-86352302D01*
X145188280Y-86648515D01*
X145276228Y-86707574D01*
X145726450Y-87006628D01*
X146104391Y-87249603D01*
X146418992Y-87441456D01*
X146679193Y-87587144D01*
X146893937Y-87691625D01*
X147072164Y-87759855D01*
X147222816Y-87796793D01*
X147247441Y-87800467D01*
X147371257Y-87804385D01*
X147502370Y-87777768D01*
X147655531Y-87713388D01*
X147845489Y-87604020D01*
X148086993Y-87442438D01*
X148324140Y-87272962D01*
X148546579Y-87111373D01*
X148782855Y-86939941D01*
X148991680Y-86788618D01*
X149046701Y-86748800D01*
X149267647Y-86569753D01*
X149395190Y-86417041D01*
X149432171Y-86284437D01*
X149381430Y-86165718D01*
X149334349Y-86118246D01*
X149240630Y-86063214D01*
X149070609Y-85987342D01*
X148845260Y-85899111D01*
X148585559Y-85807002D01*
X148470758Y-85769030D01*
X148019290Y-85611434D01*
X147666813Y-85462475D01*
X147411187Y-85321058D01*
X147250269Y-85186088D01*
X147205496Y-85122258D01*
X147166869Y-85033747D01*
X147163784Y-84998141D01*
X147214786Y-85009715D01*
X147339857Y-85052473D01*
X147518974Y-85119265D01*
X147688600Y-85185546D01*
X148043585Y-85317779D01*
X148387267Y-85429144D01*
X148698602Y-85513816D01*
X148956549Y-85565974D01*
X149115497Y-85580400D01*
X149246728Y-85569710D01*
X149335487Y-85527385D01*
X149388483Y-85438036D01*
X149412427Y-85286278D01*
X149414029Y-85056725D01*
X149408568Y-84908405D01*
X149392383Y-84579960D01*
X149370315Y-84335209D01*
X149331995Y-84156343D01*
X149267053Y-84025554D01*
X149165119Y-83925035D01*
X149015823Y-83836977D01*
X148808796Y-83743573D01*
X148704600Y-83699505D01*
X148311676Y-83518937D01*
X147986928Y-83338537D01*
X147740545Y-83164692D01*
X147582718Y-83003788D01*
X147573467Y-82990549D01*
X147503548Y-82864609D01*
X147507352Y-82806508D01*
X147582438Y-82816844D01*
X147726362Y-82896217D01*
X147788742Y-82937797D01*
X147952347Y-83039849D01*
X148164522Y-83158194D01*
X148380872Y-83268132D01*
X148392272Y-83273569D01*
X148705360Y-83409359D01*
X148945798Y-83480837D01*
X149121426Y-83485692D01*
X149240084Y-83421615D01*
X149309610Y-83286295D01*
X149337843Y-83077422D01*
X149339437Y-82994426D01*
X149316874Y-82568792D01*
X149246110Y-82139192D01*
X149121911Y-81683773D01*
X148939041Y-81180684D01*
X148857543Y-80983000D01*
X148697217Y-80597626D01*
X148574861Y-80285098D01*
X148484744Y-80026538D01*
X148421139Y-79803071D01*
X148378316Y-79595819D01*
X148350547Y-79385904D01*
X148341086Y-79281200D01*
X148329939Y-79085792D01*
X148336069Y-78979861D01*
X148361239Y-78965117D01*
X148407213Y-79043268D01*
X148475753Y-79216026D01*
X148568623Y-79485098D01*
X148576813Y-79509800D01*
X148728827Y-79940900D01*
X148887823Y-80340443D01*
X149048375Y-80698190D01*
X149205053Y-81003902D01*
X149352429Y-81247341D01*
X149485077Y-81418268D01*
X149597567Y-81506444D01*
X149640624Y-81516400D01*
X149707886Y-81495299D01*
X149793043Y-81426015D01*
X149903612Y-81299572D01*
X150047109Y-81106995D01*
X150231051Y-80839310D01*
X150321334Y-80703600D01*
X150454487Y-80496723D01*
X150543095Y-80336435D01*
X150601174Y-80186300D01*
X150642740Y-80009883D01*
X150681810Y-79770746D01*
X150682853Y-79763800D01*
X150740602Y-79423679D01*
X150803363Y-79132140D01*
X150867383Y-78902974D01*
X150928914Y-78749972D01*
X150974537Y-78691228D01*
X151005706Y-78700181D01*
X151011873Y-78788565D01*
X150998719Y-78930346D01*
X150964215Y-79243549D01*
X150939773Y-79525219D01*
X150926126Y-79760117D01*
X150924013Y-79933006D01*
X150934167Y-80028646D01*
X150945005Y-80042807D01*
X150998183Y-80010601D01*
X151110628Y-79922919D01*
X151266485Y-79792687D01*
X151449899Y-79632833D01*
X151473012Y-79612270D01*
X151681265Y-79434235D01*
X151889057Y-79269925D01*
X152082203Y-79128991D01*
X152246522Y-79021087D01*
X152367828Y-78955866D01*
X152431939Y-78942981D01*
X152438400Y-78955250D01*
X152404384Y-79000393D01*
X152309069Y-79107046D01*
X152162548Y-79264433D01*
X151974917Y-79461778D01*
X151756270Y-79688305D01*
X151638300Y-79809320D01*
X151249610Y-80213375D01*
X150929205Y-80563428D01*
X150668580Y-80872008D01*
X150459229Y-81151644D01*
X150292651Y-81414865D01*
X150160339Y-81674198D01*
X150053791Y-81942171D01*
X149964501Y-82231315D01*
X149945075Y-82303800D01*
X149893318Y-82562650D01*
X149853555Y-82886309D01*
X149825503Y-83258819D01*
X149808876Y-83664221D01*
X149803389Y-84086558D01*
X149808759Y-84509873D01*
X149824699Y-84918208D01*
X149850926Y-85295606D01*
X149887154Y-85626109D01*
X149933099Y-85893759D01*
X149988476Y-86082599D01*
X150013392Y-86132803D01*
X150156450Y-86296814D01*
X150376560Y-86463640D01*
X150650140Y-86622135D01*
X150953604Y-86761150D01*
X151263371Y-86869538D01*
X151555856Y-86936153D01*
X151746513Y-86952000D01*
X151887606Y-86937029D01*
X152032657Y-86886952D01*
X152191808Y-86794015D01*
X152375201Y-86650470D01*
X152592979Y-86448565D01*
X152855283Y-86180548D01*
X153100128Y-85917549D01*
X153393561Y-85600991D01*
X153633349Y-85350767D01*
X153831502Y-85155674D01*
X154000027Y-85004506D01*
X154150934Y-84886062D01*
X154296232Y-84789136D01*
X154333917Y-84766463D01*
X154480824Y-84690635D01*
X154628709Y-84631139D01*
X154750561Y-84596728D01*
X154819372Y-84596155D01*
X154826000Y-84606999D01*
X154791805Y-84653627D01*
X154697873Y-84757449D01*
X154557180Y-84904700D01*
X154382703Y-85081615D01*
X154314487Y-85149553D01*
X153910023Y-85561655D01*
X153541598Y-85959222D01*
X153216905Y-86332904D01*
X152943636Y-86673352D01*
X152729484Y-86971217D01*
X152582142Y-87217148D01*
X152541120Y-87304895D01*
X152499962Y-87433040D01*
X152511759Y-87527300D01*
X152544263Y-87589325D01*
X152656145Y-87746728D01*
X152828487Y-87955977D01*
X153046262Y-88200919D01*
X153294445Y-88465399D01*
X153558009Y-88733261D01*
X153821927Y-88988350D01*
X153984938Y-89138213D01*
X154302596Y-89419215D01*
X154562547Y-89636622D01*
X154779233Y-89798369D01*
X154967095Y-89912397D01*
X155140574Y-89986643D01*
X155314112Y-90029045D01*
X155502149Y-90047543D01*
X155644566Y-90050516D01*
X155859633Y-90043183D01*
X156081737Y-90018437D01*
X156323068Y-89972797D01*
X156595817Y-89902784D01*
X156912173Y-89804918D01*
X157284326Y-89675721D01*
X157724467Y-89511711D01*
X158244785Y-89309411D01*
X158255000Y-89305381D01*
X158945541Y-89037678D01*
X159557207Y-88811386D01*
X160102208Y-88622907D01*
X160592757Y-88468646D01*
X161041064Y-88345007D01*
X161459342Y-88248394D01*
X161859802Y-88175209D01*
X162254655Y-88121857D01*
X162285373Y-88118446D01*
X162645075Y-88087463D01*
X162985803Y-88078105D01*
X163317678Y-88093516D01*
X163650824Y-88136835D01*
X163995364Y-88211204D01*
X164361420Y-88319763D01*
X164759115Y-88465653D01*
X165198572Y-88652015D01*
X165689913Y-88881990D01*
X166243260Y-89158718D01*
X166868738Y-89485342D01*
X167116976Y-89617596D01*
X168078527Y-90105395D01*
X168995544Y-90512791D01*
X169877736Y-90840138D01*
X170734812Y-91087791D01*
X171576480Y-91256104D01*
X172412450Y-91345431D01*
X173252430Y-91356126D01*
X174106130Y-91288544D01*
X174983257Y-91143039D01*
X175893521Y-90919965D01*
X176846630Y-90619677D01*
X177852294Y-90242529D01*
X178370782Y-90028253D01*
X178799942Y-89845310D01*
X179141281Y-89694558D01*
X179400316Y-89568061D01*
X179582567Y-89457884D01*
X179693553Y-89356093D01*
X179738793Y-89254751D01*
X179723805Y-89145923D01*
X179654107Y-89021675D01*
X179535220Y-88874071D01*
X179372661Y-88695175D01*
X179329967Y-88649084D01*
X178721357Y-87981383D01*
X178183948Y-87368064D01*
X177710316Y-86799167D01*
X177293032Y-86264731D01*
X176924670Y-85754794D01*
X176597803Y-85259396D01*
X176305005Y-84768577D01*
X176038849Y-84272375D01*
X175981394Y-84158000D01*
X175741652Y-83634965D01*
X175561191Y-83142150D01*
X175426577Y-82638818D01*
X175349864Y-82243269D01*
X175292456Y-81956380D01*
X175219215Y-81666659D01*
X175141129Y-81415397D01*
X175102792Y-81314918D01*
X174989715Y-81077665D01*
X174841524Y-80813495D01*
X174668574Y-80536393D01*
X174481218Y-80260343D01*
X174289808Y-79999330D01*
X174104698Y-79767338D01*
X173936242Y-79578351D01*
X173794792Y-79446354D01*
X173690702Y-79385330D01*
X173672365Y-79382800D01*
X173544438Y-79338425D01*
X173448124Y-79230700D01*
X173418800Y-79122862D01*
X173453127Y-79020980D01*
X173537025Y-78904815D01*
X173549532Y-78891849D01*
X173663064Y-78802455D01*
X173782712Y-78781468D01*
X173862921Y-78790758D01*
X174023966Y-78838752D01*
X174103870Y-78930269D01*
X174120876Y-79087730D01*
X174119905Y-79106567D01*
X174129130Y-79187567D01*
X174170540Y-79294458D01*
X174251607Y-79440640D01*
X174379800Y-79639515D01*
X174562594Y-79904485D01*
X174573060Y-79919367D01*
X174903718Y-80406931D01*
X175164454Y-80831556D01*
X175359123Y-81200159D01*
X175491579Y-81519654D01*
X175526441Y-81629761D01*
X175578288Y-81790172D01*
X175627101Y-81907296D01*
X175655523Y-81949141D01*
X175700819Y-81923406D01*
X175771075Y-81827716D01*
X175832329Y-81718554D01*
X175927868Y-81539829D01*
X176050696Y-81323118D01*
X176170268Y-81121890D01*
X176274618Y-80945976D01*
X176333708Y-80819979D01*
X176357204Y-80708340D01*
X176354772Y-80575501D01*
X176345535Y-80477115D01*
X176317204Y-80283641D01*
X176268754Y-80035166D01*
X176206416Y-79756709D01*
X176136423Y-79473289D01*
X176065008Y-79209922D01*
X175998403Y-78991628D01*
X175942842Y-78843425D01*
X175933970Y-78825102D01*
X175830149Y-78691040D01*
X175703940Y-78594955D01*
X175592221Y-78496484D01*
X175560496Y-78374881D01*
X175596249Y-78249021D01*
X175686966Y-78137779D01*
X175820131Y-78060030D01*
X175983228Y-78034651D01*
X176067648Y-78046415D01*
X176067648Y-78046415D01*
G37*
X176067648Y-78046415D02*
X176216265Y-78112184D01*
X176274556Y-78221252D01*
X176245867Y-78380681D01*
X176236817Y-78403345D01*
X176207110Y-78487982D01*
X176192868Y-78577214D01*
X176196592Y-78686852D01*
X176220780Y-78832712D01*
X176267933Y-79030607D01*
X176340549Y-79296349D01*
X176423759Y-79586000D01*
X176507020Y-79876662D01*
X176571954Y-80084484D01*
X176630838Y-80210440D01*
X176695950Y-80255501D01*
X176779567Y-80220642D01*
X176893966Y-80106834D01*
X177051425Y-79915052D01*
X177259467Y-79652234D01*
X177508344Y-79338538D01*
X177699756Y-79093969D01*
X177840439Y-78908911D01*
X177937130Y-78773746D01*
X177996565Y-78678860D01*
X178025482Y-78614634D01*
X178030618Y-78571453D01*
X178027050Y-78556559D01*
X178029385Y-78461948D01*
X178050251Y-78404900D01*
X178134970Y-78337686D01*
X178268567Y-78316217D01*
X178409201Y-78340493D01*
X178510317Y-78404900D01*
X178606504Y-78562090D01*
X178631295Y-78714598D01*
X178589256Y-78839594D01*
X178484952Y-78914249D01*
X178406202Y-78925600D01*
X178306528Y-78951025D01*
X178182508Y-79031594D01*
X178027623Y-79173750D01*
X177835355Y-79383934D01*
X177599185Y-79668587D01*
X177403791Y-79916200D01*
X177017015Y-80432334D01*
X176675556Y-80925921D01*
X176385183Y-81387313D01*
X176151665Y-81806859D01*
X175980769Y-82174910D01*
X175884211Y-82458208D01*
X175846921Y-82620403D01*
X175837824Y-82746799D01*
X175858928Y-82881243D01*
X175912120Y-83067182D01*
X176097372Y-83565452D01*
X176357213Y-84111537D01*
X176683760Y-84693915D01*
X177069128Y-85301066D01*
X177505434Y-85921469D01*
X177984795Y-86543600D01*
X178499327Y-87155941D01*
X179041146Y-87746968D01*
X179284512Y-87995651D01*
X179565073Y-88270309D01*
X179792314Y-88475994D01*
X179979185Y-88620745D01*
X180138638Y-88712601D01*
X180283621Y-88759603D01*
X180427085Y-88769789D01*
X180518192Y-88761523D01*
X180793212Y-88685587D01*
X181096101Y-88537585D01*
X181403331Y-88333092D01*
X181691375Y-88087683D01*
X181927731Y-87828405D01*
X182196999Y-87430539D01*
X182449790Y-86949073D01*
X182681408Y-86401322D01*
X182887158Y-85804601D01*
X183062345Y-85176224D01*
X183202273Y-84533506D01*
X183302247Y-83893762D01*
X183357572Y-83274307D01*
X183363553Y-82692454D01*
X183356969Y-82557800D01*
X183331831Y-82230470D01*
X183299926Y-81990206D01*
X183256774Y-81822497D01*
X183197895Y-81712834D01*
X183118811Y-81646708D01*
X183069006Y-81624986D01*
X182926945Y-81536354D01*
X182868312Y-81413320D01*
X182891791Y-81277524D01*
X182996063Y-81150605D01*
X183101853Y-81085322D01*
X183249541Y-81030980D01*
X183362083Y-81035520D01*
X183405817Y-81052151D01*
X183469267Y-81089820D01*
X183503956Y-81147222D01*
X183517076Y-81250614D01*
X183515818Y-81426253D01*
X183515109Y-81451179D01*
X183516750Y-81636229D01*
X183528602Y-81889617D01*
X183548727Y-82178809D01*
X183575183Y-82471272D01*
X183576945Y-82488359D01*
X183605773Y-82784547D01*
X183621078Y-83014037D01*
X183622351Y-83210895D01*
X183609076Y-83409186D01*
X183580744Y-83642977D01*
X183557078Y-83809159D01*
X183504264Y-84176509D01*
X183466810Y-84456655D01*
X183444094Y-84662727D01*
X183435493Y-84807856D01*
X183440383Y-84905172D01*
X183458140Y-84967806D01*
X183488142Y-85008889D01*
X183499637Y-85019141D01*
X183572515Y-85060087D01*
X183659121Y-85048608D01*
X183746340Y-85010809D01*
X184000109Y-84859884D01*
X184268527Y-84652434D01*
X184514487Y-84419361D01*
X184657803Y-84251762D01*
X184806141Y-84036443D01*
X184938097Y-83809326D01*
X185043484Y-83592111D01*
X185112115Y-83406497D01*
X185133802Y-83274186D01*
X185129360Y-83247256D01*
X185122190Y-83102931D01*
X185187450Y-83000002D01*
X185301147Y-82947851D01*
X185439288Y-82955861D01*
X185577877Y-83033413D01*
X185606129Y-83060828D01*
X185696462Y-83205904D01*
X185694676Y-83336830D01*
X185604100Y-83436246D01*
X185528028Y-83468280D01*
X185440211Y-83508830D01*
X185355215Y-83586679D01*
X185257986Y-83719506D01*
X185133469Y-83924991D01*
X185121628Y-83945532D01*
X184799054Y-84419913D01*
X184418584Y-84815841D01*
X183968253Y-85145490D01*
X183904073Y-85184041D01*
X183714875Y-85299969D01*
X183553366Y-85407681D01*
X183444483Y-85490183D01*
X183419566Y-85514241D01*
X183365197Y-85606971D01*
X183296373Y-85763956D01*
X183227555Y-85952052D01*
X183224465Y-85961400D01*
X183159783Y-86138542D01*
X183062893Y-86379462D01*
X182945429Y-86656285D01*
X182819028Y-86941135D01*
X182779161Y-87028200D01*
X182582549Y-87460956D01*
X182430619Y-87811720D01*
X182320399Y-88088230D01*
X182248914Y-88298222D01*
X182213192Y-88449436D01*
X182207688Y-88515259D01*
X182248654Y-88668547D01*
X182364000Y-88868195D01*
X182543734Y-89103957D01*
X182777868Y-89365587D01*
X183056411Y-89642837D01*
X183369373Y-89925461D01*
X183706763Y-90203212D01*
X184058593Y-90465843D01*
X184213800Y-90572898D01*
X184483365Y-90750856D01*
X184686252Y-90876276D01*
X184837470Y-90957029D01*
X184952029Y-91000989D01*
X185044938Y-91016029D01*
X185059088Y-91016277D01*
X185281950Y-90999119D01*
X185576195Y-90952194D01*
X185918117Y-90881522D01*
X186284009Y-90793119D01*
X186650166Y-90693005D01*
X186992880Y-90587197D01*
X187288445Y-90481713D01*
X187468968Y-90404505D01*
X187640891Y-90316092D01*
X187744019Y-90239616D01*
X187804341Y-90150416D01*
X187839315Y-90053078D01*
X187922607Y-89874200D01*
X188034481Y-89781061D01*
X188165174Y-89780586D01*
X188201074Y-89796518D01*
X188326851Y-89910937D01*
X188412061Y-90078617D01*
X188450304Y-90267280D01*
X188435181Y-90444644D01*
X188360293Y-90578430D01*
X188356737Y-90581722D01*
X188286409Y-90632434D01*
X188206395Y-90646054D01*
X188080788Y-90625096D01*
X188004838Y-90606340D01*
X187880104Y-90577964D01*
X187776223Y-90569860D01*
X187664222Y-90586216D01*
X187515125Y-90631223D01*
X187303601Y-90707716D01*
X186840328Y-90872715D01*
X186448421Y-90996778D01*
X186109007Y-91085655D01*
X185956786Y-91117975D01*
X185687261Y-91194579D01*
X185510381Y-91303201D01*
X185421155Y-91447765D01*
X185407600Y-91549531D01*
X185416454Y-91626426D01*
X185449880Y-91709440D01*
X185518174Y-91812941D01*
X185631632Y-91951298D01*
X185800548Y-92138878D01*
X185928300Y-92276224D01*
X186296826Y-92663256D01*
X186608893Y-92975793D01*
X186870924Y-93219140D01*
X187089346Y-93398602D01*
X187270585Y-93519483D01*
X187421067Y-93587088D01*
X187540177Y-93606800D01*
X187716819Y-93637224D01*
X187812726Y-93699700D01*
X187887270Y-93850520D01*
X187885630Y-94028004D01*
X187815741Y-94201833D01*
X187685538Y-94341690D01*
X187636788Y-94372017D01*
X187508328Y-94390479D01*
X187383232Y-94323591D01*
X187281380Y-94186253D01*
X187239089Y-94073987D01*
X187210236Y-94004937D01*
X187151685Y-93912663D01*
X187057085Y-93789889D01*
X186920087Y-93629342D01*
X186734342Y-93423745D01*
X186493499Y-93165823D01*
X186191211Y-92848301D01*
X185954394Y-92601971D01*
X185613001Y-92248951D01*
X185329115Y-91958777D01*
X185090577Y-91720346D01*
X184885229Y-91522553D01*
X184700910Y-91354290D01*
X184525462Y-91204454D01*
X184346724Y-91061939D01*
X184152538Y-90915639D01*
X183934400Y-90757078D01*
X183525624Y-90458106D01*
X183160088Y-90180867D01*
X182845894Y-89931980D01*
X182591144Y-89718062D01*
X182403939Y-89545733D01*
X182292381Y-89421611D01*
X182283002Y-89408063D01*
X182193936Y-89305501D01*
X182060251Y-89185877D01*
X181994546Y-89135391D01*
X181757850Y-89010435D01*
X181522903Y-88984411D01*
X181280127Y-89057363D01*
X181140400Y-89139280D01*
X180244353Y-89699714D01*
X179280523Y-90216901D01*
X178273724Y-90679839D01*
X177248769Y-91077524D01*
X176230471Y-91398955D01*
X175780499Y-91515915D01*
X175281995Y-91629970D01*
X174834822Y-91716412D01*
X174406901Y-91779365D01*
X173966152Y-91822950D01*
X173480493Y-91851291D01*
X173063200Y-91865131D01*
X172516886Y-91871972D01*
X172043135Y-91860428D01*
X171614059Y-91827384D01*
X171201774Y-91769725D01*
X170778396Y-91684335D01*
X170316039Y-91568100D01*
X170254431Y-91551333D01*
X169955147Y-91465250D01*
X169658121Y-91370583D01*
X169351451Y-91262436D01*
X169023234Y-91135916D01*
X168661567Y-90986129D01*
X168254545Y-90808179D01*
X167790266Y-90597173D01*
X167256827Y-90348217D01*
X166789400Y-90126598D01*
X166204030Y-89849079D01*
X165699162Y-89613683D01*
X165264554Y-89416830D01*
X164889966Y-89254941D01*
X164565159Y-89124437D01*
X164279893Y-89021738D01*
X164023928Y-88943264D01*
X163787023Y-88885436D01*
X163558938Y-88844674D01*
X163329435Y-88817399D01*
X163088272Y-88800032D01*
X162979400Y-88794760D01*
X162713996Y-88788748D01*
X162456794Y-88796057D01*
X162197545Y-88819419D01*
X161925999Y-88861566D01*
X161631908Y-88925229D01*
X161305022Y-89013139D01*
X160935093Y-89128029D01*
X160511871Y-89272628D01*
X160025108Y-89449669D01*
X159464554Y-89661884D01*
X158890000Y-89884619D01*
X158484013Y-90041875D01*
X158074024Y-90198211D01*
X157678896Y-90346615D01*
X157317494Y-90480069D01*
X157008681Y-90591561D01*
X156771320Y-90674074D01*
X156731000Y-90687498D01*
X156474362Y-90770174D01*
X156244400Y-90839160D01*
X156018886Y-90899829D01*
X155775589Y-90957550D01*
X155492281Y-91017695D01*
X155146731Y-91085635D01*
X154853016Y-91141250D01*
X154584560Y-91203719D01*
X154320367Y-91292856D01*
X154046872Y-91416053D01*
X153750512Y-91580704D01*
X153417721Y-91794200D01*
X153034936Y-92063934D01*
X152691355Y-92319314D01*
X152407670Y-92532968D01*
X152136596Y-92735694D01*
X151893516Y-92916096D01*
X151693814Y-93062781D01*
X151552874Y-93164351D01*
X151513618Y-93191692D01*
X151314803Y-93352953D01*
X151121983Y-93554723D01*
X150948281Y-93777480D01*
X150806815Y-94001701D01*
X150710706Y-94207864D01*
X150673074Y-94376448D01*
X150678555Y-94434220D01*
X150724670Y-94521426D01*
X150825635Y-94661722D01*
X150965978Y-94834873D01*
X151110604Y-94999271D01*
X151290335Y-95207111D01*
X151460250Y-95423050D01*
X151597874Y-95617513D01*
X151664861Y-95728590D01*
X151754500Y-95913233D01*
X151829002Y-96094316D01*
X151881056Y-96249945D01*
X151903349Y-96358227D01*
X151888567Y-96397268D01*
X151888205Y-96397235D01*
X151844229Y-96359014D01*
X151749994Y-96257720D01*
X151619530Y-96108953D01*
X151473200Y-95935916D01*
X151264971Y-95694030D01*
X151058571Y-95469074D01*
X150865459Y-95272050D01*
X150697098Y-95113958D01*
X150564948Y-95005800D01*
X150480470Y-94958578D01*
X150458779Y-94962207D01*
X150432031Y-95024049D01*
X150383901Y-95164322D01*
X150320669Y-95363697D01*
X150248617Y-95602844D01*
X150230655Y-95664200D01*
X150140457Y-95963742D01*
X150040226Y-96280039D01*
X149942676Y-96573800D01*
X149866323Y-96790124D01*
X149739202Y-97161868D01*
X149656115Y-97481087D01*
X149610019Y-97783084D01*
X149593874Y-98103163D01*
X149593600Y-98157483D01*
X149593600Y-98528699D01*
X150055096Y-99221123D01*
X150322887Y-99633688D01*
X150531465Y-99981508D01*
X150686975Y-100277626D01*
X150795561Y-100535085D01*
X150863366Y-100766930D01*
X150896534Y-100986203D01*
X150898421Y-101011431D01*
X150921457Y-101353800D01*
X150595494Y-100744200D01*
X150363204Y-100315760D01*
X150170227Y-99973601D01*
X150012838Y-99711966D01*
X149887313Y-99525102D01*
X149789929Y-99407252D01*
X149716960Y-99352662D01*
X149691500Y-99347200D01*
X149669410Y-99393683D01*
X149645112Y-99516355D01*
X149623423Y-99690048D01*
X149621006Y-99715500D01*
X149568497Y-100171653D01*
X149496452Y-100627471D01*
X149410798Y-101050362D01*
X149317462Y-101407733D01*
X149307287Y-101440671D01*
X149230136Y-101664679D01*
X149166317Y-101809425D01*
X149119711Y-101870897D01*
X149094197Y-101845082D01*
X149093654Y-101727967D01*
X149101433Y-101653571D01*
X149132509Y-101352136D01*
X149161236Y-100978193D01*
X149186431Y-100558660D01*
X149206912Y-100120459D01*
X149221498Y-99690509D01*
X149229007Y-99295731D01*
X149228257Y-98963045D01*
X149224915Y-98840919D01*
X149205343Y-98470544D01*
X149175800Y-98193366D01*
X149131502Y-98001111D01*
X149067664Y-97885511D01*
X148979502Y-97838291D01*
X148862233Y-97851182D01*
X148711073Y-97915912D01*
X148694828Y-97924430D01*
X148505440Y-98052140D01*
X148269183Y-98255960D01*
X147994314Y-98526657D01*
X147689090Y-98854996D01*
X147361769Y-99231745D01*
X147020609Y-99647669D01*
X146673867Y-100093535D01*
X146329801Y-100560110D01*
X146298086Y-100604431D01*
X146153376Y-100804587D01*
X146027662Y-100973618D01*
X145933712Y-101094691D01*
X145884297Y-101150974D01*
X145882495Y-101152271D01*
X145863488Y-101136814D01*
X145887454Y-101046936D01*
X145947481Y-100896727D01*
X146036659Y-100700277D01*
X146148076Y-100471674D01*
X146274819Y-100225010D01*
X146409980Y-99974374D01*
X146546644Y-99733855D01*
X146677903Y-99517543D01*
X146705628Y-99474200D01*
X146991824Y-99057386D01*
X147293258Y-98673418D01*
X147626394Y-98304737D01*
X148007698Y-97933782D01*
X148453634Y-97542993D01*
X148730249Y-97314997D01*
X148963544Y-97120974D01*
X149130035Y-96968086D01*
X149246001Y-96838992D01*
X149327722Y-96716348D01*
X149368983Y-96634515D01*
X149449061Y-96433399D01*
X149542162Y-96158391D01*
X149640947Y-95835139D01*
X149738076Y-95489289D01*
X149826210Y-95146488D01*
X149898012Y-94832383D01*
X149927754Y-94681845D01*
X149970831Y-94345144D01*
X149958808Y-94068007D01*
X149883380Y-93837148D01*
X149736240Y-93639278D01*
X149509083Y-93461110D01*
X149193606Y-93289358D01*
X149003518Y-93203193D01*
X148768377Y-93098431D01*
X148542973Y-92992932D01*
X148359452Y-92901974D01*
X148281478Y-92859973D01*
X148080296Y-92771768D01*
X147937402Y-92765365D01*
X147852803Y-92812144D01*
X147718128Y-92913734D01*
X147553755Y-93051742D01*
X147380064Y-93207776D01*
X147217433Y-93363444D01*
X147086242Y-93500354D01*
X147006870Y-93600113D01*
X147000682Y-93610756D01*
X146981773Y-93707753D01*
X146981418Y-93872352D01*
X146995268Y-94035131D01*
X147009409Y-94503404D01*
X146932527Y-94935923D01*
X146828279Y-95214108D01*
X146747642Y-95368594D01*
X146644981Y-95535826D01*
X146535031Y-95695534D01*
X146432525Y-95827447D01*
X146352197Y-95911296D01*
X146309587Y-95927721D01*
X146313337Y-95872803D01*
X146341335Y-95743622D01*
X146388294Y-95563123D01*
X146416720Y-95462569D01*
X146526290Y-95045441D01*
X146593241Y-94699839D01*
X146617399Y-94430109D01*
X146598592Y-94240596D01*
X146536650Y-94135646D01*
X146470100Y-94114800D01*
X146403228Y-94148240D01*
X146282934Y-94238727D01*
X146127681Y-94371507D01*
X145993298Y-94495800D01*
X145827868Y-94650632D01*
X145688376Y-94775187D01*
X145591478Y-94854963D01*
X145555705Y-94876800D01*
X145529185Y-94836989D01*
X145546085Y-94733470D01*
X145598321Y-94590116D01*
X145677811Y-94430799D01*
X145741414Y-94328301D01*
X145833348Y-94210731D01*
X145981918Y-94040796D01*
X146170557Y-93836590D01*
X146382700Y-93616205D01*
X146518340Y-93479800D01*
X146825868Y-93171731D01*
X147065281Y-92922410D01*
X147242700Y-92721222D01*
X147364247Y-92557551D01*
X147436045Y-92420781D01*
X147464215Y-92300297D01*
X147454880Y-92185482D01*
X147414161Y-92065722D01*
X147378135Y-91988925D01*
X147232750Y-91767442D01*
X147028757Y-91592002D01*
X146996038Y-91570460D01*
X146799089Y-91465476D01*
X146594748Y-91403128D01*
X146376948Y-91386396D01*
X146139620Y-91418263D01*
X145876698Y-91501710D01*
X145582114Y-91639717D01*
X145249800Y-91835267D01*
X144873688Y-92091341D01*
X144447712Y-92410921D01*
X143965803Y-92796987D01*
X143421894Y-93252522D01*
X143218317Y-93426721D01*
X142660813Y-93903792D01*
X142168659Y-94319669D01*
X141732180Y-94681670D01*
X141341699Y-94997112D01*
X140987542Y-95273313D01*
X140660034Y-95517589D01*
X140349498Y-95737259D01*
X140046260Y-95939640D01*
X139740643Y-96132049D01*
X139422974Y-96321804D01*
X139283892Y-96402320D01*
X139039539Y-96545697D01*
X138855675Y-96667674D01*
X138717412Y-96787663D01*
X138609861Y-96925078D01*
X138518135Y-97099330D01*
X138427345Y-97329832D01*
X138322603Y-97635995D01*
X138311028Y-97670800D01*
X138115854Y-98209535D01*
X137915809Y-98667870D01*
X137713708Y-99040658D01*
X137512366Y-99322754D01*
X137314600Y-99509013D01*
X137299413Y-99519357D01*
X137176177Y-99597524D01*
X137091178Y-99645177D01*
X137072504Y-99652000D01*
X137084065Y-99609572D01*
X137134346Y-99493391D01*
X137215712Y-99320111D01*
X137320524Y-99106388D01*
X137346220Y-99055100D01*
X137559424Y-98609963D01*
X137716179Y-98232360D01*
X137821476Y-97908906D01*
X137880303Y-97626214D01*
X137881160Y-97620000D01*
X137885195Y-97402893D01*
X137835522Y-97245239D01*
X137738627Y-97160354D01*
X137652470Y-97150607D01*
X137521519Y-97188302D01*
X137316769Y-97278593D01*
X137048016Y-97416325D01*
X136725052Y-97596347D01*
X136357673Y-97813505D01*
X136146749Y-97942856D01*
X135899060Y-98094437D01*
X135657545Y-98238489D01*
X135447206Y-98360341D01*
X135293044Y-98445321D01*
X135272399Y-98455970D01*
X135118566Y-98521766D01*
X134945141Y-98578014D01*
X134777966Y-98618875D01*
X134642883Y-98638511D01*
X134565733Y-98631081D01*
X134556800Y-98617652D01*
X134597383Y-98581558D01*
X134710855Y-98498856D01*
X134884794Y-98378123D01*
X135106781Y-98227934D01*
X135364395Y-98056864D01*
X135458500Y-97995070D01*
X135849812Y-97737106D01*
X136161009Y-97527811D01*
X136398463Y-97362534D01*
X136568545Y-97236627D01*
X136677626Y-97145441D01*
X136732077Y-97084326D01*
X136741200Y-97059082D01*
X136691739Y-97011172D01*
X136547498Y-96953506D01*
X136314692Y-96887418D01*
X135999533Y-96814241D01*
X135608236Y-96735309D01*
X135147013Y-96651955D01*
X134622079Y-96565512D01*
X134039646Y-96477314D01*
X134009964Y-96473003D01*
X133633835Y-96415573D01*
X133357990Y-96366457D01*
X133181517Y-96324916D01*
X133103504Y-96290216D01*
X133123039Y-96261619D01*
X133239209Y-96238390D01*
X133451102Y-96219790D01*
X133681815Y-96208041D01*
X133935309Y-96202067D01*
X134184772Y-96206923D01*
X134446720Y-96224516D01*
X134737671Y-96256753D01*
X135074142Y-96305542D01*
X135472652Y-96372788D01*
X135949718Y-96460399D01*
X136077321Y-96484589D01*
X136403009Y-96543277D01*
X136722432Y-96594848D01*
X137011167Y-96635793D01*
X137244792Y-96662598D01*
X137377823Y-96671559D01*
X137533963Y-96672788D01*
X137660714Y-96663084D01*
X137782846Y-96635113D01*
X137925128Y-96581537D01*
X138112331Y-96495019D01*
X138321101Y-96392175D01*
X138683588Y-96202670D01*
X139072440Y-95983064D01*
X139476460Y-95741097D01*
X139884452Y-95484510D01*
X140285216Y-95221041D01*
X140667557Y-94958430D01*
X141020277Y-94704417D01*
X141332177Y-94466742D01*
X141592062Y-94253144D01*
X141788734Y-94071363D01*
X141910994Y-93929138D01*
X141930379Y-93897437D01*
X141957095Y-93813372D01*
X141919762Y-93738742D01*
X141853343Y-93675914D01*
X141743451Y-93609471D01*
X141563064Y-93528848D01*
X141340431Y-93443781D01*
X141103802Y-93364007D01*
X140881427Y-93299264D01*
X140701556Y-93259289D01*
X140621147Y-93251200D01*
X140520466Y-93276695D01*
X140361469Y-93344985D01*
X140171210Y-93443778D01*
X140075654Y-93499066D01*
X139871721Y-93619615D01*
X139679932Y-93730028D01*
X139531178Y-93812628D01*
X139489299Y-93834604D01*
X139374272Y-93874389D01*
X139208851Y-93909578D01*
X139018595Y-93937617D01*
X138829065Y-93955950D01*
X138665817Y-93962021D01*
X138554412Y-93953277D01*
X138519552Y-93931558D01*
X138562314Y-93893662D01*
X138680251Y-93818210D01*
X138858212Y-93714166D01*
X139081047Y-93590492D01*
X139240178Y-93505200D01*
X139485195Y-93373066D01*
X139696448Y-93254338D01*
X139858361Y-93158152D01*
X139955360Y-93093649D01*
X139976125Y-93073400D01*
X139941134Y-93029389D01*
X139834272Y-92947284D01*
X139672176Y-92838879D01*
X139474587Y-92717800D01*
X139023184Y-92425833D01*
X138661700Y-92132612D01*
X138378850Y-91827961D01*
X138202843Y-91571277D01*
X138113997Y-91413354D01*
X138054147Y-91292143D01*
X138034649Y-91230935D01*
X138035764Y-91228502D01*
X138081442Y-91248500D01*
X138180267Y-91322198D01*
X138311215Y-91433860D01*
X138316611Y-91438702D01*
X138922172Y-91920148D01*
X139588593Y-92328830D01*
X140321624Y-92667705D01*
X141127011Y-92939732D01*
X141352151Y-93000694D01*
X141741679Y-93089233D01*
X142075366Y-93137062D01*
X142350043Y-93149600D01*
X142563802Y-93143450D01*
X142743210Y-93118724D01*
X142907483Y-93066005D01*
X143075842Y-92975877D01*
X143267505Y-92838924D01*
X143501690Y-92645730D01*
X143661093Y-92507252D01*
X143909156Y-92291772D01*
X144192824Y-92048757D01*
X144469265Y-91814771D01*
X144614294Y-91693548D01*
X144822754Y-91512069D01*
X144991409Y-91348756D01*
X145105199Y-91218960D01*
X145145919Y-91151614D01*
X145154201Y-90979662D01*
X145073767Y-90782034D01*
X145064078Y-90769180D01*
X147417814Y-90769180D01*
X147523796Y-91024202D01*
X147588712Y-91170310D01*
X147641397Y-91241895D01*
X147705853Y-91259356D01*
X147786189Y-91247213D01*
X148025196Y-91200453D01*
X148191839Y-91180641D01*
X148313216Y-91193974D01*
X148416422Y-91246648D01*
X148528552Y-91344861D01*
X148621126Y-91438167D01*
X148893252Y-91715983D01*
X148815776Y-92055637D01*
X148738301Y-92395291D01*
X148950050Y-92489457D01*
X149089932Y-92547280D01*
X149194169Y-92582589D01*
X149217706Y-92587211D01*
X149272492Y-92549241D01*
X149357030Y-92447192D01*
X149431508Y-92336800D01*
X149589403Y-92082800D01*
X150036001Y-92083808D01*
X150482600Y-92084816D01*
X150632799Y-92337808D01*
X150719470Y-92474147D01*
X150788824Y-92565997D01*
X150819087Y-92590800D01*
X150883059Y-92572270D01*
X151006447Y-92524973D01*
X151091506Y-92489497D01*
X151236595Y-92417112D01*
X151299419Y-92354361D01*
X151300805Y-92298997D01*
X151273432Y-92195775D01*
X151236824Y-92042587D01*
X151222932Y-91981200D01*
X151172088Y-91752600D01*
X151470122Y-91453229D01*
X151768156Y-91153859D01*
X151998773Y-91211929D01*
X152203055Y-91257412D01*
X152335169Y-91264088D01*
X152419429Y-91224993D01*
X152480145Y-91133164D01*
X152509084Y-91065771D01*
X152559632Y-90928602D01*
X152588330Y-90829716D01*
X152590800Y-90811302D01*
X152550793Y-90759704D01*
X152447178Y-90677712D01*
X152336800Y-90604773D01*
X152216133Y-90527247D01*
X152138137Y-90457168D01*
X152096213Y-90372104D01*
X152083766Y-90249619D01*
X152094196Y-90067282D01*
X152115670Y-89852815D01*
X152137624Y-89677793D01*
X152170342Y-89570310D01*
X152233103Y-89496661D01*
X152345184Y-89423142D01*
X152369670Y-89408736D01*
X152496873Y-89322248D01*
X152576816Y-89244922D01*
X152590800Y-89213976D01*
X152573258Y-89137894D01*
X152530867Y-89011213D01*
X152478980Y-88875185D01*
X152432946Y-88771064D01*
X152415004Y-88741576D01*
X152363111Y-88745149D01*
X152239641Y-88767918D01*
X152077443Y-88803563D01*
X151752600Y-88879373D01*
X151468021Y-88597820D01*
X151183443Y-88316266D01*
X151251327Y-88027833D01*
X151288381Y-87861775D01*
X151313369Y-87733337D01*
X151320006Y-87682801D01*
X151277746Y-87637247D01*
X151172910Y-87576764D01*
X151039800Y-87517044D01*
X150912717Y-87473779D01*
X150836501Y-87461605D01*
X150784460Y-87502531D01*
X150704442Y-87605642D01*
X150649654Y-87690205D01*
X150556664Y-87827682D01*
X150475565Y-87895660D01*
X150375794Y-87916944D01*
X150344854Y-87917641D01*
X150192433Y-87924205D01*
X150000212Y-87940287D01*
X149915936Y-87949544D01*
X149654073Y-87981006D01*
X149467240Y-87699616D01*
X149280408Y-87418226D01*
X149056063Y-87494668D01*
X148916436Y-87549405D01*
X148822053Y-87599677D01*
X148803596Y-87616613D01*
X148797959Y-87687153D01*
X148811604Y-87824778D01*
X148836269Y-87971135D01*
X148897065Y-88280154D01*
X148623032Y-88559783D01*
X148496744Y-88687568D01*
X148400771Y-88768399D01*
X148308545Y-88808600D01*
X148193497Y-88814497D01*
X148029058Y-88792415D01*
X147811789Y-88752913D01*
X147699629Y-88738118D01*
X147633798Y-88761506D01*
X147583901Y-88844673D01*
X147545089Y-88942394D01*
X147494636Y-89080600D01*
X147464131Y-89175929D01*
X147460000Y-89196302D01*
X147499295Y-89238086D01*
X147601233Y-89314783D01*
X147714000Y-89390400D01*
X147968000Y-89553391D01*
X147968000Y-90435733D01*
X147692907Y-90602456D01*
X147417814Y-90769180D01*
X145064078Y-90769180D01*
X144911664Y-90566996D01*
X144674941Y-90342814D01*
X144370643Y-90117752D01*
X144145300Y-89978006D01*
X144012432Y-89896502D01*
X143924790Y-89834339D01*
X143904000Y-89811604D01*
X143948409Y-89798305D01*
X144064540Y-89809003D01*
X144226746Y-89838679D01*
X144409380Y-89882313D01*
X144586796Y-89934884D01*
X144653060Y-89958224D01*
X144864346Y-90064353D01*
X145093300Y-90223117D01*
X145213856Y-90325175D01*
X145418886Y-90508754D01*
X145573589Y-90632478D01*
X145699843Y-90707967D01*
X145819529Y-90746842D01*
X145954527Y-90760722D01*
X146036203Y-90761921D01*
X146305981Y-90732818D01*
X146529775Y-90651726D01*
X146686847Y-90527732D01*
X146731732Y-90457200D01*
X146761889Y-90348305D01*
X146792849Y-90162607D01*
X146822460Y-89924858D01*
X146848566Y-89659810D01*
X146869015Y-89392218D01*
X146881654Y-89146835D01*
X146884327Y-88948412D01*
X146874883Y-88821704D01*
X146874283Y-88818761D01*
X146828826Y-88657635D01*
X146757693Y-88505971D01*
X146651272Y-88353800D01*
X146499954Y-88191154D01*
X146294129Y-88008067D01*
X146024185Y-87794572D01*
X145680513Y-87540699D01*
X145555000Y-87450452D01*
X144587673Y-86799363D01*
X143574318Y-86199891D01*
X142710200Y-85745336D01*
X142293542Y-85543021D01*
X141879316Y-85353081D01*
X141479476Y-85180112D01*
X141105975Y-85028709D01*
X140770769Y-84903469D01*
X140485812Y-84808987D01*
X140263057Y-84749859D01*
X140114460Y-84730682D01*
X140081037Y-84734539D01*
X140007227Y-84780604D01*
X139880036Y-84888550D01*
X139714121Y-85044801D01*
X139524136Y-85235781D01*
X139407131Y-85358780D01*
X139068528Y-85705999D01*
X138783286Y-85966815D01*
X138551418Y-86141220D01*
X138372933Y-86229204D01*
X138301472Y-86240800D01*
X138278152Y-86219340D01*
X138313286Y-86150309D01*
X138411847Y-86026728D01*
X138578807Y-85841621D01*
X138609019Y-85809227D01*
X138869097Y-85509053D01*
X139079272Y-85221025D01*
X139231152Y-84958916D01*
X139316345Y-84736495D01*
X139332000Y-84622768D01*
X139285677Y-84447807D01*
X139146846Y-84314580D01*
X138915714Y-84223270D01*
X138865725Y-84211599D01*
X138643560Y-84173807D01*
X138416326Y-84157914D01*
X138170267Y-84165887D01*
X137891622Y-84199693D01*
X137566633Y-84261298D01*
X137181541Y-84352668D01*
X136722588Y-84475771D01*
X136423260Y-84560720D01*
X135772225Y-84744167D01*
X135201652Y-84895271D01*
X134696613Y-85016658D01*
X134242177Y-85110956D01*
X133823416Y-85180792D01*
X133425401Y-85228795D01*
X133033203Y-85257592D01*
X132631892Y-85269809D01*
X132391280Y-85270349D01*
X132092470Y-85266538D01*
X131887088Y-85259080D01*
X131776259Y-85247192D01*
X131761109Y-85230095D01*
X131842763Y-85207005D01*
X132022348Y-85177143D01*
X132300988Y-85139727D01*
X132638375Y-85098831D01*
X132907615Y-85064659D01*
X133152640Y-85028942D01*
X133349528Y-84995486D01*
X133474361Y-84968097D01*
X133489275Y-84963440D01*
X133611829Y-84895581D01*
X133638367Y-84813795D01*
X133573078Y-84720933D01*
X133420151Y-84619847D01*
X133183775Y-84513388D01*
X132868140Y-84404409D01*
X132526976Y-84308385D01*
X132395209Y-84270083D01*
X132349793Y-84240203D01*
X132377390Y-84207553D01*
X132394660Y-84197351D01*
X132539649Y-84163147D01*
X132764142Y-84172874D01*
X133056978Y-84224608D01*
X133406998Y-84316424D01*
X133769506Y-84434492D01*
X134019206Y-84519841D01*
X134242059Y-84591006D01*
X134416840Y-84641562D01*
X134522325Y-84665087D01*
X134534559Y-84666000D01*
X134613244Y-84652066D01*
X134773778Y-84613023D01*
X135000712Y-84553012D01*
X135278594Y-84476172D01*
X135591975Y-84386641D01*
X135755687Y-84338840D01*
X136098069Y-84239883D01*
X136428665Y-84147498D01*
X136727923Y-84066909D01*
X136976290Y-84003339D01*
X137154216Y-83962013D01*
X137198400Y-83953384D01*
X137439961Y-83901250D01*
X137582305Y-83844122D01*
X137625924Y-83776607D01*
X137571311Y-83693317D01*
X137418957Y-83588859D01*
X137240399Y-83493157D01*
X136968713Y-83380100D01*
X136599113Y-83265040D01*
X136135251Y-83148681D01*
X135580775Y-83031731D01*
X134939336Y-82914896D01*
X134214586Y-82798881D01*
X133410173Y-82684393D01*
X132529749Y-82572139D01*
X132397800Y-82556304D01*
X132063725Y-82514661D01*
X131828362Y-82479868D01*
X131689217Y-82449827D01*
X131643794Y-82422442D01*
X131689600Y-82395613D01*
X131824142Y-82367242D01*
X132044924Y-82335233D01*
X132123049Y-82325182D01*
X132510260Y-82297793D01*
X132972086Y-82301606D01*
X133486762Y-82335673D01*
X134032524Y-82399045D01*
X134125000Y-82412393D01*
X134387226Y-82451349D01*
X134654770Y-82491151D01*
X134883927Y-82525294D01*
X134958408Y-82536411D01*
X135193954Y-82565323D01*
X135346320Y-82562374D01*
X135431083Y-82519573D01*
X135463820Y-82428930D01*
X135460107Y-82282455D01*
X135459797Y-82279206D01*
X135419631Y-82105129D01*
X135328405Y-81857699D01*
X135191491Y-81548055D01*
X135014258Y-81187332D01*
X134802078Y-80786666D01*
X134560323Y-80357193D01*
X134407500Y-80097332D01*
X134269682Y-79862819D01*
X134154823Y-79660034D01*
X134071260Y-79504296D01*
X134027327Y-79410926D01*
X134023381Y-79391285D01*
X134083060Y-79397295D01*
X134190165Y-79463307D01*
X134325293Y-79572791D01*
X134469042Y-79709220D01*
X134602013Y-79856066D01*
X134666030Y-79938768D01*
X134759423Y-80077721D01*
X134889874Y-80283680D01*
X135044250Y-80535314D01*
X135209418Y-80811291D01*
X135330129Y-81017372D01*
X135604126Y-81479097D01*
X135844543Y-81857856D01*
X136059939Y-82163132D01*
X136258873Y-82404408D01*
X136449904Y-82591169D01*
X136641591Y-82732896D01*
X136842493Y-82839074D01*
X137040903Y-82912910D01*
X137172664Y-82959573D01*
X137379208Y-83039133D01*
X137642061Y-83144175D01*
X137942746Y-83267285D01*
X138262790Y-83401044D01*
X138366800Y-83445109D01*
X139002243Y-83710500D01*
X139594722Y-83948469D01*
X140137343Y-84156613D01*
X140623216Y-84332526D01*
X141045448Y-84473805D01*
X141397148Y-84578045D01*
X141671425Y-84642843D01*
X141861385Y-84665793D01*
X141865850Y-84665810D01*
X142105557Y-84618257D01*
X142308414Y-84478914D01*
X142470928Y-84251959D01*
X142589605Y-83941570D01*
X142632889Y-83748280D01*
X142658256Y-83573580D01*
X142686449Y-83325401D01*
X142715082Y-83031730D01*
X142741772Y-82720553D01*
X142764134Y-82419859D01*
X142779783Y-82157633D01*
X142786336Y-81961864D01*
X142786400Y-81946411D01*
X142780775Y-81857097D01*
X142758812Y-81767287D01*
X142712880Y-81665161D01*
X142635347Y-81538900D01*
X142518582Y-81376684D01*
X142354952Y-81166692D01*
X142136827Y-80897106D01*
X142005437Y-80736873D01*
X141719390Y-80357673D01*
X141501897Y-80001837D01*
X141360050Y-79681713D01*
X141321213Y-79545692D01*
X141298445Y-79396633D01*
X141316064Y-79339433D01*
X141371827Y-79375467D01*
X141441981Y-79471700D01*
X141622284Y-79738092D01*
X141822177Y-80009026D01*
X142031325Y-80272991D01*
X142239394Y-80518475D01*
X142436049Y-80733969D01*
X142610955Y-80907960D01*
X142753777Y-81028938D01*
X142854181Y-81085391D01*
X142889323Y-81083782D01*
X142919626Y-81028082D01*
X142969881Y-80897970D01*
X143031503Y-80716545D01*
X143063351Y-80615569D01*
X143155474Y-80345702D01*
X143271097Y-80047709D01*
X143386892Y-79781337D01*
X143399196Y-79755368D01*
X143504676Y-79556518D01*
X143623294Y-79366158D01*
X143742855Y-79199760D01*
X143851162Y-79072795D01*
X143936019Y-79000734D01*
X143985231Y-78999049D01*
X143989189Y-79006913D01*
X143980448Y-79074002D01*
X143942028Y-79215506D01*
X143880090Y-79410768D01*
X143800794Y-79639136D01*
X143799791Y-79641913D01*
X143597141Y-80219231D01*
X143435936Y-80717854D01*
X143313312Y-81150518D01*
X143226403Y-81529955D01*
X143172345Y-81868901D01*
X143148272Y-82180089D01*
X143151320Y-82476254D01*
X143153561Y-82514343D01*
X143177701Y-82747200D01*
X143218814Y-82901627D01*
X143282228Y-82976207D01*
X143373273Y-82969525D01*
X143497277Y-82880165D01*
X143659569Y-82706710D01*
X143865479Y-82447745D01*
X143979800Y-82294785D01*
X144151107Y-82067370D01*
X144315539Y-81857884D01*
X144457301Y-81685858D01*
X144560598Y-81570820D01*
X144582400Y-81549730D01*
X144708086Y-81445489D01*
X144855619Y-81336269D01*
X144997962Y-81240513D01*
X145108073Y-81176664D01*
X145152608Y-81160800D01*
X145160335Y-81182670D01*
X145128034Y-81251869D01*
X145052006Y-81373774D01*
X144928551Y-81553766D01*
X144753970Y-81797223D01*
X144524564Y-82109525D01*
X144236634Y-82496052D01*
X144208908Y-82533082D01*
X143795171Y-83092134D01*
X143447100Y-83577106D01*
X143163295Y-83990240D01*
X142942360Y-84333781D01*
X142782898Y-84609971D01*
X142683512Y-84821054D01*
X142642804Y-84969274D01*
X142648872Y-85037883D01*
X142705396Y-85095017D01*
X142829512Y-85179411D01*
X142996935Y-85274951D01*
X143039477Y-85297044D01*
X143208573Y-85385722D01*
X143384794Y-85483895D01*
X143578792Y-85598281D01*
X143801220Y-85735597D01*
X144062730Y-85902560D01*
X144373975Y-86105890D01*
X144745607Y-86352302D01*
X145188280Y-86648515D01*
X145276228Y-86707574D01*
X145726450Y-87006628D01*
X146104391Y-87249603D01*
X146418992Y-87441456D01*
X146679193Y-87587144D01*
X146893937Y-87691625D01*
X147072164Y-87759855D01*
X147222816Y-87796793D01*
X147247441Y-87800467D01*
X147371257Y-87804385D01*
X147502370Y-87777768D01*
X147655531Y-87713388D01*
X147845489Y-87604020D01*
X148086993Y-87442438D01*
X148324140Y-87272962D01*
X148546579Y-87111373D01*
X148782855Y-86939941D01*
X148991680Y-86788618D01*
X149046701Y-86748800D01*
X149267647Y-86569753D01*
X149395190Y-86417041D01*
X149432171Y-86284437D01*
X149381430Y-86165718D01*
X149334349Y-86118246D01*
X149240630Y-86063214D01*
X149070609Y-85987342D01*
X148845260Y-85899111D01*
X148585559Y-85807002D01*
X148470758Y-85769030D01*
X148019290Y-85611434D01*
X147666813Y-85462475D01*
X147411187Y-85321058D01*
X147250269Y-85186088D01*
X147205496Y-85122258D01*
X147166869Y-85033747D01*
X147163784Y-84998141D01*
X147214786Y-85009715D01*
X147339857Y-85052473D01*
X147518974Y-85119265D01*
X147688600Y-85185546D01*
X148043585Y-85317779D01*
X148387267Y-85429144D01*
X148698602Y-85513816D01*
X148956549Y-85565974D01*
X149115497Y-85580400D01*
X149246728Y-85569710D01*
X149335487Y-85527385D01*
X149388483Y-85438036D01*
X149412427Y-85286278D01*
X149414029Y-85056725D01*
X149408568Y-84908405D01*
X149392383Y-84579960D01*
X149370315Y-84335209D01*
X149331995Y-84156343D01*
X149267053Y-84025554D01*
X149165119Y-83925035D01*
X149015823Y-83836977D01*
X148808796Y-83743573D01*
X148704600Y-83699505D01*
X148311676Y-83518937D01*
X147986928Y-83338537D01*
X147740545Y-83164692D01*
X147582718Y-83003788D01*
X147573467Y-82990549D01*
X147503548Y-82864609D01*
X147507352Y-82806508D01*
X147582438Y-82816844D01*
X147726362Y-82896217D01*
X147788742Y-82937797D01*
X147952347Y-83039849D01*
X148164522Y-83158194D01*
X148380872Y-83268132D01*
X148392272Y-83273569D01*
X148705360Y-83409359D01*
X148945798Y-83480837D01*
X149121426Y-83485692D01*
X149240084Y-83421615D01*
X149309610Y-83286295D01*
X149337843Y-83077422D01*
X149339437Y-82994426D01*
X149316874Y-82568792D01*
X149246110Y-82139192D01*
X149121911Y-81683773D01*
X148939041Y-81180684D01*
X148857543Y-80983000D01*
X148697217Y-80597626D01*
X148574861Y-80285098D01*
X148484744Y-80026538D01*
X148421139Y-79803071D01*
X148378316Y-79595819D01*
X148350547Y-79385904D01*
X148341086Y-79281200D01*
X148329939Y-79085792D01*
X148336069Y-78979861D01*
X148361239Y-78965117D01*
X148407213Y-79043268D01*
X148475753Y-79216026D01*
X148568623Y-79485098D01*
X148576813Y-79509800D01*
X148728827Y-79940900D01*
X148887823Y-80340443D01*
X149048375Y-80698190D01*
X149205053Y-81003902D01*
X149352429Y-81247341D01*
X149485077Y-81418268D01*
X149597567Y-81506444D01*
X149640624Y-81516400D01*
X149707886Y-81495299D01*
X149793043Y-81426015D01*
X149903612Y-81299572D01*
X150047109Y-81106995D01*
X150231051Y-80839310D01*
X150321334Y-80703600D01*
X150454487Y-80496723D01*
X150543095Y-80336435D01*
X150601174Y-80186300D01*
X150642740Y-80009883D01*
X150681810Y-79770746D01*
X150682853Y-79763800D01*
X150740602Y-79423679D01*
X150803363Y-79132140D01*
X150867383Y-78902974D01*
X150928914Y-78749972D01*
X150974537Y-78691228D01*
X151005706Y-78700181D01*
X151011873Y-78788565D01*
X150998719Y-78930346D01*
X150964215Y-79243549D01*
X150939773Y-79525219D01*
X150926126Y-79760117D01*
X150924013Y-79933006D01*
X150934167Y-80028646D01*
X150945005Y-80042807D01*
X150998183Y-80010601D01*
X151110628Y-79922919D01*
X151266485Y-79792687D01*
X151449899Y-79632833D01*
X151473012Y-79612270D01*
X151681265Y-79434235D01*
X151889057Y-79269925D01*
X152082203Y-79128991D01*
X152246522Y-79021087D01*
X152367828Y-78955866D01*
X152431939Y-78942981D01*
X152438400Y-78955250D01*
X152404384Y-79000393D01*
X152309069Y-79107046D01*
X152162548Y-79264433D01*
X151974917Y-79461778D01*
X151756270Y-79688305D01*
X151638300Y-79809320D01*
X151249610Y-80213375D01*
X150929205Y-80563428D01*
X150668580Y-80872008D01*
X150459229Y-81151644D01*
X150292651Y-81414865D01*
X150160339Y-81674198D01*
X150053791Y-81942171D01*
X149964501Y-82231315D01*
X149945075Y-82303800D01*
X149893318Y-82562650D01*
X149853555Y-82886309D01*
X149825503Y-83258819D01*
X149808876Y-83664221D01*
X149803389Y-84086558D01*
X149808759Y-84509873D01*
X149824699Y-84918208D01*
X149850926Y-85295606D01*
X149887154Y-85626109D01*
X149933099Y-85893759D01*
X149988476Y-86082599D01*
X150013392Y-86132803D01*
X150156450Y-86296814D01*
X150376560Y-86463640D01*
X150650140Y-86622135D01*
X150953604Y-86761150D01*
X151263371Y-86869538D01*
X151555856Y-86936153D01*
X151746513Y-86952000D01*
X151887606Y-86937029D01*
X152032657Y-86886952D01*
X152191808Y-86794015D01*
X152375201Y-86650470D01*
X152592979Y-86448565D01*
X152855283Y-86180548D01*
X153100128Y-85917549D01*
X153393561Y-85600991D01*
X153633349Y-85350767D01*
X153831502Y-85155674D01*
X154000027Y-85004506D01*
X154150934Y-84886062D01*
X154296232Y-84789136D01*
X154333917Y-84766463D01*
X154480824Y-84690635D01*
X154628709Y-84631139D01*
X154750561Y-84596728D01*
X154819372Y-84596155D01*
X154826000Y-84606999D01*
X154791805Y-84653627D01*
X154697873Y-84757449D01*
X154557180Y-84904700D01*
X154382703Y-85081615D01*
X154314487Y-85149553D01*
X153910023Y-85561655D01*
X153541598Y-85959222D01*
X153216905Y-86332904D01*
X152943636Y-86673352D01*
X152729484Y-86971217D01*
X152582142Y-87217148D01*
X152541120Y-87304895D01*
X152499962Y-87433040D01*
X152511759Y-87527300D01*
X152544263Y-87589325D01*
X152656145Y-87746728D01*
X152828487Y-87955977D01*
X153046262Y-88200919D01*
X153294445Y-88465399D01*
X153558009Y-88733261D01*
X153821927Y-88988350D01*
X153984938Y-89138213D01*
X154302596Y-89419215D01*
X154562547Y-89636622D01*
X154779233Y-89798369D01*
X154967095Y-89912397D01*
X155140574Y-89986643D01*
X155314112Y-90029045D01*
X155502149Y-90047543D01*
X155644566Y-90050516D01*
X155859633Y-90043183D01*
X156081737Y-90018437D01*
X156323068Y-89972797D01*
X156595817Y-89902784D01*
X156912173Y-89804918D01*
X157284326Y-89675721D01*
X157724467Y-89511711D01*
X158244785Y-89309411D01*
X158255000Y-89305381D01*
X158945541Y-89037678D01*
X159557207Y-88811386D01*
X160102208Y-88622907D01*
X160592757Y-88468646D01*
X161041064Y-88345007D01*
X161459342Y-88248394D01*
X161859802Y-88175209D01*
X162254655Y-88121857D01*
X162285373Y-88118446D01*
X162645075Y-88087463D01*
X162985803Y-88078105D01*
X163317678Y-88093516D01*
X163650824Y-88136835D01*
X163995364Y-88211204D01*
X164361420Y-88319763D01*
X164759115Y-88465653D01*
X165198572Y-88652015D01*
X165689913Y-88881990D01*
X166243260Y-89158718D01*
X166868738Y-89485342D01*
X167116976Y-89617596D01*
X168078527Y-90105395D01*
X168995544Y-90512791D01*
X169877736Y-90840138D01*
X170734812Y-91087791D01*
X171576480Y-91256104D01*
X172412450Y-91345431D01*
X173252430Y-91356126D01*
X174106130Y-91288544D01*
X174983257Y-91143039D01*
X175893521Y-90919965D01*
X176846630Y-90619677D01*
X177852294Y-90242529D01*
X178370782Y-90028253D01*
X178799942Y-89845310D01*
X179141281Y-89694558D01*
X179400316Y-89568061D01*
X179582567Y-89457884D01*
X179693553Y-89356093D01*
X179738793Y-89254751D01*
X179723805Y-89145923D01*
X179654107Y-89021675D01*
X179535220Y-88874071D01*
X179372661Y-88695175D01*
X179329967Y-88649084D01*
X178721357Y-87981383D01*
X178183948Y-87368064D01*
X177710316Y-86799167D01*
X177293032Y-86264731D01*
X176924670Y-85754794D01*
X176597803Y-85259396D01*
X176305005Y-84768577D01*
X176038849Y-84272375D01*
X175981394Y-84158000D01*
X175741652Y-83634965D01*
X175561191Y-83142150D01*
X175426577Y-82638818D01*
X175349864Y-82243269D01*
X175292456Y-81956380D01*
X175219215Y-81666659D01*
X175141129Y-81415397D01*
X175102792Y-81314918D01*
X174989715Y-81077665D01*
X174841524Y-80813495D01*
X174668574Y-80536393D01*
X174481218Y-80260343D01*
X174289808Y-79999330D01*
X174104698Y-79767338D01*
X173936242Y-79578351D01*
X173794792Y-79446354D01*
X173690702Y-79385330D01*
X173672365Y-79382800D01*
X173544438Y-79338425D01*
X173448124Y-79230700D01*
X173418800Y-79122862D01*
X173453127Y-79020980D01*
X173537025Y-78904815D01*
X173549532Y-78891849D01*
X173663064Y-78802455D01*
X173782712Y-78781468D01*
X173862921Y-78790758D01*
X174023966Y-78838752D01*
X174103870Y-78930269D01*
X174120876Y-79087730D01*
X174119905Y-79106567D01*
X174129130Y-79187567D01*
X174170540Y-79294458D01*
X174251607Y-79440640D01*
X174379800Y-79639515D01*
X174562594Y-79904485D01*
X174573060Y-79919367D01*
X174903718Y-80406931D01*
X175164454Y-80831556D01*
X175359123Y-81200159D01*
X175491579Y-81519654D01*
X175526441Y-81629761D01*
X175578288Y-81790172D01*
X175627101Y-81907296D01*
X175655523Y-81949141D01*
X175700819Y-81923406D01*
X175771075Y-81827716D01*
X175832329Y-81718554D01*
X175927868Y-81539829D01*
X176050696Y-81323118D01*
X176170268Y-81121890D01*
X176274618Y-80945976D01*
X176333708Y-80819979D01*
X176357204Y-80708340D01*
X176354772Y-80575501D01*
X176345535Y-80477115D01*
X176317204Y-80283641D01*
X176268754Y-80035166D01*
X176206416Y-79756709D01*
X176136423Y-79473289D01*
X176065008Y-79209922D01*
X175998403Y-78991628D01*
X175942842Y-78843425D01*
X175933970Y-78825102D01*
X175830149Y-78691040D01*
X175703940Y-78594955D01*
X175592221Y-78496484D01*
X175560496Y-78374881D01*
X175596249Y-78249021D01*
X175686966Y-78137779D01*
X175820131Y-78060030D01*
X175983228Y-78034651D01*
X176067648Y-78046415D01*
G36*
X150171508Y-88649886D02*
X150541047Y-88753036D01*
X150854329Y-88933509D01*
X151102359Y-89181083D01*
X151276145Y-89485534D01*
X151366692Y-89836639D01*
X151377950Y-90021236D01*
X151352808Y-90330725D01*
X151267566Y-90587812D01*
X151107496Y-90830801D01*
X151033636Y-90916761D01*
X150767688Y-91142461D01*
X150453881Y-91295498D01*
X150115810Y-91368954D01*
X149777074Y-91355911D01*
X149644071Y-91324135D01*
X149320633Y-91176773D01*
X149054816Y-90958378D01*
X148853483Y-90685127D01*
X148723498Y-90373198D01*
X148671725Y-90038769D01*
X148705029Y-89698019D01*
X148821071Y-89384429D01*
X149009432Y-89118449D01*
X149261112Y-88899386D01*
X149553075Y-88739771D01*
X149862283Y-88652135D01*
X150165701Y-88649007D01*
X150171508Y-88649886D01*
X150171508Y-88649886D01*
G37*
X150171508Y-88649886D02*
X150541047Y-88753036D01*
X150854329Y-88933509D01*
X151102359Y-89181083D01*
X151276145Y-89485534D01*
X151366692Y-89836639D01*
X151377950Y-90021236D01*
X151352808Y-90330725D01*
X151267566Y-90587812D01*
X151107496Y-90830801D01*
X151033636Y-90916761D01*
X150767688Y-91142461D01*
X150453881Y-91295498D01*
X150115810Y-91368954D01*
X149777074Y-91355911D01*
X149644071Y-91324135D01*
X149320633Y-91176773D01*
X149054816Y-90958378D01*
X148853483Y-90685127D01*
X148723498Y-90373198D01*
X148671725Y-90038769D01*
X148705029Y-89698019D01*
X148821071Y-89384429D01*
X149009432Y-89118449D01*
X149261112Y-88899386D01*
X149553075Y-88739771D01*
X149862283Y-88652135D01*
X150165701Y-88649007D01*
X150171508Y-88649886D01*
D15*
X150000000Y-90000000D03*
D16*
X154683607Y-81371010D03*
X176200000Y-99100000D03*
X161509990Y-98100000D03*
X145791481Y-92708519D03*
X147400000Y-80800000D03*
X173500000Y-80300000D03*
X177799998Y-80350000D03*
X184900000Y-86600000D03*
X186650000Y-89600000D03*
X182400000Y-82350000D03*
X139400000Y-98100000D03*
X151789998Y-100000000D03*
X166650000Y-78850000D03*
X133400000Y-80850000D03*
X144600000Y-97000000D03*
X186200000Y-94485002D03*
X179700000Y-83400000D03*
X151200000Y-96600000D03*
X155800000Y-86600000D03*
X159000000Y-88400000D03*
X156300000Y-91400000D03*
X172582799Y-86382799D03*
X164800000Y-83200000D03*
X174200000Y-93900000D03*
X164636666Y-91871067D03*
X154150000Y-87100000D03*
X156400000Y-89350000D03*
X159000000Y-87500000D03*
X155800000Y-87500000D03*
X164600000Y-91000000D03*
X168500000Y-93900000D03*
X164985743Y-90214257D03*
X169000000Y-91600000D03*
X179400000Y-98100000D03*
X171300000Y-92500000D03*
X182300000Y-100700000D03*
X184500000Y-94600000D03*
X182300000Y-96800000D03*
X164484480Y-92990300D03*
X175100000Y-84000000D03*
X169900000Y-89400000D03*
X174100000Y-87800000D03*
X170500000Y-90100000D03*
D17*
X164128990Y-81371010D02*
X155107871Y-81371010D01*
X166650000Y-78850000D02*
X164128990Y-81371010D01*
X155107871Y-81371010D02*
X154683607Y-81371010D01*
X182235003Y-98464997D02*
X181600000Y-99100000D01*
X181600000Y-99100000D02*
X181414998Y-99100000D01*
X182235003Y-98449999D02*
X182235003Y-98464997D01*
X176200000Y-99100000D02*
X181414998Y-99100000D01*
X161209991Y-98399999D02*
X161509990Y-98100000D01*
X159609990Y-100000000D02*
X161209991Y-98399999D01*
X151789998Y-100000000D02*
X159609990Y-100000000D01*
X145491482Y-93008518D02*
X145791481Y-92708519D01*
X144600000Y-93900000D02*
X145491482Y-93008518D01*
X144600000Y-97000000D02*
X144600000Y-93900000D01*
X147400000Y-80800000D02*
X145000000Y-78400000D01*
X145000000Y-78400000D02*
X134100000Y-78400000D01*
X134100000Y-78400000D02*
X133400000Y-79100000D01*
X133400000Y-79100000D02*
X133400000Y-80850000D01*
X166650000Y-78850000D02*
X172050000Y-78850000D01*
X172050000Y-78850000D02*
X173500000Y-80300000D01*
X186200000Y-94485002D02*
X182235003Y-98449999D01*
X182100001Y-82050001D02*
X180400000Y-80350000D01*
X180400000Y-80350000D02*
X177799998Y-80350000D01*
X182400000Y-82350000D02*
X182100001Y-82050001D01*
X186650000Y-89600000D02*
X186650000Y-88350000D01*
X186650000Y-88350000D02*
X184900000Y-86600000D01*
X144600000Y-97000000D02*
X140500000Y-97000000D01*
X140500000Y-97000000D02*
X139400000Y-98100000D01*
D18*
X155400000Y-90700000D02*
X155000000Y-90700000D01*
X155000000Y-90700000D02*
X152000000Y-87700000D01*
X155500001Y-86300001D02*
X155800000Y-86600000D01*
X152000000Y-87700000D02*
X152000000Y-87300000D01*
X152000000Y-87300000D02*
X152999999Y-86300001D01*
X152999999Y-86300001D02*
X155500001Y-86300001D01*
X157600000Y-90100000D02*
X158200001Y-89499999D01*
X158200001Y-89499999D02*
X158700001Y-89499999D01*
X156800000Y-90100000D02*
X157600000Y-90100000D01*
X156200000Y-90700000D02*
X156800000Y-90100000D01*
X155600000Y-90700000D02*
X156200000Y-90700000D01*
X155600000Y-90700000D02*
X155400000Y-90700000D01*
X155400000Y-90700000D02*
X155300000Y-90700000D01*
X150300000Y-93900000D02*
X153500000Y-90700000D01*
X153500000Y-90700000D02*
X155400000Y-90700000D01*
X150300000Y-94100000D02*
X150300000Y-93900000D01*
D17*
X179700000Y-88700000D02*
X179900000Y-88900000D01*
X179700000Y-83400000D02*
X179700000Y-88700000D01*
X150300000Y-95700000D02*
X150300000Y-94100000D01*
X151200000Y-96600000D02*
X150300000Y-95700000D01*
D18*
X159000000Y-88400000D02*
X158700001Y-88699999D01*
X158700001Y-88699999D02*
X158700001Y-89499999D01*
X156300000Y-91400000D02*
X155600000Y-90700000D01*
X172158535Y-86382799D02*
X172582799Y-86382799D01*
X169017201Y-86382799D02*
X172158535Y-86382799D01*
X169000000Y-86400000D02*
X169017201Y-86382799D01*
X168800000Y-86400000D02*
X169000000Y-86400000D01*
X164800000Y-83200000D02*
X168000000Y-86400000D01*
X168000000Y-86400000D02*
X169000000Y-86400000D01*
X169000000Y-94500000D02*
X169600000Y-93900000D01*
X169600000Y-93900000D02*
X174200000Y-93900000D01*
X168100000Y-94500000D02*
X169000000Y-94500000D01*
X165471067Y-91871067D02*
X168100000Y-94500000D01*
X164636666Y-91871067D02*
X165471067Y-91871067D01*
X155650000Y-88600000D02*
X156400000Y-89350000D01*
X155650000Y-88600000D02*
X154150000Y-87100000D01*
X155800000Y-87500000D02*
X159000000Y-87500000D01*
X165024264Y-91000000D02*
X164600000Y-91000000D01*
X165151558Y-91000000D02*
X165024264Y-91000000D01*
X168051558Y-93900000D02*
X165151558Y-91000000D01*
X168500000Y-93900000D02*
X168051558Y-93900000D01*
X165285742Y-90514256D02*
X164985743Y-90214257D01*
X166371486Y-91600000D02*
X165285742Y-90514256D01*
X169000000Y-91600000D02*
X166371486Y-91600000D01*
X178300000Y-93000000D02*
X179400000Y-94100000D01*
X179400000Y-94100000D02*
X179400000Y-98100000D01*
X171800000Y-93000000D02*
X178300000Y-93000000D01*
X171300000Y-92500000D02*
X171800000Y-93000000D01*
X182300000Y-100700000D02*
X182240002Y-100759998D01*
X182240002Y-100759998D02*
X177840002Y-100759998D01*
X177840002Y-100759998D02*
X176600000Y-102000000D01*
X176600000Y-102000000D02*
X161900000Y-102000000D01*
X161900000Y-102000000D02*
X161000000Y-101100000D01*
X182300000Y-96800000D02*
X184500000Y-94600000D01*
X162200000Y-98500000D02*
X162200000Y-97400000D01*
X161000000Y-99700000D02*
X162200000Y-98500000D01*
X161000000Y-101100000D02*
X161000000Y-99700000D01*
X162200000Y-97400000D02*
X162600000Y-97000000D01*
X164184480Y-97000000D02*
X164484480Y-96700000D01*
X162600000Y-97000000D02*
X164184480Y-97000000D01*
X164484480Y-96700000D02*
X164484480Y-92990300D01*
X175100000Y-84700000D02*
X175100000Y-84000000D01*
X174600000Y-85200000D02*
X175100000Y-84700000D01*
X172000000Y-87800000D02*
X174600000Y-85200000D01*
X170400000Y-89400000D02*
X172000000Y-87800000D01*
X169900000Y-89400000D02*
X170400000Y-89400000D01*
X172600000Y-88000000D02*
X172800000Y-87800000D01*
X172800000Y-87800000D02*
X174100000Y-87800000D01*
X172200000Y-88400000D02*
X172600000Y-88000000D01*
X170500000Y-90100000D02*
X172200000Y-88400000D01*
M02*
