G04 #@! TF.FileFunction,Paste,Bot*
%FSLAX46Y46*%
G04 Gerber Fmt 4.6, Leading zero omitted, Abs format (unit mm)*
G04 Created by KiCad (PCBNEW 4.0.7-e2-6376~58~ubuntu14.04.1) date Wed May 23 14:48:08 2018*
%MOMM*%
%LPD*%
G01*
G04 APERTURE LIST*
%ADD10C,0.100000*%
%ADD11R,1.200000X0.600000*%
%ADD12R,0.800000X0.500000*%
%ADD13R,1.200000X1.000000*%
%ADD14R,0.500000X0.800000*%
%ADD15R,1.800000X1.250000*%
%ADD16R,1.700000X0.600000*%
%ADD17R,2.700000X1.000000*%
%ADD18R,1.600000X0.800000*%
%ADD19R,1.000000X1.200000*%
G04 APERTURE END LIST*
D10*
D11*
X155380000Y-92500000D03*
X157680000Y-91550000D03*
X157680000Y-93450000D03*
D12*
X156530000Y-95000000D03*
X157730000Y-95000000D03*
D10*
G36*
X175786106Y-92032091D02*
X176022701Y-93715547D01*
X175428540Y-93799051D01*
X175191945Y-92115595D01*
X175786106Y-92032091D01*
X175786106Y-92032091D01*
G37*
G36*
X174548271Y-92206057D02*
X174784866Y-93889513D01*
X174190705Y-93973017D01*
X173954110Y-92289561D01*
X174548271Y-92206057D01*
X174548271Y-92206057D01*
G37*
G36*
X177023941Y-91858125D02*
X177260536Y-93541581D01*
X176666375Y-93625085D01*
X176429780Y-91941629D01*
X177023941Y-91858125D01*
X177023941Y-91858125D01*
G37*
G36*
X178261776Y-91684158D02*
X178498371Y-93367614D01*
X177904210Y-93451118D01*
X177667615Y-91767662D01*
X178261776Y-91684158D01*
X178261776Y-91684158D01*
G37*
G36*
X171882845Y-95155720D02*
X172258613Y-97829443D01*
X171268345Y-97968616D01*
X170892577Y-95294893D01*
X171882845Y-95155720D01*
X171882845Y-95155720D01*
G37*
G36*
X180795257Y-93903162D02*
X181171025Y-96576885D01*
X180180757Y-96716058D01*
X179804989Y-94042335D01*
X180795257Y-93903162D01*
X180795257Y-93903162D01*
G37*
G36*
X172716275Y-92463528D02*
X173310436Y-92380024D01*
X173547031Y-94063480D01*
X172952870Y-94146984D01*
X172716275Y-92463528D01*
X172716275Y-92463528D01*
G37*
G36*
X167946353Y-92958215D02*
X168582749Y-92321819D01*
X168794881Y-92533951D01*
X168158485Y-93170347D01*
X167946353Y-92958215D01*
X167946353Y-92958215D01*
G37*
G36*
X167592800Y-92604662D02*
X168441328Y-91756134D01*
X168653460Y-91968266D01*
X167804932Y-92816794D01*
X167592800Y-92604662D01*
X167592800Y-92604662D01*
G37*
G36*
X167239246Y-92251108D02*
X168087774Y-91402580D01*
X168299906Y-91614712D01*
X167451378Y-92463240D01*
X167239246Y-92251108D01*
X167239246Y-92251108D01*
G37*
G36*
X166885693Y-91897555D02*
X167734221Y-91049027D01*
X167946353Y-91261159D01*
X167097825Y-92109687D01*
X166885693Y-91897555D01*
X166885693Y-91897555D01*
G37*
G36*
X166532139Y-91544002D02*
X167380667Y-90695474D01*
X167592799Y-90907606D01*
X166744271Y-91756134D01*
X166532139Y-91544002D01*
X166532139Y-91544002D01*
G37*
G36*
X166178586Y-91190448D02*
X167027114Y-90341920D01*
X167239246Y-90554052D01*
X166390718Y-91402580D01*
X166178586Y-91190448D01*
X166178586Y-91190448D01*
G37*
G36*
X165825033Y-90836895D02*
X166461429Y-90200499D01*
X166673561Y-90412631D01*
X166037165Y-91049027D01*
X165825033Y-90836895D01*
X165825033Y-90836895D01*
G37*
G36*
X166037165Y-88927707D02*
X166673561Y-89564103D01*
X166461429Y-89776235D01*
X165825033Y-89139839D01*
X166037165Y-88927707D01*
X166037165Y-88927707D01*
G37*
G36*
X166390718Y-88574153D02*
X167239246Y-89422681D01*
X167027114Y-89634813D01*
X166178586Y-88786285D01*
X166390718Y-88574153D01*
X166390718Y-88574153D01*
G37*
G36*
X166744271Y-88220600D02*
X167592799Y-89069128D01*
X167380667Y-89281260D01*
X166532139Y-88432732D01*
X166744271Y-88220600D01*
X166744271Y-88220600D01*
G37*
G36*
X167097825Y-87867046D02*
X167946353Y-88715574D01*
X167734221Y-88927706D01*
X166885693Y-88079178D01*
X167097825Y-87867046D01*
X167097825Y-87867046D01*
G37*
G36*
X167451378Y-87513493D02*
X168299906Y-88362021D01*
X168087774Y-88574153D01*
X167239246Y-87725625D01*
X167451378Y-87513493D01*
X167451378Y-87513493D01*
G37*
G36*
X167804932Y-87159940D02*
X168653460Y-88008468D01*
X168441328Y-88220600D01*
X167592800Y-87372072D01*
X167804932Y-87159940D01*
X167804932Y-87159940D01*
G37*
G36*
X168158485Y-86806386D02*
X168794881Y-87442782D01*
X168582749Y-87654914D01*
X167946353Y-87018518D01*
X168158485Y-86806386D01*
X168158485Y-86806386D01*
G37*
G36*
X169219145Y-87442782D02*
X169855541Y-86806386D01*
X170067673Y-87018518D01*
X169431277Y-87654914D01*
X169219145Y-87442782D01*
X169219145Y-87442782D01*
G37*
G36*
X169360567Y-88008468D02*
X170209095Y-87159940D01*
X170421227Y-87372072D01*
X169572699Y-88220600D01*
X169360567Y-88008468D01*
X169360567Y-88008468D01*
G37*
G36*
X169714120Y-88362021D02*
X170562648Y-87513493D01*
X170774780Y-87725625D01*
X169926252Y-88574153D01*
X169714120Y-88362021D01*
X169714120Y-88362021D01*
G37*
G36*
X170067673Y-88715574D02*
X170916201Y-87867046D01*
X171128333Y-88079178D01*
X170279805Y-88927706D01*
X170067673Y-88715574D01*
X170067673Y-88715574D01*
G37*
G36*
X170421227Y-89069128D02*
X171269755Y-88220600D01*
X171481887Y-88432732D01*
X170633359Y-89281260D01*
X170421227Y-89069128D01*
X170421227Y-89069128D01*
G37*
G36*
X170774780Y-89422681D02*
X171623308Y-88574153D01*
X171835440Y-88786285D01*
X170986912Y-89634813D01*
X170774780Y-89422681D01*
X170774780Y-89422681D01*
G37*
G36*
X171340466Y-89564103D02*
X171976862Y-88927707D01*
X172188994Y-89139839D01*
X171552598Y-89776235D01*
X171340466Y-89564103D01*
X171340466Y-89564103D01*
G37*
G36*
X171552598Y-90200499D02*
X172188994Y-90836895D01*
X171976862Y-91049027D01*
X171340466Y-90412631D01*
X171552598Y-90200499D01*
X171552598Y-90200499D01*
G37*
G36*
X170986912Y-90341920D02*
X171835440Y-91190448D01*
X171623308Y-91402580D01*
X170774780Y-90554052D01*
X170986912Y-90341920D01*
X170986912Y-90341920D01*
G37*
G36*
X170633359Y-90695474D02*
X171481887Y-91544002D01*
X171269755Y-91756134D01*
X170421227Y-90907606D01*
X170633359Y-90695474D01*
X170633359Y-90695474D01*
G37*
G36*
X170279805Y-91049027D02*
X171128333Y-91897555D01*
X170916201Y-92109687D01*
X170067673Y-91261159D01*
X170279805Y-91049027D01*
X170279805Y-91049027D01*
G37*
G36*
X169926252Y-91402580D02*
X170774780Y-92251108D01*
X170562648Y-92463240D01*
X169714120Y-91614712D01*
X169926252Y-91402580D01*
X169926252Y-91402580D01*
G37*
G36*
X169572699Y-91756134D02*
X170421227Y-92604662D01*
X170209095Y-92816794D01*
X169360567Y-91968266D01*
X169572699Y-91756134D01*
X169572699Y-91756134D01*
G37*
G36*
X169431277Y-92321819D02*
X170067673Y-92958215D01*
X169855541Y-93170347D01*
X169219145Y-92533951D01*
X169431277Y-92321819D01*
X169431277Y-92321819D01*
G37*
G36*
X168264551Y-92640017D02*
X168830237Y-92074331D01*
X168830237Y-92498595D01*
X168688815Y-92640017D01*
X168264551Y-92640017D01*
X168264551Y-92640017D01*
G37*
G36*
X169183789Y-92074331D02*
X169749475Y-92640017D01*
X169325211Y-92640017D01*
X169183789Y-92498595D01*
X169183789Y-92074331D01*
X169183789Y-92074331D01*
G37*
G36*
X168830237Y-87902402D02*
X168264551Y-87336716D01*
X168688815Y-87336716D01*
X168830237Y-87478138D01*
X168830237Y-87902402D01*
X168830237Y-87902402D01*
G37*
G36*
X169749475Y-87336716D02*
X169183789Y-87902402D01*
X169183789Y-87478138D01*
X169325211Y-87336716D01*
X169749475Y-87336716D01*
X169749475Y-87336716D01*
G37*
G36*
X166921048Y-90165143D02*
X166355362Y-90730829D01*
X166355362Y-90306565D01*
X166496784Y-90165143D01*
X166921048Y-90165143D01*
X166921048Y-90165143D01*
G37*
G36*
X166355362Y-89245904D02*
X166921048Y-89811590D01*
X166496784Y-89811590D01*
X166355362Y-89670168D01*
X166355362Y-89245904D01*
X166355362Y-89245904D01*
G37*
G36*
X171092978Y-89811590D02*
X171658664Y-89245904D01*
X171658664Y-89670168D01*
X171517242Y-89811590D01*
X171092978Y-89811590D01*
X171092978Y-89811590D01*
G37*
G36*
X171658664Y-90730829D02*
X171092978Y-90165143D01*
X171517242Y-90165143D01*
X171658664Y-90306565D01*
X171658664Y-90730829D01*
X171658664Y-90730829D01*
G37*
G36*
X165930130Y-95445486D02*
X166221206Y-96814892D01*
X165243058Y-97022804D01*
X164951982Y-95653398D01*
X165930130Y-95445486D01*
X165930130Y-95445486D01*
G37*
G36*
X161821910Y-96318715D02*
X162112986Y-97688121D01*
X161134838Y-97896033D01*
X160843762Y-96526627D01*
X161821910Y-96318715D01*
X161821910Y-96318715D01*
G37*
G36*
X168277203Y-97349101D02*
X168485114Y-98327248D01*
X166528819Y-98743071D01*
X166320908Y-97764924D01*
X168277203Y-97349101D01*
X168277203Y-97349101D01*
G37*
G36*
X161430169Y-98804483D02*
X161638080Y-99782630D01*
X159681785Y-100198453D01*
X159473874Y-99220306D01*
X161430169Y-98804483D01*
X161430169Y-98804483D01*
G37*
G36*
X149096656Y-96708615D02*
X149303834Y-98395943D01*
X148708306Y-98469065D01*
X148501128Y-96781737D01*
X149096656Y-96708615D01*
X149096656Y-96708615D01*
G37*
G36*
X147855973Y-96860952D02*
X148063151Y-98548280D01*
X147467623Y-98621402D01*
X147260445Y-96934074D01*
X147855973Y-96860952D01*
X147855973Y-96860952D01*
G37*
G36*
X150337338Y-96556278D02*
X150544516Y-98243606D01*
X149948988Y-98316728D01*
X149741810Y-96629400D01*
X150337338Y-96556278D01*
X150337338Y-96556278D01*
G37*
G36*
X151578021Y-96403942D02*
X151785199Y-98091270D01*
X151189671Y-98164392D01*
X150982493Y-96477064D01*
X151578021Y-96403942D01*
X151578021Y-96403942D01*
G37*
G36*
X146454597Y-99602169D02*
X146783645Y-102282044D01*
X145791099Y-102403913D01*
X145462051Y-99724038D01*
X146454597Y-99602169D01*
X146454597Y-99602169D01*
G37*
G36*
X153997948Y-98675962D02*
X154326996Y-101355837D01*
X153334450Y-101477706D01*
X153005402Y-98797831D01*
X153997948Y-98675962D01*
X153997948Y-98675962D01*
G37*
D13*
X169230000Y-80250000D03*
X169230000Y-82250000D03*
D10*
G36*
X172383883Y-87030330D02*
X172030330Y-87383883D01*
X171464645Y-86818198D01*
X171818198Y-86464645D01*
X172383883Y-87030330D01*
X172383883Y-87030330D01*
G37*
G36*
X171535355Y-86181802D02*
X171181802Y-86535355D01*
X170616117Y-85969670D01*
X170969670Y-85616117D01*
X171535355Y-86181802D01*
X171535355Y-86181802D01*
G37*
D13*
X163280000Y-80250000D03*
X163280000Y-82250000D03*
D10*
G36*
X178874525Y-92486740D02*
X178804938Y-91991606D01*
X179597153Y-91880268D01*
X179666740Y-92375402D01*
X178874525Y-92486740D01*
X178874525Y-92486740D01*
G37*
G36*
X180062847Y-92319732D02*
X179993260Y-91824598D01*
X180785475Y-91713260D01*
X180855062Y-92208394D01*
X180062847Y-92319732D01*
X180062847Y-92319732D01*
G37*
D12*
X154430000Y-89000000D03*
X155630000Y-89000000D03*
D14*
X145500000Y-90600000D03*
X145500000Y-89400000D03*
X164730000Y-93200000D03*
X164730000Y-92000000D03*
D11*
X167380000Y-81250000D03*
X167380000Y-80300000D03*
X167380000Y-82200000D03*
X165080000Y-82200000D03*
X165080000Y-80300000D03*
D15*
X161030000Y-81250000D03*
X158430000Y-81250000D03*
D12*
X154430000Y-90000000D03*
X155630000Y-90000000D03*
X159430000Y-92500000D03*
X160630000Y-92500000D03*
X162430000Y-90000000D03*
X163630000Y-90000000D03*
D11*
X158380000Y-90000000D03*
X160680000Y-89050000D03*
X160680000Y-90950000D03*
X152380000Y-95000000D03*
X154680000Y-94050000D03*
X154680000Y-95950000D03*
D10*
G36*
X138603313Y-94467068D02*
X137401231Y-95669150D01*
X136976967Y-95244886D01*
X138179049Y-94042804D01*
X138603313Y-94467068D01*
X138603313Y-94467068D01*
G37*
G36*
X137719429Y-93583184D02*
X136517347Y-94785266D01*
X136093083Y-94361002D01*
X137295165Y-93158920D01*
X137719429Y-93583184D01*
X137719429Y-93583184D01*
G37*
G36*
X139487196Y-95350951D02*
X138285114Y-96553033D01*
X137860850Y-96128769D01*
X139062932Y-94926687D01*
X139487196Y-95350951D01*
X139487196Y-95350951D01*
G37*
G36*
X140371080Y-96234835D02*
X139168998Y-97436917D01*
X138744734Y-97012653D01*
X139946816Y-95810571D01*
X140371080Y-96234835D01*
X140371080Y-96234835D01*
G37*
G36*
X134696548Y-94166547D02*
X132787359Y-96075736D01*
X132080252Y-95368629D01*
X133989441Y-93459440D01*
X134696548Y-94166547D01*
X134696548Y-94166547D01*
G37*
G36*
X140070560Y-99540559D02*
X138161371Y-101449748D01*
X137454264Y-100742641D01*
X139363453Y-98833452D01*
X140070560Y-99540559D01*
X140070560Y-99540559D01*
G37*
D16*
X135630000Y-81375000D03*
X135630000Y-80125000D03*
X135630000Y-82625000D03*
X135630000Y-83875000D03*
D17*
X132580000Y-78200000D03*
X132580000Y-85800000D03*
D10*
G36*
X149965808Y-84459789D02*
X150025137Y-82760825D01*
X150624772Y-82781765D01*
X150565443Y-84480729D01*
X149965808Y-84459789D01*
X149965808Y-84459789D01*
G37*
G36*
X151215047Y-84503413D02*
X151274376Y-82804449D01*
X151874011Y-82825389D01*
X151814682Y-84524353D01*
X151215047Y-84503413D01*
X151215047Y-84503413D01*
G37*
G36*
X148716570Y-84416164D02*
X148775899Y-82717200D01*
X149375534Y-82738140D01*
X149316205Y-84437104D01*
X148716570Y-84416164D01*
X148716570Y-84416164D01*
G37*
G36*
X147467331Y-84372540D02*
X147526660Y-82673576D01*
X148126295Y-82694516D01*
X148066966Y-84393480D01*
X147467331Y-84372540D01*
X147467331Y-84372540D01*
G37*
G36*
X153027989Y-82015168D02*
X153122218Y-79316813D01*
X154121609Y-79351712D01*
X154027380Y-82050067D01*
X153027989Y-82015168D01*
X153027989Y-82015168D01*
G37*
G36*
X145432619Y-81749932D02*
X145526848Y-79051577D01*
X146526239Y-79086476D01*
X146432010Y-81784831D01*
X145432619Y-81749932D01*
X145432619Y-81749932D01*
G37*
G36*
X175276010Y-83211971D02*
X175127845Y-81518440D01*
X175725562Y-81466147D01*
X175873727Y-83159678D01*
X175276010Y-83211971D01*
X175276010Y-83211971D01*
G37*
G36*
X176521254Y-83103026D02*
X176373089Y-81409495D01*
X176970806Y-81357202D01*
X177118971Y-83050733D01*
X176521254Y-83103026D01*
X176521254Y-83103026D01*
G37*
G36*
X174030767Y-83320915D02*
X173882602Y-81627384D01*
X174480319Y-81575091D01*
X174628484Y-83268622D01*
X174030767Y-83320915D01*
X174030767Y-83320915D01*
G37*
G36*
X172785524Y-83429860D02*
X172637359Y-81736329D01*
X173235076Y-81684036D01*
X173383241Y-83377567D01*
X172785524Y-83429860D01*
X172785524Y-83429860D01*
G37*
G36*
X178017443Y-80412386D02*
X177782122Y-77722660D01*
X178778317Y-77635504D01*
X179013638Y-80325230D01*
X178017443Y-80412386D01*
X178017443Y-80412386D01*
G37*
G36*
X170446363Y-81074770D02*
X170211042Y-78385044D01*
X171207237Y-78297888D01*
X171442558Y-80987614D01*
X170446363Y-81074770D01*
X170446363Y-81074770D01*
G37*
G36*
X181956687Y-85532932D02*
X183158769Y-84330850D01*
X183583033Y-84755114D01*
X182380951Y-85957196D01*
X181956687Y-85532932D01*
X181956687Y-85532932D01*
G37*
G36*
X182840571Y-86416816D02*
X184042653Y-85214734D01*
X184466917Y-85638998D01*
X183264835Y-86841080D01*
X182840571Y-86416816D01*
X182840571Y-86416816D01*
G37*
G36*
X181072804Y-84649049D02*
X182274886Y-83446967D01*
X182699150Y-83871231D01*
X181497068Y-85073313D01*
X181072804Y-84649049D01*
X181072804Y-84649049D01*
G37*
G36*
X180188920Y-83765165D02*
X181391002Y-82563083D01*
X181815266Y-82987347D01*
X180613184Y-84189429D01*
X180188920Y-83765165D01*
X180188920Y-83765165D01*
G37*
G36*
X185863452Y-85833453D02*
X187772641Y-83924264D01*
X188479748Y-84631371D01*
X186570559Y-86540560D01*
X185863452Y-85833453D01*
X185863452Y-85833453D01*
G37*
G36*
X180489440Y-80459441D02*
X182398629Y-78550252D01*
X183105736Y-79257359D01*
X181196547Y-81166548D01*
X180489440Y-80459441D01*
X180489440Y-80459441D01*
G37*
D16*
X184930000Y-92625000D03*
X184930000Y-93875000D03*
X184930000Y-91375000D03*
X184930000Y-90125000D03*
D17*
X187980000Y-95800000D03*
X187980000Y-88200000D03*
D18*
X147300000Y-89200000D03*
X147300000Y-90800000D03*
X152700000Y-89200000D03*
X152700000Y-90800000D03*
D19*
X153000000Y-89000000D03*
X153000000Y-91000000D03*
X147000000Y-89000000D03*
X147000000Y-91000000D03*
D10*
G36*
X152550000Y-88400000D02*
X153100000Y-88800000D01*
X151900000Y-88800000D01*
X152450000Y-88400000D01*
X152550000Y-88400000D01*
X152550000Y-88400000D01*
G37*
G36*
X152450000Y-91600000D02*
X151900000Y-91200000D01*
X153100000Y-91200000D01*
X152550000Y-91600000D01*
X152450000Y-91600000D01*
X152450000Y-91600000D01*
G37*
G36*
X147550000Y-88400000D02*
X148100000Y-88800000D01*
X146900000Y-88800000D01*
X147450000Y-88400000D01*
X147550000Y-88400000D01*
X147550000Y-88400000D01*
G37*
G36*
X147450000Y-91600000D02*
X146900000Y-91200000D01*
X148100000Y-91200000D01*
X147550000Y-91600000D01*
X147450000Y-91600000D01*
X147450000Y-91600000D01*
G37*
M02*
