G04 #@! TF.FileFunction,Paste,Bot*
%FSLAX46Y46*%
G04 Gerber Fmt 4.6, Leading zero omitted, Abs format (unit mm)*
G04 Created by KiCad (PCBNEW 4.0.7-e2-6376~58~ubuntu14.04.1) date Wed Aug  8 14:37:32 2018*
%MOMM*%
%LPD*%
G01*
G04 APERTURE LIST*
%ADD10C,0.100000*%
%ADD11R,0.800000X0.500000*%
%ADD12R,0.500000X0.800000*%
%ADD13R,0.750000X1.200000*%
%ADD14R,1.600000X0.800000*%
%ADD15R,1.000000X1.200000*%
%ADD16R,1.700000X0.600000*%
%ADD17R,2.700000X1.000000*%
%ADD18R,1.200000X0.600000*%
%ADD19R,1.600000X1.600000*%
G04 APERTURE END LIST*
D10*
D11*
X156530000Y-95000000D03*
X157730000Y-95000000D03*
X154430000Y-89000000D03*
X155630000Y-89000000D03*
D12*
X145500000Y-90600000D03*
X145500000Y-89400000D03*
X164730000Y-93200000D03*
X164730000Y-92000000D03*
D11*
X154430000Y-90000000D03*
X155630000Y-90000000D03*
X159430000Y-92500000D03*
X160630000Y-92500000D03*
X162430000Y-90000000D03*
X163630000Y-90000000D03*
D13*
X163280000Y-80300000D03*
X163280000Y-82200000D03*
X169230000Y-80300000D03*
X169230000Y-82200000D03*
D14*
X147300000Y-89200000D03*
X147300000Y-90800000D03*
X152700000Y-89200000D03*
X152700000Y-90800000D03*
D15*
X153000000Y-89000000D03*
X153000000Y-91000000D03*
X147000000Y-89000000D03*
X147000000Y-91000000D03*
D10*
G36*
X152550000Y-88400000D02*
X153100000Y-88800000D01*
X151900000Y-88800000D01*
X152450000Y-88400000D01*
X152550000Y-88400000D01*
X152550000Y-88400000D01*
G37*
G36*
X152450000Y-91600000D02*
X151900000Y-91200000D01*
X153100000Y-91200000D01*
X152550000Y-91600000D01*
X152450000Y-91600000D01*
X152450000Y-91600000D01*
G37*
G36*
X147550000Y-88400000D02*
X148100000Y-88800000D01*
X146900000Y-88800000D01*
X147450000Y-88400000D01*
X147550000Y-88400000D01*
X147550000Y-88400000D01*
G37*
G36*
X147450000Y-91600000D02*
X146900000Y-91200000D01*
X148100000Y-91200000D01*
X147550000Y-91600000D01*
X147450000Y-91600000D01*
X147450000Y-91600000D01*
G37*
D16*
X184930000Y-92625000D03*
X184930000Y-93875000D03*
X184930000Y-91375000D03*
X184930000Y-90125000D03*
D17*
X187980000Y-95800000D03*
X187980000Y-88200000D03*
D10*
G36*
X181956687Y-85532932D02*
X183158769Y-84330850D01*
X183583033Y-84755114D01*
X182380951Y-85957196D01*
X181956687Y-85532932D01*
X181956687Y-85532932D01*
G37*
G36*
X182840571Y-86416816D02*
X184042653Y-85214734D01*
X184466917Y-85638998D01*
X183264835Y-86841080D01*
X182840571Y-86416816D01*
X182840571Y-86416816D01*
G37*
G36*
X181072804Y-84649049D02*
X182274886Y-83446967D01*
X182699150Y-83871231D01*
X181497068Y-85073313D01*
X181072804Y-84649049D01*
X181072804Y-84649049D01*
G37*
G36*
X180188920Y-83765165D02*
X181391002Y-82563083D01*
X181815266Y-82987347D01*
X180613184Y-84189429D01*
X180188920Y-83765165D01*
X180188920Y-83765165D01*
G37*
G36*
X185863452Y-85833453D02*
X187772641Y-83924264D01*
X188479748Y-84631371D01*
X186570559Y-86540560D01*
X185863452Y-85833453D01*
X185863452Y-85833453D01*
G37*
G36*
X180489440Y-80459441D02*
X182398629Y-78550252D01*
X183105736Y-79257359D01*
X181196547Y-81166548D01*
X180489440Y-80459441D01*
X180489440Y-80459441D01*
G37*
G36*
X175276010Y-83211971D02*
X175127845Y-81518440D01*
X175725562Y-81466147D01*
X175873727Y-83159678D01*
X175276010Y-83211971D01*
X175276010Y-83211971D01*
G37*
G36*
X176521254Y-83103026D02*
X176373089Y-81409495D01*
X176970806Y-81357202D01*
X177118971Y-83050733D01*
X176521254Y-83103026D01*
X176521254Y-83103026D01*
G37*
G36*
X174030767Y-83320915D02*
X173882602Y-81627384D01*
X174480319Y-81575091D01*
X174628484Y-83268622D01*
X174030767Y-83320915D01*
X174030767Y-83320915D01*
G37*
G36*
X172785524Y-83429860D02*
X172637359Y-81736329D01*
X173235076Y-81684036D01*
X173383241Y-83377567D01*
X172785524Y-83429860D01*
X172785524Y-83429860D01*
G37*
G36*
X178017443Y-80412386D02*
X177782122Y-77722660D01*
X178778317Y-77635504D01*
X179013638Y-80325230D01*
X178017443Y-80412386D01*
X178017443Y-80412386D01*
G37*
G36*
X170446363Y-81074770D02*
X170211042Y-78385044D01*
X171207237Y-78297888D01*
X171442558Y-80987614D01*
X170446363Y-81074770D01*
X170446363Y-81074770D01*
G37*
G36*
X149965808Y-84459789D02*
X150025137Y-82760825D01*
X150624772Y-82781765D01*
X150565443Y-84480729D01*
X149965808Y-84459789D01*
X149965808Y-84459789D01*
G37*
G36*
X151215047Y-84503413D02*
X151274376Y-82804449D01*
X151874011Y-82825389D01*
X151814682Y-84524353D01*
X151215047Y-84503413D01*
X151215047Y-84503413D01*
G37*
G36*
X148716570Y-84416164D02*
X148775899Y-82717200D01*
X149375534Y-82738140D01*
X149316205Y-84437104D01*
X148716570Y-84416164D01*
X148716570Y-84416164D01*
G37*
G36*
X147467331Y-84372540D02*
X147526660Y-82673576D01*
X148126295Y-82694516D01*
X148066966Y-84393480D01*
X147467331Y-84372540D01*
X147467331Y-84372540D01*
G37*
G36*
X153027989Y-82015168D02*
X153122218Y-79316813D01*
X154121609Y-79351712D01*
X154027380Y-82050067D01*
X153027989Y-82015168D01*
X153027989Y-82015168D01*
G37*
G36*
X145432619Y-81749932D02*
X145526848Y-79051577D01*
X146526239Y-79086476D01*
X146432010Y-81784831D01*
X145432619Y-81749932D01*
X145432619Y-81749932D01*
G37*
D16*
X135630000Y-81375000D03*
X135630000Y-80125000D03*
X135630000Y-82625000D03*
X135630000Y-83875000D03*
D17*
X132580000Y-78200000D03*
X132580000Y-85800000D03*
D10*
G36*
X138603313Y-94467068D02*
X137401231Y-95669150D01*
X136976967Y-95244886D01*
X138179049Y-94042804D01*
X138603313Y-94467068D01*
X138603313Y-94467068D01*
G37*
G36*
X137719429Y-93583184D02*
X136517347Y-94785266D01*
X136093083Y-94361002D01*
X137295165Y-93158920D01*
X137719429Y-93583184D01*
X137719429Y-93583184D01*
G37*
G36*
X139487196Y-95350951D02*
X138285114Y-96553033D01*
X137860850Y-96128769D01*
X139062932Y-94926687D01*
X139487196Y-95350951D01*
X139487196Y-95350951D01*
G37*
G36*
X140371080Y-96234835D02*
X139168998Y-97436917D01*
X138744734Y-97012653D01*
X139946816Y-95810571D01*
X140371080Y-96234835D01*
X140371080Y-96234835D01*
G37*
G36*
X134696548Y-94166547D02*
X132787359Y-96075736D01*
X132080252Y-95368629D01*
X133989441Y-93459440D01*
X134696548Y-94166547D01*
X134696548Y-94166547D01*
G37*
G36*
X140070560Y-99540559D02*
X138161371Y-101449748D01*
X137454264Y-100742641D01*
X139363453Y-98833452D01*
X140070560Y-99540559D01*
X140070560Y-99540559D01*
G37*
D18*
X152380000Y-95000000D03*
X154680000Y-94050000D03*
X154680000Y-95950000D03*
X158380000Y-90000000D03*
X160680000Y-89050000D03*
X160680000Y-90950000D03*
D19*
X161530000Y-81250000D03*
X157930000Y-81250000D03*
D18*
X167380000Y-81250000D03*
X167380000Y-80300000D03*
X167380000Y-82200000D03*
X165080000Y-82200000D03*
X165080000Y-80300000D03*
D10*
G36*
X178874525Y-92486740D02*
X178804938Y-91991606D01*
X179597153Y-91880268D01*
X179666740Y-92375402D01*
X178874525Y-92486740D01*
X178874525Y-92486740D01*
G37*
G36*
X180062847Y-92319732D02*
X179993260Y-91824598D01*
X180785475Y-91713260D01*
X180855062Y-92208394D01*
X180062847Y-92319732D01*
X180062847Y-92319732D01*
G37*
G36*
X172383883Y-87030330D02*
X172030330Y-87383883D01*
X171464645Y-86818198D01*
X171818198Y-86464645D01*
X172383883Y-87030330D01*
X172383883Y-87030330D01*
G37*
G36*
X171535355Y-86181802D02*
X171181802Y-86535355D01*
X170616117Y-85969670D01*
X170969670Y-85616117D01*
X171535355Y-86181802D01*
X171535355Y-86181802D01*
G37*
G36*
X149096656Y-96708615D02*
X149303834Y-98395943D01*
X148708306Y-98469065D01*
X148501128Y-96781737D01*
X149096656Y-96708615D01*
X149096656Y-96708615D01*
G37*
G36*
X147855973Y-96860952D02*
X148063151Y-98548280D01*
X147467623Y-98621402D01*
X147260445Y-96934074D01*
X147855973Y-96860952D01*
X147855973Y-96860952D01*
G37*
G36*
X150337338Y-96556278D02*
X150544516Y-98243606D01*
X149948988Y-98316728D01*
X149741810Y-96629400D01*
X150337338Y-96556278D01*
X150337338Y-96556278D01*
G37*
G36*
X151578021Y-96403942D02*
X151785199Y-98091270D01*
X151189671Y-98164392D01*
X150982493Y-96477064D01*
X151578021Y-96403942D01*
X151578021Y-96403942D01*
G37*
G36*
X146454597Y-99602169D02*
X146783645Y-102282044D01*
X145791099Y-102403913D01*
X145462051Y-99724038D01*
X146454597Y-99602169D01*
X146454597Y-99602169D01*
G37*
G36*
X153997948Y-98675962D02*
X154326996Y-101355837D01*
X153334450Y-101477706D01*
X153005402Y-98797831D01*
X153997948Y-98675962D01*
X153997948Y-98675962D01*
G37*
G36*
X165930130Y-95445486D02*
X166221206Y-96814892D01*
X165243058Y-97022804D01*
X164951982Y-95653398D01*
X165930130Y-95445486D01*
X165930130Y-95445486D01*
G37*
G36*
X161821910Y-96318715D02*
X162112986Y-97688121D01*
X161134838Y-97896033D01*
X160843762Y-96526627D01*
X161821910Y-96318715D01*
X161821910Y-96318715D01*
G37*
G36*
X168277203Y-97349101D02*
X168485114Y-98327248D01*
X166528819Y-98743071D01*
X166320908Y-97764924D01*
X168277203Y-97349101D01*
X168277203Y-97349101D01*
G37*
G36*
X161430169Y-98804483D02*
X161638080Y-99782630D01*
X159681785Y-100198453D01*
X159473874Y-99220306D01*
X161430169Y-98804483D01*
X161430169Y-98804483D01*
G37*
G36*
X167939340Y-92969848D02*
X168575736Y-92333452D01*
X168787868Y-92545584D01*
X168151472Y-93181980D01*
X167939340Y-92969848D01*
X167939340Y-92969848D01*
G37*
G36*
X167585787Y-92616295D02*
X168434315Y-91767767D01*
X168646447Y-91979899D01*
X167797919Y-92828427D01*
X167585787Y-92616295D01*
X167585787Y-92616295D01*
G37*
G36*
X167232233Y-92262742D02*
X168080761Y-91414214D01*
X168292893Y-91626346D01*
X167444365Y-92474874D01*
X167232233Y-92262742D01*
X167232233Y-92262742D01*
G37*
G36*
X166878680Y-91909188D02*
X167727208Y-91060660D01*
X167939340Y-91272792D01*
X167090812Y-92121320D01*
X166878680Y-91909188D01*
X166878680Y-91909188D01*
G37*
G36*
X166525126Y-91555635D02*
X167373654Y-90707107D01*
X167585786Y-90919239D01*
X166737258Y-91767767D01*
X166525126Y-91555635D01*
X166525126Y-91555635D01*
G37*
G36*
X166171573Y-91202081D02*
X167020101Y-90353553D01*
X167232233Y-90565685D01*
X166383705Y-91414213D01*
X166171573Y-91202081D01*
X166171573Y-91202081D01*
G37*
G36*
X165818020Y-90848528D02*
X166454416Y-90212132D01*
X166666548Y-90424264D01*
X166030152Y-91060660D01*
X165818020Y-90848528D01*
X165818020Y-90848528D01*
G37*
G36*
X166030152Y-88939340D02*
X166666548Y-89575736D01*
X166454416Y-89787868D01*
X165818020Y-89151472D01*
X166030152Y-88939340D01*
X166030152Y-88939340D01*
G37*
G36*
X166383705Y-88585787D02*
X167232233Y-89434315D01*
X167020101Y-89646447D01*
X166171573Y-88797919D01*
X166383705Y-88585787D01*
X166383705Y-88585787D01*
G37*
G36*
X166737258Y-88232233D02*
X167585786Y-89080761D01*
X167373654Y-89292893D01*
X166525126Y-88444365D01*
X166737258Y-88232233D01*
X166737258Y-88232233D01*
G37*
G36*
X167090812Y-87878680D02*
X167939340Y-88727208D01*
X167727208Y-88939340D01*
X166878680Y-88090812D01*
X167090812Y-87878680D01*
X167090812Y-87878680D01*
G37*
G36*
X167444365Y-87525126D02*
X168292893Y-88373654D01*
X168080761Y-88585786D01*
X167232233Y-87737258D01*
X167444365Y-87525126D01*
X167444365Y-87525126D01*
G37*
G36*
X167797919Y-87171573D02*
X168646447Y-88020101D01*
X168434315Y-88232233D01*
X167585787Y-87383705D01*
X167797919Y-87171573D01*
X167797919Y-87171573D01*
G37*
G36*
X168151472Y-86818020D02*
X168787868Y-87454416D01*
X168575736Y-87666548D01*
X167939340Y-87030152D01*
X168151472Y-86818020D01*
X168151472Y-86818020D01*
G37*
G36*
X169212132Y-87454416D02*
X169848528Y-86818020D01*
X170060660Y-87030152D01*
X169424264Y-87666548D01*
X169212132Y-87454416D01*
X169212132Y-87454416D01*
G37*
G36*
X169353553Y-88020101D02*
X170202081Y-87171573D01*
X170414213Y-87383705D01*
X169565685Y-88232233D01*
X169353553Y-88020101D01*
X169353553Y-88020101D01*
G37*
G36*
X169707107Y-88373654D02*
X170555635Y-87525126D01*
X170767767Y-87737258D01*
X169919239Y-88585786D01*
X169707107Y-88373654D01*
X169707107Y-88373654D01*
G37*
G36*
X170060660Y-88727208D02*
X170909188Y-87878680D01*
X171121320Y-88090812D01*
X170272792Y-88939340D01*
X170060660Y-88727208D01*
X170060660Y-88727208D01*
G37*
G36*
X170414214Y-89080761D02*
X171262742Y-88232233D01*
X171474874Y-88444365D01*
X170626346Y-89292893D01*
X170414214Y-89080761D01*
X170414214Y-89080761D01*
G37*
G36*
X170767767Y-89434315D02*
X171616295Y-88585787D01*
X171828427Y-88797919D01*
X170979899Y-89646447D01*
X170767767Y-89434315D01*
X170767767Y-89434315D01*
G37*
G36*
X171333452Y-89575736D02*
X171969848Y-88939340D01*
X172181980Y-89151472D01*
X171545584Y-89787868D01*
X171333452Y-89575736D01*
X171333452Y-89575736D01*
G37*
G36*
X171545584Y-90212132D02*
X172181980Y-90848528D01*
X171969848Y-91060660D01*
X171333452Y-90424264D01*
X171545584Y-90212132D01*
X171545584Y-90212132D01*
G37*
G36*
X170979899Y-90353553D02*
X171828427Y-91202081D01*
X171616295Y-91414213D01*
X170767767Y-90565685D01*
X170979899Y-90353553D01*
X170979899Y-90353553D01*
G37*
G36*
X170626346Y-90707107D02*
X171474874Y-91555635D01*
X171262742Y-91767767D01*
X170414214Y-90919239D01*
X170626346Y-90707107D01*
X170626346Y-90707107D01*
G37*
G36*
X170272792Y-91060660D02*
X171121320Y-91909188D01*
X170909188Y-92121320D01*
X170060660Y-91272792D01*
X170272792Y-91060660D01*
X170272792Y-91060660D01*
G37*
G36*
X169919239Y-91414214D02*
X170767767Y-92262742D01*
X170555635Y-92474874D01*
X169707107Y-91626346D01*
X169919239Y-91414214D01*
X169919239Y-91414214D01*
G37*
G36*
X169565685Y-91767767D02*
X170414213Y-92616295D01*
X170202081Y-92828427D01*
X169353553Y-91979899D01*
X169565685Y-91767767D01*
X169565685Y-91767767D01*
G37*
G36*
X169424264Y-92333452D02*
X170060660Y-92969848D01*
X169848528Y-93181980D01*
X169212132Y-92545584D01*
X169424264Y-92333452D01*
X169424264Y-92333452D01*
G37*
G36*
X168257538Y-92651651D02*
X168823224Y-92085965D01*
X168823224Y-92510229D01*
X168681802Y-92651651D01*
X168257538Y-92651651D01*
X168257538Y-92651651D01*
G37*
G36*
X169176776Y-92085965D02*
X169742462Y-92651651D01*
X169318198Y-92651651D01*
X169176776Y-92510229D01*
X169176776Y-92085965D01*
X169176776Y-92085965D01*
G37*
G36*
X168823224Y-87914035D02*
X168257538Y-87348349D01*
X168681802Y-87348349D01*
X168823224Y-87489771D01*
X168823224Y-87914035D01*
X168823224Y-87914035D01*
G37*
G36*
X169742462Y-87348349D02*
X169176776Y-87914035D01*
X169176776Y-87489771D01*
X169318198Y-87348349D01*
X169742462Y-87348349D01*
X169742462Y-87348349D01*
G37*
G36*
X166914035Y-90176776D02*
X166348349Y-90742462D01*
X166348349Y-90318198D01*
X166489771Y-90176776D01*
X166914035Y-90176776D01*
X166914035Y-90176776D01*
G37*
G36*
X166348349Y-89257538D02*
X166914035Y-89823224D01*
X166489771Y-89823224D01*
X166348349Y-89681802D01*
X166348349Y-89257538D01*
X166348349Y-89257538D01*
G37*
G36*
X171085965Y-89823224D02*
X171651651Y-89257538D01*
X171651651Y-89681802D01*
X171510229Y-89823224D01*
X171085965Y-89823224D01*
X171085965Y-89823224D01*
G37*
G36*
X171651651Y-90742462D02*
X171085965Y-90176776D01*
X171510229Y-90176776D01*
X171651651Y-90318198D01*
X171651651Y-90742462D01*
X171651651Y-90742462D01*
G37*
G36*
X175786106Y-92032091D02*
X176022701Y-93715547D01*
X175428540Y-93799051D01*
X175191945Y-92115595D01*
X175786106Y-92032091D01*
X175786106Y-92032091D01*
G37*
G36*
X174548271Y-92206057D02*
X174784866Y-93889513D01*
X174190705Y-93973017D01*
X173954110Y-92289561D01*
X174548271Y-92206057D01*
X174548271Y-92206057D01*
G37*
G36*
X177023941Y-91858125D02*
X177260536Y-93541581D01*
X176666375Y-93625085D01*
X176429780Y-91941629D01*
X177023941Y-91858125D01*
X177023941Y-91858125D01*
G37*
G36*
X178261776Y-91684158D02*
X178498371Y-93367614D01*
X177904210Y-93451118D01*
X177667615Y-91767662D01*
X178261776Y-91684158D01*
X178261776Y-91684158D01*
G37*
G36*
X171882845Y-95155720D02*
X172258613Y-97829443D01*
X171268345Y-97968616D01*
X170892577Y-95294893D01*
X171882845Y-95155720D01*
X171882845Y-95155720D01*
G37*
G36*
X180795257Y-93903162D02*
X181171025Y-96576885D01*
X180180757Y-96716058D01*
X179804989Y-94042335D01*
X180795257Y-93903162D01*
X180795257Y-93903162D01*
G37*
G36*
X172716275Y-92463528D02*
X173310436Y-92380024D01*
X173547031Y-94063480D01*
X172952870Y-94146984D01*
X172716275Y-92463528D01*
X172716275Y-92463528D01*
G37*
D18*
X155380000Y-92500000D03*
X157680000Y-91550000D03*
X157680000Y-93450000D03*
M02*
