G04 #@! TF.FileFunction,Legend,Bot*
%FSLAX46Y46*%
G04 Gerber Fmt 4.6, Leading zero omitted, Abs format (unit mm)*
G04 Created by KiCad (PCBNEW 4.0.7-e2-6376~58~ubuntu14.04.1) date Wed May 23 14:48:08 2018*
%MOMM*%
%LPD*%
G01*
G04 APERTURE LIST*
%ADD10C,0.100000*%
%ADD11C,0.170000*%
%ADD12C,0.150000*%
G04 APERTURE END LIST*
D10*
D11*
X178175009Y-91376866D02*
X178008001Y-90188544D01*
X177555307Y-90252166D01*
X177450086Y-90324658D01*
X177401452Y-90389198D01*
X177360770Y-90510325D01*
X177384629Y-90680084D01*
X177457121Y-90785305D01*
X177521661Y-90833939D01*
X177642787Y-90874621D01*
X178095481Y-90810999D01*
X176593332Y-90387363D02*
X176366985Y-90419174D01*
X176261764Y-90491666D01*
X176164496Y-90620745D01*
X176139721Y-90855045D01*
X176195390Y-91251152D01*
X176283787Y-91469547D01*
X176412866Y-91566814D01*
X176533993Y-91607495D01*
X176760340Y-91575684D01*
X176865561Y-91503192D01*
X176962829Y-91374114D01*
X176987605Y-91139813D01*
X176931935Y-90743706D01*
X176843538Y-90525312D01*
X176714458Y-90428044D01*
X176593332Y-90387363D01*
X175687944Y-90514607D02*
X175572018Y-91742692D01*
X175226380Y-90925702D01*
X175119324Y-91806314D01*
X174669383Y-90657756D01*
X174296216Y-91287246D02*
X173900109Y-91342915D01*
X173817828Y-91989227D02*
X174383696Y-91909700D01*
X174216688Y-90721378D01*
X173650821Y-90800906D01*
X172629507Y-92156235D02*
X172946086Y-91534699D01*
X173308548Y-92060802D02*
X173141541Y-90872480D01*
X172688846Y-90936102D01*
X172583625Y-91008595D01*
X172534991Y-91073134D01*
X172494310Y-91194261D01*
X172518168Y-91364021D01*
X172590661Y-91469242D01*
X172655200Y-91517876D01*
X172776327Y-91558557D01*
X173229021Y-91494935D01*
X143542857Y-90742857D02*
X143542857Y-89542857D01*
X143257142Y-89542857D01*
X143085714Y-89600000D01*
X142971428Y-89714286D01*
X142914285Y-89828571D01*
X142857142Y-90057143D01*
X142857142Y-90228571D01*
X142914285Y-90457143D01*
X142971428Y-90571429D01*
X143085714Y-90685714D01*
X143257142Y-90742857D01*
X143542857Y-90742857D01*
X142342857Y-90114286D02*
X141942857Y-90114286D01*
X141771428Y-90742857D02*
X142342857Y-90742857D01*
X142342857Y-89542857D01*
X141771428Y-89542857D01*
X141257143Y-90742857D02*
X141257143Y-89542857D01*
X140571428Y-90742857D01*
X140571428Y-89542857D01*
X140000000Y-90742857D02*
X140000000Y-89542857D01*
X139714285Y-89542857D01*
X139542857Y-89600000D01*
X139428571Y-89714286D01*
X139371428Y-89828571D01*
X139314285Y-90057143D01*
X139314285Y-90228571D01*
X139371428Y-90457143D01*
X139428571Y-90571429D01*
X139542857Y-90685714D01*
X139714285Y-90742857D01*
X140000000Y-90742857D01*
X138114285Y-90742857D02*
X138514285Y-90171429D01*
X138800000Y-90742857D02*
X138800000Y-89542857D01*
X138342857Y-89542857D01*
X138228571Y-89600000D01*
X138171428Y-89657143D01*
X138114285Y-89771429D01*
X138114285Y-89942857D01*
X138171428Y-90057143D01*
X138228571Y-90114286D01*
X138342857Y-90171429D01*
X138800000Y-90171429D01*
X137600000Y-90742857D02*
X137600000Y-89542857D01*
X137199999Y-89542857D02*
X136514285Y-89542857D01*
X136857142Y-90742857D02*
X136857142Y-89542857D01*
X136114285Y-90114286D02*
X135714285Y-90114286D01*
X135542856Y-90742857D02*
X136114285Y-90742857D01*
X136114285Y-89542857D01*
X135542856Y-89542857D01*
X135085714Y-90685714D02*
X134914285Y-90742857D01*
X134628571Y-90742857D01*
X134514285Y-90685714D01*
X134457142Y-90628571D01*
X134399999Y-90514286D01*
X134399999Y-90400000D01*
X134457142Y-90285714D01*
X134514285Y-90228571D01*
X134628571Y-90171429D01*
X134857142Y-90114286D01*
X134971428Y-90057143D01*
X135028571Y-90000000D01*
X135085714Y-89885714D01*
X135085714Y-89771429D01*
X135028571Y-89657143D01*
X134971428Y-89600000D01*
X134857142Y-89542857D01*
X134571428Y-89542857D01*
X134399999Y-89600000D01*
X164129755Y-96306247D02*
X163880261Y-95132470D01*
X163570813Y-96425054D02*
X163321319Y-95251277D01*
X163041848Y-95310680D01*
X162886046Y-95402217D01*
X162798019Y-95537767D01*
X162765886Y-95661435D01*
X162757515Y-95896893D01*
X162793156Y-96064575D01*
X162896573Y-96276271D01*
X162976229Y-96376179D01*
X163111779Y-96464205D01*
X163291342Y-96484458D01*
X163570813Y-96425054D01*
X180344286Y-85115000D02*
X179772857Y-85115000D01*
X180458571Y-85457857D02*
X180058571Y-84257857D01*
X179658571Y-85457857D01*
X179372857Y-84257857D02*
X178572857Y-85457857D01*
X178572857Y-84257857D02*
X179372857Y-85457857D01*
X177887143Y-84257857D02*
X177658572Y-84257857D01*
X177544286Y-84315000D01*
X177430000Y-84429286D01*
X177372858Y-84657857D01*
X177372858Y-85057857D01*
X177430000Y-85286429D01*
X177544286Y-85400714D01*
X177658572Y-85457857D01*
X177887143Y-85457857D01*
X178001429Y-85400714D01*
X178115715Y-85286429D01*
X178172858Y-85057857D01*
X178172858Y-84657857D01*
X178115715Y-84429286D01*
X178001429Y-84315000D01*
X177887143Y-84257857D01*
X176858572Y-85457857D02*
X176858572Y-84257857D01*
X176172857Y-85457857D01*
X176172857Y-84257857D01*
X182315714Y-86227857D02*
X181630000Y-86227857D01*
X181972857Y-87427857D02*
X181972857Y-86227857D01*
X181230000Y-86799286D02*
X180830000Y-86799286D01*
X180658571Y-87427857D02*
X181230000Y-87427857D01*
X181230000Y-86227857D01*
X180658571Y-86227857D01*
X179458571Y-87427857D02*
X179858571Y-86856429D01*
X180144286Y-87427857D02*
X180144286Y-86227857D01*
X179687143Y-86227857D01*
X179572857Y-86285000D01*
X179515714Y-86342143D01*
X179458571Y-86456429D01*
X179458571Y-86627857D01*
X179515714Y-86742143D01*
X179572857Y-86799286D01*
X179687143Y-86856429D01*
X180144286Y-86856429D01*
X178944286Y-87427857D02*
X178944286Y-86227857D01*
X178544286Y-87085000D01*
X178144286Y-86227857D01*
X178144286Y-87427857D01*
X177572857Y-87427857D02*
X177572857Y-86227857D01*
X177001428Y-87427857D02*
X177001428Y-86227857D01*
X176315713Y-87427857D01*
X176315713Y-86227857D01*
X175801428Y-87085000D02*
X175229999Y-87085000D01*
X175915713Y-87427857D02*
X175515713Y-86227857D01*
X175115713Y-87427857D01*
X174144285Y-87427857D02*
X174715714Y-87427857D01*
X174715714Y-86227857D01*
D12*
X171477237Y-97838275D02*
X170948380Y-94075257D01*
X170948380Y-94075257D02*
X180405440Y-92746154D01*
X180405440Y-92746154D02*
X180934297Y-96509172D01*
X180934297Y-96509172D02*
X171477237Y-97838275D01*
D10*
X169257013Y-93170347D02*
G75*
G03X169257013Y-93170347I-250000J0D01*
G01*
X166178586Y-89988367D02*
X169007013Y-92816794D01*
X169007013Y-87159940D02*
X166178586Y-89988367D01*
X171835440Y-89988367D02*
X169007013Y-87159940D01*
X169007013Y-92816794D02*
X171835440Y-89988367D01*
D12*
X160659933Y-99990542D02*
X160140154Y-97545173D01*
X160140154Y-97545173D02*
X166987187Y-96089791D01*
X166987187Y-96089791D02*
X167506966Y-98535160D01*
X167506966Y-98535160D02*
X160659933Y-99990542D01*
X145927794Y-102286378D02*
X145464690Y-98514702D01*
X145464690Y-98514702D02*
X153702823Y-97503187D01*
X153702823Y-97503187D02*
X154165927Y-101274862D01*
X154165927Y-101274862D02*
X145927794Y-102286378D01*
X132257029Y-95403984D02*
X134944035Y-92716979D01*
X134944035Y-92716979D02*
X140813021Y-98585965D01*
X140813021Y-98585965D02*
X138126016Y-101272971D01*
X138126016Y-101272971D02*
X132257029Y-95403984D01*
X131330000Y-77850000D02*
X135130000Y-77850000D01*
X135130000Y-77850000D02*
X135130000Y-86150000D01*
X135130000Y-86150000D02*
X131330000Y-86150000D01*
X131330000Y-86150000D02*
X131330000Y-77850000D01*
X153968211Y-79446417D02*
X153835593Y-83244102D01*
X153835593Y-83244102D02*
X145540649Y-82954436D01*
X145540649Y-82954436D02*
X145673267Y-79156751D01*
X145673267Y-79156751D02*
X153968211Y-79446417D01*
X178637603Y-77748197D02*
X178968795Y-81533737D01*
X178968795Y-81533737D02*
X170700379Y-82257130D01*
X170700379Y-82257130D02*
X170369187Y-78471590D01*
X170369187Y-78471590D02*
X178637603Y-77748197D01*
X188302971Y-84596016D02*
X185615965Y-87283021D01*
X185615965Y-87283021D02*
X179746979Y-81414035D01*
X179746979Y-81414035D02*
X182433984Y-78727029D01*
X182433984Y-78727029D02*
X188302971Y-84596016D01*
X189230000Y-96150000D02*
X185430000Y-96150000D01*
X185430000Y-96150000D02*
X185430000Y-87850000D01*
X185430000Y-87850000D02*
X189230000Y-87850000D01*
X189230000Y-87850000D02*
X189230000Y-96150000D01*
D10*
X152123607Y-91700000D02*
G75*
G03X152123607Y-91700000I-223607J0D01*
G01*
X147000000Y-93000000D02*
X147000000Y-87000000D01*
X153000000Y-93000000D02*
X147000000Y-93000000D01*
X153000000Y-87000000D02*
X153000000Y-93000000D01*
X147000000Y-87000000D02*
X153000000Y-87000000D01*
D12*
X148400000Y-88600000D02*
X151600000Y-88600000D01*
X151600000Y-88600000D02*
X151600000Y-91400000D01*
X151600000Y-91400000D02*
X148400000Y-91400000D01*
X148400000Y-91400000D02*
X148400000Y-88600000D01*
M02*
