G04 #@! TF.FileFunction,Legend,Top*
%FSLAX46Y46*%
G04 Gerber Fmt 4.6, Leading zero omitted, Abs format (unit mm)*
G04 Created by KiCad (PCBNEW 4.0.7-e2-6376~58~ubuntu14.04.1) date Wed Aug  8 14:37:32 2018*
%MOMM*%
%LPD*%
G01*
G04 APERTURE LIST*
%ADD10C,0.100000*%
%ADD11C,0.190000*%
G04 APERTURE END LIST*
D10*
D11*
X155436669Y-86415000D02*
X155436669Y-87301667D01*
X155436669Y-86541667D02*
X155500002Y-86478333D01*
X155626669Y-86415000D01*
X155816669Y-86415000D01*
X155943335Y-86478333D01*
X156006669Y-86605000D01*
X156006669Y-87301667D01*
X157146668Y-87238333D02*
X157020002Y-87301667D01*
X156766668Y-87301667D01*
X156640002Y-87238333D01*
X156576668Y-87111667D01*
X156576668Y-86605000D01*
X156640002Y-86478333D01*
X156766668Y-86415000D01*
X157020002Y-86415000D01*
X157146668Y-86478333D01*
X157210002Y-86605000D01*
X157210002Y-86731667D01*
X156576668Y-86858333D01*
X158350002Y-86415000D02*
X158350002Y-87301667D01*
X157780002Y-86415000D02*
X157780002Y-87111667D01*
X157843335Y-87238333D01*
X157970002Y-87301667D01*
X158160002Y-87301667D01*
X158286668Y-87238333D01*
X158350002Y-87175000D01*
X158983335Y-87301667D02*
X158983335Y-86415000D01*
X158983335Y-86668333D02*
X159046668Y-86541667D01*
X159110001Y-86478333D01*
X159236668Y-86415000D01*
X159363335Y-86415000D01*
X159996668Y-87301667D02*
X159870001Y-87238333D01*
X159806668Y-87175000D01*
X159743334Y-87048333D01*
X159743334Y-86668333D01*
X159806668Y-86541667D01*
X159870001Y-86478333D01*
X159996668Y-86415000D01*
X160186668Y-86415000D01*
X160313334Y-86478333D01*
X160376668Y-86541667D01*
X160440001Y-86668333D01*
X160440001Y-87048333D01*
X160376668Y-87175000D01*
X160313334Y-87238333D01*
X160186668Y-87301667D01*
X159996668Y-87301667D01*
X160820001Y-86415000D02*
X161326667Y-86415000D01*
X161010001Y-85971667D02*
X161010001Y-87111667D01*
X161073334Y-87238333D01*
X161200001Y-87301667D01*
X161326667Y-87301667D01*
X161770001Y-87301667D02*
X161770001Y-86415000D01*
X161770001Y-85971667D02*
X161706667Y-86035000D01*
X161770001Y-86098333D01*
X161833334Y-86035000D01*
X161770001Y-85971667D01*
X161770001Y-86098333D01*
X162403334Y-86415000D02*
X162403334Y-87301667D01*
X162403334Y-86541667D02*
X162466667Y-86478333D01*
X162593334Y-86415000D01*
X162783334Y-86415000D01*
X162910000Y-86478333D01*
X162973334Y-86605000D01*
X162973334Y-87301667D01*
X163606667Y-87301667D02*
X163606667Y-85971667D01*
X163733333Y-86795000D02*
X164113333Y-87301667D01*
X164113333Y-86415000D02*
X163606667Y-86921667D01*
X165190000Y-87238333D02*
X165063334Y-87301667D01*
X164810000Y-87301667D01*
X164683334Y-87238333D01*
X164620000Y-87111667D01*
X164620000Y-86605000D01*
X164683334Y-86478333D01*
X164810000Y-86415000D01*
X165063334Y-86415000D01*
X165190000Y-86478333D01*
X165253334Y-86605000D01*
X165253334Y-86731667D01*
X164620000Y-86858333D01*
X165823334Y-87301667D02*
X165823334Y-86415000D01*
X165823334Y-86668333D02*
X165886667Y-86541667D01*
X165950000Y-86478333D01*
X166076667Y-86415000D01*
X166203334Y-86415000D01*
X166646667Y-87175000D02*
X166710000Y-87238333D01*
X166646667Y-87301667D01*
X166583333Y-87238333D01*
X166646667Y-87175000D01*
X166646667Y-87301667D01*
X167850000Y-87238333D02*
X167723333Y-87301667D01*
X167470000Y-87301667D01*
X167343333Y-87238333D01*
X167280000Y-87175000D01*
X167216666Y-87048333D01*
X167216666Y-86668333D01*
X167280000Y-86541667D01*
X167343333Y-86478333D01*
X167470000Y-86415000D01*
X167723333Y-86415000D01*
X167850000Y-86478333D01*
X168610000Y-87301667D02*
X168483333Y-87238333D01*
X168420000Y-87175000D01*
X168356666Y-87048333D01*
X168356666Y-86668333D01*
X168420000Y-86541667D01*
X168483333Y-86478333D01*
X168610000Y-86415000D01*
X168800000Y-86415000D01*
X168926666Y-86478333D01*
X168990000Y-86541667D01*
X169053333Y-86668333D01*
X169053333Y-87048333D01*
X168990000Y-87175000D01*
X168926666Y-87238333D01*
X168800000Y-87301667D01*
X168610000Y-87301667D01*
X169623333Y-87301667D02*
X169623333Y-86415000D01*
X169623333Y-86541667D02*
X169686666Y-86478333D01*
X169813333Y-86415000D01*
X170003333Y-86415000D01*
X170129999Y-86478333D01*
X170193333Y-86605000D01*
X170193333Y-87301667D01*
X170193333Y-86605000D02*
X170256666Y-86478333D01*
X170383333Y-86415000D01*
X170573333Y-86415000D01*
X170699999Y-86478333D01*
X170763333Y-86605000D01*
X170763333Y-87301667D01*
X156501461Y-85301667D02*
X156667711Y-83971667D01*
X157134794Y-85301667D02*
X157301044Y-83971667D01*
X157894794Y-85301667D01*
X158061044Y-83971667D01*
X158504377Y-83971667D02*
X159264377Y-83971667D01*
X158718127Y-85301667D02*
X158884377Y-83971667D01*
X159628543Y-84605000D02*
X160071876Y-84605000D01*
X160174793Y-85301667D02*
X159541460Y-85301667D01*
X159707710Y-83971667D01*
X160341043Y-83971667D01*
X161504793Y-85301667D02*
X161140625Y-84668333D01*
X160744793Y-85301667D02*
X160911043Y-83971667D01*
X161417709Y-83971667D01*
X161536459Y-84035000D01*
X161591875Y-84098333D01*
X161639376Y-84225000D01*
X161615626Y-84415000D01*
X161536459Y-84541667D01*
X161465209Y-84605000D01*
X161330625Y-84668333D01*
X160823959Y-84668333D01*
X162074793Y-85301667D02*
X162241043Y-83971667D01*
X162834793Y-85301667D01*
X163001043Y-83971667D01*
X163555209Y-84605000D02*
X163998542Y-84605000D01*
X164101459Y-85301667D02*
X163468126Y-85301667D01*
X163634376Y-83971667D01*
X164267709Y-83971667D01*
X164837709Y-83971667D02*
X164703125Y-85048333D01*
X164750625Y-85175000D01*
X164806041Y-85238333D01*
X164924792Y-85301667D01*
X165178125Y-85301667D01*
X165312708Y-85238333D01*
X165383958Y-85175000D01*
X165463125Y-85048333D01*
X165597709Y-83971667D01*
X166824792Y-85301667D02*
X166460624Y-84668333D01*
X166064792Y-85301667D02*
X166231042Y-83971667D01*
X166737708Y-83971667D01*
X166856458Y-84035000D01*
X166911874Y-84098333D01*
X166959375Y-84225000D01*
X166935625Y-84415000D01*
X166856458Y-84541667D01*
X166785208Y-84605000D01*
X166650624Y-84668333D01*
X166143958Y-84668333D01*
X167814375Y-83971667D02*
X168067708Y-83971667D01*
X168186458Y-84035000D01*
X168297292Y-84161667D01*
X168328958Y-84415000D01*
X168273541Y-84858333D01*
X168178542Y-85111667D01*
X168036041Y-85238333D01*
X167901458Y-85301667D01*
X167648125Y-85301667D01*
X167529374Y-85238333D01*
X167418542Y-85111667D01*
X167386874Y-84858333D01*
X167442291Y-84415000D01*
X167537292Y-84161667D01*
X167679791Y-84035000D01*
X167814375Y-83971667D01*
X168788125Y-85301667D02*
X168954375Y-83971667D01*
X169548125Y-85301667D01*
X169714375Y-83971667D01*
M02*
