  0
SECTION
  2
HEADER
  9
$ACADVER
  1
AC1014
  9
$HANDSEED
  5
FFFF
  9
$MEASUREMENT
 70
     1
  0
ENDSEC
  0
SECTION
  2
TABLES
  0
TABLE
  2
VPORT
  5
8
330
0
100
AcDbSymbolTable
 70
     4
  0
VPORT
  5
2E
330
8
100
AcDbSymbolTableRecord
100
AcDbViewportTableRecord
  2
*ACTIVE
 70
     0
 10
0.0
 20
0.0
 11
1.0
 21
1.0
 12
210.0
 22
148.5
 13
0.0
 23
0.0
 14
10.0
 24
10.0
 15
10.0
 25
10.0
 16
0.0
 26
0.0
 36
1.0
 17
0.0
 27
0.0
 37
0.0
 40
341.0
 41
1.24
 42
50.0
 43
0.0
 44
0.0
 50
0.0
 51
0.0
 71
     0
 72
   100
 73
     1
 74
     3
 75
     0
 76
     0
 77
     0
 78
     0
  0
ENDTAB
  0
TABLE
  2
LTYPE
  5
5
330
0
100
AcDbSymbolTable
 70
     1
  0
LTYPE
  5
14
330
5
100
AcDbSymbolTableRecord
100
AcDbLinetypeTableRecord
  2
BYBLOCK
 70
     0
  3

 72
    65
 73
     0
 40
0.0
  0
LTYPE
  5
15
330
5
100
AcDbSymbolTableRecord
100
AcDbLinetypeTableRecord
  2
BYLAYER
 70
     0
  3

 72
    65
 73
     0
 40
0.0
  0
LTYPE
  5
16
330
5
100
AcDbSymbolTableRecord
100
AcDbLinetypeTableRecord
  2
CONTINUOUS
 70
     0
  3
Solid line
 72
    65
 73
     0
 40
0.0
  0
ENDTAB
  0
TABLE
  2
LAYER
  5
2
100
AcDbSymbolTable
 70
12
  0
LAYER
  5
50
100
AcDbSymbolTableRecord
100
AcDbLayerTableRecord
  2
0
 70
0
  6
CONTINUOUS
  0
LAYER
  5
51
100
AcDbSymbolTableRecord
100
AcDbLayerTableRecord
  2
background_white
 70
0
  6
CONTINUOUS
  0
LAYER
  5
52
100
AcDbSymbolTableRecord
100
AcDbLayerTableRecord
  2
prev-motor
 70
0
  6
CONTINUOUS
  0
LAYER
  5
53
100
AcDbSymbolTableRecord
100
AcDbLayerTableRecord
  2
pads
 70
0
  6
CONTINUOUS
  0
LAYER
  5
54
100
AcDbSymbolTableRecord
100
AcDbLayerTableRecord
  2
copper
 70
0
  6
CONTINUOUS
  0
LAYER
  5
55
100
AcDbSymbolTableRecord
100
AcDbLayerTableRecord
  2
outline
 70
0
  6
CONTINUOUS
  0
LAYER
  5
56
100
AcDbSymbolTableRecord
100
AcDbLayerTableRecord
  2
outline_segments
 70
0
  6
CONTINUOUS
  0
LAYER
  5
57
100
AcDbSymbolTableRecord
100
AcDbLayerTableRecord
  2
prev-silk_large
 70
0
  6
CONTINUOUS
  0
LAYER
  5
58
100
AcDbSymbolTableRecord
100
AcDbLayerTableRecord
  2
prev-copper_large
 70
0
  6
CONTINUOUS
  0
LAYER
  5
59
100
AcDbSymbolTableRecord
100
AcDbLayerTableRecord
  2
prev-guide
 70
0
  6
CONTINUOUS
  0
LAYER
  5
5a
100
AcDbSymbolTableRecord
100
AcDbLayerTableRecord
  2
prev-mask
 70
0
  6
CONTINUOUS
  0
LAYER
  5
5b
100
AcDbSymbolTableRecord
100
AcDbLayerTableRecord
  2
gear
 70
0
  6
CONTINUOUS
  0
ENDTAB
  0
TABLE
  2
STYLE
  5
3
330
0
100
AcDbSymbolTable
 70
     1
  0
STYLE
  5
11
330
3
100
AcDbSymbolTableRecord
100
AcDbTextStyleTableRecord
  2
STANDARD
 70
     0
 40
0.0
 41
1.0
 50
0.0
 71
     0
 42
2.5
  3
txt
  4

  0
ENDTAB
  0
TABLE
  2
VIEW
  5
6
330
0
100
AcDbSymbolTable
 70
     0
  0
ENDTAB
  0
TABLE
  2
UCS
  5
7
330
0
100
AcDbSymbolTable
 70
     0
  0
ENDTAB
  0
TABLE
  2
APPID
  5
9
330
0
100
AcDbSymbolTable
 70
     2
  0
APPID
  5
12
330
9
100
AcDbSymbolTableRecord
100
AcDbRegAppTableRecord
  2
ACAD
 70
     0
  0
ENDTAB
  0
TABLE
  2
DIMSTYLE
  5
A
330
0
100
AcDbSymbolTable
 70
     1
  0
DIMSTYLE
105
27
330
A
100
AcDbSymbolTableRecord
100
AcDbDimStyleTableRecord
  2
ISO-25
 70
     0
  3

  4

  5

  6

  7

 40
1.0
 41
2.5
 42
0.625
 43
3.75
 44
1.25
 45
0.0
 46
0.0
 47
0.0
 48
0.0
140
2.5
141
2.5
142
0.0
143
0.03937007874016
144
1.0
145
0.0
146
1.0
147
0.625
 71
     0
 72
     0
 73
     0
 74
     0
 75
     0
 76
     0
 77
     1
 78
     8
170
     0
171
     3
172
     1
173
     0
174
     0
175
     0
176
     0
177
     0
178
     0
270
     2
271
     2
272
     2
273
     2
274
     3
340
11
275
     0
280
     0
281
     0
282
     0
283
     0
284
     8
285
     0
286
     0
287
     3
288
     0
  0
ENDTAB
  0
TABLE
  2
BLOCK_RECORD
  5
1
330
0
100
AcDbSymbolTable
 70
     1
  0
BLOCK_RECORD
  5
1F
330
1
100
AcDbSymbolTableRecord
100
AcDbBlockTableRecord
  2
*MODEL_SPACE
  0
BLOCK_RECORD
  5
1B
330
1
100
AcDbSymbolTableRecord
100
AcDbBlockTableRecord
  2
*PAPER_SPACE
  0
ENDTAB
  0
ENDSEC
  0
SECTION
  2
BLOCKS
  0
BLOCK
  5
20
330
1F
100
AcDbEntity
  8
0
100
AcDbBlockBegin
  2
*MODEL_SPACE
 70
     0
 10
0.0
 20
0.0
 30
0.0
  3
*MODEL_SPACE
  1

  0
ENDBLK
  5
21
330
1F
100
AcDbEntity
  8
0
100
AcDbBlockEnd
  0
BLOCK
  5
1C
330
1B
100
AcDbEntity
 67
     1
  8
0
100
AcDbBlockBegin
  2
*PAPER_SPACE
  1

  0
ENDBLK
  5
1D
330
1B
100
AcDbEntity
 67
     1
  8
0
100
AcDbBlockEnd
  0
ENDSEC
  0
SECTION
  2
ENTITIES
  0
LINE
  5
100
100
AcDbEntity
  8
outline_segments
 62
7
100
AcDbLine
 10
65.456088
 20
225.000000
 30
0.0
 11
111.355175
 21
225.000000
 31
0.0
  0
LINE
  5
101
100
AcDbEntity
  8
outline_segments
 62
7
100
AcDbLine
 10
111.355175
 20
225.000000
 30
0.0
 11
112.054606
 21
224.985437
 31
0.0
  0
LINE
  5
102
100
AcDbEntity
  8
outline_segments
 62
7
100
AcDbLine
 10
112.054606
 20
224.985437
 30
0.0
 11
112.738699
 21
224.942034
 31
0.0
  0
LINE
  5
103
100
AcDbEntity
  8
outline_segments
 62
7
100
AcDbLine
 10
112.738699
 20
224.942034
 30
0.0
 11
113.407001
 21
224.870260
 31
0.0
  0
LINE
  5
104
100
AcDbEntity
  8
outline_segments
 62
7
100
AcDbLine
 10
113.407001
 20
224.870260
 30
0.0
 11
114.059061
 21
224.770579
 31
0.0
  0
LINE
  5
105
100
AcDbEntity
  8
outline_segments
 62
7
100
AcDbLine
 10
114.059061
 20
224.770579
 30
0.0
 11
114.694431
 21
224.643460
 31
0.0
  0
LINE
  5
106
100
AcDbEntity
  8
outline_segments
 62
7
100
AcDbLine
 10
114.694431
 20
224.643460
 30
0.0
 11
115.312658
 21
224.489361
 31
0.0
  0
LINE
  5
107
100
AcDbEntity
  8
outline_segments
 62
7
100
AcDbLine
 10
115.312658
 20
224.489361
 30
0.0
 11
115.913298
 21
224.308748
 31
0.0
  0
LINE
  5
108
100
AcDbEntity
  8
outline_segments
 62
7
100
AcDbLine
 10
115.913298
 20
224.308748
 30
0.0
 11
116.495895
 21
224.102082
 31
0.0
  0
LINE
  5
109
100
AcDbEntity
  8
outline_segments
 62
7
100
AcDbLine
 10
116.495895
 20
224.102082
 30
0.0
 11
117.060001
 21
223.869830
 31
0.0
  0
LINE
  5
10a
100
AcDbEntity
  8
outline_segments
 62
7
100
AcDbLine
 10
117.060001
 20
223.869830
 30
0.0
 11
117.605164
 21
223.612457
 31
0.0
  0
LINE
  5
10b
100
AcDbEntity
  8
outline_segments
 62
7
100
AcDbLine
 10
117.605164
 20
223.612457
 30
0.0
 11
118.130938
 21
223.330424
 31
0.0
  0
LINE
  5
10c
100
AcDbEntity
  8
outline_segments
 62
7
100
AcDbLine
 10
118.130938
 20
223.330424
 30
0.0
 11
118.636869
 21
223.024196
 31
0.0
  0
LINE
  5
10d
100
AcDbEntity
  8
outline_segments
 62
7
100
AcDbLine
 10
118.636869
 20
223.024196
 30
0.0
 11
119.122506
 21
222.694233
 31
0.0
  0
LINE
  5
10e
100
AcDbEntity
  8
outline_segments
 62
7
100
AcDbLine
 10
119.122506
 20
222.694233
 30
0.0
 11
119.587405
 21
222.341007
 31
0.0
  0
LINE
  5
10f
100
AcDbEntity
  8
outline_segments
 62
7
100
AcDbLine
 10
119.587405
 20
222.341007
 30
0.0
 11
120.031109
 21
221.964971
 31
0.0
  0
LINE
  5
110
100
AcDbEntity
  8
outline_segments
 62
7
100
AcDbLine
 10
120.031109
 20
221.964971
 30
0.0
 11
120.453173
 21
221.566600
 31
0.0
  0
LINE
  5
111
100
AcDbEntity
  8
outline_segments
 62
7
100
AcDbLine
 10
120.453173
 20
221.566600
 30
0.0
 11
120.853144
 21
221.146349
 31
0.0
  0
LINE
  5
112
100
AcDbEntity
  8
outline_segments
 62
7
100
AcDbLine
 10
120.853144
 20
221.146349
 30
0.0
 11
121.230573
 21
220.704685
 31
0.0
  0
LINE
  5
113
100
AcDbEntity
  8
outline_segments
 62
7
100
AcDbLine
 10
121.230573
 20
220.704685
 30
0.0
 11
121.585008
 21
220.242072
 31
0.0
  0
LINE
  5
114
100
AcDbEntity
  8
outline_segments
 62
7
100
AcDbLine
 10
121.585008
 20
220.242072
 30
0.0
 11
121.916004
 21
219.758975
 31
0.0
  0
LINE
  5
115
100
AcDbEntity
  8
outline_segments
 62
7
100
AcDbLine
 10
121.916004
 20
219.758975
 30
0.0
 11
122.223104
 21
219.255855
 31
0.0
  0
LINE
  5
116
100
AcDbEntity
  8
outline_segments
 62
7
100
AcDbLine
 10
122.223104
 20
219.255855
 30
0.0
 11
122.505859
 21
218.733177
 31
0.0
  0
LINE
  5
117
100
AcDbEntity
  8
outline_segments
 62
7
100
AcDbLine
 10
122.505859
 20
218.733177
 30
0.0
 11
122.763825
 21
218.191403
 31
0.0
  0
LINE
  5
118
100
AcDbEntity
  8
outline_segments
 62
7
100
AcDbLine
 10
122.763825
 20
218.191403
 30
0.0
 11
122.996548
 21
217.631003
 31
0.0
  0
LINE
  5
119
100
AcDbEntity
  8
outline_segments
 62
7
100
AcDbLine
 10
122.996548
 20
217.631003
 30
0.0
 11
123.203575
 21
217.052433
 31
0.0
  0
LINE
  5
11a
100
AcDbEntity
  8
outline_segments
 62
7
100
AcDbLine
 10
123.203575
 20
217.052433
 30
0.0
 11
123.384460
 21
216.456160
 31
0.0
  0
LINE
  5
11b
100
AcDbEntity
  8
outline_segments
 62
7
100
AcDbLine
 10
123.384460
 20
216.456160
 30
0.0
 11
123.538753
 21
215.842648
 31
0.0
  0
LINE
  5
11c
100
AcDbEntity
  8
outline_segments
 62
7
100
AcDbLine
 10
123.538753
 20
215.842648
 30
0.0
 11
123.665999
 21
215.212361
 31
0.0
  0
LINE
  5
11d
100
AcDbEntity
  8
outline_segments
 62
7
100
AcDbLine
 10
123.665999
 20
215.212361
 30
0.0
 11
123.765753
 21
214.565762
 31
0.0
  0
LINE
  5
11e
100
AcDbEntity
  8
outline_segments
 62
7
100
AcDbLine
 10
123.765753
 20
214.565762
 30
0.0
 11
123.837565
 21
213.903316
 31
0.0
  0
LINE
  5
11f
100
AcDbEntity
  8
outline_segments
 62
7
100
AcDbLine
 10
123.837565
 20
213.903316
 30
0.0
 11
123.880982
 21
213.225486
 31
0.0
  0
LINE
  5
120
100
AcDbEntity
  8
outline_segments
 62
7
100
AcDbLine
 10
123.880982
 20
213.225486
 30
0.0
 11
123.895544
 21
212.532735
 31
0.0
  0
LINE
  5
121
100
AcDbEntity
  8
outline_segments
 62
7
100
AcDbLine
 10
123.895544
 20
212.532735
 30
0.0
 11
123.895544
 21
200.000008
 31
0.0
  0
LINE
  5
122
100
AcDbEntity
  8
outline_segments
 62
7
100
AcDbLine
 10
123.895544
 20
200.000008
 30
0.0
 11
77.778988
 21
200.000008
 31
0.0
  0
LINE
  5
123
100
AcDbEntity
  8
outline_segments
 62
7
100
AcDbLine
 10
77.778988
 20
200.000008
 30
0.0
 11
77.099343
 21
200.014570
 31
0.0
  0
LINE
  5
124
100
AcDbEntity
  8
outline_segments
 62
7
100
AcDbLine
 10
77.099343
 20
200.014570
 30
0.0
 11
76.433804
 21
200.057987
 31
0.0
  0
LINE
  5
125
100
AcDbEntity
  8
outline_segments
 62
7
100
AcDbLine
 10
76.433804
 20
200.057987
 30
0.0
 11
75.782853
 21
200.129799
 31
0.0
  0
LINE
  5
126
100
AcDbEntity
  8
outline_segments
 62
7
100
AcDbLine
 10
75.782853
 20
200.129799
 30
0.0
 11
75.146987
 21
200.229553
 31
0.0
  0
LINE
  5
127
100
AcDbEntity
  8
outline_segments
 62
7
100
AcDbLine
 10
75.146987
 20
200.229553
 30
0.0
 11
74.526693
 21
200.356796
 31
0.0
  0
LINE
  5
128
100
AcDbEntity
  8
outline_segments
 62
7
100
AcDbLine
 10
74.526693
 20
200.356796
 30
0.0
 11
73.922461
 21
200.511075
 31
0.0
  0
LINE
  5
129
100
AcDbEntity
  8
outline_segments
 62
7
100
AcDbLine
 10
73.922461
 20
200.511075
 30
0.0
 11
73.334781
 21
200.691943
 31
0.0
  0
LINE
  5
12a
100
AcDbEntity
  8
outline_segments
 62
7
100
AcDbLine
 10
73.334781
 20
200.691943
 30
0.0
 11
72.764145
 21
200.898945
 31
0.0
  0
LINE
  5
12b
100
AcDbEntity
  8
outline_segments
 62
7
100
AcDbLine
 10
72.764145
 20
200.898945
 30
0.0
 11
72.211040
 21
201.131629
 31
0.0
  0
LINE
  5
12c
100
AcDbEntity
  8
outline_segments
 62
7
100
AcDbLine
 10
72.211040
 20
201.131629
 30
0.0
 11
71.675961
 21
201.389546
 31
0.0
  0
LINE
  5
12d
100
AcDbEntity
  8
outline_segments
 62
7
100
AcDbLine
 10
71.675961
 20
201.389546
 30
0.0
 11
71.159393
 21
201.672239
 31
0.0
  0
LINE
  5
12e
100
AcDbEntity
  8
outline_segments
 62
7
100
AcDbLine
 10
71.159393
 20
201.672239
 30
0.0
 11
70.661829
 21
201.979260
 31
0.0
  0
LINE
  5
12f
100
AcDbEntity
  8
outline_segments
 62
7
100
AcDbLine
 10
70.661829
 20
201.979260
 30
0.0
 11
70.183759
 21
202.310157
 31
0.0
  0
LINE
  5
130
100
AcDbEntity
  8
outline_segments
 62
7
100
AcDbLine
 10
70.183759
 20
202.310157
 30
0.0
 11
69.725673
 21
202.664479
 31
0.0
  0
LINE
  5
131
100
AcDbEntity
  8
outline_segments
 62
7
100
AcDbLine
 10
69.725673
 20
202.664479
 30
0.0
 11
69.288059
 21
203.041773
 31
0.0
  0
LINE
  5
132
100
AcDbEntity
  8
outline_segments
 62
7
100
AcDbLine
 10
69.288059
 20
203.041773
 30
0.0
 11
68.871409
 21
203.441586
 31
0.0
  0
LINE
  5
133
100
AcDbEntity
  8
outline_segments
 62
7
100
AcDbLine
 10
68.871409
 20
203.441586
 30
0.0
 11
68.476216
 21
203.863469
 31
0.0
  0
LINE
  5
134
100
AcDbEntity
  8
outline_segments
 62
7
100
AcDbLine
 10
68.476216
 20
203.863469
 30
0.0
 11
68.102965
 21
204.306967
 31
0.0
  0
LINE
  5
135
100
AcDbEntity
  8
outline_segments
 62
7
100
AcDbLine
 10
68.102965
 20
204.306967
 30
0.0
 11
67.752149
 21
204.771632
 31
0.0
  0
LINE
  5
136
100
AcDbEntity
  8
outline_segments
 62
7
100
AcDbLine
 10
67.752149
 20
204.771632
 30
0.0
 11
67.424255
 21
205.257009
 31
0.0
  0
LINE
  5
137
100
AcDbEntity
  8
outline_segments
 62
7
100
AcDbLine
 10
67.424255
 20
205.257009
 30
0.0
 11
67.119779
 21
205.762647
 31
0.0
  0
LINE
  5
138
100
AcDbEntity
  8
outline_segments
 62
7
100
AcDbLine
 10
67.119779
 20
205.762647
 30
0.0
 11
66.839208
 21
206.288097
 31
0.0
  0
LINE
  5
139
100
AcDbEntity
  8
outline_segments
 62
7
100
AcDbLine
 10
66.839208
 20
206.288097
 30
0.0
 11
66.583029
 21
206.832901
 31
0.0
  0
LINE
  5
13a
100
AcDbEntity
  8
outline_segments
 62
7
100
AcDbLine
 10
66.583029
 20
206.832901
 30
0.0
 11
66.351737
 21
207.396615
 31
0.0
  0
LINE
  5
13b
100
AcDbEntity
  8
outline_segments
 62
7
100
AcDbLine
 10
66.351737
 20
207.396615
 30
0.0
 11
66.145819
 21
207.978783
 31
0.0
  0
LINE
  5
13c
100
AcDbEntity
  8
outline_segments
 62
7
100
AcDbLine
 10
66.145819
 20
207.978783
 30
0.0
 11
65.965770
 21
208.578951
 31
0.0
  0
LINE
  5
13d
100
AcDbEntity
  8
outline_segments
 62
7
100
AcDbLine
 10
65.965770
 20
208.578951
 30
0.0
 11
65.812072
 21
209.196670
 31
0.0
  0
LINE
  5
13e
100
AcDbEntity
  8
outline_segments
 62
7
100
AcDbLine
 10
65.812072
 20
209.196670
 30
0.0
 11
65.685221
 21
209.831490
 31
0.0
  0
LINE
  5
13f
100
AcDbEntity
  8
outline_segments
 62
7
100
AcDbLine
 10
65.685221
 20
209.831490
 30
0.0
 11
65.585707
 21
210.482957
 31
0.0
  0
LINE
  5
140
100
AcDbEntity
  8
outline_segments
 62
7
100
AcDbLine
 10
65.585707
 20
210.482957
 30
0.0
 11
65.514020
 21
211.150619
 31
0.0
  0
LINE
  5
141
100
AcDbEntity
  8
outline_segments
 62
7
100
AcDbLine
 10
65.514020
 20
211.150619
 30
0.0
 11
65.470645
 21
211.834026
 31
0.0
  0
LINE
  5
142
100
AcDbEntity
  8
outline_segments
 62
7
100
AcDbLine
 10
65.470645
 20
211.834026
 30
0.0
 11
65.456082
 21
212.532723
 31
0.0
  0
LINE
  5
143
100
AcDbEntity
  8
outline_segments
 62
7
100
AcDbLine
 10
65.456082
 20
212.532723
 30
0.0
 11
65.456088
 21
225.000000
 31
0.0
  0
ENDSEC
  0
SECTION
  2
OBJECTS
  0
DICTIONARY
  5
C
330
0
100
AcDbDictionary
  3
ACAD_GROUP
350
D
  3
ACAD_MLINESTYLE
350
17
  0
DICTIONARY
  5
D
330
C
100
AcDbDictionary
  0
DICTIONARY
  5
1A
330
C
100
AcDbDictionary
  0
DICTIONARY
  5
17
330
C
100
AcDbDictionary
  3
STANDARD
350
18
  0
DICTIONARY
  5
19
330
C
100
AcDbDictionary
  0
ENDSEC
  0
EOF
