M48
;DRILL file {KiCad 4.0.7-e2-6376~58~ubuntu14.04.1} date Wed May 23 14:48:16 2018
;FORMAT={-:-/ absolute / metric / decimal}
FMAT,2
METRIC,TZ
T1C0.400
T2C3.000
%
G90
G05
M71
T1
X133.83Y-87.9
X133.83Y-92.2
X136.23Y-85.25
X139.4Y-98.1
X141.28Y-95.7
X144.53Y-83.5
X144.6Y-97.
X145.23Y-83.045
X145.53Y-86.1
X145.849Y-92.67
X146.13Y-85.5
X147.78Y-81.65
X151.83Y-99.4
X152.13Y-81.2
X152.33Y-97.
X157.03Y-88.9
X158.63Y-95.
X160.33Y-96.9
X160.63Y-94.4
X165.63Y-93.2
X166.38Y-79.6
X166.43Y-92.5
X166.83Y-94.4
X167.13Y-83.5
X167.43Y-95.
X167.93Y-96.9
X169.9Y-89.4
X170.5Y-90.1
X172.48Y-86.3
X173.18Y-95.8
X173.5Y-80.3
X174.1Y-87.8
X175.1Y-84.
X176.83Y-94.5
X177.73Y-81.2
X178.08Y-93.9
X179.7Y-83.4
X180.88Y-90.1
X182.4Y-82.35
X183.43Y-92.65
X183.43Y-93.9
X184.63Y-89.4
X185.292Y-86.208
X186.184Y-94.6
X186.43Y-89.5
T2
X150.Y-90.
T0
M30
