  0
SECTION
  2
HEADER
  9
$ACADVER
  1
AC1014
  9
$HANDSEED
  5
FFFF
  9
$MEASUREMENT
 70
     1
  0
ENDSEC
  0
SECTION
  2
TABLES
  0
TABLE
  2
VPORT
  5
8
330
0
100
AcDbSymbolTable
 70
     4
  0
VPORT
  5
2E
330
8
100
AcDbSymbolTableRecord
100
AcDbViewportTableRecord
  2
*ACTIVE
 70
     0
 10
0.0
 20
0.0
 11
1.0
 21
1.0
 12
210.0
 22
148.5
 13
0.0
 23
0.0
 14
10.0
 24
10.0
 15
10.0
 25
10.0
 16
0.0
 26
0.0
 36
1.0
 17
0.0
 27
0.0
 37
0.0
 40
341.0
 41
1.24
 42
50.0
 43
0.0
 44
0.0
 50
0.0
 51
0.0
 71
     0
 72
   100
 73
     1
 74
     3
 75
     0
 76
     0
 77
     0
 78
     0
  0
ENDTAB
  0
TABLE
  2
LTYPE
  5
5
330
0
100
AcDbSymbolTable
 70
     1
  0
LTYPE
  5
14
330
5
100
AcDbSymbolTableRecord
100
AcDbLinetypeTableRecord
  2
BYBLOCK
 70
     0
  3

 72
    65
 73
     0
 40
0.0
  0
LTYPE
  5
15
330
5
100
AcDbSymbolTableRecord
100
AcDbLinetypeTableRecord
  2
BYLAYER
 70
     0
  3

 72
    65
 73
     0
 40
0.0
  0
LTYPE
  5
16
330
5
100
AcDbSymbolTableRecord
100
AcDbLinetypeTableRecord
  2
CONTINUOUS
 70
     0
  3
Solid line
 72
    65
 73
     0
 40
0.0
  0
ENDTAB
  0
TABLE
  2
LAYER
  5
2
100
AcDbSymbolTable
 70
13
  0
LAYER
  5
50
100
AcDbSymbolTableRecord
100
AcDbLayerTableRecord
  2
0
 70
0
  6
CONTINUOUS
  0
LAYER
  5
51
100
AcDbSymbolTableRecord
100
AcDbLayerTableRecord
  2
background_white
 70
0
  6
CONTINUOUS
  0
LAYER
  5
52
100
AcDbSymbolTableRecord
100
AcDbLayerTableRecord
  2
prev-motor
 70
0
  6
CONTINUOUS
  0
LAYER
  5
53
100
AcDbSymbolTableRecord
100
AcDbLayerTableRecord
  2
pads
 70
0
  6
CONTINUOUS
  0
LAYER
  5
54
100
AcDbSymbolTableRecord
100
AcDbLayerTableRecord
  2
copper
 70
0
  6
CONTINUOUS
  0
LAYER
  5
55
100
AcDbSymbolTableRecord
100
AcDbLayerTableRecord
  2
outline_old
 70
0
  6
CONTINUOUS
  0
LAYER
  5
56
100
AcDbSymbolTableRecord
100
AcDbLayerTableRecord
  2
outline
 70
0
  6
CONTINUOUS
  0
LAYER
  5
57
100
AcDbSymbolTableRecord
100
AcDbLayerTableRecord
  2
outline_segments
 70
0
  6
CONTINUOUS
  0
LAYER
  5
58
100
AcDbSymbolTableRecord
100
AcDbLayerTableRecord
  2
prev-silk_large
 70
0
  6
CONTINUOUS
  0
LAYER
  5
59
100
AcDbSymbolTableRecord
100
AcDbLayerTableRecord
  2
prev-copper_large
 70
0
  6
CONTINUOUS
  0
LAYER
  5
5a
100
AcDbSymbolTableRecord
100
AcDbLayerTableRecord
  2
prev-guide
 70
0
  6
CONTINUOUS
  0
LAYER
  5
5b
100
AcDbSymbolTableRecord
100
AcDbLayerTableRecord
  2
prev-mask
 70
0
  6
CONTINUOUS
  0
LAYER
  5
5c
100
AcDbSymbolTableRecord
100
AcDbLayerTableRecord
  2
gear
 70
0
  6
CONTINUOUS
  0
ENDTAB
  0
TABLE
  2
STYLE
  5
3
330
0
100
AcDbSymbolTable
 70
     1
  0
STYLE
  5
11
330
3
100
AcDbSymbolTableRecord
100
AcDbTextStyleTableRecord
  2
STANDARD
 70
     0
 40
0.0
 41
1.0
 50
0.0
 71
     0
 42
2.5
  3
txt
  4

  0
ENDTAB
  0
TABLE
  2
VIEW
  5
6
330
0
100
AcDbSymbolTable
 70
     0
  0
ENDTAB
  0
TABLE
  2
UCS
  5
7
330
0
100
AcDbSymbolTable
 70
     0
  0
ENDTAB
  0
TABLE
  2
APPID
  5
9
330
0
100
AcDbSymbolTable
 70
     2
  0
APPID
  5
12
330
9
100
AcDbSymbolTableRecord
100
AcDbRegAppTableRecord
  2
ACAD
 70
     0
  0
ENDTAB
  0
TABLE
  2
DIMSTYLE
  5
A
330
0
100
AcDbSymbolTable
 70
     1
  0
DIMSTYLE
105
27
330
A
100
AcDbSymbolTableRecord
100
AcDbDimStyleTableRecord
  2
ISO-25
 70
     0
  3

  4

  5

  6

  7

 40
1.0
 41
2.5
 42
0.625
 43
3.75
 44
1.25
 45
0.0
 46
0.0
 47
0.0
 48
0.0
140
2.5
141
2.5
142
0.0
143
0.03937007874016
144
1.0
145
0.0
146
1.0
147
0.625
 71
     0
 72
     0
 73
     0
 74
     0
 75
     0
 76
     0
 77
     1
 78
     8
170
     0
171
     3
172
     1
173
     0
174
     0
175
     0
176
     0
177
     0
178
     0
270
     2
271
     2
272
     2
273
     2
274
     3
340
11
275
     0
280
     0
281
     0
282
     0
283
     0
284
     8
285
     0
286
     0
287
     3
288
     0
  0
ENDTAB
  0
TABLE
  2
BLOCK_RECORD
  5
1
330
0
100
AcDbSymbolTable
 70
     1
  0
BLOCK_RECORD
  5
1F
330
1
100
AcDbSymbolTableRecord
100
AcDbBlockTableRecord
  2
*MODEL_SPACE
  0
BLOCK_RECORD
  5
1B
330
1
100
AcDbSymbolTableRecord
100
AcDbBlockTableRecord
  2
*PAPER_SPACE
  0
ENDTAB
  0
ENDSEC
  0
SECTION
  2
BLOCKS
  0
BLOCK
  5
20
330
1F
100
AcDbEntity
  8
0
100
AcDbBlockBegin
  2
*MODEL_SPACE
 70
     0
 10
0.0
 20
0.0
 30
0.0
  3
*MODEL_SPACE
  1

  0
ENDBLK
  5
21
330
1F
100
AcDbEntity
  8
0
100
AcDbBlockEnd
  0
BLOCK
  5
1C
330
1B
100
AcDbEntity
 67
     1
  8
0
100
AcDbBlockBegin
  2
*PAPER_SPACE
  1

  0
ENDBLK
  5
1D
330
1B
100
AcDbEntity
 67
     1
  8
0
100
AcDbBlockEnd
  0
ENDSEC
  0
SECTION
  2
ENTITIES
  0
SPLINE
  5
100
100
AcDbEntity
  8
outline
 62
7
100
AcDbSpline
 70
8
 71
3
 72
8
 73
4
 74
0
 40
0
 40
0
 40
0
 40
0
 40
1
 40
1
 40
1
 40
1
 10
65.456088
 20
225.000000
 30
0.0
 10
74.544205
 20
225.000000
 30
0.0
 10
79.465599
 20
221.450875
 30
0.0
 10
111.355175
 20
225.000000
 30
0.0
  0
SPLINE
  5
101
100
AcDbEntity
  8
outline
 62
7
100
AcDbSpline
 70
8
 71
3
 72
8
 73
4
 74
0
 40
0
 40
0
 40
0
 40
0
 40
1
 40
1
 40
1
 40
1
 10
111.355175
 20
225.000000
 30
0.0
 10
118.849727
 20
225.834099
 30
0.0
 10
123.895553
 20
219.999999
 30
0.0
 10
123.895553
 20
212.532726
 30
0.0
  0
LINE
  5
102
100
AcDbEntity
  8
outline
 62
7
100
AcDbLine
 10
123.895553
 20
212.532726
 30
0.0
 11
123.895553
 21
206.246551
 31
0.0
  0
SPLINE
  5
103
100
AcDbEntity
  8
outline
 62
7
100
AcDbSpline
 70
8
 71
3
 72
8
 73
4
 74
0
 40
0
 40
0
 40
0
 40
0
 40
1
 40
1
 40
1
 40
1
 10
123.895553
 20
206.246551
 30
0.0
 10
105.142103
 20
206.246551
 30
0.0
 10
91.692716
 20
199.999999
 30
0.0
 10
77.778997
 20
199.999999
 30
0.0
  0
SPLINE
  5
104
100
AcDbEntity
  8
outline
 62
7
100
AcDbSpline
 70
8
 71
3
 72
8
 73
4
 74
0
 40
0
 40
0
 40
0
 40
0
 40
1
 40
1
 40
1
 40
1
 10
77.778997
 20
199.999999
 30
0.0
 10
70.455999
 20
199.999999
 30
0.0
 10
65.456088
 20
204.999998
 30
0.0
 10
65.456088
 20
212.532726
 30
0.0
  0
LINE
  5
105
100
AcDbEntity
  8
outline
 62
7
100
AcDbLine
 10
65.456088
 20
212.532726
 30
0.0
 11
65.456088
 21
225.000000
 31
0.0
  0
LINE
  5
106
100
AcDbEntity
  8
outline_segments
 62
7
100
AcDbLine
 10
65.456088
 20
225.000000
 30
0.0
 11
65.879162
 21
224.997460
 31
0.0
  0
LINE
  5
107
100
AcDbEntity
  8
outline_segments
 62
7
100
AcDbLine
 10
65.879162
 20
224.997460
 30
0.0
 11
66.296842
 21
224.989953
 31
0.0
  0
LINE
  5
108
100
AcDbEntity
  8
outline_segments
 62
7
100
AcDbLine
 10
66.296842
 20
224.989953
 30
0.0
 11
66.709846
 21
224.977733
 31
0.0
  0
LINE
  5
109
100
AcDbEntity
  8
outline_segments
 62
7
100
AcDbLine
 10
66.709846
 20
224.977733
 30
0.0
 11
67.118882
 21
224.961053
 31
0.0
  0
LINE
  5
10a
100
AcDbEntity
  8
outline_segments
 62
7
100
AcDbLine
 10
67.118882
 20
224.961053
 30
0.0
 11
67.524667
 21
224.940141
 31
0.0
  0
LINE
  5
10b
100
AcDbEntity
  8
outline_segments
 62
7
100
AcDbLine
 10
67.524667
 20
224.940141
 30
0.0
 11
67.927911
 21
224.915249
 31
0.0
  0
LINE
  5
10c
100
AcDbEntity
  8
outline_segments
 62
7
100
AcDbLine
 10
67.927911
 20
224.915249
 30
0.0
 11
68.329327
 21
224.886614
 31
0.0
  0
LINE
  5
10d
100
AcDbEntity
  8
outline_segments
 62
7
100
AcDbLine
 10
68.329327
 20
224.886614
 30
0.0
 11
68.729626
 21
224.854486
 31
0.0
  0
LINE
  5
10e
100
AcDbEntity
  8
outline_segments
 62
7
100
AcDbLine
 10
68.729626
 20
224.854486
 30
0.0
 11
69.129526
 21
224.819110
 31
0.0
  0
LINE
  5
10f
100
AcDbEntity
  8
outline_segments
 62
7
100
AcDbLine
 10
69.129526
 20
224.819110
 30
0.0
 11
69.529734
 21
224.780728
 31
0.0
  0
LINE
  5
110
100
AcDbEntity
  8
outline_segments
 62
7
100
AcDbLine
 10
69.529734
 20
224.780728
 30
0.0
 11
69.930964
 21
224.739582
 31
0.0
  0
LINE
  5
111
100
AcDbEntity
  8
outline_segments
 62
7
100
AcDbLine
 10
69.930964
 20
224.739582
 30
0.0
 11
70.333929
 21
224.695920
 31
0.0
  0
LINE
  5
112
100
AcDbEntity
  8
outline_segments
 62
7
100
AcDbLine
 10
70.333929
 20
224.695920
 30
0.0
 11
70.739344
 21
224.649982
 31
0.0
  0
LINE
  5
113
100
AcDbEntity
  8
outline_segments
 62
7
100
AcDbLine
 10
70.739344
 20
224.649982
 30
0.0
 11
71.147917
 21
224.602016
 31
0.0
  0
LINE
  5
114
100
AcDbEntity
  8
outline_segments
 62
7
100
AcDbLine
 10
71.147917
 20
224.602016
 30
0.0
 11
71.560365
 21
224.552260
 31
0.0
  0
LINE
  5
115
100
AcDbEntity
  8
outline_segments
 62
7
100
AcDbLine
 10
71.560365
 20
224.552260
 30
0.0
 11
71.977397
 21
224.500961
 31
0.0
  0
LINE
  5
116
100
AcDbEntity
  8
outline_segments
 62
7
100
AcDbLine
 10
71.977397
 20
224.500961
 30
0.0
 11
72.399728
 21
224.448363
 31
0.0
  0
LINE
  5
117
100
AcDbEntity
  8
outline_segments
 62
7
100
AcDbLine
 10
72.399728
 20
224.448363
 30
0.0
 11
72.828071
 21
224.394707
 31
0.0
  0
LINE
  5
118
100
AcDbEntity
  8
outline_segments
 62
7
100
AcDbLine
 10
72.828071
 20
224.394707
 30
0.0
 11
73.263139
 21
224.340241
 31
0.0
  0
LINE
  5
119
100
AcDbEntity
  8
outline_segments
 62
7
100
AcDbLine
 10
73.263139
 20
224.340241
 30
0.0
 11
73.705641
 21
224.285205
 31
0.0
  0
LINE
  5
11a
100
AcDbEntity
  8
outline_segments
 62
7
100
AcDbLine
 10
73.705641
 20
224.285205
 30
0.0
 11
74.156291
 21
224.229847
 31
0.0
  0
LINE
  5
11b
100
AcDbEntity
  8
outline_segments
 62
7
100
AcDbLine
 10
74.156291
 20
224.229847
 30
0.0
 11
74.615802
 21
224.174404
 31
0.0
  0
LINE
  5
11c
100
AcDbEntity
  8
outline_segments
 62
7
100
AcDbLine
 10
74.615802
 20
224.174404
 30
0.0
 11
75.084889
 21
224.119125
 31
0.0
  0
LINE
  5
11d
100
AcDbEntity
  8
outline_segments
 62
7
100
AcDbLine
 10
75.084889
 20
224.119125
 30
0.0
 11
75.564263
 21
224.064253
 31
0.0
  0
LINE
  5
11e
100
AcDbEntity
  8
outline_segments
 62
7
100
AcDbLine
 10
75.564263
 20
224.064253
 30
0.0
 11
76.054636
 21
224.010029
 31
0.0
  0
LINE
  5
11f
100
AcDbEntity
  8
outline_segments
 62
7
100
AcDbLine
 10
76.054636
 20
224.010029
 30
0.0
 11
76.556720
 21
223.956701
 31
0.0
  0
LINE
  5
120
100
AcDbEntity
  8
outline_segments
 62
7
100
AcDbLine
 10
76.556720
 20
223.956701
 30
0.0
 11
77.071228
 21
223.904507
 31
0.0
  0
LINE
  5
121
100
AcDbEntity
  8
outline_segments
 62
7
100
AcDbLine
 10
77.071228
 20
223.904507
 30
0.0
 11
77.598874
 21
223.853695
 31
0.0
  0
LINE
  5
122
100
AcDbEntity
  8
outline_segments
 62
7
100
AcDbLine
 10
77.598874
 20
223.853695
 30
0.0
 11
78.140371
 21
223.804510
 31
0.0
  0
LINE
  5
123
100
AcDbEntity
  8
outline_segments
 62
7
100
AcDbLine
 10
78.140371
 20
223.804510
 30
0.0
 11
78.696431
 21
223.757192
 31
0.0
  0
LINE
  5
124
100
AcDbEntity
  8
outline_segments
 62
7
100
AcDbLine
 10
78.696431
 20
223.757192
 30
0.0
 11
79.267764
 21
223.711986
 31
0.0
  0
LINE
  5
125
100
AcDbEntity
  8
outline_segments
 62
7
100
AcDbLine
 10
79.267764
 20
223.711986
 30
0.0
 11
79.855085
 21
223.669136
 31
0.0
  0
LINE
  5
126
100
AcDbEntity
  8
outline_segments
 62
7
100
AcDbLine
 10
79.855085
 20
223.669136
 30
0.0
 11
80.459106
 21
223.628883
 31
0.0
  0
LINE
  5
127
100
AcDbEntity
  8
outline_segments
 62
7
100
AcDbLine
 10
80.459106
 20
223.628883
 30
0.0
 11
81.080539
 21
223.591477
 31
0.0
  0
LINE
  5
128
100
AcDbEntity
  8
outline_segments
 62
7
100
AcDbLine
 10
81.080539
 20
223.591477
 30
0.0
 11
81.720100
 21
223.557156
 31
0.0
  0
LINE
  5
129
100
AcDbEntity
  8
outline_segments
 62
7
100
AcDbLine
 10
81.720100
 20
223.557156
 30
0.0
 11
82.378499
 21
223.526165
 31
0.0
  0
LINE
  5
12a
100
AcDbEntity
  8
outline_segments
 62
7
100
AcDbLine
 10
82.378499
 20
223.526165
 30
0.0
 11
83.056448
 21
223.498761
 31
0.0
  0
LINE
  5
12b
100
AcDbEntity
  8
outline_segments
 62
7
100
AcDbLine
 10
83.056448
 20
223.498761
 30
0.0
 11
83.754660
 21
223.475168
 31
0.0
  0
LINE
  5
12c
100
AcDbEntity
  8
outline_segments
 62
7
100
AcDbLine
 10
83.754660
 20
223.475168
 30
0.0
 11
84.473847
 21
223.455638
 31
0.0
  0
LINE
  5
12d
100
AcDbEntity
  8
outline_segments
 62
7
100
AcDbLine
 10
84.473847
 20
223.455638
 30
0.0
 11
85.214725
 21
223.440398
 31
0.0
  0
LINE
  5
12e
100
AcDbEntity
  8
outline_segments
 62
7
100
AcDbLine
 10
85.214725
 20
223.440398
 30
0.0
 11
85.978001
 21
223.429730
 31
0.0
  0
LINE
  5
12f
100
AcDbEntity
  8
outline_segments
 62
7
100
AcDbLine
 10
85.978001
 20
223.429730
 30
0.0
 11
86.764393
 21
223.423831
 31
0.0
  0
LINE
  5
130
100
AcDbEntity
  8
outline_segments
 62
7
100
AcDbLine
 10
86.764393
 20
223.423831
 30
0.0
 11
87.574614
 21
223.422985
 31
0.0
  0
LINE
  5
131
100
AcDbEntity
  8
outline_segments
 62
7
100
AcDbLine
 10
87.574614
 20
223.422985
 30
0.0
 11
88.409371
 21
223.427416
 31
0.0
  0
LINE
  5
132
100
AcDbEntity
  8
outline_segments
 62
7
100
AcDbLine
 10
88.409371
 20
223.427416
 30
0.0
 11
89.269378
 21
223.437378
 31
0.0
  0
LINE
  5
133
100
AcDbEntity
  8
outline_segments
 62
7
100
AcDbLine
 10
89.269378
 20
223.437378
 30
0.0
 11
90.155353
 21
223.453098
 31
0.0
  0
LINE
  5
134
100
AcDbEntity
  8
outline_segments
 62
7
100
AcDbLine
 10
90.155353
 20
223.453098
 30
0.0
 11
91.068003
 21
223.474829
 31
0.0
  0
LINE
  5
135
100
AcDbEntity
  8
outline_segments
 62
7
100
AcDbLine
 10
91.068003
 20
223.474829
 30
0.0
 11
92.008043
 21
223.502825
 31
0.0
  0
LINE
  5
136
100
AcDbEntity
  8
outline_segments
 62
7
100
AcDbLine
 10
92.008043
 20
223.502825
 30
0.0
 11
92.976186
 21
223.537310
 31
0.0
  0
LINE
  5
137
100
AcDbEntity
  8
outline_segments
 62
7
100
AcDbLine
 10
92.976186
 20
223.537310
 30
0.0
 11
93.973145
 21
223.578534
 31
0.0
  0
LINE
  5
138
100
AcDbEntity
  8
outline_segments
 62
7
100
AcDbLine
 10
93.973145
 20
223.578534
 30
0.0
 11
94.999629
 21
223.626746
 31
0.0
  0
LINE
  5
139
100
AcDbEntity
  8
outline_segments
 62
7
100
AcDbLine
 10
94.999629
 20
223.626746
 30
0.0
 11
96.056354
 21
223.682189
 31
0.0
  0
LINE
  5
13a
100
AcDbEntity
  8
outline_segments
 62
7
100
AcDbLine
 10
96.056354
 20
223.682189
 30
0.0
 11
97.144033
 21
223.745105
 31
0.0
  0
LINE
  5
13b
100
AcDbEntity
  8
outline_segments
 62
7
100
AcDbLine
 10
97.144033
 20
223.745105
 30
0.0
 11
98.263374
 21
223.815736
 31
0.0
  0
LINE
  5
13c
100
AcDbEntity
  8
outline_segments
 62
7
100
AcDbLine
 10
98.263374
 20
223.815736
 30
0.0
 11
99.415095
 21
223.894330
 31
0.0
  0
LINE
  5
13d
100
AcDbEntity
  8
outline_segments
 62
7
100
AcDbLine
 10
99.415095
 20
223.894330
 30
0.0
 11
100.599906
 21
223.981127
 31
0.0
  0
LINE
  5
13e
100
AcDbEntity
  8
outline_segments
 62
7
100
AcDbLine
 10
100.599906
 20
223.981127
 30
0.0
 11
101.818522
 21
224.076371
 31
0.0
  0
LINE
  5
13f
100
AcDbEntity
  8
outline_segments
 62
7
100
AcDbLine
 10
101.818522
 20
224.076371
 30
0.0
 11
103.071653
 21
224.180308
 31
0.0
  0
LINE
  5
140
100
AcDbEntity
  8
outline_segments
 62
7
100
AcDbLine
 10
103.071653
 20
224.180308
 30
0.0
 11
104.360012
 21
224.293183
 31
0.0
  0
LINE
  5
141
100
AcDbEntity
  8
outline_segments
 62
7
100
AcDbLine
 10
104.360012
 20
224.293183
 30
0.0
 11
105.684312
 21
224.415236
 31
0.0
  0
LINE
  5
142
100
AcDbEntity
  8
outline_segments
 62
7
100
AcDbLine
 10
105.684312
 20
224.415236
 30
0.0
 11
107.045266
 21
224.546712
 31
0.0
  0
LINE
  5
143
100
AcDbEntity
  8
outline_segments
 62
7
100
AcDbLine
 10
107.045266
 20
224.546712
 30
0.0
 11
108.443584
 21
224.687854
 31
0.0
  0
LINE
  5
144
100
AcDbEntity
  8
outline_segments
 62
7
100
AcDbLine
 10
108.443584
 20
224.687854
 30
0.0
 11
109.879985
 21
224.838905
 31
0.0
  0
LINE
  5
145
100
AcDbEntity
  8
outline_segments
 62
7
100
AcDbLine
 10
109.879985
 20
224.838905
 30
0.0
 11
111.355175
 21
225.000113
 31
0.0
  0
LINE
  5
146
100
AcDbEntity
  8
outline_segments
 62
7
100
AcDbLine
 10
111.355175
 20
225.000113
 30
0.0
 11
112.050536
 21
225.058928
 31
0.0
  0
LINE
  5
147
100
AcDbEntity
  8
outline_segments
 62
7
100
AcDbLine
 10
112.050536
 20
225.058928
 30
0.0
 11
112.731073
 21
225.079587
 31
0.0
  0
LINE
  5
148
100
AcDbEntity
  8
outline_segments
 62
7
100
AcDbLine
 10
112.731073
 20
225.079587
 30
0.0
 11
113.396310
 21
225.063020
 31
0.0
  0
LINE
  5
149
100
AcDbEntity
  8
outline_segments
 62
7
100
AcDbLine
 10
113.396310
 20
225.063020
 30
0.0
 11
114.045774
 21
225.010152
 31
0.0
  0
LINE
  5
14a
100
AcDbEntity
  8
outline_segments
 62
7
100
AcDbLine
 10
114.045774
 20
225.010152
 30
0.0
 11
114.678988
 21
224.921901
 31
0.0
  0
LINE
  5
14b
100
AcDbEntity
  8
outline_segments
 62
7
100
AcDbLine
 10
114.678988
 20
224.921901
 30
0.0
 11
115.295477
 21
224.799185
 31
0.0
  0
LINE
  5
14c
100
AcDbEntity
  8
outline_segments
 62
7
100
AcDbLine
 10
115.295477
 20
224.799185
 30
0.0
 11
115.894764
 21
224.642933
 31
0.0
  0
LINE
  5
14d
100
AcDbEntity
  8
outline_segments
 62
7
100
AcDbLine
 10
115.894764
 20
224.642933
 30
0.0
 11
116.476374
 21
224.454061
 31
0.0
  0
LINE
  5
14e
100
AcDbEntity
  8
outline_segments
 62
7
100
AcDbLine
 10
116.476374
 20
224.454061
 30
0.0
 11
117.039830
 21
224.233493
 31
0.0
  0
LINE
  5
14f
100
AcDbEntity
  8
outline_segments
 62
7
100
AcDbLine
 10
117.039830
 20
224.233493
 30
0.0
 11
117.584660
 21
223.982152
 31
0.0
  0
LINE
  5
150
100
AcDbEntity
  8
outline_segments
 62
7
100
AcDbLine
 10
117.584660
 20
223.982152
 30
0.0
 11
118.110387
 21
223.700959
 31
0.0
  0
LINE
  5
151
100
AcDbEntity
  8
outline_segments
 62
7
100
AcDbLine
 10
118.110387
 20
223.700959
 30
0.0
 11
118.616532
 21
223.390837
 31
0.0
  0
LINE
  5
152
100
AcDbEntity
  8
outline_segments
 62
7
100
AcDbLine
 10
118.616532
 20
223.390837
 30
0.0
 11
119.102626
 21
223.052703
 31
0.0
  0
LINE
  5
153
100
AcDbEntity
  8
outline_segments
 62
7
100
AcDbLine
 10
119.102626
 20
223.052703
 30
0.0
 11
119.568189
 21
222.687485
 31
0.0
  0
LINE
  5
154
100
AcDbEntity
  8
outline_segments
 62
7
100
AcDbLine
 10
119.568189
 20
222.687485
 30
0.0
 11
120.012745
 21
222.296105
 31
0.0
  0
LINE
  5
155
100
AcDbEntity
  8
outline_segments
 62
7
100
AcDbLine
 10
120.012745
 20
222.296105
 30
0.0
 11
120.435822
 21
221.879480
 31
0.0
  0
LINE
  5
156
100
AcDbEntity
  8
outline_segments
 62
7
100
AcDbLine
 10
120.435822
 20
221.879480
 30
0.0
 11
120.836941
 21
221.438533
 31
0.0
  0
LINE
  5
157
100
AcDbEntity
  8
outline_segments
 62
7
100
AcDbLine
 10
120.836941
 20
221.438533
 30
0.0
 11
121.215627
 21
220.974190
 31
0.0
  0
LINE
  5
158
100
AcDbEntity
  8
outline_segments
 62
7
100
AcDbLine
 10
121.215627
 20
220.974190
 30
0.0
 11
121.571405
 21
220.487371
 31
0.0
  0
LINE
  5
159
100
AcDbEntity
  8
outline_segments
 62
7
100
AcDbLine
 10
121.571405
 20
220.487371
 30
0.0
 11
121.903800
 21
219.978996
 31
0.0
  0
LINE
  5
15a
100
AcDbEntity
  8
outline_segments
 62
7
100
AcDbLine
 10
121.903800
 20
219.978996
 30
0.0
 11
122.212337
 21
219.449990
 31
0.0
  0
LINE
  5
15b
100
AcDbEntity
  8
outline_segments
 62
7
100
AcDbLine
 10
122.212337
 20
219.449990
 30
0.0
 11
122.496540
 21
218.901271
 31
0.0
  0
LINE
  5
15c
100
AcDbEntity
  8
outline_segments
 62
7
100
AcDbLine
 10
122.496540
 20
218.901271
 30
0.0
 11
122.755934
 21
218.333764
 31
0.0
  0
LINE
  5
15d
100
AcDbEntity
  8
outline_segments
 62
7
100
AcDbLine
 10
122.755934
 20
218.333764
 30
0.0
 11
122.990040
 21
217.748390
 31
0.0
  0
LINE
  5
15e
100
AcDbEntity
  8
outline_segments
 62
7
100
AcDbLine
 10
122.990040
 20
217.748390
 30
0.0
 11
123.198385
 21
217.146072
 31
0.0
  0
LINE
  5
15f
100
AcDbEntity
  8
outline_segments
 62
7
100
AcDbLine
 10
123.198385
 20
217.146072
 30
0.0
 11
123.380494
 21
216.527731
 31
0.0
  0
LINE
  5
160
100
AcDbEntity
  8
outline_segments
 62
7
100
AcDbLine
 10
123.380494
 20
216.527731
 30
0.0
 11
123.535892
 21
215.894286
 31
0.0
  0
LINE
  5
161
100
AcDbEntity
  8
outline_segments
 62
7
100
AcDbLine
 10
123.535892
 20
215.894286
 30
0.0
 11
123.664102
 21
215.246665
 31
0.0
  0
LINE
  5
162
100
AcDbEntity
  8
outline_segments
 62
7
100
AcDbLine
 10
123.664102
 20
215.246665
 30
0.0
 11
123.764650
 21
214.585788
 31
0.0
  0
LINE
  5
163
100
AcDbEntity
  8
outline_segments
 62
7
100
AcDbLine
 10
123.764650
 20
214.585788
 30
0.0
 11
123.837057
 21
213.912573
 31
0.0
  0
LINE
  5
164
100
AcDbEntity
  8
outline_segments
 62
7
100
AcDbLine
 10
123.837057
 20
213.912573
 30
0.0
 11
123.880849
 21
213.227947
 31
0.0
  0
LINE
  5
165
100
AcDbEntity
  8
outline_segments
 62
7
100
AcDbLine
 10
123.880849
 20
213.227947
 30
0.0
 11
123.895553
 21
212.532828
 31
0.0
  0
LINE
  5
166
100
AcDbEntity
  8
outline_segments
 62
7
100
AcDbLine
 10
123.895553
 20
212.532828
 30
0.0
 11
123.895553
 21
206.246652
 31
0.0
  0
LINE
  5
167
100
AcDbEntity
  8
outline_segments
 62
7
100
AcDbLine
 10
123.895553
 20
206.246652
 30
0.0
 11
123.020348
 21
206.242137
 31
0.0
  0
LINE
  5
168
100
AcDbEntity
  8
outline_segments
 62
7
100
AcDbLine
 10
123.020348
 20
206.242137
 30
0.0
 11
122.152780
 21
206.228731
 31
0.0
  0
LINE
  5
169
100
AcDbEntity
  8
outline_segments
 62
7
100
AcDbLine
 10
122.152780
 20
206.228731
 30
0.0
 11
121.292719
 21
206.206746
 31
0.0
  0
LINE
  5
16a
100
AcDbEntity
  8
outline_segments
 62
7
100
AcDbLine
 10
121.292719
 20
206.206746
 30
0.0
 11
120.440029
 21
206.176483
 31
0.0
  0
LINE
  5
16b
100
AcDbEntity
  8
outline_segments
 62
7
100
AcDbLine
 10
120.440029
 20
206.176483
 30
0.0
 11
119.594582
 21
206.138214
 31
0.0
  0
LINE
  5
16c
100
AcDbEntity
  8
outline_segments
 62
7
100
AcDbLine
 10
119.594582
 20
206.138214
 30
0.0
 11
118.756247
 21
206.092226
 31
0.0
  0
LINE
  5
16d
100
AcDbEntity
  8
outline_segments
 62
7
100
AcDbLine
 10
118.756247
 20
206.092226
 30
0.0
 11
117.924885
 21
206.038801
 31
0.0
  0
LINE
  5
16e
100
AcDbEntity
  8
outline_segments
 62
7
100
AcDbLine
 10
117.924885
 20
206.038801
 30
0.0
 11
117.100370
 21
205.978228
 31
0.0
  0
LINE
  5
16f
100
AcDbEntity
  8
outline_segments
 62
7
100
AcDbLine
 10
117.100370
 20
205.978228
 30
0.0
 11
116.282569
 21
205.910794
 31
0.0
  0
LINE
  5
170
100
AcDbEntity
  8
outline_segments
 62
7
100
AcDbLine
 10
116.282569
 20
205.910794
 30
0.0
 11
115.471349
 21
205.836781
 31
0.0
  0
LINE
  5
171
100
AcDbEntity
  8
outline_segments
 62
7
100
AcDbLine
 10
115.471349
 20
205.836781
 30
0.0
 11
114.666578
 21
205.756480
 31
0.0
  0
LINE
  5
172
100
AcDbEntity
  8
outline_segments
 62
7
100
AcDbLine
 10
114.666578
 20
205.756480
 30
0.0
 11
113.868127
 21
205.670171
 31
0.0
  0
LINE
  5
173
100
AcDbEntity
  8
outline_segments
 62
7
100
AcDbLine
 10
113.868127
 20
205.670171
 30
0.0
 11
113.075858
 21
205.578144
 31
0.0
  0
LINE
  5
174
100
AcDbEntity
  8
outline_segments
 62
7
100
AcDbLine
 10
113.075858
 20
205.578144
 30
0.0
 11
112.289644
 21
205.480684
 31
0.0
  0
LINE
  5
175
100
AcDbEntity
  8
outline_segments
 62
7
100
AcDbLine
 10
112.289644
 20
205.480684
 30
0.0
 11
111.509350
 21
205.378080
 31
0.0
  0
LINE
  5
176
100
AcDbEntity
  8
outline_segments
 62
7
100
AcDbLine
 10
111.509350
 20
205.378080
 30
0.0
 11
110.734848
 21
205.270612
 31
0.0
  0
LINE
  5
177
100
AcDbEntity
  8
outline_segments
 62
7
100
AcDbLine
 10
110.734848
 20
205.270612
 30
0.0
 11
109.965998
 21
205.158570
 31
0.0
  0
LINE
  5
178
100
AcDbEntity
  8
outline_segments
 62
7
100
AcDbLine
 10
109.965998
 20
205.158570
 30
0.0
 11
109.202677
 21
205.042238
 31
0.0
  0
LINE
  5
179
100
AcDbEntity
  8
outline_segments
 62
7
100
AcDbLine
 10
109.202677
 20
205.042238
 30
0.0
 11
108.444750
 21
204.921901
 31
0.0
  0
LINE
  5
17a
100
AcDbEntity
  8
outline_segments
 62
7
100
AcDbLine
 10
108.444750
 20
204.921901
 30
0.0
 11
107.692080
 21
204.797850
 31
0.0
  0
LINE
  5
17b
100
AcDbEntity
  8
outline_segments
 62
7
100
AcDbLine
 10
107.692080
 20
204.797850
 30
0.0
 11
106.944541
 21
204.670368
 31
0.0
  0
LINE
  5
17c
100
AcDbEntity
  8
outline_segments
 62
7
100
AcDbLine
 10
106.944541
 20
204.670368
 30
0.0
 11
106.202000
 21
204.539738
 31
0.0
  0
LINE
  5
17d
100
AcDbEntity
  8
outline_segments
 62
7
100
AcDbLine
 10
106.202000
 20
204.539738
 30
0.0
 11
105.464325
 21
204.406250
 31
0.0
  0
LINE
  5
17e
100
AcDbEntity
  8
outline_segments
 62
7
100
AcDbLine
 10
105.464325
 20
204.406250
 30
0.0
 11
104.731380
 21
204.270188
 31
0.0
  0
LINE
  5
17f
100
AcDbEntity
  8
outline_segments
 62
7
100
AcDbLine
 10
104.731380
 20
204.270188
 30
0.0
 11
104.003038
 21
204.131837
 31
0.0
  0
LINE
  5
180
100
AcDbEntity
  8
outline_segments
 62
7
100
AcDbLine
 10
104.003038
 20
204.131837
 30
0.0
 11
103.279163
 21
203.991488
 31
0.0
  0
LINE
  5
181
100
AcDbEntity
  8
outline_segments
 62
7
100
AcDbLine
 10
103.279163
 20
203.991488
 30
0.0
 11
102.559629
 21
203.849420
 31
0.0
  0
LINE
  5
182
100
AcDbEntity
  8
outline_segments
 62
7
100
AcDbLine
 10
102.559629
 20
203.849420
 30
0.0
 11
101.844294
 21
203.705924
 31
0.0
  0
LINE
  5
183
100
AcDbEntity
  8
outline_segments
 62
7
100
AcDbLine
 10
101.844294
 20
203.705924
 30
0.0
 11
101.133035
 21
203.561282
 31
0.0
  0
LINE
  5
184
100
AcDbEntity
  8
outline_segments
 62
7
100
AcDbLine
 10
101.133035
 20
203.561282
 30
0.0
 11
100.425718
 21
203.415786
 31
0.0
  0
LINE
  5
185
100
AcDbEntity
  8
outline_segments
 62
7
100
AcDbLine
 10
100.425718
 20
203.415786
 30
0.0
 11
99.722209
 21
203.269716
 31
0.0
  0
LINE
  5
186
100
AcDbEntity
  8
outline_segments
 62
7
100
AcDbLine
 10
99.722209
 20
203.269716
 30
0.0
 11
99.022377
 21
203.123361
 31
0.0
  0
LINE
  5
187
100
AcDbEntity
  8
outline_segments
 62
7
100
AcDbLine
 10
99.022377
 20
203.123361
 30
0.0
 11
98.326087
 21
202.977003
 31
0.0
  0
LINE
  5
188
100
AcDbEntity
  8
outline_segments
 62
7
100
AcDbLine
 10
98.326087
 20
202.977003
 30
0.0
 11
97.633211
 21
202.830934
 31
0.0
  0
LINE
  5
189
100
AcDbEntity
  8
outline_segments
 62
7
100
AcDbLine
 10
97.633211
 20
202.830934
 30
0.0
 11
96.943618
 21
202.685437
 31
0.0
  0
LINE
  5
18a
100
AcDbEntity
  8
outline_segments
 62
7
100
AcDbLine
 10
96.943618
 20
202.685437
 30
0.0
 11
96.257172
 21
202.540795
 31
0.0
  0
LINE
  5
18b
100
AcDbEntity
  8
outline_segments
 62
7
100
AcDbLine
 10
96.257172
 20
202.540795
 30
0.0
 11
95.573743
 21
202.397299
 31
0.0
  0
LINE
  5
18c
100
AcDbEntity
  8
outline_segments
 62
7
100
AcDbLine
 10
95.573743
 20
202.397299
 30
0.0
 11
94.893198
 21
202.255231
 31
0.0
  0
LINE
  5
18d
100
AcDbEntity
  8
outline_segments
 62
7
100
AcDbLine
 10
94.893198
 20
202.255231
 30
0.0
 11
94.215404
 21
202.114882
 31
0.0
  0
LINE
  5
18e
100
AcDbEntity
  8
outline_segments
 62
7
100
AcDbLine
 10
94.215404
 20
202.114882
 30
0.0
 11
93.540233
 21
201.976531
 31
0.0
  0
LINE
  5
18f
100
AcDbEntity
  8
outline_segments
 62
7
100
AcDbLine
 10
93.540233
 20
201.976531
 30
0.0
 11
92.867551
 21
201.840469
 31
0.0
  0
LINE
  5
190
100
AcDbEntity
  8
outline_segments
 62
7
100
AcDbLine
 10
92.867551
 20
201.840469
 30
0.0
 11
92.197225
 21
201.706981
 31
0.0
  0
LINE
  5
191
100
AcDbEntity
  8
outline_segments
 62
7
100
AcDbLine
 10
92.197225
 20
201.706981
 30
0.0
 11
91.529120
 21
201.576351
 31
0.0
  0
LINE
  5
192
100
AcDbEntity
  8
outline_segments
 62
7
100
AcDbLine
 10
91.529120
 20
201.576351
 30
0.0
 11
90.863112
 21
201.448869
 31
0.0
  0
LINE
  5
193
100
AcDbEntity
  8
outline_segments
 62
7
100
AcDbLine
 10
90.863112
 20
201.448869
 30
0.0
 11
90.199060
 21
201.324818
 31
0.0
  0
LINE
  5
194
100
AcDbEntity
  8
outline_segments
 62
7
100
AcDbLine
 10
90.199060
 20
201.324818
 30
0.0
 11
89.536840
 21
201.204481
 31
0.0
  0
LINE
  5
195
100
AcDbEntity
  8
outline_segments
 62
7
100
AcDbLine
 10
89.536840
 20
201.204481
 30
0.0
 11
88.876316
 21
201.088149
 31
0.0
  0
LINE
  5
196
100
AcDbEntity
  8
outline_segments
 62
7
100
AcDbLine
 10
88.876316
 20
201.088149
 30
0.0
 11
88.217355
 21
200.976107
 31
0.0
  0
LINE
  5
197
100
AcDbEntity
  8
outline_segments
 62
7
100
AcDbLine
 10
88.217355
 20
200.976107
 30
0.0
 11
87.559825
 21
200.868640
 31
0.0
  0
LINE
  5
198
100
AcDbEntity
  8
outline_segments
 62
7
100
AcDbLine
 10
87.559825
 20
200.868640
 30
0.0
 11
86.903600
 21
200.766035
 31
0.0
  0
LINE
  5
199
100
AcDbEntity
  8
outline_segments
 62
7
100
AcDbLine
 10
86.903600
 20
200.766035
 30
0.0
 11
86.248539
 21
200.668575
 31
0.0
  0
LINE
  5
19a
100
AcDbEntity
  8
outline_segments
 62
7
100
AcDbLine
 10
86.248539
 20
200.668575
 30
0.0
 11
85.594515
 21
200.576548
 31
0.0
  0
LINE
  5
19b
100
AcDbEntity
  8
outline_segments
 62
7
100
AcDbLine
 10
85.594515
 20
200.576548
 30
0.0
 11
84.941396
 21
200.490239
 31
0.0
  0
LINE
  5
19c
100
AcDbEntity
  8
outline_segments
 62
7
100
AcDbLine
 10
84.941396
 20
200.490239
 30
0.0
 11
84.289048
 21
200.409938
 31
0.0
  0
LINE
  5
19d
100
AcDbEntity
  8
outline_segments
 62
7
100
AcDbLine
 10
84.289048
 20
200.409938
 30
0.0
 11
83.637340
 21
200.335926
 31
0.0
  0
LINE
  5
19e
100
AcDbEntity
  8
outline_segments
 62
7
100
AcDbLine
 10
83.637340
 20
200.335926
 30
0.0
 11
82.986143
 21
200.268491
 31
0.0
  0
LINE
  5
19f
100
AcDbEntity
  8
outline_segments
 62
7
100
AcDbLine
 10
82.986143
 20
200.268491
 30
0.0
 11
82.335319
 21
200.207918
 31
0.0
  0
LINE
  5
1a0
100
AcDbEntity
  8
outline_segments
 62
7
100
AcDbLine
 10
82.335319
 20
200.207918
 30
0.0
 11
81.684741
 21
200.154493
 31
0.0
  0
LINE
  5
1a1
100
AcDbEntity
  8
outline_segments
 62
7
100
AcDbLine
 10
81.684741
 20
200.154493
 30
0.0
 11
81.034272
 21
200.108505
 31
0.0
  0
LINE
  5
1a2
100
AcDbEntity
  8
outline_segments
 62
7
100
AcDbLine
 10
81.034272
 20
200.108505
 30
0.0
 11
80.383786
 21
200.070236
 31
0.0
  0
LINE
  5
1a3
100
AcDbEntity
  8
outline_segments
 62
7
100
AcDbLine
 10
80.383786
 20
200.070236
 30
0.0
 11
79.733146
 21
200.039973
 31
0.0
  0
LINE
  5
1a4
100
AcDbEntity
  8
outline_segments
 62
7
100
AcDbLine
 10
79.733146
 20
200.039973
 30
0.0
 11
79.082223
 21
200.018016
 31
0.0
  0
LINE
  5
1a5
100
AcDbEntity
  8
outline_segments
 62
7
100
AcDbLine
 10
79.082223
 20
200.018016
 30
0.0
 11
78.430885
 21
200.004611
 31
0.0
  0
LINE
  5
1a6
100
AcDbEntity
  8
outline_segments
 62
7
100
AcDbLine
 10
78.430885
 20
200.004611
 30
0.0
 11
77.778997
 21
200.000095
 31
0.0
  0
LINE
  5
1a7
100
AcDbEntity
  8
outline_segments
 62
7
100
AcDbLine
 10
77.778997
 20
200.000095
 30
0.0
 11
77.099352
 21
200.014658
 31
0.0
  0
LINE
  5
1a8
100
AcDbEntity
  8
outline_segments
 62
7
100
AcDbLine
 10
77.099352
 20
200.014658
 30
0.0
 11
76.433813
 21
200.058075
 31
0.0
  0
LINE
  5
1a9
100
AcDbEntity
  8
outline_segments
 62
7
100
AcDbLine
 10
76.433813
 20
200.058075
 30
0.0
 11
75.782861
 21
200.129886
 31
0.0
  0
LINE
  5
1aa
100
AcDbEntity
  8
outline_segments
 62
7
100
AcDbLine
 10
75.782861
 20
200.129886
 30
0.0
 11
75.146995
 21
200.229641
 31
0.0
  0
LINE
  5
1ab
100
AcDbEntity
  8
outline_segments
 62
7
100
AcDbLine
 10
75.146995
 20
200.229641
 30
0.0
 11
74.526702
 21
200.356883
 31
0.0
  0
LINE
  5
1ac
100
AcDbEntity
  8
outline_segments
 62
7
100
AcDbLine
 10
74.526702
 20
200.356883
 30
0.0
 11
73.922469
 21
200.511163
 31
0.0
  0
LINE
  5
1ad
100
AcDbEntity
  8
outline_segments
 62
7
100
AcDbLine
 10
73.922469
 20
200.511163
 30
0.0
 11
73.334790
 21
200.692031
 31
0.0
  0
LINE
  5
1ae
100
AcDbEntity
  8
outline_segments
 62
7
100
AcDbLine
 10
73.334790
 20
200.692031
 30
0.0
 11
72.764153
 21
200.899032
 31
0.0
  0
LINE
  5
1af
100
AcDbEntity
  8
outline_segments
 62
7
100
AcDbLine
 10
72.764153
 20
200.899032
 30
0.0
 11
72.211049
 21
201.131716
 31
0.0
  0
LINE
  5
1b0
100
AcDbEntity
  8
outline_segments
 62
7
100
AcDbLine
 10
72.211049
 20
201.131716
 30
0.0
 11
71.675969
 21
201.389633
 31
0.0
  0
LINE
  5
1b1
100
AcDbEntity
  8
outline_segments
 62
7
100
AcDbLine
 10
71.675969
 20
201.389633
 30
0.0
 11
71.159401
 21
201.672327
 31
0.0
  0
LINE
  5
1b2
100
AcDbEntity
  8
outline_segments
 62
7
100
AcDbLine
 10
71.159401
 20
201.672327
 30
0.0
 11
70.661838
 21
201.979348
 31
0.0
  0
LINE
  5
1b3
100
AcDbEntity
  8
outline_segments
 62
7
100
AcDbLine
 10
70.661838
 20
201.979348
 30
0.0
 11
70.183767
 21
202.310245
 31
0.0
  0
LINE
  5
1b4
100
AcDbEntity
  8
outline_segments
 62
7
100
AcDbLine
 10
70.183767
 20
202.310245
 30
0.0
 11
69.725681
 21
202.664567
 31
0.0
  0
LINE
  5
1b5
100
AcDbEntity
  8
outline_segments
 62
7
100
AcDbLine
 10
69.725681
 20
202.664567
 30
0.0
 11
69.288067
 21
203.041861
 31
0.0
  0
LINE
  5
1b6
100
AcDbEntity
  8
outline_segments
 62
7
100
AcDbLine
 10
69.288067
 20
203.041861
 30
0.0
 11
68.871417
 21
203.441674
 31
0.0
  0
LINE
  5
1b7
100
AcDbEntity
  8
outline_segments
 62
7
100
AcDbLine
 10
68.871417
 20
203.441674
 30
0.0
 11
68.476224
 21
203.863557
 31
0.0
  0
LINE
  5
1b8
100
AcDbEntity
  8
outline_segments
 62
7
100
AcDbLine
 10
68.476224
 20
203.863557
 30
0.0
 11
68.102974
 21
204.307055
 31
0.0
  0
LINE
  5
1b9
100
AcDbEntity
  8
outline_segments
 62
7
100
AcDbLine
 10
68.102974
 20
204.307055
 30
0.0
 11
67.752158
 21
204.771719
 31
0.0
  0
LINE
  5
1ba
100
AcDbEntity
  8
outline_segments
 62
7
100
AcDbLine
 10
67.752158
 20
204.771719
 30
0.0
 11
67.424263
 21
205.257097
 31
0.0
  0
LINE
  5
1bb
100
AcDbEntity
  8
outline_segments
 62
7
100
AcDbLine
 10
67.424263
 20
205.257097
 30
0.0
 11
67.119788
 21
205.762734
 31
0.0
  0
LINE
  5
1bc
100
AcDbEntity
  8
outline_segments
 62
7
100
AcDbLine
 10
67.119788
 20
205.762734
 30
0.0
 11
66.839217
 21
206.288184
 31
0.0
  0
LINE
  5
1bd
100
AcDbEntity
  8
outline_segments
 62
7
100
AcDbLine
 10
66.839217
 20
206.288184
 30
0.0
 11
66.583038
 21
206.832989
 31
0.0
  0
LINE
  5
1be
100
AcDbEntity
  8
outline_segments
 62
7
100
AcDbLine
 10
66.583038
 20
206.832989
 30
0.0
 11
66.351745
 21
207.396702
 31
0.0
  0
LINE
  5
1bf
100
AcDbEntity
  8
outline_segments
 62
7
100
AcDbLine
 10
66.351745
 20
207.396702
 30
0.0
 11
66.145828
 21
207.978870
 31
0.0
  0
LINE
  5
1c0
100
AcDbEntity
  8
outline_segments
 62
7
100
AcDbLine
 10
66.145828
 20
207.978870
 30
0.0
 11
65.965778
 21
208.579038
 31
0.0
  0
LINE
  5
1c1
100
AcDbEntity
  8
outline_segments
 62
7
100
AcDbLine
 10
65.965778
 20
208.579038
 30
0.0
 11
65.812080
 21
209.196758
 31
0.0
  0
LINE
  5
1c2
100
AcDbEntity
  8
outline_segments
 62
7
100
AcDbLine
 10
65.812080
 20
209.196758
 30
0.0
 11
65.685230
 21
209.831577
 31
0.0
  0
LINE
  5
1c3
100
AcDbEntity
  8
outline_segments
 62
7
100
AcDbLine
 10
65.685230
 20
209.831577
 30
0.0
 11
65.585715
 21
210.483045
 31
0.0
  0
LINE
  5
1c4
100
AcDbEntity
  8
outline_segments
 62
7
100
AcDbLine
 10
65.585715
 20
210.483045
 30
0.0
 11
65.514028
 21
211.150707
 31
0.0
  0
LINE
  5
1c5
100
AcDbEntity
  8
outline_segments
 62
7
100
AcDbLine
 10
65.514028
 20
211.150707
 30
0.0
 11
65.470653
 21
211.834113
 31
0.0
  0
LINE
  5
1c6
100
AcDbEntity
  8
outline_segments
 62
7
100
AcDbLine
 10
65.470653
 20
211.834113
 30
0.0
 11
65.456091
 21
212.532811
 31
0.0
  0
LINE
  5
1c7
100
AcDbEntity
  8
outline_segments
 62
7
100
AcDbLine
 10
65.456091
 20
212.532811
 30
0.0
 11
65.456088
 21
225.000000
 31
0.0
  0
ENDSEC
  0
SECTION
  2
OBJECTS
  0
DICTIONARY
  5
C
330
0
100
AcDbDictionary
  3
ACAD_GROUP
350
D
  3
ACAD_MLINESTYLE
350
17
  0
DICTIONARY
  5
D
330
C
100
AcDbDictionary
  0
DICTIONARY
  5
1A
330
C
100
AcDbDictionary
  0
DICTIONARY
  5
17
330
C
100
AcDbDictionary
  3
STANDARD
350
18
  0
DICTIONARY
  5
19
330
C
100
AcDbDictionary
  0
ENDSEC
  0
EOF
