G04 #@! TF.FileFunction,Copper,L2,Bot,Signal*
%FSLAX46Y46*%
G04 Gerber Fmt 4.6, Leading zero omitted, Abs format (unit mm)*
G04 Created by KiCad (PCBNEW 4.0.5-e0-6337~49~ubuntu14.04.1) date Mon May  1 15:59:53 2017*
%MOMM*%
%LPD*%
G01*
G04 APERTURE LIST*
%ADD10C,0.100000*%
%ADD11R,0.600000X1.700000*%
%ADD12R,1.000000X2.700000*%
%ADD13C,3.000000*%
%ADD14R,1.600000X0.800000*%
%ADD15R,1.000000X1.200000*%
%ADD16R,1.700000X0.600000*%
%ADD17R,2.700000X1.000000*%
%ADD18R,1.200000X1.000000*%
%ADD19R,1.800000X1.250000*%
%ADD20R,0.800000X0.500000*%
%ADD21R,0.300000X0.800000*%
%ADD22R,0.500000X0.800000*%
%ADD23R,0.800000X0.300000*%
%ADD24R,8.000000X1.000000*%
%ADD25R,1.000000X1.400000*%
%ADD26R,0.600000X1.200000*%
%ADD27C,1.000000*%
%ADD28C,0.600000*%
%ADD29C,0.500000*%
%ADD30C,0.200000*%
%ADD31C,0.400000*%
G04 APERTURE END LIST*
D10*
D11*
X175625000Y-82150000D03*
X176875000Y-82150000D03*
X174375000Y-82150000D03*
X173125000Y-82150000D03*
D12*
X178800000Y-79100000D03*
X171200000Y-79100000D03*
D13*
X150000000Y-90000000D03*
D14*
X147300000Y-89200000D03*
X147300000Y-90800000D03*
X152700000Y-89200000D03*
X152700000Y-90800000D03*
D15*
X153000000Y-89000000D03*
X153000000Y-91000000D03*
X147000000Y-89000000D03*
X147000000Y-91000000D03*
D10*
G36*
X152550000Y-88400000D02*
X153100000Y-88800000D01*
X151900000Y-88800000D01*
X152450000Y-88400000D01*
X152550000Y-88400000D01*
X152550000Y-88400000D01*
G37*
G36*
X152450000Y-91600000D02*
X151900000Y-91200000D01*
X153100000Y-91200000D01*
X152550000Y-91600000D01*
X152450000Y-91600000D01*
X152450000Y-91600000D01*
G37*
G36*
X147550000Y-88400000D02*
X148100000Y-88800000D01*
X146900000Y-88800000D01*
X147450000Y-88400000D01*
X147550000Y-88400000D01*
X147550000Y-88400000D01*
G37*
G36*
X147450000Y-91600000D02*
X146900000Y-91200000D01*
X148100000Y-91200000D01*
X147550000Y-91600000D01*
X147450000Y-91600000D01*
X147450000Y-91600000D01*
G37*
D16*
X135650000Y-81375000D03*
X135650000Y-80125000D03*
X135650000Y-82625000D03*
X135650000Y-83875000D03*
D17*
X132600000Y-78200000D03*
X132600000Y-85800000D03*
D10*
G36*
X138568288Y-94472093D02*
X137366206Y-95674175D01*
X136941942Y-95249911D01*
X138144024Y-94047829D01*
X138568288Y-94472093D01*
X138568288Y-94472093D01*
G37*
G36*
X137684404Y-93588210D02*
X136482322Y-94790292D01*
X136058058Y-94366028D01*
X137260140Y-93163946D01*
X137684404Y-93588210D01*
X137684404Y-93588210D01*
G37*
G36*
X139452171Y-95355976D02*
X138250089Y-96558058D01*
X137825825Y-96133794D01*
X139027907Y-94931712D01*
X139452171Y-95355976D01*
X139452171Y-95355976D01*
G37*
G36*
X140336054Y-96239860D02*
X139133972Y-97441942D01*
X138709708Y-97017678D01*
X139911790Y-95815596D01*
X140336054Y-96239860D01*
X140336054Y-96239860D01*
G37*
G36*
X134661523Y-94171573D02*
X132752334Y-96080762D01*
X132045227Y-95373655D01*
X133954416Y-93464466D01*
X134661523Y-94171573D01*
X134661523Y-94171573D01*
G37*
G36*
X140035534Y-99545584D02*
X138126345Y-101454773D01*
X137419238Y-100747666D01*
X139328427Y-98838477D01*
X140035534Y-99545584D01*
X140035534Y-99545584D01*
G37*
D18*
X168000000Y-80000000D03*
X168000000Y-82000000D03*
D19*
X163700000Y-84500000D03*
X166300000Y-84500000D03*
D10*
G36*
X172383883Y-87030330D02*
X172030330Y-87383883D01*
X171464645Y-86818198D01*
X171818198Y-86464645D01*
X172383883Y-87030330D01*
X172383883Y-87030330D01*
G37*
G36*
X171535355Y-86181802D02*
X171181802Y-86535355D01*
X170616117Y-85969670D01*
X170969670Y-85616117D01*
X171535355Y-86181802D01*
X171535355Y-86181802D01*
G37*
D18*
X162000000Y-82000000D03*
X162000000Y-80000000D03*
D20*
X173600000Y-95800000D03*
X174800000Y-95800000D03*
D11*
X150625000Y-82150000D03*
X151875000Y-82150000D03*
X149375000Y-82150000D03*
X148125000Y-82150000D03*
D12*
X153800000Y-79100000D03*
X146200000Y-79100000D03*
D11*
X149125000Y-97850000D03*
X147875000Y-97850000D03*
X150375000Y-97850000D03*
X151625000Y-97850000D03*
D12*
X145950000Y-100900000D03*
X153550000Y-100900000D03*
D10*
G36*
X181931712Y-85527907D02*
X183133794Y-84325825D01*
X183558058Y-84750089D01*
X182355976Y-85952171D01*
X181931712Y-85527907D01*
X181931712Y-85527907D01*
G37*
G36*
X182815596Y-86411790D02*
X184017678Y-85209708D01*
X184441942Y-85633972D01*
X183239860Y-86836054D01*
X182815596Y-86411790D01*
X182815596Y-86411790D01*
G37*
G36*
X181047829Y-84644024D02*
X182249911Y-83441942D01*
X182674175Y-83866206D01*
X181472093Y-85068288D01*
X181047829Y-84644024D01*
X181047829Y-84644024D01*
G37*
G36*
X180163946Y-83760140D02*
X181366028Y-82558058D01*
X181790292Y-82982322D01*
X180588210Y-84184404D01*
X180163946Y-83760140D01*
X180163946Y-83760140D01*
G37*
G36*
X185838477Y-85828427D02*
X187747666Y-83919238D01*
X188454773Y-84626345D01*
X186545584Y-86535534D01*
X185838477Y-85828427D01*
X185838477Y-85828427D01*
G37*
G36*
X180464466Y-80454416D02*
X182373655Y-78545227D01*
X183080762Y-79252334D01*
X181171573Y-81161523D01*
X180464466Y-80454416D01*
X180464466Y-80454416D01*
G37*
D16*
X184850000Y-92625000D03*
X184850000Y-93875000D03*
X184850000Y-91375000D03*
X184850000Y-90125000D03*
D17*
X187900000Y-95800000D03*
X187900000Y-88200000D03*
D11*
X170250000Y-97850000D03*
X169000000Y-97850000D03*
X171500000Y-97850000D03*
X172750000Y-97850000D03*
D12*
X163325000Y-100900000D03*
X174675000Y-100900000D03*
D11*
X167750000Y-97850000D03*
X166500000Y-97850000D03*
X165250000Y-97850000D03*
D21*
X156750000Y-91600000D03*
X157400000Y-91600000D03*
X158050000Y-91600000D03*
X158050000Y-93600000D03*
X157400000Y-93600000D03*
X156750000Y-93600000D03*
X158050000Y-88600000D03*
X157400000Y-88600000D03*
X156750000Y-88600000D03*
X156750000Y-86600000D03*
X157400000Y-86600000D03*
X158050000Y-86600000D03*
D22*
X155000000Y-92000000D03*
X155000000Y-93200000D03*
X155000000Y-88200000D03*
X155000000Y-87000000D03*
X145500000Y-90600000D03*
X145500000Y-89400000D03*
D20*
X166500000Y-93100000D03*
X165300000Y-93100000D03*
D23*
X163150000Y-90750000D03*
X163150000Y-90250000D03*
X163150000Y-89750000D03*
X163150000Y-89250000D03*
X161850000Y-89250000D03*
X161850000Y-89750000D03*
X161850000Y-90250000D03*
X161850000Y-90750000D03*
D24*
X182000000Y-101750000D03*
D25*
X183600000Y-99600000D03*
X179400000Y-99600000D03*
D10*
G36*
X178150000Y-101250000D02*
X178850000Y-102250000D01*
X177150000Y-102250000D01*
X177850000Y-101250000D01*
X178150000Y-101250000D01*
X178150000Y-101250000D01*
G37*
G36*
X168151472Y-92757717D02*
X168505026Y-92404163D01*
X168717158Y-92616295D01*
X168363604Y-92969849D01*
X168151472Y-92757717D01*
X168151472Y-92757717D01*
G37*
G36*
X167585787Y-92616295D02*
X168434315Y-91767767D01*
X168646447Y-91979899D01*
X167797919Y-92828427D01*
X167585787Y-92616295D01*
X167585787Y-92616295D01*
G37*
G36*
X167232233Y-92262742D02*
X168080761Y-91414214D01*
X168292893Y-91626346D01*
X167444365Y-92474874D01*
X167232233Y-92262742D01*
X167232233Y-92262742D01*
G37*
G36*
X166878680Y-91909188D02*
X167727208Y-91060660D01*
X167939340Y-91272792D01*
X167090812Y-92121320D01*
X166878680Y-91909188D01*
X166878680Y-91909188D01*
G37*
G36*
X166525126Y-91555635D02*
X167373654Y-90707107D01*
X167585786Y-90919239D01*
X166737258Y-91767767D01*
X166525126Y-91555635D01*
X166525126Y-91555635D01*
G37*
G36*
X166171573Y-91202081D02*
X167020101Y-90353553D01*
X167232233Y-90565685D01*
X166383705Y-91414213D01*
X166171573Y-91202081D01*
X166171573Y-91202081D01*
G37*
G36*
X165818020Y-90848528D02*
X166454416Y-90212132D01*
X166666548Y-90424264D01*
X166030152Y-91060660D01*
X165818020Y-90848528D01*
X165818020Y-90848528D01*
G37*
G36*
X166030152Y-88939340D02*
X166666548Y-89575736D01*
X166454416Y-89787868D01*
X165818020Y-89151472D01*
X166030152Y-88939340D01*
X166030152Y-88939340D01*
G37*
G36*
X166383705Y-88585787D02*
X167232233Y-89434315D01*
X167020101Y-89646447D01*
X166171573Y-88797919D01*
X166383705Y-88585787D01*
X166383705Y-88585787D01*
G37*
G36*
X166737258Y-88232233D02*
X167585786Y-89080761D01*
X167373654Y-89292893D01*
X166525126Y-88444365D01*
X166737258Y-88232233D01*
X166737258Y-88232233D01*
G37*
G36*
X167090812Y-87878680D02*
X167939340Y-88727208D01*
X167727208Y-88939340D01*
X166878680Y-88090812D01*
X167090812Y-87878680D01*
X167090812Y-87878680D01*
G37*
G36*
X167444365Y-87525126D02*
X168292893Y-88373654D01*
X168080761Y-88585786D01*
X167232233Y-87737258D01*
X167444365Y-87525126D01*
X167444365Y-87525126D01*
G37*
G36*
X167797919Y-87171573D02*
X168646447Y-88020101D01*
X168434315Y-88232233D01*
X167585787Y-87383705D01*
X167797919Y-87171573D01*
X167797919Y-87171573D01*
G37*
G36*
X168151472Y-86818020D02*
X168787868Y-87454416D01*
X168575736Y-87666548D01*
X167939340Y-87030152D01*
X168151472Y-86818020D01*
X168151472Y-86818020D01*
G37*
G36*
X169212132Y-87454416D02*
X169848528Y-86818020D01*
X170060660Y-87030152D01*
X169424264Y-87666548D01*
X169212132Y-87454416D01*
X169212132Y-87454416D01*
G37*
G36*
X169353553Y-88020101D02*
X170202081Y-87171573D01*
X170414213Y-87383705D01*
X169565685Y-88232233D01*
X169353553Y-88020101D01*
X169353553Y-88020101D01*
G37*
G36*
X169707107Y-88373654D02*
X170555635Y-87525126D01*
X170767767Y-87737258D01*
X169919239Y-88585786D01*
X169707107Y-88373654D01*
X169707107Y-88373654D01*
G37*
G36*
X170060660Y-88727208D02*
X170909188Y-87878680D01*
X171121320Y-88090812D01*
X170272792Y-88939340D01*
X170060660Y-88727208D01*
X170060660Y-88727208D01*
G37*
G36*
X170414214Y-89080761D02*
X171262742Y-88232233D01*
X171474874Y-88444365D01*
X170626346Y-89292893D01*
X170414214Y-89080761D01*
X170414214Y-89080761D01*
G37*
G36*
X170767767Y-89434315D02*
X171616295Y-88585787D01*
X171828427Y-88797919D01*
X170979899Y-89646447D01*
X170767767Y-89434315D01*
X170767767Y-89434315D01*
G37*
G36*
X171333452Y-89575736D02*
X171969848Y-88939340D01*
X172181980Y-89151472D01*
X171545584Y-89787868D01*
X171333452Y-89575736D01*
X171333452Y-89575736D01*
G37*
G36*
X171545584Y-90212132D02*
X172181980Y-90848528D01*
X171969848Y-91060660D01*
X171333452Y-90424264D01*
X171545584Y-90212132D01*
X171545584Y-90212132D01*
G37*
G36*
X170979899Y-90353553D02*
X171828427Y-91202081D01*
X171616295Y-91414213D01*
X170767767Y-90565685D01*
X170979899Y-90353553D01*
X170979899Y-90353553D01*
G37*
G36*
X170626346Y-90707107D02*
X171474874Y-91555635D01*
X171262742Y-91767767D01*
X170414214Y-90919239D01*
X170626346Y-90707107D01*
X170626346Y-90707107D01*
G37*
G36*
X170272792Y-91060660D02*
X171121320Y-91909188D01*
X170909188Y-92121320D01*
X170060660Y-91272792D01*
X170272792Y-91060660D01*
X170272792Y-91060660D01*
G37*
G36*
X169919239Y-91414214D02*
X170767767Y-92262742D01*
X170555635Y-92474874D01*
X169707107Y-91626346D01*
X169919239Y-91414214D01*
X169919239Y-91414214D01*
G37*
G36*
X169565685Y-91767767D02*
X170414213Y-92616295D01*
X170202081Y-92828427D01*
X169353553Y-91979899D01*
X169565685Y-91767767D01*
X169565685Y-91767767D01*
G37*
G36*
X169424264Y-92333452D02*
X170060660Y-92969848D01*
X169848528Y-93181980D01*
X169212132Y-92545584D01*
X169424264Y-92333452D01*
X169424264Y-92333452D01*
G37*
G36*
X168257538Y-92651651D02*
X168823224Y-92085965D01*
X168823224Y-92510229D01*
X168681802Y-92651651D01*
X168257538Y-92651651D01*
X168257538Y-92651651D01*
G37*
G36*
X169176776Y-92085965D02*
X169742462Y-92651651D01*
X169318198Y-92651651D01*
X169176776Y-92510229D01*
X169176776Y-92085965D01*
X169176776Y-92085965D01*
G37*
G36*
X168823224Y-87914035D02*
X168257538Y-87348349D01*
X168681802Y-87348349D01*
X168823224Y-87489771D01*
X168823224Y-87914035D01*
X168823224Y-87914035D01*
G37*
G36*
X169742462Y-87348349D02*
X169176776Y-87914035D01*
X169176776Y-87489771D01*
X169318198Y-87348349D01*
X169742462Y-87348349D01*
X169742462Y-87348349D01*
G37*
G36*
X166914035Y-90176776D02*
X166348349Y-90742462D01*
X166348349Y-90318198D01*
X166489771Y-90176776D01*
X166914035Y-90176776D01*
X166914035Y-90176776D01*
G37*
G36*
X166348349Y-89257538D02*
X166914035Y-89823224D01*
X166489771Y-89823224D01*
X166348349Y-89681802D01*
X166348349Y-89257538D01*
X166348349Y-89257538D01*
G37*
G36*
X171085965Y-89823224D02*
X171651651Y-89257538D01*
X171651651Y-89681802D01*
X171510229Y-89823224D01*
X171085965Y-89823224D01*
X171085965Y-89823224D01*
G37*
G36*
X171651651Y-90742462D02*
X171085965Y-90176776D01*
X171510229Y-90176776D01*
X171651651Y-90318198D01*
X171651651Y-90742462D01*
X171651651Y-90742462D01*
G37*
D26*
X165000000Y-79850000D03*
X164050000Y-79850000D03*
X165950000Y-79850000D03*
X165950000Y-82150000D03*
X164050000Y-82150000D03*
D27*
X186900000Y-99100000D03*
X142900000Y-99100000D03*
D28*
X145791481Y-92708519D03*
X147400000Y-80800000D03*
X173500000Y-80300000D03*
X172410001Y-100150001D03*
X177799998Y-80350000D03*
X184900000Y-86600000D03*
X186650000Y-89600000D03*
X182400000Y-82350000D03*
X139400000Y-98100000D03*
X161650000Y-98100000D03*
X151789998Y-100000000D03*
X166650000Y-78850000D03*
X155650000Y-81350000D03*
X133400000Y-80850000D03*
X144600000Y-97000000D03*
X186200000Y-94485002D03*
X179700000Y-83400000D03*
X151200000Y-96600000D03*
X155800000Y-86600000D03*
X159000000Y-88400000D03*
X156300000Y-91400000D03*
X172594975Y-86394975D03*
X164800000Y-83200000D03*
X164636666Y-91871067D03*
X171600000Y-99400000D03*
X154150000Y-87100000D03*
X156400000Y-89350000D03*
X159000000Y-87500000D03*
X155800000Y-87500000D03*
X164600000Y-91000000D03*
X168500000Y-93900000D03*
X164985743Y-90214257D03*
X169000000Y-91600000D03*
X179400000Y-98100000D03*
X171300000Y-92500000D03*
X173300000Y-92400000D03*
X175600000Y-92400000D03*
X175800000Y-93900000D03*
X171100000Y-93400000D03*
D29*
X146900000Y-91600000D02*
X145791481Y-92708519D01*
X150175000Y-80800000D02*
X147400000Y-80800000D01*
X173900000Y-80350000D02*
X173550000Y-80350000D01*
X173550000Y-80350000D02*
X173500000Y-80300000D01*
X185291963Y-86208037D02*
X185291963Y-85281880D01*
X185291963Y-85281880D02*
X183593447Y-83583364D01*
X183593447Y-83583364D02*
X183027745Y-83583364D01*
X184900000Y-86600000D02*
X185291963Y-86208037D01*
X174825000Y-80350000D02*
X173900000Y-80350000D01*
X177799998Y-80350000D02*
X174825000Y-80350000D01*
X174825000Y-80350000D02*
X174375000Y-80800000D01*
X174375000Y-80800000D02*
X174375000Y-82150000D01*
X174375000Y-82150000D02*
X174375000Y-81439998D01*
X186200000Y-90575000D02*
X186200000Y-90050000D01*
X186200000Y-90050000D02*
X186650000Y-89600000D01*
X183027745Y-83583364D02*
X183027745Y-82977745D01*
X183027745Y-82977745D02*
X182400000Y-82350000D01*
X139400000Y-98100000D02*
X138975736Y-98100000D01*
X138975736Y-98100000D02*
X137967247Y-97091511D01*
X137967247Y-97091511D02*
X137967247Y-96416636D01*
X137967247Y-96416636D02*
X138638998Y-95744885D01*
X161650000Y-98100000D02*
X165000000Y-98100000D01*
X165000000Y-98100000D02*
X165250000Y-97850000D01*
X166650000Y-78850000D02*
X165710002Y-78850000D01*
X165710002Y-78850000D02*
X165660001Y-78799999D01*
X152800000Y-80800000D02*
X153350000Y-81350000D01*
X153350000Y-81350000D02*
X155650000Y-81350000D01*
X133400000Y-80850000D02*
X133400000Y-81274264D01*
X133400000Y-81274264D02*
X134750736Y-82625000D01*
X134750736Y-82625000D02*
X135650000Y-82625000D01*
X144600000Y-97000000D02*
X144702592Y-97000000D01*
X144702592Y-97000000D02*
X145702592Y-98000000D01*
X145702592Y-98000000D02*
X145710002Y-98000000D01*
X147000000Y-91000000D02*
X147100000Y-91000000D01*
X147100000Y-91000000D02*
X147300000Y-90800000D01*
X165250000Y-98400000D02*
X165250000Y-97850000D01*
X167000001Y-100150001D02*
X165250000Y-98400000D01*
X186200000Y-90575000D02*
X186200000Y-94485002D01*
X172410001Y-100150001D02*
X167000001Y-100150001D01*
X148775000Y-100000000D02*
X151789998Y-100000000D01*
X147710002Y-100000000D02*
X148775000Y-100000000D01*
X148775000Y-100000000D02*
X150375000Y-98400000D01*
X150375000Y-98400000D02*
X150375000Y-97850000D01*
X145710002Y-98000000D02*
X147710002Y-100000000D01*
X134939998Y-82625000D02*
X135650000Y-82625000D01*
X152800000Y-80800000D02*
X150175000Y-80800000D01*
X150175000Y-80800000D02*
X149375000Y-81600000D01*
X149375000Y-81600000D02*
X149375000Y-82150000D01*
X165950000Y-79850000D02*
X165950000Y-79089998D01*
X165950000Y-79089998D02*
X165660001Y-78799999D01*
X165660001Y-78799999D02*
X164339999Y-78799999D01*
X164339999Y-78799999D02*
X164050000Y-79089998D01*
X164050000Y-79089998D02*
X164050000Y-79850000D01*
X168000000Y-80000000D02*
X166100000Y-80000000D01*
X166100000Y-80000000D02*
X165950000Y-79850000D01*
X168100000Y-80000000D02*
X168000000Y-80000000D01*
X184850000Y-91375000D02*
X185400000Y-91375000D01*
X185400000Y-91375000D02*
X186200000Y-90575000D01*
X182532753Y-83583364D02*
X181861002Y-84255115D01*
X183027745Y-83583364D02*
X182532753Y-83583364D01*
X180977119Y-83371231D02*
X179728769Y-83371231D01*
X179728769Y-83371231D02*
X179700000Y-83400000D01*
X151625000Y-97850000D02*
X151625000Y-97025000D01*
X151625000Y-97025000D02*
X151200000Y-96600000D01*
D30*
X156750000Y-86600000D02*
X155800000Y-86600000D01*
X158050000Y-88600000D02*
X158800000Y-88600000D01*
X158800000Y-88600000D02*
X159000000Y-88400000D01*
X156500000Y-91600000D02*
X156300000Y-91400000D01*
X156750000Y-91600000D02*
X156500000Y-91600000D01*
X172700000Y-97800000D02*
X172750000Y-97850000D01*
X169883883Y-87701903D02*
X171075736Y-86510050D01*
X171075736Y-86510050D02*
X171075736Y-86075736D01*
X171924264Y-86924264D02*
X172453553Y-86394975D01*
X172453553Y-86394975D02*
X172594975Y-86394975D01*
D29*
X164050000Y-82150000D02*
X164050000Y-83200000D01*
D30*
X164800000Y-83200000D02*
X164050000Y-83200000D01*
D29*
X164050000Y-83200000D02*
X164050000Y-84150000D01*
D30*
X163700000Y-84500000D02*
X163700000Y-84300000D01*
X163700000Y-84500000D02*
X163975000Y-84500000D01*
D29*
X164050000Y-84150000D02*
X163700000Y-84500000D01*
X162000000Y-82000000D02*
X163900000Y-82000000D01*
X163900000Y-82000000D02*
X164050000Y-82150000D01*
D30*
X170237437Y-88055456D02*
X171368629Y-86924264D01*
X171368629Y-86924264D02*
X171924264Y-86924264D01*
X167055456Y-91237437D02*
X170237437Y-88055456D01*
X164851563Y-92085964D02*
X164636666Y-91871067D01*
X166914036Y-92085964D02*
X164851563Y-92085964D01*
X167409010Y-91590990D02*
X166914036Y-92085964D01*
X171500000Y-97850000D02*
X171500000Y-97451558D01*
X171500000Y-97451558D02*
X172912280Y-96039278D01*
X172912280Y-96039278D02*
X172912280Y-96035945D01*
X173148225Y-95800000D02*
X173600000Y-95800000D01*
X172912280Y-96035945D02*
X173148225Y-95800000D01*
X171600000Y-99400000D02*
X171600000Y-97950000D01*
X171600000Y-97950000D02*
X171500000Y-97850000D01*
X145500000Y-90600000D02*
X146900000Y-89200000D01*
X146900000Y-89200000D02*
X147300000Y-89200000D01*
X155000000Y-88200000D02*
X153700000Y-88200000D01*
X153700000Y-88200000D02*
X152700000Y-89200000D01*
X155000000Y-92000000D02*
X153900000Y-92000000D01*
X153000000Y-91100000D02*
X153000000Y-91000000D01*
X153900000Y-92000000D02*
X153000000Y-91100000D01*
X150625000Y-82700000D02*
X150625000Y-82150000D01*
X151225001Y-83300001D02*
X150625000Y-82700000D01*
X159831401Y-83300001D02*
X151225001Y-83300001D01*
X162531378Y-85999978D02*
X159831401Y-83300001D01*
X167121298Y-85999978D02*
X162531378Y-85999978D01*
X168363604Y-87242284D02*
X167121298Y-85999978D01*
X168363604Y-87242284D02*
X168292910Y-87242284D01*
X152600000Y-82882427D02*
X151882427Y-82882427D01*
X151882427Y-82882427D02*
X151800000Y-82800000D01*
X151800000Y-82800000D02*
X151875000Y-82150000D01*
X169636396Y-87242284D02*
X167959801Y-85565689D01*
X160082427Y-82882427D02*
X152600000Y-82882427D01*
X152600000Y-82882427D02*
X152482427Y-82882427D01*
X167959801Y-85565689D02*
X162765689Y-85565689D01*
X162765689Y-85565689D02*
X160082427Y-82882427D01*
X135650000Y-81375000D02*
X136200000Y-81375000D01*
X136200000Y-81375000D02*
X138175000Y-79400000D01*
X138175000Y-79400000D02*
X142700000Y-79400000D01*
X142700000Y-79400000D02*
X147409989Y-84109989D01*
X147409989Y-84109989D02*
X159509989Y-84109989D01*
X159509989Y-84109989D02*
X162200000Y-86800000D01*
X162200000Y-86800000D02*
X166507107Y-86800000D01*
X166507107Y-86800000D02*
X167762563Y-88055456D01*
X168116117Y-87701903D02*
X166814203Y-86399989D01*
X166814203Y-86399989D02*
X162365689Y-86399989D01*
X162365689Y-86399989D02*
X159665712Y-83700012D01*
X159665712Y-83700012D02*
X147600012Y-83700012D01*
X147600012Y-83700012D02*
X142900000Y-79000000D01*
X142900000Y-79000000D02*
X137325000Y-79000000D01*
X137325000Y-79000000D02*
X136200000Y-80125000D01*
X136200000Y-80125000D02*
X135650000Y-80125000D01*
X167055456Y-88762563D02*
X165892893Y-87600000D01*
X165892893Y-87600000D02*
X161800000Y-87600000D01*
X161800000Y-87600000D02*
X159100000Y-84900000D01*
X159100000Y-84900000D02*
X147600000Y-84900000D01*
X147600000Y-84900000D02*
X143400000Y-89100000D01*
X143400000Y-89100000D02*
X139600000Y-89100000D01*
X139600000Y-89100000D02*
X139100000Y-89600000D01*
X139100000Y-89600000D02*
X139100000Y-93516117D01*
X139100000Y-93516117D02*
X137755115Y-94861002D01*
X137968298Y-94631702D02*
X138000000Y-94663404D01*
X138000000Y-94663404D02*
X138000000Y-94800000D01*
X138000000Y-94800000D02*
X137755115Y-94861002D01*
X167409010Y-88409010D02*
X166200000Y-87200000D01*
X138600000Y-88700000D02*
X137800000Y-89500000D01*
X137800000Y-89500000D02*
X137800000Y-93048350D01*
X166200000Y-87200000D02*
X162000000Y-87200000D01*
X162000000Y-87200000D02*
X159300000Y-84500000D01*
X159300000Y-84500000D02*
X147400000Y-84500000D01*
X147400000Y-84500000D02*
X143200000Y-88700000D01*
X143200000Y-88700000D02*
X138600000Y-88700000D01*
X137800000Y-93048350D02*
X136871231Y-93977119D01*
X148600000Y-96902998D02*
X148602998Y-96902998D01*
X148602998Y-96902998D02*
X149100000Y-97400000D01*
X149100000Y-97400000D02*
X149125000Y-97850000D01*
X144200000Y-89500000D02*
X144200000Y-92502998D01*
X144200000Y-92502998D02*
X148600000Y-96902998D01*
X148600000Y-96902998D02*
X148597002Y-96900000D01*
X148000000Y-85700000D02*
X144200000Y-89500000D01*
X148500000Y-85700000D02*
X148000000Y-85700000D01*
X158700000Y-85700000D02*
X148500000Y-85700000D01*
X159100000Y-86100000D02*
X158700000Y-85700000D01*
X161400000Y-88400000D02*
X159100000Y-86100000D01*
X165278680Y-88400000D02*
X161400000Y-88400000D01*
X166242284Y-89363604D02*
X165278680Y-88400000D01*
X149125000Y-97300000D02*
X149125000Y-97850000D01*
X166701903Y-89116117D02*
X165585786Y-88000000D01*
X165585786Y-88000000D02*
X161600000Y-88000000D01*
X161600000Y-88000000D02*
X158900000Y-85300000D01*
X158900000Y-85300000D02*
X147800000Y-85300000D01*
X147800000Y-85300000D02*
X143800000Y-89300000D01*
X143800000Y-89300000D02*
X143800000Y-92700000D01*
X143800000Y-92700000D02*
X147875000Y-96775000D01*
X147875000Y-96775000D02*
X147875000Y-97850000D01*
X168940646Y-94500000D02*
X170704223Y-92736423D01*
X170704223Y-92411330D02*
X170237437Y-91944544D01*
X166500000Y-97300000D02*
X167500000Y-96300000D01*
X167500000Y-96300000D02*
X167900000Y-96300000D01*
X166500000Y-97850000D02*
X166500000Y-97300000D01*
X167900000Y-96300000D02*
X168100000Y-96100000D01*
X168100000Y-96100000D02*
X168100000Y-94700000D01*
X168100000Y-94700000D02*
X168300000Y-94500000D01*
X168300000Y-94500000D02*
X168940646Y-94500000D01*
X170704223Y-92736423D02*
X170704223Y-92411330D01*
X161850000Y-90250000D02*
X158150000Y-90250000D01*
X157400000Y-91000000D02*
X157400000Y-91600000D01*
X158150000Y-90250000D02*
X157400000Y-91000000D01*
X155000000Y-93200000D02*
X156350000Y-93200000D01*
X156350000Y-93200000D02*
X156750000Y-93600000D01*
X161850000Y-89750000D02*
X157950000Y-89750000D01*
X157950000Y-89750000D02*
X157400000Y-89200000D01*
X157400000Y-89200000D02*
X157400000Y-88600000D01*
X154150000Y-87100000D02*
X154900000Y-87100000D01*
X154900000Y-87100000D02*
X155000000Y-87000000D01*
X156400000Y-89350000D02*
X156400000Y-88950000D01*
X156400000Y-88950000D02*
X156750000Y-88600000D01*
X156750000Y-88600000D02*
X156750000Y-88300000D01*
X159000000Y-87500000D02*
X160750000Y-89250000D01*
X160750000Y-89250000D02*
X161850000Y-89250000D01*
X157400000Y-86600000D02*
X157400000Y-87200000D01*
X157400000Y-87200000D02*
X157100000Y-87500000D01*
X157100000Y-87500000D02*
X155800000Y-87500000D01*
X161600000Y-89250000D02*
X161850000Y-89250000D01*
X145050000Y-89400000D02*
X145500000Y-89400000D01*
X155800000Y-91026796D02*
X155709998Y-91116798D01*
X144959999Y-89490001D02*
X145050000Y-89400000D01*
X144959999Y-92711439D02*
X144959999Y-89490001D01*
X158490001Y-92967999D02*
X158490001Y-94232001D01*
X146538561Y-94290001D02*
X144959999Y-92711439D01*
X158432001Y-94290001D02*
X146538561Y-94290001D01*
X155800000Y-88477998D02*
X155800000Y-91026796D01*
X158432001Y-92909999D02*
X158490001Y-92967999D01*
X156936795Y-92909999D02*
X158432001Y-92909999D01*
X155709998Y-91683202D02*
X156936795Y-92909999D01*
X156367999Y-87909999D02*
X155800000Y-88477998D01*
X158050000Y-87200000D02*
X157340001Y-87909999D01*
X157340001Y-87909999D02*
X156367999Y-87909999D01*
X158050000Y-86600000D02*
X158050000Y-87200000D01*
X155709998Y-91116798D02*
X155709998Y-91683202D01*
X158490001Y-94232001D02*
X158432001Y-94290001D01*
X168434315Y-92687006D02*
X167921321Y-93200000D01*
X167921321Y-93200000D02*
X166600000Y-93200000D01*
X166600000Y-93200000D02*
X166500000Y-93100000D01*
X168646447Y-92474874D02*
X168434315Y-92687006D01*
X164600000Y-91000000D02*
X163850000Y-90250000D01*
X163850000Y-90250000D02*
X163150000Y-90250000D01*
X169636396Y-92757716D02*
X169636396Y-92763604D01*
X169636396Y-92763604D02*
X168500000Y-93900000D01*
X169636396Y-92757716D02*
X169442284Y-92757716D01*
X164521486Y-89750000D02*
X164685744Y-89914258D01*
X163150000Y-89750000D02*
X164521486Y-89750000D01*
X164685744Y-89914258D02*
X164985743Y-90214257D01*
X169883883Y-92298097D02*
X169185786Y-91600000D01*
X169185786Y-91600000D02*
X169000000Y-91600000D01*
X169883883Y-92298097D02*
X169883883Y-92368791D01*
X164855888Y-89250000D02*
X166242284Y-90636396D01*
X163150000Y-89250000D02*
X164855888Y-89250000D01*
X179400000Y-98100000D02*
X179400000Y-98700000D01*
X170944544Y-91237437D02*
X171439518Y-91732411D01*
X171439518Y-92360482D02*
X171300000Y-92500000D01*
X171439518Y-91732411D02*
X171439518Y-92360482D01*
X179400000Y-99600000D02*
X179400000Y-98700000D01*
X172280013Y-93141936D02*
X172280013Y-92400000D01*
X172280013Y-92400000D02*
X172280013Y-91158692D01*
X173300000Y-92400000D02*
X172875736Y-92400000D01*
X172875736Y-92400000D02*
X172280013Y-92400000D01*
X184850000Y-92625000D02*
X175825000Y-92625000D01*
X175825000Y-92625000D02*
X175600000Y-92400000D01*
X172280013Y-93141936D02*
X172280013Y-93119987D01*
X169784300Y-96515700D02*
X170284300Y-96515700D01*
X169000000Y-97850000D02*
X169000000Y-97300000D01*
X170700000Y-96100000D02*
X170700000Y-94721949D01*
X170700000Y-94721949D02*
X172280013Y-93141936D01*
X169000000Y-97300000D02*
X169784300Y-96515700D01*
X172280013Y-91158692D02*
X171474874Y-90353553D01*
X170284300Y-96515700D02*
X170700000Y-96100000D01*
X184300000Y-92625000D02*
X184850000Y-92625000D01*
X167750000Y-97850000D02*
X167750000Y-97300000D01*
X169500000Y-94700000D02*
X170800000Y-93400000D01*
X167750000Y-97300000D02*
X168450000Y-96600000D01*
X168450000Y-96600000D02*
X168900000Y-96600000D01*
X168900000Y-96600000D02*
X169500000Y-96000000D01*
X169500000Y-96000000D02*
X169500000Y-94700000D01*
X170800000Y-93400000D02*
X171100000Y-93400000D01*
X175800000Y-93900000D02*
X184825000Y-93900000D01*
X184825000Y-93900000D02*
X184850000Y-93875000D01*
X171273204Y-93400000D02*
X171890002Y-92783202D01*
X171273204Y-93400000D02*
X171100000Y-93400000D01*
X171793071Y-91378857D02*
X171298097Y-90883883D01*
X171890002Y-91475788D02*
X171793071Y-91378857D01*
X171890002Y-92783202D02*
X171890002Y-91475788D01*
X184300000Y-93875000D02*
X184850000Y-93875000D01*
X175625000Y-83200000D02*
X175625000Y-82150000D01*
X175625000Y-84199352D02*
X175625000Y-83200000D01*
X172150459Y-87673893D02*
X175625000Y-84199352D01*
X170590990Y-88409010D02*
X171326107Y-87673893D01*
X171326107Y-87673893D02*
X172150459Y-87673893D01*
X175625000Y-82150000D02*
X175625000Y-81600000D01*
X172336096Y-88063904D02*
X176875000Y-83525000D01*
X176875000Y-83525000D02*
X176875000Y-82150000D01*
X170944544Y-88762563D02*
X171029381Y-88762563D01*
X171029381Y-88762563D02*
X171728040Y-88063904D01*
X171728040Y-88063904D02*
X172336096Y-88063904D01*
X182300000Y-85600000D02*
X182000000Y-85600000D01*
X171793071Y-88621143D02*
X171298097Y-89116117D01*
X172378857Y-88621143D02*
X171793071Y-88621143D01*
X175400000Y-85600000D02*
X172378857Y-88621143D01*
X182000000Y-85600000D02*
X175400000Y-85600000D01*
X182300000Y-85600000D02*
X182744885Y-85138998D01*
X172670024Y-90275912D02*
X174100000Y-90275912D01*
X174100000Y-90275912D02*
X181824088Y-90275912D01*
X171700000Y-96600000D02*
X174100000Y-94200000D01*
X174100000Y-94200000D02*
X174100000Y-90275912D01*
X170950000Y-96600000D02*
X171700000Y-96600000D01*
X170250000Y-97300000D02*
X170950000Y-96600000D01*
X183300000Y-87300000D02*
X183300000Y-86400000D01*
X183300000Y-86400000D02*
X183628769Y-86022881D01*
X183300000Y-88800000D02*
X183300000Y-87300000D01*
X183300000Y-87300000D02*
X183300000Y-87200000D01*
X181824088Y-90275912D02*
X183300000Y-88800000D01*
X171934492Y-89540380D02*
X171757716Y-89363604D01*
X170250000Y-97850000D02*
X170250000Y-97300000D01*
X172670024Y-90275912D02*
X171934492Y-89540380D01*
X168116117Y-92298097D02*
X168031280Y-92298097D01*
D31*
G36*
X145300000Y-78950000D02*
X145400000Y-79050000D01*
X146150000Y-79050000D01*
X146150000Y-79030000D01*
X146250000Y-79030000D01*
X146250000Y-79050000D01*
X147000000Y-79050000D01*
X147100000Y-78950000D01*
X147100000Y-77957009D01*
X152900000Y-77957009D01*
X152900000Y-78950000D01*
X153000000Y-79050000D01*
X153750000Y-79050000D01*
X153750000Y-79030000D01*
X153850000Y-79030000D01*
X153850000Y-79050000D01*
X154600000Y-79050000D01*
X154700000Y-78950000D01*
X154700000Y-77957009D01*
X170300000Y-77957009D01*
X170300000Y-78950000D01*
X170400000Y-79050000D01*
X171150000Y-79050000D01*
X171150000Y-79030000D01*
X171250000Y-79030000D01*
X171250000Y-79050000D01*
X172000000Y-79050000D01*
X172100000Y-78950000D01*
X172100000Y-77957009D01*
X176926259Y-77957009D01*
X177611401Y-77971274D01*
X177900000Y-77989585D01*
X177900000Y-78950000D01*
X178000000Y-79050000D01*
X178750000Y-79050000D01*
X178750000Y-79030000D01*
X178850000Y-79030000D01*
X178850000Y-79050000D01*
X179600000Y-79050000D01*
X179700000Y-78950000D01*
X179700000Y-78208391D01*
X180171556Y-78302736D01*
X180769115Y-78451683D01*
X181348946Y-78626039D01*
X181628125Y-78725072D01*
X181242284Y-79110913D01*
X181242284Y-79252334D01*
X181772614Y-79782664D01*
X181786756Y-79768522D01*
X181857467Y-79839233D01*
X181843325Y-79853375D01*
X182373655Y-80383705D01*
X182515076Y-80383705D01*
X183384413Y-79514368D01*
X183483664Y-79567608D01*
X183969495Y-79861670D01*
X184435497Y-80178293D01*
X184881357Y-80517053D01*
X185306728Y-80877552D01*
X185711265Y-81259379D01*
X186094621Y-81662173D01*
X186456416Y-82085542D01*
X186796285Y-82529145D01*
X187113828Y-82992608D01*
X187408645Y-83475605D01*
X187484814Y-83616405D01*
X186616295Y-84484924D01*
X186616295Y-84626345D01*
X187146625Y-85156675D01*
X187160767Y-85142533D01*
X187231478Y-85213244D01*
X187217336Y-85227386D01*
X187747666Y-85757716D01*
X187889087Y-85757716D01*
X188272614Y-85374189D01*
X188351901Y-85595767D01*
X188526436Y-86171107D01*
X188675498Y-86763818D01*
X188783745Y-87300000D01*
X188050000Y-87300000D01*
X187950000Y-87400000D01*
X187950000Y-88150000D01*
X187970000Y-88150000D01*
X187970000Y-88250000D01*
X187950000Y-88250000D01*
X187950000Y-89000000D01*
X188050000Y-89100000D01*
X188994177Y-89100000D01*
X189007029Y-89300641D01*
X189021289Y-89979021D01*
X189021289Y-94900000D01*
X188050000Y-94900000D01*
X187950000Y-95000000D01*
X187950000Y-95750000D01*
X187970000Y-95750000D01*
X187970000Y-95850000D01*
X187950000Y-95850000D01*
X187950000Y-96600000D01*
X188050000Y-96700000D01*
X189021289Y-96700000D01*
X189021289Y-102057001D01*
X186400000Y-102057001D01*
X186400000Y-101900000D01*
X186300000Y-101800000D01*
X182050000Y-101800000D01*
X182050000Y-101820000D01*
X181950000Y-101820000D01*
X181950000Y-101800000D01*
X176974376Y-101800000D01*
X176820722Y-102019505D01*
X176799841Y-102057001D01*
X175575000Y-102057001D01*
X175575000Y-101700000D01*
X177044376Y-101700000D01*
X181950000Y-101700000D01*
X181950000Y-100950000D01*
X182050000Y-100950000D01*
X182050000Y-101700000D01*
X186300000Y-101700000D01*
X186400000Y-101600000D01*
X186400000Y-101210604D01*
X186384628Y-101133325D01*
X186354476Y-101060529D01*
X186310701Y-100995015D01*
X186254986Y-100939300D01*
X186189471Y-100895525D01*
X186116676Y-100865372D01*
X186039397Y-100850000D01*
X182150000Y-100850000D01*
X182050000Y-100950000D01*
X181950000Y-100950000D01*
X181850000Y-100850000D01*
X178163616Y-100850000D01*
X178150000Y-100848065D01*
X178050000Y-100848065D01*
X178050000Y-100850000D01*
X177960603Y-100850000D01*
X177950000Y-100852109D01*
X177950000Y-100848065D01*
X177850000Y-100848065D01*
X177695179Y-100879079D01*
X177597973Y-100936896D01*
X177520722Y-101019505D01*
X177044376Y-101700000D01*
X175575000Y-101700000D01*
X175575000Y-101050000D01*
X175475000Y-100950000D01*
X174725000Y-100950000D01*
X174725000Y-100970000D01*
X174625000Y-100970000D01*
X174625000Y-100950000D01*
X173875000Y-100950000D01*
X173775000Y-101050000D01*
X173775000Y-102057001D01*
X164225000Y-102057001D01*
X164225000Y-101050000D01*
X164125000Y-100950000D01*
X163375000Y-100950000D01*
X163375000Y-100970000D01*
X163275000Y-100970000D01*
X163275000Y-100950000D01*
X162525000Y-100950000D01*
X162425000Y-101050000D01*
X162425000Y-102057001D01*
X154450000Y-102057001D01*
X154450000Y-101050000D01*
X154350000Y-100950000D01*
X153600000Y-100950000D01*
X153600000Y-100970000D01*
X153500000Y-100970000D01*
X153500000Y-100950000D01*
X152750000Y-100950000D01*
X152650000Y-101050000D01*
X152650000Y-102057001D01*
X146850000Y-102057001D01*
X146850000Y-101050000D01*
X146750000Y-100950000D01*
X146000000Y-100950000D01*
X146000000Y-100970000D01*
X145900000Y-100970000D01*
X145900000Y-100950000D01*
X145150000Y-100950000D01*
X145050000Y-101050000D01*
X145050000Y-102057001D01*
X143359565Y-102057001D01*
X142694547Y-102042752D01*
X142048867Y-102000630D01*
X141418187Y-101931054D01*
X140802857Y-101834522D01*
X140203372Y-101711547D01*
X139620131Y-101562628D01*
X139053511Y-101388241D01*
X138837075Y-101309728D01*
X139257716Y-100889087D01*
X139257716Y-100747666D01*
X138727386Y-100217336D01*
X138713244Y-100231478D01*
X138642533Y-100160767D01*
X138656675Y-100146625D01*
X138798097Y-100146625D01*
X139328427Y-100676955D01*
X139469848Y-100676955D01*
X140346233Y-99800570D01*
X140390008Y-99735056D01*
X140420162Y-99662260D01*
X140435534Y-99584981D01*
X140435534Y-99506188D01*
X140420161Y-99428909D01*
X140390009Y-99356114D01*
X140346234Y-99290599D01*
X140298576Y-99242941D01*
X141197765Y-99242941D01*
X141257948Y-99570851D01*
X141380676Y-99880827D01*
X141561274Y-100161061D01*
X141792865Y-100400880D01*
X142066625Y-100591148D01*
X142372129Y-100724619D01*
X142697739Y-100796209D01*
X143031053Y-100803191D01*
X143359376Y-100745299D01*
X143670201Y-100624738D01*
X143951689Y-100446100D01*
X144193119Y-100216190D01*
X144385294Y-99943764D01*
X144520895Y-99639200D01*
X144594756Y-99314097D01*
X144600073Y-98933306D01*
X144535318Y-98606268D01*
X144408274Y-98298036D01*
X144223780Y-98020351D01*
X143988864Y-97783789D01*
X143712474Y-97597361D01*
X143405136Y-97468169D01*
X143078558Y-97401132D01*
X142745179Y-97398804D01*
X142417697Y-97461275D01*
X142108586Y-97586164D01*
X141829619Y-97768715D01*
X141591423Y-98001973D01*
X141403070Y-98277056D01*
X141271735Y-98583484D01*
X141202420Y-98909586D01*
X141197765Y-99242941D01*
X140298576Y-99242941D01*
X140070889Y-99015254D01*
X139929468Y-99015254D01*
X138798097Y-100146625D01*
X138656675Y-100146625D01*
X138126345Y-99616295D01*
X137984924Y-99616295D01*
X137108539Y-100492680D01*
X137092169Y-100517179D01*
X136961473Y-100445655D01*
X136483945Y-100150997D01*
X136025414Y-99833626D01*
X135586200Y-99493901D01*
X135166724Y-99132245D01*
X134767374Y-98749033D01*
X134388560Y-98344635D01*
X134030672Y-97919391D01*
X133694164Y-97473679D01*
X133379449Y-97007810D01*
X133087008Y-96522156D01*
X133013775Y-96385006D01*
X133883705Y-95515076D01*
X133883705Y-95373655D01*
X133353375Y-94843325D01*
X133339233Y-94857467D01*
X133268522Y-94786756D01*
X133282664Y-94772614D01*
X133424086Y-94772614D01*
X133954416Y-95302944D01*
X134095837Y-95302944D01*
X134972222Y-94426559D01*
X135015997Y-94361045D01*
X135046151Y-94288249D01*
X135061523Y-94210970D01*
X135061523Y-94132177D01*
X135046150Y-94054898D01*
X135015998Y-93982103D01*
X134972223Y-93916588D01*
X134696878Y-93641243D01*
X134555457Y-93641243D01*
X133424086Y-94772614D01*
X133282664Y-94772614D01*
X132752334Y-94242284D01*
X132610913Y-94242284D01*
X132231829Y-94621368D01*
X132149450Y-94388466D01*
X132041957Y-94030152D01*
X132823045Y-94030152D01*
X132823045Y-94171573D01*
X133353375Y-94701903D01*
X134484746Y-93570532D01*
X134484746Y-93429111D01*
X134209401Y-93153766D01*
X134143886Y-93109991D01*
X134071091Y-93079839D01*
X133993812Y-93064466D01*
X133915019Y-93064466D01*
X133837740Y-93079838D01*
X133764944Y-93109992D01*
X133699430Y-93153767D01*
X132823045Y-94030152D01*
X132041957Y-94030152D01*
X131975617Y-93809019D01*
X131827032Y-93211851D01*
X131704256Y-92597421D01*
X131607807Y-91966022D01*
X131538240Y-91318101D01*
X131496093Y-90654035D01*
X131481827Y-89969611D01*
X131481829Y-86700000D01*
X132450000Y-86700000D01*
X132550000Y-86600000D01*
X132550000Y-85850000D01*
X132650000Y-85850000D01*
X132650000Y-86600000D01*
X132750000Y-86700000D01*
X133989396Y-86700000D01*
X134066675Y-86684628D01*
X134139471Y-86654476D01*
X134204985Y-86610701D01*
X134260700Y-86554986D01*
X134304475Y-86489471D01*
X134334628Y-86416676D01*
X134350000Y-86339397D01*
X134350000Y-85950000D01*
X134250000Y-85850000D01*
X132650000Y-85850000D01*
X132550000Y-85850000D01*
X132530000Y-85850000D01*
X132530000Y-85750000D01*
X132550000Y-85750000D01*
X132550000Y-85000000D01*
X132650000Y-85000000D01*
X132650000Y-85750000D01*
X134250000Y-85750000D01*
X134350000Y-85650000D01*
X134350000Y-85260603D01*
X134334628Y-85183324D01*
X134304475Y-85110529D01*
X134260700Y-85045014D01*
X134204985Y-84989299D01*
X134139471Y-84945524D01*
X134066675Y-84915372D01*
X133989396Y-84900000D01*
X132750000Y-84900000D01*
X132650000Y-85000000D01*
X132550000Y-85000000D01*
X132450000Y-84900000D01*
X131481829Y-84900000D01*
X131481829Y-84025000D01*
X134400000Y-84025000D01*
X134400000Y-84214397D01*
X134415372Y-84291676D01*
X134445525Y-84364471D01*
X134489300Y-84429986D01*
X134545015Y-84485701D01*
X134610529Y-84529476D01*
X134683325Y-84559628D01*
X134760604Y-84575000D01*
X135500000Y-84575000D01*
X135600000Y-84475000D01*
X135600000Y-83925000D01*
X135700000Y-83925000D01*
X135700000Y-84475000D01*
X135800000Y-84575000D01*
X136539396Y-84575000D01*
X136616675Y-84559628D01*
X136689471Y-84529476D01*
X136754985Y-84485701D01*
X136810700Y-84429986D01*
X136854475Y-84364471D01*
X136884628Y-84291676D01*
X136900000Y-84214397D01*
X136900000Y-84025000D01*
X136800000Y-83925000D01*
X135700000Y-83925000D01*
X135600000Y-83925000D01*
X134500000Y-83925000D01*
X134400000Y-84025000D01*
X131481829Y-84025000D01*
X131481831Y-80908858D01*
X132699080Y-80908858D01*
X132723861Y-81043880D01*
X132750000Y-81109900D01*
X132750000Y-81274264D01*
X132755861Y-81334042D01*
X132761092Y-81393832D01*
X132762045Y-81397114D01*
X132762379Y-81400516D01*
X132779734Y-81457999D01*
X132796484Y-81515653D01*
X132798057Y-81518688D01*
X132799045Y-81521960D01*
X132827244Y-81574995D01*
X132854864Y-81628279D01*
X132856995Y-81630948D01*
X132858601Y-81633969D01*
X132896548Y-81680496D01*
X132934008Y-81727422D01*
X132938698Y-81732177D01*
X132938779Y-81732276D01*
X132938871Y-81732352D01*
X132940381Y-81733883D01*
X134291116Y-83084619D01*
X134337528Y-83122743D01*
X134383507Y-83161324D01*
X134386501Y-83162970D01*
X134389143Y-83165140D01*
X134442081Y-83193525D01*
X134494674Y-83222438D01*
X134497930Y-83223471D01*
X134500944Y-83225087D01*
X134558400Y-83242653D01*
X134559723Y-83243073D01*
X134567220Y-83249462D01*
X134545015Y-83264299D01*
X134489300Y-83320014D01*
X134445525Y-83385529D01*
X134415372Y-83458324D01*
X134400000Y-83535603D01*
X134400000Y-83725000D01*
X134500000Y-83825000D01*
X135600000Y-83825000D01*
X135600000Y-83805000D01*
X135700000Y-83805000D01*
X135700000Y-83825000D01*
X136800000Y-83825000D01*
X136900000Y-83725000D01*
X136900000Y-83535603D01*
X136884628Y-83458324D01*
X136854475Y-83385529D01*
X136810700Y-83320014D01*
X136754985Y-83264299D01*
X136731809Y-83248813D01*
X136766179Y-83226165D01*
X136839543Y-83140086D01*
X136886022Y-83036976D01*
X136901935Y-82925000D01*
X136901935Y-82325000D01*
X136896855Y-82261302D01*
X136863398Y-82153262D01*
X136801165Y-82058821D01*
X136731216Y-81999204D01*
X136766179Y-81976165D01*
X136839543Y-81890086D01*
X136886022Y-81786976D01*
X136901935Y-81675000D01*
X136901935Y-81380171D01*
X138382107Y-79900000D01*
X142492894Y-79900000D01*
X146892894Y-84300000D01*
X142992894Y-88200000D01*
X138600000Y-88200000D01*
X138554048Y-88204505D01*
X138508025Y-88208532D01*
X138505501Y-88209265D01*
X138502883Y-88209522D01*
X138458665Y-88222873D01*
X138414316Y-88235757D01*
X138411981Y-88236967D01*
X138409465Y-88237727D01*
X138368694Y-88259405D01*
X138327681Y-88280664D01*
X138325626Y-88282304D01*
X138323304Y-88283539D01*
X138287494Y-88312746D01*
X138251418Y-88341545D01*
X138247760Y-88345152D01*
X138247683Y-88345215D01*
X138247624Y-88345286D01*
X138246447Y-88346447D01*
X137492894Y-89100000D01*
X134200000Y-89100000D01*
X134127309Y-89113678D01*
X134060546Y-89156638D01*
X134015757Y-89222189D01*
X134000000Y-89300000D01*
X134000000Y-91000000D01*
X134013678Y-91072691D01*
X134056638Y-91139454D01*
X134122189Y-91184243D01*
X134200000Y-91200000D01*
X137300000Y-91200000D01*
X137300000Y-92765882D01*
X137284879Y-92762773D01*
X137172136Y-92771764D01*
X137066360Y-92811808D01*
X136975929Y-92879735D01*
X135773847Y-94081817D01*
X135732397Y-94130450D01*
X135679660Y-94230504D01*
X135656885Y-94341289D01*
X135665876Y-94454032D01*
X135705920Y-94559808D01*
X135773847Y-94650239D01*
X136198111Y-95074503D01*
X136246744Y-95115953D01*
X136346798Y-95168690D01*
X136457583Y-95191465D01*
X136549200Y-95184159D01*
X136540769Y-95225172D01*
X136549760Y-95337915D01*
X136589804Y-95443691D01*
X136657731Y-95534122D01*
X137081995Y-95958386D01*
X137130628Y-95999836D01*
X137230682Y-96052573D01*
X137341467Y-96075348D01*
X137419559Y-96069120D01*
X137398733Y-96107960D01*
X137369809Y-96160574D01*
X137368776Y-96163830D01*
X137367160Y-96166844D01*
X137349594Y-96224300D01*
X137331451Y-96281493D01*
X137331070Y-96284887D01*
X137330070Y-96288159D01*
X137324001Y-96347907D01*
X137317310Y-96407561D01*
X137317264Y-96414243D01*
X137317251Y-96414367D01*
X137317262Y-96414483D01*
X137317247Y-96416636D01*
X137317247Y-97091511D01*
X137323108Y-97151289D01*
X137328339Y-97211079D01*
X137329292Y-97214361D01*
X137329626Y-97217763D01*
X137346981Y-97275246D01*
X137363731Y-97332900D01*
X137365304Y-97335935D01*
X137366292Y-97339207D01*
X137394491Y-97392242D01*
X137422111Y-97445526D01*
X137424242Y-97448195D01*
X137425848Y-97451216D01*
X137463795Y-97497743D01*
X137501255Y-97544669D01*
X137505945Y-97549424D01*
X137506026Y-97549523D01*
X137506118Y-97549599D01*
X137507628Y-97551130D01*
X138516117Y-98559620D01*
X138562512Y-98597729D01*
X138608507Y-98636324D01*
X138611504Y-98637972D01*
X138614144Y-98640140D01*
X138667060Y-98668514D01*
X138719674Y-98697438D01*
X138722930Y-98698471D01*
X138725944Y-98700087D01*
X138783400Y-98717653D01*
X138840593Y-98735796D01*
X138843987Y-98736177D01*
X138847259Y-98737177D01*
X138862495Y-98738724D01*
X138197056Y-99404163D01*
X138197056Y-99545584D01*
X138727386Y-100075914D01*
X139858757Y-98944543D01*
X139858757Y-98803122D01*
X139757718Y-98702083D01*
X139833048Y-98654277D01*
X139932460Y-98559608D01*
X140011591Y-98447432D01*
X140067427Y-98322023D01*
X140097841Y-98188158D01*
X140100030Y-98031361D01*
X140073366Y-97896699D01*
X140021054Y-97769780D01*
X139945086Y-97655439D01*
X139848356Y-97558031D01*
X139734548Y-97481267D01*
X139682297Y-97459303D01*
X139911790Y-97229810D01*
X139911790Y-97088388D01*
X139522881Y-96699480D01*
X139508739Y-96713622D01*
X139438028Y-96642911D01*
X139452170Y-96628769D01*
X139593592Y-96628769D01*
X139982500Y-97017678D01*
X140123922Y-97017678D01*
X140646754Y-96494846D01*
X140690529Y-96429332D01*
X140720682Y-96356536D01*
X140736054Y-96279257D01*
X140736054Y-96200465D01*
X140720682Y-96123185D01*
X140690529Y-96050390D01*
X140646754Y-95984875D01*
X140512830Y-95850952D01*
X140371409Y-95850952D01*
X139593592Y-96628769D01*
X139452170Y-96628769D01*
X139438028Y-96614627D01*
X139508739Y-96543916D01*
X139522881Y-96558058D01*
X140300698Y-95780241D01*
X140300698Y-95638820D01*
X140166775Y-95504896D01*
X140101260Y-95461121D01*
X140028465Y-95430968D01*
X139951185Y-95415596D01*
X139872393Y-95415596D01*
X139845055Y-95421034D01*
X139853344Y-95380715D01*
X139844353Y-95267972D01*
X139804309Y-95162196D01*
X139736382Y-95071765D01*
X139312118Y-94647501D01*
X139263485Y-94606051D01*
X139163431Y-94553314D01*
X139052646Y-94530539D01*
X138961030Y-94537845D01*
X138969461Y-94496832D01*
X138960470Y-94384089D01*
X138954611Y-94368613D01*
X139453554Y-93869670D01*
X139482880Y-93833969D01*
X139512557Y-93798601D01*
X139513823Y-93796298D01*
X139515493Y-93794265D01*
X139537322Y-93753553D01*
X139559568Y-93713088D01*
X139560363Y-93710581D01*
X139561605Y-93708265D01*
X139575107Y-93664102D01*
X139589074Y-93620073D01*
X139589367Y-93617462D01*
X139590136Y-93614946D01*
X139594806Y-93568970D01*
X139599951Y-93523098D01*
X139599987Y-93517960D01*
X139599997Y-93517862D01*
X139599988Y-93517771D01*
X139600000Y-93516117D01*
X139600000Y-91200000D01*
X143300000Y-91200000D01*
X143300000Y-92700000D01*
X143304505Y-92745944D01*
X143308532Y-92791976D01*
X143309265Y-92794501D01*
X143309522Y-92797117D01*
X143322869Y-92841323D01*
X143335757Y-92885684D01*
X143336967Y-92888019D01*
X143337727Y-92890535D01*
X143359394Y-92931285D01*
X143380664Y-92972320D01*
X143382306Y-92974376D01*
X143383539Y-92976696D01*
X143412728Y-93012485D01*
X143441545Y-93048582D01*
X143445152Y-93052240D01*
X143445215Y-93052317D01*
X143445286Y-93052376D01*
X143446447Y-93053553D01*
X147217545Y-96824651D01*
X147188978Y-96888024D01*
X147173065Y-97000000D01*
X147173065Y-98543825D01*
X146169621Y-97540381D01*
X146128133Y-97506302D01*
X145162211Y-96540381D01*
X145115846Y-96502296D01*
X145069821Y-96463676D01*
X145066823Y-96462028D01*
X145064184Y-96459860D01*
X145011268Y-96431486D01*
X144999016Y-96424751D01*
X144934548Y-96381267D01*
X144807997Y-96328070D01*
X144673524Y-96300466D01*
X144536250Y-96299508D01*
X144401405Y-96325231D01*
X144274124Y-96376656D01*
X144159255Y-96451824D01*
X144061174Y-96547872D01*
X143983617Y-96661141D01*
X143929538Y-96787317D01*
X143900997Y-96921594D01*
X143899080Y-97058858D01*
X143923861Y-97193880D01*
X143974396Y-97321517D01*
X144048760Y-97436907D01*
X144144121Y-97535656D01*
X144256846Y-97614002D01*
X144382641Y-97668961D01*
X144471951Y-97688597D01*
X145242973Y-98459620D01*
X145284469Y-98493705D01*
X145940764Y-99150000D01*
X145899998Y-99150000D01*
X145899998Y-99249998D01*
X145800000Y-99150000D01*
X145410603Y-99150000D01*
X145333324Y-99165372D01*
X145260529Y-99195525D01*
X145195014Y-99239300D01*
X145139299Y-99295015D01*
X145095524Y-99360529D01*
X145065372Y-99433325D01*
X145050000Y-99510604D01*
X145050000Y-100750000D01*
X145150000Y-100850000D01*
X145900000Y-100850000D01*
X145900000Y-100830000D01*
X146000000Y-100830000D01*
X146000000Y-100850000D01*
X146750000Y-100850000D01*
X146850000Y-100750000D01*
X146850000Y-100059236D01*
X147250383Y-100459619D01*
X147296770Y-100497722D01*
X147342773Y-100536324D01*
X147345768Y-100537970D01*
X147348409Y-100540140D01*
X147401347Y-100568525D01*
X147453940Y-100597438D01*
X147457196Y-100598471D01*
X147460210Y-100600087D01*
X147517666Y-100617653D01*
X147574859Y-100635796D01*
X147578253Y-100636177D01*
X147581525Y-100637177D01*
X147641273Y-100643246D01*
X147700927Y-100649937D01*
X147707609Y-100649983D01*
X147707733Y-100649996D01*
X147707849Y-100649985D01*
X147710002Y-100650000D01*
X151529239Y-100650000D01*
X151572639Y-100668961D01*
X151706714Y-100698439D01*
X151843961Y-100701314D01*
X151979153Y-100677476D01*
X152107139Y-100627833D01*
X152223046Y-100554277D01*
X152322458Y-100459608D01*
X152401589Y-100347432D01*
X152457425Y-100222023D01*
X152487839Y-100088158D01*
X152490028Y-99931361D01*
X152463364Y-99796699D01*
X152411052Y-99669780D01*
X152335084Y-99555439D01*
X152290562Y-99510604D01*
X152650000Y-99510604D01*
X152650000Y-100750000D01*
X152750000Y-100850000D01*
X153500000Y-100850000D01*
X153500000Y-99250000D01*
X153600000Y-99250000D01*
X153600000Y-100850000D01*
X154350000Y-100850000D01*
X154450000Y-100750000D01*
X154450000Y-99510604D01*
X162425000Y-99510604D01*
X162425000Y-100750000D01*
X162525000Y-100850000D01*
X163275000Y-100850000D01*
X163275000Y-99250000D01*
X163375000Y-99250000D01*
X163375000Y-100850000D01*
X164125000Y-100850000D01*
X164225000Y-100750000D01*
X164225000Y-99510604D01*
X164209628Y-99433325D01*
X164179476Y-99360529D01*
X164135701Y-99295015D01*
X164079986Y-99239300D01*
X164014471Y-99195525D01*
X163941676Y-99165372D01*
X163864397Y-99150000D01*
X163475000Y-99150000D01*
X163375000Y-99250000D01*
X163275000Y-99250000D01*
X163175000Y-99150000D01*
X162785603Y-99150000D01*
X162708324Y-99165372D01*
X162635529Y-99195525D01*
X162570014Y-99239300D01*
X162514299Y-99295015D01*
X162470524Y-99360529D01*
X162440372Y-99433325D01*
X162425000Y-99510604D01*
X154450000Y-99510604D01*
X154434628Y-99433325D01*
X154404476Y-99360529D01*
X154360701Y-99295015D01*
X154304986Y-99239300D01*
X154239471Y-99195525D01*
X154166676Y-99165372D01*
X154089397Y-99150000D01*
X153700000Y-99150000D01*
X153600000Y-99250000D01*
X153500000Y-99250000D01*
X153400000Y-99150000D01*
X153010603Y-99150000D01*
X152933324Y-99165372D01*
X152860529Y-99195525D01*
X152795014Y-99239300D01*
X152739299Y-99295015D01*
X152695524Y-99360529D01*
X152665372Y-99433325D01*
X152650000Y-99510604D01*
X152290562Y-99510604D01*
X152238354Y-99458031D01*
X152124546Y-99381267D01*
X151997995Y-99328070D01*
X151863522Y-99300466D01*
X151726248Y-99299508D01*
X151591403Y-99325231D01*
X151530098Y-99350000D01*
X150344239Y-99350000D01*
X150592304Y-99101935D01*
X150675000Y-99101935D01*
X150738698Y-99096855D01*
X150846738Y-99063398D01*
X150941179Y-99001165D01*
X150999462Y-98932780D01*
X151014299Y-98954985D01*
X151070014Y-99010700D01*
X151135529Y-99054475D01*
X151208324Y-99084628D01*
X151285603Y-99100000D01*
X151475000Y-99100000D01*
X151575000Y-99000000D01*
X151575000Y-97900000D01*
X151675000Y-97900000D01*
X151675000Y-99000000D01*
X151775000Y-99100000D01*
X151964397Y-99100000D01*
X152041676Y-99084628D01*
X152114471Y-99054475D01*
X152179986Y-99010700D01*
X152235701Y-98954985D01*
X152279476Y-98889471D01*
X152309628Y-98816675D01*
X152325000Y-98739396D01*
X152325000Y-98000000D01*
X152225000Y-97900000D01*
X151675000Y-97900000D01*
X151575000Y-97900000D01*
X151555000Y-97900000D01*
X151555000Y-97800000D01*
X151575000Y-97800000D01*
X151575000Y-96700000D01*
X151675000Y-96700000D01*
X151675000Y-97800000D01*
X152225000Y-97800000D01*
X152325000Y-97700000D01*
X152325000Y-96960604D01*
X152309628Y-96883325D01*
X152279476Y-96810529D01*
X152235701Y-96745015D01*
X152179986Y-96689300D01*
X152114471Y-96645525D01*
X152041676Y-96615372D01*
X151964397Y-96600000D01*
X151775000Y-96600000D01*
X151675000Y-96700000D01*
X151575000Y-96700000D01*
X151475000Y-96600000D01*
X151285603Y-96600000D01*
X151208324Y-96615372D01*
X151135529Y-96645525D01*
X151070014Y-96689300D01*
X151014299Y-96745015D01*
X150998813Y-96768191D01*
X150976165Y-96733821D01*
X150890086Y-96660457D01*
X150786976Y-96613978D01*
X150675000Y-96598065D01*
X150075000Y-96598065D01*
X150011302Y-96603145D01*
X149903262Y-96636602D01*
X149808821Y-96698835D01*
X149749204Y-96768784D01*
X149726165Y-96733821D01*
X149640086Y-96660457D01*
X149536976Y-96613978D01*
X149425000Y-96598065D01*
X149005171Y-96598065D01*
X148956551Y-96549445D01*
X148939769Y-96535660D01*
X147194110Y-94790001D01*
X158432001Y-94790001D01*
X158477945Y-94785496D01*
X158523977Y-94781469D01*
X158526502Y-94780736D01*
X158529118Y-94780479D01*
X158573324Y-94767132D01*
X158617685Y-94754244D01*
X158620020Y-94753034D01*
X158622536Y-94752274D01*
X158663286Y-94730607D01*
X158704321Y-94709337D01*
X158706377Y-94707695D01*
X158708697Y-94706462D01*
X158744486Y-94677273D01*
X158780583Y-94648456D01*
X158784241Y-94644849D01*
X158784318Y-94644786D01*
X158784377Y-94644715D01*
X158785554Y-94643554D01*
X158843554Y-94585555D01*
X158872872Y-94549863D01*
X158902558Y-94514485D01*
X158903824Y-94512181D01*
X158905493Y-94510150D01*
X158927311Y-94469459D01*
X158949569Y-94428972D01*
X158950364Y-94426465D01*
X158951606Y-94424149D01*
X158965108Y-94379986D01*
X158979075Y-94335957D01*
X158979368Y-94333346D01*
X158980137Y-94330830D01*
X158984802Y-94284898D01*
X158989952Y-94238982D01*
X158989988Y-94233833D01*
X158989997Y-94233746D01*
X158989989Y-94233665D01*
X158990001Y-94232001D01*
X158990001Y-93250000D01*
X164500000Y-93250000D01*
X164500000Y-93389396D01*
X164515372Y-93466675D01*
X164545524Y-93539471D01*
X164589299Y-93604985D01*
X164645014Y-93660700D01*
X164710529Y-93704475D01*
X164783324Y-93734628D01*
X164860603Y-93750000D01*
X165150000Y-93750000D01*
X165250000Y-93650000D01*
X165250000Y-93150000D01*
X164600000Y-93150000D01*
X164500000Y-93250000D01*
X158990001Y-93250000D01*
X158990001Y-92967999D01*
X158985492Y-92922010D01*
X158981469Y-92876023D01*
X158980736Y-92873498D01*
X158980479Y-92870882D01*
X158967132Y-92826676D01*
X158954244Y-92782315D01*
X158953034Y-92779980D01*
X158952274Y-92777464D01*
X158930586Y-92736674D01*
X158909336Y-92695679D01*
X158907697Y-92693626D01*
X158906462Y-92691303D01*
X158877271Y-92655511D01*
X158848456Y-92619416D01*
X158844844Y-92615753D01*
X158844786Y-92615682D01*
X158844720Y-92615627D01*
X158843554Y-92614445D01*
X158785554Y-92556446D01*
X158749909Y-92527167D01*
X158714485Y-92497442D01*
X158712178Y-92496174D01*
X158710149Y-92494507D01*
X158669480Y-92472700D01*
X158628972Y-92450431D01*
X158626465Y-92449636D01*
X158624149Y-92448394D01*
X158579986Y-92434892D01*
X158535957Y-92420925D01*
X158533346Y-92420632D01*
X158530830Y-92419863D01*
X158484854Y-92415193D01*
X158438982Y-92410048D01*
X158433844Y-92410012D01*
X158433746Y-92410002D01*
X158433655Y-92410011D01*
X158432001Y-92409999D01*
X157143901Y-92409999D01*
X157105069Y-92371167D01*
X157138024Y-92386022D01*
X157250000Y-92401935D01*
X157550000Y-92401935D01*
X157613698Y-92396855D01*
X157721738Y-92363398D01*
X157728276Y-92359089D01*
X157788024Y-92386022D01*
X157900000Y-92401935D01*
X158200000Y-92401935D01*
X158263698Y-92396855D01*
X158371738Y-92363398D01*
X158466179Y-92301165D01*
X158539543Y-92215086D01*
X158586022Y-92111976D01*
X158601935Y-92000000D01*
X158601935Y-91200000D01*
X158596855Y-91136302D01*
X158563398Y-91028262D01*
X158501165Y-90933821D01*
X158415086Y-90860457D01*
X158311976Y-90813978D01*
X158295474Y-90811633D01*
X158357107Y-90750000D01*
X161048065Y-90750000D01*
X161048065Y-90900000D01*
X161053145Y-90963698D01*
X161086602Y-91071738D01*
X161148835Y-91166179D01*
X161234914Y-91239543D01*
X161338024Y-91286022D01*
X161450000Y-91301935D01*
X162250000Y-91301935D01*
X162313698Y-91296855D01*
X162421738Y-91263398D01*
X162501350Y-91210937D01*
X162534914Y-91239543D01*
X162638024Y-91286022D01*
X162750000Y-91301935D01*
X163550000Y-91301935D01*
X163613698Y-91296855D01*
X163721738Y-91263398D01*
X163816179Y-91201165D01*
X163889543Y-91115086D01*
X163903654Y-91083781D01*
X163923861Y-91193880D01*
X163974396Y-91321517D01*
X164048760Y-91436907D01*
X164070279Y-91459191D01*
X164020283Y-91532208D01*
X163966204Y-91658384D01*
X163937663Y-91792661D01*
X163935746Y-91929925D01*
X163960527Y-92064947D01*
X164011062Y-92192584D01*
X164085426Y-92307974D01*
X164180787Y-92406723D01*
X164293512Y-92485069D01*
X164419307Y-92540028D01*
X164553382Y-92569506D01*
X164613548Y-92570766D01*
X164589299Y-92595015D01*
X164545524Y-92660529D01*
X164515372Y-92733325D01*
X164500000Y-92810604D01*
X164500000Y-92950000D01*
X164600000Y-93050000D01*
X165250000Y-93050000D01*
X165250000Y-93030000D01*
X165350000Y-93030000D01*
X165350000Y-93050000D01*
X165370000Y-93050000D01*
X165370000Y-93150000D01*
X165350000Y-93150000D01*
X165350000Y-93650000D01*
X165450000Y-93750000D01*
X165739397Y-93750000D01*
X165816676Y-93734628D01*
X165889471Y-93704475D01*
X165900980Y-93696785D01*
X165988024Y-93736022D01*
X166100000Y-93751935D01*
X166900000Y-93751935D01*
X166963698Y-93746855D01*
X167071738Y-93713398D01*
X167092070Y-93700000D01*
X167826842Y-93700000D01*
X167800997Y-93821594D01*
X167799080Y-93958858D01*
X167823861Y-94093880D01*
X167873540Y-94219354D01*
X167792894Y-94300000D01*
X165500000Y-94300000D01*
X165447718Y-94306955D01*
X165376731Y-94342505D01*
X165325169Y-94402871D01*
X164825169Y-95302871D01*
X164800189Y-95408687D01*
X164852576Y-96613589D01*
X164778262Y-96636602D01*
X164683821Y-96698835D01*
X164610457Y-96784914D01*
X164563978Y-96888024D01*
X164548065Y-97000000D01*
X164548065Y-97450000D01*
X161910167Y-97450000D01*
X161857997Y-97428070D01*
X161723524Y-97400466D01*
X161586250Y-97399508D01*
X161451405Y-97425231D01*
X161324124Y-97476656D01*
X161209255Y-97551824D01*
X161111174Y-97647872D01*
X161033617Y-97761141D01*
X160979538Y-97887317D01*
X160950997Y-98021594D01*
X160949080Y-98158858D01*
X160973861Y-98293880D01*
X161024396Y-98421517D01*
X161098760Y-98536907D01*
X161194121Y-98635656D01*
X161306846Y-98714002D01*
X161432641Y-98768961D01*
X161566716Y-98798439D01*
X161703963Y-98801314D01*
X161839155Y-98777476D01*
X161909992Y-98750000D01*
X164552053Y-98750000D01*
X164553145Y-98763698D01*
X164586602Y-98871738D01*
X164648835Y-98966179D01*
X164734914Y-99039543D01*
X164838024Y-99086022D01*
X164950000Y-99101935D01*
X165032697Y-99101935D01*
X166540381Y-100609620D01*
X166586793Y-100647744D01*
X166632772Y-100686325D01*
X166635766Y-100687971D01*
X166638408Y-100690141D01*
X166691346Y-100718526D01*
X166743939Y-100747439D01*
X166747195Y-100748472D01*
X166750209Y-100750088D01*
X166807665Y-100767654D01*
X166864858Y-100785797D01*
X166868252Y-100786178D01*
X166871524Y-100787178D01*
X166931272Y-100793247D01*
X166990926Y-100799938D01*
X166997608Y-100799984D01*
X166997732Y-100799997D01*
X166997848Y-100799986D01*
X167000001Y-100800001D01*
X172149242Y-100800001D01*
X172192642Y-100818962D01*
X172326717Y-100848440D01*
X172463964Y-100851315D01*
X172599156Y-100827477D01*
X172727142Y-100777834D01*
X172843049Y-100704278D01*
X172942461Y-100609609D01*
X173021592Y-100497433D01*
X173077428Y-100372024D01*
X173107842Y-100238159D01*
X173110031Y-100081362D01*
X173083367Y-99946700D01*
X173031055Y-99819781D01*
X172955087Y-99705440D01*
X172858357Y-99608032D01*
X172744549Y-99531268D01*
X172695392Y-99510604D01*
X173775000Y-99510604D01*
X173775000Y-100750000D01*
X173875000Y-100850000D01*
X174625000Y-100850000D01*
X174625000Y-99250000D01*
X174725000Y-99250000D01*
X174725000Y-100850000D01*
X175475000Y-100850000D01*
X175575000Y-100750000D01*
X175575000Y-99510604D01*
X175559628Y-99433325D01*
X175529476Y-99360529D01*
X175485701Y-99295015D01*
X175429986Y-99239300D01*
X175364471Y-99195525D01*
X175291676Y-99165372D01*
X175214397Y-99150000D01*
X174825000Y-99150000D01*
X174725000Y-99250000D01*
X174625000Y-99250000D01*
X174525000Y-99150000D01*
X174135603Y-99150000D01*
X174058324Y-99165372D01*
X173985529Y-99195525D01*
X173920014Y-99239300D01*
X173864299Y-99295015D01*
X173820524Y-99360529D01*
X173790372Y-99433325D01*
X173775000Y-99510604D01*
X172695392Y-99510604D01*
X172617998Y-99478071D01*
X172483525Y-99450467D01*
X172346251Y-99449509D01*
X172298253Y-99458665D01*
X172300030Y-99331361D01*
X172273366Y-99196699D01*
X172221054Y-99069780D01*
X172155644Y-98971330D01*
X172195014Y-99010700D01*
X172260529Y-99054475D01*
X172333324Y-99084628D01*
X172410603Y-99100000D01*
X172600000Y-99100000D01*
X172700000Y-99000000D01*
X172700000Y-97900000D01*
X172800000Y-97900000D01*
X172800000Y-99000000D01*
X172900000Y-99100000D01*
X173089397Y-99100000D01*
X173166676Y-99084628D01*
X173239471Y-99054475D01*
X173304986Y-99010700D01*
X173360701Y-98954985D01*
X173397440Y-98900000D01*
X178498065Y-98900000D01*
X178498065Y-100300000D01*
X178503145Y-100363698D01*
X178536602Y-100471738D01*
X178598835Y-100566179D01*
X178684914Y-100639543D01*
X178788024Y-100686022D01*
X178900000Y-100701935D01*
X179900000Y-100701935D01*
X179963698Y-100696855D01*
X180071738Y-100663398D01*
X180166179Y-100601165D01*
X180239543Y-100515086D01*
X180286022Y-100411976D01*
X180301935Y-100300000D01*
X180301935Y-99750000D01*
X182700000Y-99750000D01*
X182700000Y-100339396D01*
X182715372Y-100416675D01*
X182745524Y-100489471D01*
X182789299Y-100554985D01*
X182845014Y-100610700D01*
X182910529Y-100654475D01*
X182983324Y-100684628D01*
X183060603Y-100700000D01*
X183450000Y-100700000D01*
X183550000Y-100600000D01*
X183550000Y-99650000D01*
X183650000Y-99650000D01*
X183650000Y-100600000D01*
X183750000Y-100700000D01*
X184139397Y-100700000D01*
X184216676Y-100684628D01*
X184289471Y-100654475D01*
X184354986Y-100610700D01*
X184410701Y-100554985D01*
X184454476Y-100489471D01*
X184484628Y-100416675D01*
X184500000Y-100339396D01*
X184500000Y-99750000D01*
X184400000Y-99650000D01*
X183650000Y-99650000D01*
X183550000Y-99650000D01*
X182800000Y-99650000D01*
X182700000Y-99750000D01*
X180301935Y-99750000D01*
X180301935Y-98910283D01*
X180313678Y-98972691D01*
X180356638Y-99039454D01*
X180422189Y-99084243D01*
X180500000Y-99100000D01*
X182300000Y-99100000D01*
X182372691Y-99086322D01*
X182439454Y-99043362D01*
X182484243Y-98977811D01*
X182500000Y-98900000D01*
X182500000Y-98860604D01*
X182700000Y-98860604D01*
X182700000Y-99450000D01*
X182800000Y-99550000D01*
X183550000Y-99550000D01*
X183550000Y-98600000D01*
X183650000Y-98600000D01*
X183650000Y-99550000D01*
X184400000Y-99550000D01*
X184500000Y-99450000D01*
X184500000Y-99242941D01*
X185197765Y-99242941D01*
X185257948Y-99570851D01*
X185380676Y-99880827D01*
X185561274Y-100161061D01*
X185792865Y-100400880D01*
X186066625Y-100591148D01*
X186372129Y-100724619D01*
X186697739Y-100796209D01*
X187031053Y-100803191D01*
X187359376Y-100745299D01*
X187670201Y-100624738D01*
X187951689Y-100446100D01*
X188193119Y-100216190D01*
X188385294Y-99943764D01*
X188520895Y-99639200D01*
X188594756Y-99314097D01*
X188600073Y-98933306D01*
X188535318Y-98606268D01*
X188408274Y-98298036D01*
X188223780Y-98020351D01*
X187988864Y-97783789D01*
X187712474Y-97597361D01*
X187405136Y-97468169D01*
X187078558Y-97401132D01*
X186745179Y-97398804D01*
X186417697Y-97461275D01*
X186108586Y-97586164D01*
X185829619Y-97768715D01*
X185591423Y-98001973D01*
X185403070Y-98277056D01*
X185271735Y-98583484D01*
X185202420Y-98909586D01*
X185197765Y-99242941D01*
X184500000Y-99242941D01*
X184500000Y-98860604D01*
X184484628Y-98783325D01*
X184454476Y-98710529D01*
X184410701Y-98645015D01*
X184354986Y-98589300D01*
X184289471Y-98545525D01*
X184216676Y-98515372D01*
X184139397Y-98500000D01*
X183750000Y-98500000D01*
X183650000Y-98600000D01*
X183550000Y-98600000D01*
X183450000Y-98500000D01*
X183060603Y-98500000D01*
X182983324Y-98515372D01*
X182910529Y-98545525D01*
X182845014Y-98589300D01*
X182789299Y-98645015D01*
X182745524Y-98710529D01*
X182715372Y-98783325D01*
X182700000Y-98860604D01*
X182500000Y-98860604D01*
X182500000Y-97200000D01*
X182486322Y-97127309D01*
X182443362Y-97060546D01*
X182377811Y-97015757D01*
X182300000Y-97000000D01*
X180500000Y-97000000D01*
X180427309Y-97013678D01*
X180360546Y-97056638D01*
X180315757Y-97122189D01*
X180300000Y-97200000D01*
X180300000Y-98875737D01*
X180296855Y-98836302D01*
X180263398Y-98728262D01*
X180201165Y-98633821D01*
X180115086Y-98560457D01*
X180011976Y-98513978D01*
X179968960Y-98507865D01*
X180011591Y-98447432D01*
X180067427Y-98322023D01*
X180097841Y-98188158D01*
X180100030Y-98031361D01*
X180073366Y-97896699D01*
X180021054Y-97769780D01*
X179945086Y-97655439D01*
X179848356Y-97558031D01*
X179734548Y-97481267D01*
X179607997Y-97428070D01*
X179473524Y-97400466D01*
X179336250Y-97399508D01*
X179201405Y-97425231D01*
X179074124Y-97476656D01*
X178959255Y-97551824D01*
X178861174Y-97647872D01*
X178783617Y-97761141D01*
X178729538Y-97887317D01*
X178700997Y-98021594D01*
X178699080Y-98158858D01*
X178723861Y-98293880D01*
X178774396Y-98421517D01*
X178828549Y-98505546D01*
X178728262Y-98536602D01*
X178633821Y-98598835D01*
X178560457Y-98684914D01*
X178513978Y-98788024D01*
X178498065Y-98900000D01*
X173397440Y-98900000D01*
X173404476Y-98889471D01*
X173434628Y-98816675D01*
X173450000Y-98739396D01*
X173450000Y-98000000D01*
X173350000Y-97900000D01*
X172800000Y-97900000D01*
X172700000Y-97900000D01*
X172680000Y-97900000D01*
X172680000Y-97800000D01*
X172700000Y-97800000D01*
X172700000Y-97780000D01*
X172800000Y-97780000D01*
X172800000Y-97800000D01*
X173350000Y-97800000D01*
X173450000Y-97700000D01*
X173450000Y-96960604D01*
X173434628Y-96883325D01*
X173404476Y-96810529D01*
X173360701Y-96745015D01*
X173304986Y-96689300D01*
X173239471Y-96645525D01*
X173166676Y-96615372D01*
X173089397Y-96600000D01*
X173058665Y-96600000D01*
X173206730Y-96451935D01*
X174000000Y-96451935D01*
X174063698Y-96446855D01*
X174171738Y-96413398D01*
X174197992Y-96396098D01*
X174210529Y-96404475D01*
X174283324Y-96434628D01*
X174360603Y-96450000D01*
X174650000Y-96450000D01*
X174750000Y-96350000D01*
X174750000Y-95850000D01*
X174850000Y-95850000D01*
X174850000Y-96350000D01*
X174950000Y-96450000D01*
X175239397Y-96450000D01*
X175316676Y-96434628D01*
X175389471Y-96404475D01*
X175454986Y-96360700D01*
X175510701Y-96304985D01*
X175554476Y-96239471D01*
X175584628Y-96166675D01*
X175600000Y-96089396D01*
X175600000Y-95950000D01*
X186150000Y-95950000D01*
X186150000Y-96339397D01*
X186165372Y-96416676D01*
X186195525Y-96489471D01*
X186239300Y-96554986D01*
X186295015Y-96610701D01*
X186360529Y-96654476D01*
X186433325Y-96684628D01*
X186510604Y-96700000D01*
X187750000Y-96700000D01*
X187850000Y-96600000D01*
X187850000Y-95850000D01*
X186250000Y-95850000D01*
X186150000Y-95950000D01*
X175600000Y-95950000D01*
X175500000Y-95850000D01*
X174850000Y-95850000D01*
X174750000Y-95850000D01*
X174730000Y-95850000D01*
X174730000Y-95750000D01*
X174750000Y-95750000D01*
X174750000Y-95250000D01*
X174850000Y-95250000D01*
X174850000Y-95750000D01*
X175500000Y-95750000D01*
X175600000Y-95650000D01*
X175600000Y-95510604D01*
X175584628Y-95433325D01*
X175554476Y-95360529D01*
X175510701Y-95295015D01*
X175454986Y-95239300D01*
X175389471Y-95195525D01*
X175316676Y-95165372D01*
X175239397Y-95150000D01*
X174950000Y-95150000D01*
X174850000Y-95250000D01*
X174750000Y-95250000D01*
X174650000Y-95150000D01*
X174360603Y-95150000D01*
X174283324Y-95165372D01*
X174210529Y-95195525D01*
X174199020Y-95203215D01*
X174111976Y-95163978D01*
X174000000Y-95148065D01*
X173859042Y-95148065D01*
X174453554Y-94553553D01*
X174482880Y-94517852D01*
X174512557Y-94482484D01*
X174513823Y-94480181D01*
X174515493Y-94478148D01*
X174537310Y-94437459D01*
X174559568Y-94396971D01*
X174560364Y-94394461D01*
X174561605Y-94392147D01*
X174575099Y-94348011D01*
X174589074Y-94303956D01*
X174589367Y-94301343D01*
X174590136Y-94298828D01*
X174594805Y-94252858D01*
X174599951Y-94206981D01*
X174599987Y-94201843D01*
X174599997Y-94201745D01*
X174599988Y-94201654D01*
X174600000Y-94200000D01*
X174600000Y-92458858D01*
X174899080Y-92458858D01*
X174923861Y-92593880D01*
X174974396Y-92721517D01*
X175048760Y-92836907D01*
X175144121Y-92935656D01*
X175256846Y-93014002D01*
X175382641Y-93068961D01*
X175516716Y-93098439D01*
X175653963Y-93101314D01*
X175671086Y-93098295D01*
X175677015Y-93100107D01*
X175721044Y-93114074D01*
X175723655Y-93114367D01*
X175726171Y-93115136D01*
X175772147Y-93119806D01*
X175818019Y-93124951D01*
X175823157Y-93124987D01*
X175823255Y-93124997D01*
X175823346Y-93124988D01*
X175825000Y-93125000D01*
X183655226Y-93125000D01*
X183698835Y-93191179D01*
X183768784Y-93250796D01*
X183733821Y-93273835D01*
X183660457Y-93359914D01*
X183642387Y-93400000D01*
X176290033Y-93400000D01*
X176248356Y-93358031D01*
X176134548Y-93281267D01*
X176007997Y-93228070D01*
X175873524Y-93200466D01*
X175736250Y-93199508D01*
X175601405Y-93225231D01*
X175474124Y-93276656D01*
X175359255Y-93351824D01*
X175261174Y-93447872D01*
X175183617Y-93561141D01*
X175129538Y-93687317D01*
X175100997Y-93821594D01*
X175099080Y-93958858D01*
X175123861Y-94093880D01*
X175174396Y-94221517D01*
X175248760Y-94336907D01*
X175344121Y-94435656D01*
X175456846Y-94514002D01*
X175582641Y-94568961D01*
X175716716Y-94598439D01*
X175853963Y-94601314D01*
X175989155Y-94577476D01*
X176117141Y-94527833D01*
X176233048Y-94454277D01*
X176290044Y-94400000D01*
X183671700Y-94400000D01*
X183698835Y-94441179D01*
X183784914Y-94514543D01*
X183888024Y-94561022D01*
X184000000Y-94576935D01*
X185505150Y-94576935D01*
X185523861Y-94678882D01*
X185574396Y-94806519D01*
X185648760Y-94921909D01*
X185744121Y-95020658D01*
X185856846Y-95099004D01*
X185982641Y-95153963D01*
X186116716Y-95183441D01*
X186165147Y-95184456D01*
X186150000Y-95260603D01*
X186150000Y-95650000D01*
X186250000Y-95750000D01*
X187850000Y-95750000D01*
X187850000Y-95000000D01*
X187750000Y-94900000D01*
X186763929Y-94900000D01*
X186811591Y-94832434D01*
X186867427Y-94707025D01*
X186897841Y-94573160D01*
X186900030Y-94416363D01*
X186873366Y-94281701D01*
X186850000Y-94225011D01*
X186850000Y-90319238D01*
X186925097Y-90244141D01*
X186967141Y-90227833D01*
X187083048Y-90154277D01*
X187182460Y-90059608D01*
X187261591Y-89947432D01*
X187317427Y-89822023D01*
X187347841Y-89688158D01*
X187350030Y-89531361D01*
X187323366Y-89396699D01*
X187271054Y-89269780D01*
X187195086Y-89155439D01*
X187140033Y-89100000D01*
X187750000Y-89100000D01*
X187850000Y-89000000D01*
X187850000Y-88250000D01*
X186250000Y-88250000D01*
X186150000Y-88350000D01*
X186150000Y-88739397D01*
X186165372Y-88816676D01*
X186195525Y-88889471D01*
X186239300Y-88954986D01*
X186285950Y-89001636D01*
X186209255Y-89051824D01*
X186111174Y-89147872D01*
X186033617Y-89261141D01*
X186006611Y-89324151D01*
X185868800Y-89461962D01*
X185816675Y-89440372D01*
X185739396Y-89425000D01*
X185000000Y-89425000D01*
X184900000Y-89525000D01*
X184900000Y-90075000D01*
X184920000Y-90075000D01*
X184920000Y-90175000D01*
X184900000Y-90175000D01*
X184900000Y-90195000D01*
X184800000Y-90195000D01*
X184800000Y-90175000D01*
X183700000Y-90175000D01*
X183600000Y-90275000D01*
X183600000Y-90464397D01*
X183615372Y-90541676D01*
X183645525Y-90614471D01*
X183689300Y-90679986D01*
X183745015Y-90735701D01*
X183768191Y-90751187D01*
X183733821Y-90773835D01*
X183660457Y-90859914D01*
X183613978Y-90963024D01*
X183598065Y-91075000D01*
X183598065Y-91675000D01*
X183603145Y-91738698D01*
X183636602Y-91846738D01*
X183698835Y-91941179D01*
X183768784Y-92000796D01*
X183733821Y-92023835D01*
X183660457Y-92109914D01*
X183653657Y-92125000D01*
X176243814Y-92125000D01*
X176221054Y-92069780D01*
X176145086Y-91955439D01*
X176048356Y-91858031D01*
X175934548Y-91781267D01*
X175807997Y-91728070D01*
X175673524Y-91700466D01*
X175536250Y-91699508D01*
X175401405Y-91725231D01*
X175274124Y-91776656D01*
X175159255Y-91851824D01*
X175061174Y-91947872D01*
X174983617Y-92061141D01*
X174929538Y-92187317D01*
X174900997Y-92321594D01*
X174899080Y-92458858D01*
X174600000Y-92458858D01*
X174600000Y-90775912D01*
X181824088Y-90775912D01*
X181870032Y-90771407D01*
X181916064Y-90767380D01*
X181918589Y-90766647D01*
X181921205Y-90766390D01*
X181965411Y-90753043D01*
X182009772Y-90740155D01*
X182012107Y-90738945D01*
X182014623Y-90738185D01*
X182055373Y-90716518D01*
X182096408Y-90695248D01*
X182098464Y-90693606D01*
X182100784Y-90692373D01*
X182136573Y-90663184D01*
X182172670Y-90634367D01*
X182176328Y-90630760D01*
X182176405Y-90630697D01*
X182176464Y-90630626D01*
X182177641Y-90629465D01*
X183021503Y-89785603D01*
X183600000Y-89785603D01*
X183600000Y-89975000D01*
X183700000Y-90075000D01*
X184800000Y-90075000D01*
X184800000Y-89525000D01*
X184700000Y-89425000D01*
X183960604Y-89425000D01*
X183883325Y-89440372D01*
X183810529Y-89470524D01*
X183745015Y-89514299D01*
X183689300Y-89570014D01*
X183645525Y-89635529D01*
X183615372Y-89708324D01*
X183600000Y-89785603D01*
X183021503Y-89785603D01*
X183653554Y-89153553D01*
X183682880Y-89117852D01*
X183712557Y-89082484D01*
X183713823Y-89080181D01*
X183715493Y-89078148D01*
X183737320Y-89037440D01*
X183759568Y-88996971D01*
X183760363Y-88994464D01*
X183761605Y-88992148D01*
X183775107Y-88947985D01*
X183789074Y-88903956D01*
X183789367Y-88901345D01*
X183790136Y-88898829D01*
X183794806Y-88852853D01*
X183799951Y-88806981D01*
X183799987Y-88801843D01*
X183799997Y-88801745D01*
X183799988Y-88801654D01*
X183800000Y-88800000D01*
X183800000Y-87660603D01*
X186150000Y-87660603D01*
X186150000Y-88050000D01*
X186250000Y-88150000D01*
X187850000Y-88150000D01*
X187850000Y-87400000D01*
X187750000Y-87300000D01*
X186510604Y-87300000D01*
X186433325Y-87315372D01*
X186360529Y-87345524D01*
X186295015Y-87389299D01*
X186239300Y-87445014D01*
X186195525Y-87510529D01*
X186165372Y-87583324D01*
X186150000Y-87660603D01*
X183800000Y-87660603D01*
X183800000Y-86844336D01*
X184222120Y-86422216D01*
X184200997Y-86521594D01*
X184199080Y-86658858D01*
X184223861Y-86793880D01*
X184274396Y-86921517D01*
X184348760Y-87036907D01*
X184444121Y-87135656D01*
X184556846Y-87214002D01*
X184682641Y-87268961D01*
X184816716Y-87298439D01*
X184953963Y-87301314D01*
X185089155Y-87277476D01*
X185217141Y-87227833D01*
X185333048Y-87154277D01*
X185432460Y-87059608D01*
X185511591Y-86947432D01*
X185543520Y-86875718D01*
X185751582Y-86667657D01*
X185789706Y-86621245D01*
X185828287Y-86575266D01*
X185829933Y-86572272D01*
X185832103Y-86569630D01*
X185860488Y-86516692D01*
X185889401Y-86464099D01*
X185890434Y-86460843D01*
X185892050Y-86457829D01*
X185900720Y-86429468D01*
X186015254Y-86429468D01*
X186015254Y-86570889D01*
X186290599Y-86846234D01*
X186356114Y-86890009D01*
X186428909Y-86920161D01*
X186506188Y-86935534D01*
X186584981Y-86935534D01*
X186662260Y-86920162D01*
X186735056Y-86890008D01*
X186800570Y-86846233D01*
X187676955Y-85969848D01*
X187676955Y-85828427D01*
X187146625Y-85298097D01*
X186015254Y-86429468D01*
X185900720Y-86429468D01*
X185909603Y-86400415D01*
X185922818Y-86358757D01*
X185944543Y-86358757D01*
X187075914Y-85227386D01*
X186545584Y-84697056D01*
X186404163Y-84697056D01*
X185931517Y-85169702D01*
X185930871Y-85162312D01*
X185929918Y-85159030D01*
X185929584Y-85155628D01*
X185912219Y-85098112D01*
X185895478Y-85040490D01*
X185893907Y-85037459D01*
X185892918Y-85034184D01*
X185864710Y-84981132D01*
X185837099Y-84927865D01*
X185834968Y-84925196D01*
X185833362Y-84922175D01*
X185795415Y-84875648D01*
X185757955Y-84828722D01*
X185753261Y-84823963D01*
X185753184Y-84823868D01*
X185753096Y-84823795D01*
X185751582Y-84822260D01*
X184053066Y-83123745D01*
X184006701Y-83085660D01*
X183960676Y-83047040D01*
X183957678Y-83045392D01*
X183955039Y-83043224D01*
X183902123Y-83014850D01*
X183849509Y-82985926D01*
X183846253Y-82984893D01*
X183843239Y-82983277D01*
X183785783Y-82965711D01*
X183728590Y-82947568D01*
X183725196Y-82947187D01*
X183721924Y-82946187D01*
X183674175Y-82941337D01*
X183671885Y-82917975D01*
X183666653Y-82858176D01*
X183665699Y-82854894D01*
X183665366Y-82851493D01*
X183648005Y-82793989D01*
X183631260Y-82736355D01*
X183629689Y-82733324D01*
X183628700Y-82730049D01*
X183600492Y-82676997D01*
X183572881Y-82623730D01*
X183570750Y-82621061D01*
X183569144Y-82618040D01*
X183531197Y-82571513D01*
X183493737Y-82524587D01*
X183489043Y-82519828D01*
X183488966Y-82519733D01*
X183488878Y-82519660D01*
X183487364Y-82518125D01*
X183043516Y-82074278D01*
X183021054Y-82019780D01*
X182945086Y-81905439D01*
X182848356Y-81808031D01*
X182734548Y-81731267D01*
X182607997Y-81678070D01*
X182473524Y-81650466D01*
X182336250Y-81649508D01*
X182201405Y-81675231D01*
X182074124Y-81726656D01*
X181959255Y-81801824D01*
X181861174Y-81897872D01*
X181783617Y-82011141D01*
X181729538Y-82137317D01*
X181700997Y-82271594D01*
X181700229Y-82326575D01*
X181621013Y-82247358D01*
X181555498Y-82203583D01*
X181482703Y-82173430D01*
X181405423Y-82158058D01*
X181326631Y-82158058D01*
X181249352Y-82173430D01*
X181176556Y-82203583D01*
X181111042Y-82247358D01*
X180588210Y-82770190D01*
X180588210Y-82911612D01*
X180977119Y-83300520D01*
X180991261Y-83286378D01*
X181061972Y-83357089D01*
X181047830Y-83371231D01*
X181061972Y-83385373D01*
X180991261Y-83456084D01*
X180977119Y-83441942D01*
X180199302Y-84219759D01*
X180199302Y-84361180D01*
X180333225Y-84495104D01*
X180398740Y-84538879D01*
X180471535Y-84569032D01*
X180548815Y-84584404D01*
X180627607Y-84584404D01*
X180654945Y-84578966D01*
X180646656Y-84619285D01*
X180655647Y-84732028D01*
X180695691Y-84837804D01*
X180763618Y-84928235D01*
X180935383Y-85100000D01*
X176007107Y-85100000D01*
X177228554Y-83878553D01*
X177257880Y-83842852D01*
X177287557Y-83807484D01*
X177288823Y-83805181D01*
X177290493Y-83803148D01*
X177312310Y-83762459D01*
X177334568Y-83721971D01*
X177334957Y-83720743D01*
X179763946Y-83720743D01*
X179763946Y-83799535D01*
X179779318Y-83876815D01*
X179809471Y-83949610D01*
X179853246Y-84015125D01*
X179987170Y-84149048D01*
X180128591Y-84149048D01*
X180906408Y-83371231D01*
X180517500Y-82982322D01*
X180376078Y-82982322D01*
X179853246Y-83505154D01*
X179809471Y-83570668D01*
X179779318Y-83643464D01*
X179763946Y-83720743D01*
X177334957Y-83720743D01*
X177335364Y-83719461D01*
X177336605Y-83717147D01*
X177350099Y-83673011D01*
X177364074Y-83628956D01*
X177364367Y-83626343D01*
X177365136Y-83623828D01*
X177369808Y-83577832D01*
X177374951Y-83531981D01*
X177374987Y-83526843D01*
X177374997Y-83526745D01*
X177374988Y-83526654D01*
X177375000Y-83525000D01*
X177375000Y-83344774D01*
X177441179Y-83301165D01*
X177514543Y-83215086D01*
X177561022Y-83111976D01*
X177576935Y-83000000D01*
X177576935Y-81300000D01*
X177571855Y-81236302D01*
X177538398Y-81128262D01*
X177490423Y-81055457D01*
X180641243Y-81055457D01*
X180641243Y-81196878D01*
X180916588Y-81472223D01*
X180982103Y-81515998D01*
X181054898Y-81546150D01*
X181132177Y-81561523D01*
X181210970Y-81561523D01*
X181288249Y-81546151D01*
X181361045Y-81515997D01*
X181426559Y-81472222D01*
X182302944Y-80595837D01*
X182302944Y-80454416D01*
X181772614Y-79924086D01*
X180641243Y-81055457D01*
X177490423Y-81055457D01*
X177476165Y-81033821D01*
X177436482Y-81000000D01*
X177539239Y-81000000D01*
X177582639Y-81018961D01*
X177716714Y-81048439D01*
X177853961Y-81051314D01*
X177989153Y-81027476D01*
X178117139Y-80977833D01*
X178233046Y-80904277D01*
X178290042Y-80850000D01*
X178650000Y-80850000D01*
X178750000Y-80750000D01*
X178750000Y-79150000D01*
X178850000Y-79150000D01*
X178850000Y-80750000D01*
X178950000Y-80850000D01*
X179339397Y-80850000D01*
X179416676Y-80834628D01*
X179489471Y-80804475D01*
X179554986Y-80760700D01*
X179610701Y-80704985D01*
X179654476Y-80639471D01*
X179684628Y-80566675D01*
X179700000Y-80489396D01*
X179700000Y-80415019D01*
X180064466Y-80415019D01*
X180064466Y-80493812D01*
X180079839Y-80571091D01*
X180109991Y-80643886D01*
X180153766Y-80709401D01*
X180429111Y-80984746D01*
X180570532Y-80984746D01*
X181701903Y-79853375D01*
X181171573Y-79323045D01*
X181030152Y-79323045D01*
X180153767Y-80199430D01*
X180109992Y-80264944D01*
X180079838Y-80337740D01*
X180064466Y-80415019D01*
X179700000Y-80415019D01*
X179700000Y-79250000D01*
X179600000Y-79150000D01*
X178850000Y-79150000D01*
X178750000Y-79150000D01*
X178000000Y-79150000D01*
X177900000Y-79250000D01*
X177900000Y-79655901D01*
X177873522Y-79650466D01*
X177736248Y-79649508D01*
X177601403Y-79675231D01*
X177540098Y-79700000D01*
X173862321Y-79700000D01*
X173834548Y-79681267D01*
X173707997Y-79628070D01*
X173573524Y-79600466D01*
X173436250Y-79599508D01*
X173301405Y-79625231D01*
X173174124Y-79676656D01*
X173059255Y-79751824D01*
X172961174Y-79847872D01*
X172883617Y-79961141D01*
X172829538Y-80087317D01*
X172800997Y-80221594D01*
X172799080Y-80358858D01*
X172823861Y-80493880D01*
X172874396Y-80621517D01*
X172948760Y-80736907D01*
X173044121Y-80835656D01*
X173156846Y-80914002D01*
X173229330Y-80945670D01*
X173175000Y-81000000D01*
X173175000Y-82100000D01*
X173195000Y-82100000D01*
X173195000Y-82200000D01*
X173175000Y-82200000D01*
X173175000Y-83300000D01*
X173275000Y-83400000D01*
X173464397Y-83400000D01*
X173541676Y-83384628D01*
X173614471Y-83354475D01*
X173679986Y-83310700D01*
X173735701Y-83254985D01*
X173751187Y-83231809D01*
X173773835Y-83266179D01*
X173859914Y-83339543D01*
X173963024Y-83386022D01*
X174075000Y-83401935D01*
X174675000Y-83401935D01*
X174738698Y-83396855D01*
X174846738Y-83363398D01*
X174941179Y-83301165D01*
X175000796Y-83231216D01*
X175023835Y-83266179D01*
X175109914Y-83339543D01*
X175125000Y-83346343D01*
X175125000Y-83992246D01*
X173150748Y-85966498D01*
X173140061Y-85950414D01*
X173043331Y-85853006D01*
X172929523Y-85776242D01*
X172802972Y-85723045D01*
X172668499Y-85695441D01*
X172531225Y-85694483D01*
X172396380Y-85720206D01*
X172269099Y-85771631D01*
X172154230Y-85846799D01*
X172056149Y-85942847D01*
X171978592Y-86056116D01*
X171963475Y-86091387D01*
X171953722Y-86086247D01*
X171922925Y-86079916D01*
X171919983Y-86065127D01*
X171889831Y-85992331D01*
X171846056Y-85926817D01*
X171641421Y-85722183D01*
X171500000Y-85722183D01*
X171146447Y-86075736D01*
X171160589Y-86089878D01*
X171089878Y-86160589D01*
X171075736Y-86146447D01*
X170722183Y-86500000D01*
X170722183Y-86641421D01*
X170833274Y-86752513D01*
X170443961Y-87141826D01*
X170461833Y-87054891D01*
X170461711Y-87053365D01*
X170484924Y-87030152D01*
X170484924Y-86888730D01*
X170457066Y-86860872D01*
X170405139Y-86826175D01*
X170344871Y-86745941D01*
X170132739Y-86533809D01*
X170084106Y-86492359D01*
X169984052Y-86439622D01*
X169873267Y-86416847D01*
X169760524Y-86425838D01*
X169654748Y-86465882D01*
X169604697Y-86503478D01*
X169031492Y-85930273D01*
X170216116Y-85930273D01*
X170216116Y-86009066D01*
X170231489Y-86086345D01*
X170261641Y-86159141D01*
X170305416Y-86224655D01*
X170510051Y-86429289D01*
X170651472Y-86429289D01*
X171005025Y-86075736D01*
X170545406Y-85616117D01*
X170403985Y-85616117D01*
X170361132Y-85658969D01*
X170305417Y-85714684D01*
X170261642Y-85780199D01*
X170231488Y-85852994D01*
X170216116Y-85930273D01*
X169031492Y-85930273D01*
X168505204Y-85403985D01*
X170616117Y-85403985D01*
X170616117Y-85545406D01*
X171075736Y-86005025D01*
X171429289Y-85651472D01*
X171429289Y-85510051D01*
X171224655Y-85305416D01*
X171159141Y-85261641D01*
X171086345Y-85231489D01*
X171009066Y-85216116D01*
X170930273Y-85216116D01*
X170852994Y-85231488D01*
X170780199Y-85261642D01*
X170714684Y-85305417D01*
X170658969Y-85361132D01*
X170616117Y-85403985D01*
X168505204Y-85403985D01*
X168313354Y-85212136D01*
X168277709Y-85182857D01*
X168242285Y-85153132D01*
X168239978Y-85151864D01*
X168237949Y-85150197D01*
X168197280Y-85128390D01*
X168156772Y-85106121D01*
X168154265Y-85105326D01*
X168151949Y-85104084D01*
X168107786Y-85090582D01*
X168063757Y-85076615D01*
X168061146Y-85076322D01*
X168058630Y-85075553D01*
X168012654Y-85070883D01*
X167966782Y-85065738D01*
X167961644Y-85065702D01*
X167961546Y-85065692D01*
X167961455Y-85065701D01*
X167959801Y-85065689D01*
X167600000Y-85065689D01*
X167600000Y-84650000D01*
X167500000Y-84550000D01*
X166350000Y-84550000D01*
X166350000Y-84570000D01*
X166250000Y-84570000D01*
X166250000Y-84550000D01*
X166230000Y-84550000D01*
X166230000Y-84450000D01*
X166250000Y-84450000D01*
X166250000Y-83575000D01*
X166350000Y-83575000D01*
X166350000Y-84450000D01*
X167500000Y-84450000D01*
X167600000Y-84350000D01*
X167600000Y-83835604D01*
X167584628Y-83758325D01*
X167554476Y-83685529D01*
X167510701Y-83620015D01*
X167454986Y-83564300D01*
X167389471Y-83520525D01*
X167316676Y-83490372D01*
X167239397Y-83475000D01*
X166450000Y-83475000D01*
X166350000Y-83575000D01*
X166250000Y-83575000D01*
X166150000Y-83475000D01*
X165443840Y-83475000D01*
X165467427Y-83422023D01*
X165497841Y-83288158D01*
X165500030Y-83131361D01*
X165497320Y-83117674D01*
X165538024Y-83136022D01*
X165650000Y-83151935D01*
X166250000Y-83151935D01*
X166313698Y-83146855D01*
X166421738Y-83113398D01*
X166516179Y-83051165D01*
X166589543Y-82965086D01*
X166636022Y-82861976D01*
X166651935Y-82750000D01*
X166651935Y-82150000D01*
X167000000Y-82150000D01*
X167000000Y-82539397D01*
X167015372Y-82616676D01*
X167045525Y-82689471D01*
X167089300Y-82754986D01*
X167145015Y-82810701D01*
X167210529Y-82854476D01*
X167283325Y-82884628D01*
X167360604Y-82900000D01*
X167850000Y-82900000D01*
X167950000Y-82800000D01*
X167950000Y-82050000D01*
X168050000Y-82050000D01*
X168050000Y-82800000D01*
X168150000Y-82900000D01*
X168639396Y-82900000D01*
X168716675Y-82884628D01*
X168789471Y-82854476D01*
X168854985Y-82810701D01*
X168910700Y-82754986D01*
X168954475Y-82689471D01*
X168984628Y-82616676D01*
X169000000Y-82539397D01*
X169000000Y-82300000D01*
X172425000Y-82300000D01*
X172425000Y-83039396D01*
X172440372Y-83116675D01*
X172470524Y-83189471D01*
X172514299Y-83254985D01*
X172570014Y-83310700D01*
X172635529Y-83354475D01*
X172708324Y-83384628D01*
X172785603Y-83400000D01*
X172975000Y-83400000D01*
X173075000Y-83300000D01*
X173075000Y-82200000D01*
X172525000Y-82200000D01*
X172425000Y-82300000D01*
X169000000Y-82300000D01*
X169000000Y-82150000D01*
X168900000Y-82050000D01*
X168050000Y-82050000D01*
X167950000Y-82050000D01*
X167100000Y-82050000D01*
X167000000Y-82150000D01*
X166651935Y-82150000D01*
X166651935Y-81550000D01*
X166646855Y-81486302D01*
X166638897Y-81460603D01*
X167000000Y-81460603D01*
X167000000Y-81850000D01*
X167100000Y-81950000D01*
X167950000Y-81950000D01*
X167950000Y-81200000D01*
X168050000Y-81200000D01*
X168050000Y-81950000D01*
X168900000Y-81950000D01*
X169000000Y-81850000D01*
X169000000Y-81460603D01*
X168984628Y-81383324D01*
X168954475Y-81310529D01*
X168921117Y-81260604D01*
X172425000Y-81260604D01*
X172425000Y-82000000D01*
X172525000Y-82100000D01*
X173075000Y-82100000D01*
X173075000Y-81000000D01*
X172975000Y-80900000D01*
X172785603Y-80900000D01*
X172708324Y-80915372D01*
X172635529Y-80945525D01*
X172570014Y-80989300D01*
X172514299Y-81045015D01*
X172470524Y-81110529D01*
X172440372Y-81183325D01*
X172425000Y-81260604D01*
X168921117Y-81260604D01*
X168910700Y-81245014D01*
X168854985Y-81189299D01*
X168789471Y-81145524D01*
X168716675Y-81115372D01*
X168639396Y-81100000D01*
X168150000Y-81100000D01*
X168050000Y-81200000D01*
X167950000Y-81200000D01*
X167850000Y-81100000D01*
X167360604Y-81100000D01*
X167283325Y-81115372D01*
X167210529Y-81145524D01*
X167145015Y-81189299D01*
X167089300Y-81245014D01*
X167045525Y-81310529D01*
X167015372Y-81383324D01*
X167000000Y-81460603D01*
X166638897Y-81460603D01*
X166613398Y-81378262D01*
X166551165Y-81283821D01*
X166465086Y-81210457D01*
X166361976Y-81163978D01*
X166250000Y-81148065D01*
X165650000Y-81148065D01*
X165586302Y-81153145D01*
X165478262Y-81186602D01*
X165383821Y-81248835D01*
X165310457Y-81334914D01*
X165263978Y-81438024D01*
X165248065Y-81550000D01*
X165248065Y-82657835D01*
X165134548Y-82581267D01*
X165007997Y-82528070D01*
X164873524Y-82500466D01*
X164751935Y-82499617D01*
X164751935Y-81550000D01*
X164746855Y-81486302D01*
X164713398Y-81378262D01*
X164651165Y-81283821D01*
X164565086Y-81210457D01*
X164461976Y-81163978D01*
X164350000Y-81148065D01*
X163750000Y-81148065D01*
X163686302Y-81153145D01*
X163578262Y-81186602D01*
X163483821Y-81248835D01*
X163410457Y-81334914D01*
X163403657Y-81350000D01*
X162970130Y-81350000D01*
X162963398Y-81328262D01*
X162901165Y-81233821D01*
X162815086Y-81160457D01*
X162711976Y-81113978D01*
X162600000Y-81098065D01*
X161400000Y-81098065D01*
X161336302Y-81103145D01*
X161228262Y-81136602D01*
X161133821Y-81198835D01*
X161060457Y-81284914D01*
X161013978Y-81388024D01*
X160998065Y-81500000D01*
X160998065Y-82500000D01*
X161003145Y-82563698D01*
X161036602Y-82671738D01*
X161098835Y-82766179D01*
X161184914Y-82839543D01*
X161288024Y-82886022D01*
X161400000Y-82901935D01*
X162600000Y-82901935D01*
X162663698Y-82896855D01*
X162771738Y-82863398D01*
X162866179Y-82801165D01*
X162939543Y-82715086D01*
X162968882Y-82650000D01*
X163348065Y-82650000D01*
X163348065Y-82750000D01*
X163353145Y-82813698D01*
X163386602Y-82921738D01*
X163400000Y-82942070D01*
X163400000Y-83473065D01*
X162800000Y-83473065D01*
X162736302Y-83478145D01*
X162628262Y-83511602D01*
X162533821Y-83573835D01*
X162460457Y-83659914D01*
X162413978Y-83763024D01*
X162398065Y-83875000D01*
X162398065Y-84490958D01*
X160435980Y-82528874D01*
X160400335Y-82499595D01*
X160364911Y-82469870D01*
X160362604Y-82468602D01*
X160360575Y-82466935D01*
X160319906Y-82445128D01*
X160279398Y-82422859D01*
X160276891Y-82422064D01*
X160274575Y-82420822D01*
X160230412Y-82407320D01*
X160186383Y-82393353D01*
X160183772Y-82393060D01*
X160181256Y-82392291D01*
X160135280Y-82387621D01*
X160089408Y-82382476D01*
X160084270Y-82382440D01*
X160084172Y-82382430D01*
X160084081Y-82382439D01*
X160082427Y-82382427D01*
X152576935Y-82382427D01*
X152576935Y-81496173D01*
X152890380Y-81809619D01*
X152936766Y-81847721D01*
X152982771Y-81886324D01*
X152985769Y-81887972D01*
X152988407Y-81890139D01*
X153041306Y-81918504D01*
X153093938Y-81947438D01*
X153097194Y-81948471D01*
X153100208Y-81950087D01*
X153157622Y-81967640D01*
X153214857Y-81985796D01*
X153218256Y-81986177D01*
X153221523Y-81987176D01*
X153281221Y-81993240D01*
X153340925Y-81999937D01*
X153347607Y-81999983D01*
X153347731Y-81999996D01*
X153347847Y-81999985D01*
X153350000Y-82000000D01*
X155389241Y-82000000D01*
X155432641Y-82018961D01*
X155566716Y-82048439D01*
X155703963Y-82051314D01*
X155839155Y-82027476D01*
X155967141Y-81977833D01*
X156083048Y-81904277D01*
X156182460Y-81809608D01*
X156261591Y-81697432D01*
X156317427Y-81572023D01*
X156347841Y-81438158D01*
X156350030Y-81281361D01*
X156323366Y-81146699D01*
X156271054Y-81019780D01*
X156195086Y-80905439D01*
X156098356Y-80808031D01*
X155984548Y-80731267D01*
X155857997Y-80678070D01*
X155723524Y-80650466D01*
X155586250Y-80649508D01*
X155451405Y-80675231D01*
X155390100Y-80700000D01*
X154614032Y-80700000D01*
X154654476Y-80639471D01*
X154684628Y-80566675D01*
X154700000Y-80489396D01*
X154700000Y-80150000D01*
X161000000Y-80150000D01*
X161000000Y-80539397D01*
X161015372Y-80616676D01*
X161045525Y-80689471D01*
X161089300Y-80754986D01*
X161145015Y-80810701D01*
X161210529Y-80854476D01*
X161283325Y-80884628D01*
X161360604Y-80900000D01*
X161850000Y-80900000D01*
X161950000Y-80800000D01*
X161950000Y-80050000D01*
X162050000Y-80050000D01*
X162050000Y-80800000D01*
X162150000Y-80900000D01*
X162639396Y-80900000D01*
X162716675Y-80884628D01*
X162789471Y-80854476D01*
X162854985Y-80810701D01*
X162910700Y-80754986D01*
X162954475Y-80689471D01*
X162984628Y-80616676D01*
X163000000Y-80539397D01*
X163000000Y-80150000D01*
X162900000Y-80050000D01*
X162050000Y-80050000D01*
X161950000Y-80050000D01*
X161100000Y-80050000D01*
X161000000Y-80150000D01*
X154700000Y-80150000D01*
X154700000Y-79460603D01*
X161000000Y-79460603D01*
X161000000Y-79850000D01*
X161100000Y-79950000D01*
X161950000Y-79950000D01*
X161950000Y-79200000D01*
X162050000Y-79200000D01*
X162050000Y-79950000D01*
X162900000Y-79950000D01*
X163000000Y-79850000D01*
X163000000Y-79460603D01*
X162984628Y-79383324D01*
X162954475Y-79310529D01*
X162914032Y-79250000D01*
X163348065Y-79250000D01*
X163348065Y-80450000D01*
X163353145Y-80513698D01*
X163386602Y-80621738D01*
X163448835Y-80716179D01*
X163534914Y-80789543D01*
X163638024Y-80836022D01*
X163750000Y-80851935D01*
X164350000Y-80851935D01*
X164413698Y-80846855D01*
X164521738Y-80813398D01*
X164525726Y-80810770D01*
X164583324Y-80834628D01*
X164660603Y-80850000D01*
X164850000Y-80850000D01*
X164950000Y-80750000D01*
X164950000Y-79900000D01*
X164930000Y-79900000D01*
X164930000Y-79800000D01*
X164950000Y-79800000D01*
X164950000Y-79780000D01*
X165050000Y-79780000D01*
X165050000Y-79800000D01*
X165070000Y-79800000D01*
X165070000Y-79900000D01*
X165050000Y-79900000D01*
X165050000Y-80750000D01*
X165150000Y-80850000D01*
X165339397Y-80850000D01*
X165416676Y-80834628D01*
X165478302Y-80809101D01*
X165538024Y-80836022D01*
X165650000Y-80851935D01*
X166250000Y-80851935D01*
X166313698Y-80846855D01*
X166421738Y-80813398D01*
X166516179Y-80751165D01*
X166589543Y-80665086D01*
X166596343Y-80650000D01*
X167029870Y-80650000D01*
X167036602Y-80671738D01*
X167098835Y-80766179D01*
X167184914Y-80839543D01*
X167288024Y-80886022D01*
X167400000Y-80901935D01*
X168600000Y-80901935D01*
X168663698Y-80896855D01*
X168771738Y-80863398D01*
X168866179Y-80801165D01*
X168939543Y-80715086D01*
X168986022Y-80611976D01*
X169001935Y-80500000D01*
X169001935Y-79500000D01*
X168996855Y-79436302D01*
X168963398Y-79328262D01*
X168911827Y-79250000D01*
X170300000Y-79250000D01*
X170300000Y-80489396D01*
X170315372Y-80566675D01*
X170345524Y-80639471D01*
X170389299Y-80704985D01*
X170445014Y-80760700D01*
X170510529Y-80804475D01*
X170583324Y-80834628D01*
X170660603Y-80850000D01*
X171050000Y-80850000D01*
X171150000Y-80750000D01*
X171150000Y-79150000D01*
X171250000Y-79150000D01*
X171250000Y-80750000D01*
X171350000Y-80850000D01*
X171739397Y-80850000D01*
X171816676Y-80834628D01*
X171889471Y-80804475D01*
X171954986Y-80760700D01*
X172010701Y-80704985D01*
X172054476Y-80639471D01*
X172084628Y-80566675D01*
X172100000Y-80489396D01*
X172100000Y-79250000D01*
X172000000Y-79150000D01*
X171250000Y-79150000D01*
X171150000Y-79150000D01*
X170400000Y-79150000D01*
X170300000Y-79250000D01*
X168911827Y-79250000D01*
X168901165Y-79233821D01*
X168815086Y-79160457D01*
X168711976Y-79113978D01*
X168600000Y-79098065D01*
X167400000Y-79098065D01*
X167336302Y-79103145D01*
X167298336Y-79114902D01*
X167317427Y-79072023D01*
X167347841Y-78938158D01*
X167350030Y-78781361D01*
X167323366Y-78646699D01*
X167271054Y-78519780D01*
X167195086Y-78405439D01*
X167098356Y-78308031D01*
X166984548Y-78231267D01*
X166857997Y-78178070D01*
X166723524Y-78150466D01*
X166586250Y-78149508D01*
X166451405Y-78175231D01*
X166390100Y-78200000D01*
X165909957Y-78200000D01*
X165909793Y-78199912D01*
X165852337Y-78182346D01*
X165795144Y-78164203D01*
X165791750Y-78163822D01*
X165788478Y-78162822D01*
X165728730Y-78156753D01*
X165669076Y-78150062D01*
X165662394Y-78150016D01*
X165662270Y-78150003D01*
X165662154Y-78150014D01*
X165660001Y-78149999D01*
X164339999Y-78149999D01*
X164280270Y-78155855D01*
X164220431Y-78161090D01*
X164217144Y-78162045D01*
X164213747Y-78162378D01*
X164156305Y-78179721D01*
X164098610Y-78196483D01*
X164095575Y-78198056D01*
X164092303Y-78199044D01*
X164039308Y-78227222D01*
X163985984Y-78254862D01*
X163983311Y-78256996D01*
X163980294Y-78258600D01*
X163933795Y-78296524D01*
X163886841Y-78334007D01*
X163882082Y-78338701D01*
X163881987Y-78338778D01*
X163881915Y-78338866D01*
X163880380Y-78340379D01*
X163590381Y-78630379D01*
X163552296Y-78676744D01*
X163513676Y-78722769D01*
X163512028Y-78725767D01*
X163509860Y-78728406D01*
X163481486Y-78781322D01*
X163452562Y-78833936D01*
X163451529Y-78837192D01*
X163449913Y-78840206D01*
X163432347Y-78897662D01*
X163414204Y-78954855D01*
X163413823Y-78958249D01*
X163412823Y-78961521D01*
X163406754Y-79021269D01*
X163403490Y-79050369D01*
X163363978Y-79138024D01*
X163348065Y-79250000D01*
X162914032Y-79250000D01*
X162910700Y-79245014D01*
X162854985Y-79189299D01*
X162789471Y-79145524D01*
X162716675Y-79115372D01*
X162639396Y-79100000D01*
X162150000Y-79100000D01*
X162050000Y-79200000D01*
X161950000Y-79200000D01*
X161850000Y-79100000D01*
X161360604Y-79100000D01*
X161283325Y-79115372D01*
X161210529Y-79145524D01*
X161145015Y-79189299D01*
X161089300Y-79245014D01*
X161045525Y-79310529D01*
X161015372Y-79383324D01*
X161000000Y-79460603D01*
X154700000Y-79460603D01*
X154700000Y-79250000D01*
X154600000Y-79150000D01*
X153850000Y-79150000D01*
X153850000Y-79170000D01*
X153750000Y-79170000D01*
X153750000Y-79150000D01*
X153000000Y-79150000D01*
X152900000Y-79250000D01*
X152900000Y-80159931D01*
X152868729Y-80156754D01*
X152809075Y-80150063D01*
X152802393Y-80150017D01*
X152802269Y-80150004D01*
X152802153Y-80150015D01*
X152800000Y-80150000D01*
X147660167Y-80150000D01*
X147607997Y-80128070D01*
X147473524Y-80100466D01*
X147336250Y-80099508D01*
X147201405Y-80125231D01*
X147100000Y-80166201D01*
X147100000Y-79250000D01*
X147000000Y-79150000D01*
X146250000Y-79150000D01*
X146250000Y-80750000D01*
X146350000Y-80850000D01*
X146699204Y-80850000D01*
X146699080Y-80858858D01*
X146723861Y-80993880D01*
X146774396Y-81121517D01*
X146848760Y-81236907D01*
X146944121Y-81335656D01*
X147056846Y-81414002D01*
X147182641Y-81468961D01*
X147316716Y-81498439D01*
X147425000Y-81500707D01*
X147425000Y-82000000D01*
X147525000Y-82100000D01*
X148075000Y-82100000D01*
X148075000Y-82080000D01*
X148175000Y-82080000D01*
X148175000Y-82100000D01*
X148195000Y-82100000D01*
X148195000Y-82200000D01*
X148175000Y-82200000D01*
X148175000Y-82220000D01*
X148075000Y-82220000D01*
X148075000Y-82200000D01*
X147525000Y-82200000D01*
X147425000Y-82300000D01*
X147425000Y-82817893D01*
X143857107Y-79250000D01*
X145300000Y-79250000D01*
X145300000Y-80489396D01*
X145315372Y-80566675D01*
X145345524Y-80639471D01*
X145389299Y-80704985D01*
X145445014Y-80760700D01*
X145510529Y-80804475D01*
X145583324Y-80834628D01*
X145660603Y-80850000D01*
X146050000Y-80850000D01*
X146150000Y-80750000D01*
X146150000Y-79150000D01*
X145400000Y-79150000D01*
X145300000Y-79250000D01*
X143857107Y-79250000D01*
X143253553Y-78646447D01*
X143217908Y-78617168D01*
X143182484Y-78587443D01*
X143180177Y-78586175D01*
X143178148Y-78584508D01*
X143137479Y-78562701D01*
X143096971Y-78540432D01*
X143094464Y-78539637D01*
X143092148Y-78538395D01*
X143047985Y-78524893D01*
X143003956Y-78510926D01*
X143001345Y-78510633D01*
X142998829Y-78509864D01*
X142952853Y-78505194D01*
X142906981Y-78500049D01*
X142901843Y-78500013D01*
X142901745Y-78500003D01*
X142901654Y-78500012D01*
X142900000Y-78500000D01*
X137325000Y-78500000D01*
X137279011Y-78504509D01*
X137233024Y-78508532D01*
X137230499Y-78509265D01*
X137227883Y-78509522D01*
X137183677Y-78522869D01*
X137139316Y-78535757D01*
X137136981Y-78536967D01*
X137134465Y-78537727D01*
X137093675Y-78559415D01*
X137052680Y-78580665D01*
X137050627Y-78582304D01*
X137048304Y-78583539D01*
X137012512Y-78612730D01*
X136976417Y-78641545D01*
X136972754Y-78645157D01*
X136972683Y-78645215D01*
X136972628Y-78645281D01*
X136971446Y-78646447D01*
X136194829Y-79423065D01*
X134800000Y-79423065D01*
X134736302Y-79428145D01*
X134628262Y-79461602D01*
X134533821Y-79523835D01*
X134460457Y-79609914D01*
X134413978Y-79713024D01*
X134398065Y-79825000D01*
X134398065Y-80425000D01*
X134403145Y-80488698D01*
X134436602Y-80596738D01*
X134498835Y-80691179D01*
X134568784Y-80750796D01*
X134533821Y-80773835D01*
X134460457Y-80859914D01*
X134413978Y-80963024D01*
X134398065Y-81075000D01*
X134398065Y-81353091D01*
X134076604Y-81031630D01*
X134097841Y-80938158D01*
X134100030Y-80781361D01*
X134073366Y-80646699D01*
X134021054Y-80519780D01*
X133945086Y-80405439D01*
X133848356Y-80308031D01*
X133734548Y-80231267D01*
X133607997Y-80178070D01*
X133473524Y-80150466D01*
X133336250Y-80149508D01*
X133201405Y-80175231D01*
X133074124Y-80226656D01*
X132959255Y-80301824D01*
X132861174Y-80397872D01*
X132783617Y-80511141D01*
X132729538Y-80637317D01*
X132700997Y-80771594D01*
X132699080Y-80908858D01*
X131481831Y-80908858D01*
X131481832Y-79100000D01*
X132450000Y-79100000D01*
X132550000Y-79000000D01*
X132550000Y-78250000D01*
X132650000Y-78250000D01*
X132650000Y-79000000D01*
X132750000Y-79100000D01*
X133989396Y-79100000D01*
X134066675Y-79084628D01*
X134139471Y-79054476D01*
X134204985Y-79010701D01*
X134260700Y-78954986D01*
X134304475Y-78889471D01*
X134334628Y-78816676D01*
X134350000Y-78739397D01*
X134350000Y-78350000D01*
X134250000Y-78250000D01*
X132650000Y-78250000D01*
X132550000Y-78250000D01*
X132530000Y-78250000D01*
X132530000Y-78150000D01*
X132550000Y-78150000D01*
X132550000Y-78130000D01*
X132650000Y-78130000D01*
X132650000Y-78150000D01*
X134250000Y-78150000D01*
X134350000Y-78050000D01*
X134350000Y-77957009D01*
X145300000Y-77957009D01*
X145300000Y-78950000D01*
X145300000Y-78950000D01*
G37*
X145300000Y-78950000D02*
X145400000Y-79050000D01*
X146150000Y-79050000D01*
X146150000Y-79030000D01*
X146250000Y-79030000D01*
X146250000Y-79050000D01*
X147000000Y-79050000D01*
X147100000Y-78950000D01*
X147100000Y-77957009D01*
X152900000Y-77957009D01*
X152900000Y-78950000D01*
X153000000Y-79050000D01*
X153750000Y-79050000D01*
X153750000Y-79030000D01*
X153850000Y-79030000D01*
X153850000Y-79050000D01*
X154600000Y-79050000D01*
X154700000Y-78950000D01*
X154700000Y-77957009D01*
X170300000Y-77957009D01*
X170300000Y-78950000D01*
X170400000Y-79050000D01*
X171150000Y-79050000D01*
X171150000Y-79030000D01*
X171250000Y-79030000D01*
X171250000Y-79050000D01*
X172000000Y-79050000D01*
X172100000Y-78950000D01*
X172100000Y-77957009D01*
X176926259Y-77957009D01*
X177611401Y-77971274D01*
X177900000Y-77989585D01*
X177900000Y-78950000D01*
X178000000Y-79050000D01*
X178750000Y-79050000D01*
X178750000Y-79030000D01*
X178850000Y-79030000D01*
X178850000Y-79050000D01*
X179600000Y-79050000D01*
X179700000Y-78950000D01*
X179700000Y-78208391D01*
X180171556Y-78302736D01*
X180769115Y-78451683D01*
X181348946Y-78626039D01*
X181628125Y-78725072D01*
X181242284Y-79110913D01*
X181242284Y-79252334D01*
X181772614Y-79782664D01*
X181786756Y-79768522D01*
X181857467Y-79839233D01*
X181843325Y-79853375D01*
X182373655Y-80383705D01*
X182515076Y-80383705D01*
X183384413Y-79514368D01*
X183483664Y-79567608D01*
X183969495Y-79861670D01*
X184435497Y-80178293D01*
X184881357Y-80517053D01*
X185306728Y-80877552D01*
X185711265Y-81259379D01*
X186094621Y-81662173D01*
X186456416Y-82085542D01*
X186796285Y-82529145D01*
X187113828Y-82992608D01*
X187408645Y-83475605D01*
X187484814Y-83616405D01*
X186616295Y-84484924D01*
X186616295Y-84626345D01*
X187146625Y-85156675D01*
X187160767Y-85142533D01*
X187231478Y-85213244D01*
X187217336Y-85227386D01*
X187747666Y-85757716D01*
X187889087Y-85757716D01*
X188272614Y-85374189D01*
X188351901Y-85595767D01*
X188526436Y-86171107D01*
X188675498Y-86763818D01*
X188783745Y-87300000D01*
X188050000Y-87300000D01*
X187950000Y-87400000D01*
X187950000Y-88150000D01*
X187970000Y-88150000D01*
X187970000Y-88250000D01*
X187950000Y-88250000D01*
X187950000Y-89000000D01*
X188050000Y-89100000D01*
X188994177Y-89100000D01*
X189007029Y-89300641D01*
X189021289Y-89979021D01*
X189021289Y-94900000D01*
X188050000Y-94900000D01*
X187950000Y-95000000D01*
X187950000Y-95750000D01*
X187970000Y-95750000D01*
X187970000Y-95850000D01*
X187950000Y-95850000D01*
X187950000Y-96600000D01*
X188050000Y-96700000D01*
X189021289Y-96700000D01*
X189021289Y-102057001D01*
X186400000Y-102057001D01*
X186400000Y-101900000D01*
X186300000Y-101800000D01*
X182050000Y-101800000D01*
X182050000Y-101820000D01*
X181950000Y-101820000D01*
X181950000Y-101800000D01*
X176974376Y-101800000D01*
X176820722Y-102019505D01*
X176799841Y-102057001D01*
X175575000Y-102057001D01*
X175575000Y-101700000D01*
X177044376Y-101700000D01*
X181950000Y-101700000D01*
X181950000Y-100950000D01*
X182050000Y-100950000D01*
X182050000Y-101700000D01*
X186300000Y-101700000D01*
X186400000Y-101600000D01*
X186400000Y-101210604D01*
X186384628Y-101133325D01*
X186354476Y-101060529D01*
X186310701Y-100995015D01*
X186254986Y-100939300D01*
X186189471Y-100895525D01*
X186116676Y-100865372D01*
X186039397Y-100850000D01*
X182150000Y-100850000D01*
X182050000Y-100950000D01*
X181950000Y-100950000D01*
X181850000Y-100850000D01*
X178163616Y-100850000D01*
X178150000Y-100848065D01*
X178050000Y-100848065D01*
X178050000Y-100850000D01*
X177960603Y-100850000D01*
X177950000Y-100852109D01*
X177950000Y-100848065D01*
X177850000Y-100848065D01*
X177695179Y-100879079D01*
X177597973Y-100936896D01*
X177520722Y-101019505D01*
X177044376Y-101700000D01*
X175575000Y-101700000D01*
X175575000Y-101050000D01*
X175475000Y-100950000D01*
X174725000Y-100950000D01*
X174725000Y-100970000D01*
X174625000Y-100970000D01*
X174625000Y-100950000D01*
X173875000Y-100950000D01*
X173775000Y-101050000D01*
X173775000Y-102057001D01*
X164225000Y-102057001D01*
X164225000Y-101050000D01*
X164125000Y-100950000D01*
X163375000Y-100950000D01*
X163375000Y-100970000D01*
X163275000Y-100970000D01*
X163275000Y-100950000D01*
X162525000Y-100950000D01*
X162425000Y-101050000D01*
X162425000Y-102057001D01*
X154450000Y-102057001D01*
X154450000Y-101050000D01*
X154350000Y-100950000D01*
X153600000Y-100950000D01*
X153600000Y-100970000D01*
X153500000Y-100970000D01*
X153500000Y-100950000D01*
X152750000Y-100950000D01*
X152650000Y-101050000D01*
X152650000Y-102057001D01*
X146850000Y-102057001D01*
X146850000Y-101050000D01*
X146750000Y-100950000D01*
X146000000Y-100950000D01*
X146000000Y-100970000D01*
X145900000Y-100970000D01*
X145900000Y-100950000D01*
X145150000Y-100950000D01*
X145050000Y-101050000D01*
X145050000Y-102057001D01*
X143359565Y-102057001D01*
X142694547Y-102042752D01*
X142048867Y-102000630D01*
X141418187Y-101931054D01*
X140802857Y-101834522D01*
X140203372Y-101711547D01*
X139620131Y-101562628D01*
X139053511Y-101388241D01*
X138837075Y-101309728D01*
X139257716Y-100889087D01*
X139257716Y-100747666D01*
X138727386Y-100217336D01*
X138713244Y-100231478D01*
X138642533Y-100160767D01*
X138656675Y-100146625D01*
X138798097Y-100146625D01*
X139328427Y-100676955D01*
X139469848Y-100676955D01*
X140346233Y-99800570D01*
X140390008Y-99735056D01*
X140420162Y-99662260D01*
X140435534Y-99584981D01*
X140435534Y-99506188D01*
X140420161Y-99428909D01*
X140390009Y-99356114D01*
X140346234Y-99290599D01*
X140298576Y-99242941D01*
X141197765Y-99242941D01*
X141257948Y-99570851D01*
X141380676Y-99880827D01*
X141561274Y-100161061D01*
X141792865Y-100400880D01*
X142066625Y-100591148D01*
X142372129Y-100724619D01*
X142697739Y-100796209D01*
X143031053Y-100803191D01*
X143359376Y-100745299D01*
X143670201Y-100624738D01*
X143951689Y-100446100D01*
X144193119Y-100216190D01*
X144385294Y-99943764D01*
X144520895Y-99639200D01*
X144594756Y-99314097D01*
X144600073Y-98933306D01*
X144535318Y-98606268D01*
X144408274Y-98298036D01*
X144223780Y-98020351D01*
X143988864Y-97783789D01*
X143712474Y-97597361D01*
X143405136Y-97468169D01*
X143078558Y-97401132D01*
X142745179Y-97398804D01*
X142417697Y-97461275D01*
X142108586Y-97586164D01*
X141829619Y-97768715D01*
X141591423Y-98001973D01*
X141403070Y-98277056D01*
X141271735Y-98583484D01*
X141202420Y-98909586D01*
X141197765Y-99242941D01*
X140298576Y-99242941D01*
X140070889Y-99015254D01*
X139929468Y-99015254D01*
X138798097Y-100146625D01*
X138656675Y-100146625D01*
X138126345Y-99616295D01*
X137984924Y-99616295D01*
X137108539Y-100492680D01*
X137092169Y-100517179D01*
X136961473Y-100445655D01*
X136483945Y-100150997D01*
X136025414Y-99833626D01*
X135586200Y-99493901D01*
X135166724Y-99132245D01*
X134767374Y-98749033D01*
X134388560Y-98344635D01*
X134030672Y-97919391D01*
X133694164Y-97473679D01*
X133379449Y-97007810D01*
X133087008Y-96522156D01*
X133013775Y-96385006D01*
X133883705Y-95515076D01*
X133883705Y-95373655D01*
X133353375Y-94843325D01*
X133339233Y-94857467D01*
X133268522Y-94786756D01*
X133282664Y-94772614D01*
X133424086Y-94772614D01*
X133954416Y-95302944D01*
X134095837Y-95302944D01*
X134972222Y-94426559D01*
X135015997Y-94361045D01*
X135046151Y-94288249D01*
X135061523Y-94210970D01*
X135061523Y-94132177D01*
X135046150Y-94054898D01*
X135015998Y-93982103D01*
X134972223Y-93916588D01*
X134696878Y-93641243D01*
X134555457Y-93641243D01*
X133424086Y-94772614D01*
X133282664Y-94772614D01*
X132752334Y-94242284D01*
X132610913Y-94242284D01*
X132231829Y-94621368D01*
X132149450Y-94388466D01*
X132041957Y-94030152D01*
X132823045Y-94030152D01*
X132823045Y-94171573D01*
X133353375Y-94701903D01*
X134484746Y-93570532D01*
X134484746Y-93429111D01*
X134209401Y-93153766D01*
X134143886Y-93109991D01*
X134071091Y-93079839D01*
X133993812Y-93064466D01*
X133915019Y-93064466D01*
X133837740Y-93079838D01*
X133764944Y-93109992D01*
X133699430Y-93153767D01*
X132823045Y-94030152D01*
X132041957Y-94030152D01*
X131975617Y-93809019D01*
X131827032Y-93211851D01*
X131704256Y-92597421D01*
X131607807Y-91966022D01*
X131538240Y-91318101D01*
X131496093Y-90654035D01*
X131481827Y-89969611D01*
X131481829Y-86700000D01*
X132450000Y-86700000D01*
X132550000Y-86600000D01*
X132550000Y-85850000D01*
X132650000Y-85850000D01*
X132650000Y-86600000D01*
X132750000Y-86700000D01*
X133989396Y-86700000D01*
X134066675Y-86684628D01*
X134139471Y-86654476D01*
X134204985Y-86610701D01*
X134260700Y-86554986D01*
X134304475Y-86489471D01*
X134334628Y-86416676D01*
X134350000Y-86339397D01*
X134350000Y-85950000D01*
X134250000Y-85850000D01*
X132650000Y-85850000D01*
X132550000Y-85850000D01*
X132530000Y-85850000D01*
X132530000Y-85750000D01*
X132550000Y-85750000D01*
X132550000Y-85000000D01*
X132650000Y-85000000D01*
X132650000Y-85750000D01*
X134250000Y-85750000D01*
X134350000Y-85650000D01*
X134350000Y-85260603D01*
X134334628Y-85183324D01*
X134304475Y-85110529D01*
X134260700Y-85045014D01*
X134204985Y-84989299D01*
X134139471Y-84945524D01*
X134066675Y-84915372D01*
X133989396Y-84900000D01*
X132750000Y-84900000D01*
X132650000Y-85000000D01*
X132550000Y-85000000D01*
X132450000Y-84900000D01*
X131481829Y-84900000D01*
X131481829Y-84025000D01*
X134400000Y-84025000D01*
X134400000Y-84214397D01*
X134415372Y-84291676D01*
X134445525Y-84364471D01*
X134489300Y-84429986D01*
X134545015Y-84485701D01*
X134610529Y-84529476D01*
X134683325Y-84559628D01*
X134760604Y-84575000D01*
X135500000Y-84575000D01*
X135600000Y-84475000D01*
X135600000Y-83925000D01*
X135700000Y-83925000D01*
X135700000Y-84475000D01*
X135800000Y-84575000D01*
X136539396Y-84575000D01*
X136616675Y-84559628D01*
X136689471Y-84529476D01*
X136754985Y-84485701D01*
X136810700Y-84429986D01*
X136854475Y-84364471D01*
X136884628Y-84291676D01*
X136900000Y-84214397D01*
X136900000Y-84025000D01*
X136800000Y-83925000D01*
X135700000Y-83925000D01*
X135600000Y-83925000D01*
X134500000Y-83925000D01*
X134400000Y-84025000D01*
X131481829Y-84025000D01*
X131481831Y-80908858D01*
X132699080Y-80908858D01*
X132723861Y-81043880D01*
X132750000Y-81109900D01*
X132750000Y-81274264D01*
X132755861Y-81334042D01*
X132761092Y-81393832D01*
X132762045Y-81397114D01*
X132762379Y-81400516D01*
X132779734Y-81457999D01*
X132796484Y-81515653D01*
X132798057Y-81518688D01*
X132799045Y-81521960D01*
X132827244Y-81574995D01*
X132854864Y-81628279D01*
X132856995Y-81630948D01*
X132858601Y-81633969D01*
X132896548Y-81680496D01*
X132934008Y-81727422D01*
X132938698Y-81732177D01*
X132938779Y-81732276D01*
X132938871Y-81732352D01*
X132940381Y-81733883D01*
X134291116Y-83084619D01*
X134337528Y-83122743D01*
X134383507Y-83161324D01*
X134386501Y-83162970D01*
X134389143Y-83165140D01*
X134442081Y-83193525D01*
X134494674Y-83222438D01*
X134497930Y-83223471D01*
X134500944Y-83225087D01*
X134558400Y-83242653D01*
X134559723Y-83243073D01*
X134567220Y-83249462D01*
X134545015Y-83264299D01*
X134489300Y-83320014D01*
X134445525Y-83385529D01*
X134415372Y-83458324D01*
X134400000Y-83535603D01*
X134400000Y-83725000D01*
X134500000Y-83825000D01*
X135600000Y-83825000D01*
X135600000Y-83805000D01*
X135700000Y-83805000D01*
X135700000Y-83825000D01*
X136800000Y-83825000D01*
X136900000Y-83725000D01*
X136900000Y-83535603D01*
X136884628Y-83458324D01*
X136854475Y-83385529D01*
X136810700Y-83320014D01*
X136754985Y-83264299D01*
X136731809Y-83248813D01*
X136766179Y-83226165D01*
X136839543Y-83140086D01*
X136886022Y-83036976D01*
X136901935Y-82925000D01*
X136901935Y-82325000D01*
X136896855Y-82261302D01*
X136863398Y-82153262D01*
X136801165Y-82058821D01*
X136731216Y-81999204D01*
X136766179Y-81976165D01*
X136839543Y-81890086D01*
X136886022Y-81786976D01*
X136901935Y-81675000D01*
X136901935Y-81380171D01*
X138382107Y-79900000D01*
X142492894Y-79900000D01*
X146892894Y-84300000D01*
X142992894Y-88200000D01*
X138600000Y-88200000D01*
X138554048Y-88204505D01*
X138508025Y-88208532D01*
X138505501Y-88209265D01*
X138502883Y-88209522D01*
X138458665Y-88222873D01*
X138414316Y-88235757D01*
X138411981Y-88236967D01*
X138409465Y-88237727D01*
X138368694Y-88259405D01*
X138327681Y-88280664D01*
X138325626Y-88282304D01*
X138323304Y-88283539D01*
X138287494Y-88312746D01*
X138251418Y-88341545D01*
X138247760Y-88345152D01*
X138247683Y-88345215D01*
X138247624Y-88345286D01*
X138246447Y-88346447D01*
X137492894Y-89100000D01*
X134200000Y-89100000D01*
X134127309Y-89113678D01*
X134060546Y-89156638D01*
X134015757Y-89222189D01*
X134000000Y-89300000D01*
X134000000Y-91000000D01*
X134013678Y-91072691D01*
X134056638Y-91139454D01*
X134122189Y-91184243D01*
X134200000Y-91200000D01*
X137300000Y-91200000D01*
X137300000Y-92765882D01*
X137284879Y-92762773D01*
X137172136Y-92771764D01*
X137066360Y-92811808D01*
X136975929Y-92879735D01*
X135773847Y-94081817D01*
X135732397Y-94130450D01*
X135679660Y-94230504D01*
X135656885Y-94341289D01*
X135665876Y-94454032D01*
X135705920Y-94559808D01*
X135773847Y-94650239D01*
X136198111Y-95074503D01*
X136246744Y-95115953D01*
X136346798Y-95168690D01*
X136457583Y-95191465D01*
X136549200Y-95184159D01*
X136540769Y-95225172D01*
X136549760Y-95337915D01*
X136589804Y-95443691D01*
X136657731Y-95534122D01*
X137081995Y-95958386D01*
X137130628Y-95999836D01*
X137230682Y-96052573D01*
X137341467Y-96075348D01*
X137419559Y-96069120D01*
X137398733Y-96107960D01*
X137369809Y-96160574D01*
X137368776Y-96163830D01*
X137367160Y-96166844D01*
X137349594Y-96224300D01*
X137331451Y-96281493D01*
X137331070Y-96284887D01*
X137330070Y-96288159D01*
X137324001Y-96347907D01*
X137317310Y-96407561D01*
X137317264Y-96414243D01*
X137317251Y-96414367D01*
X137317262Y-96414483D01*
X137317247Y-96416636D01*
X137317247Y-97091511D01*
X137323108Y-97151289D01*
X137328339Y-97211079D01*
X137329292Y-97214361D01*
X137329626Y-97217763D01*
X137346981Y-97275246D01*
X137363731Y-97332900D01*
X137365304Y-97335935D01*
X137366292Y-97339207D01*
X137394491Y-97392242D01*
X137422111Y-97445526D01*
X137424242Y-97448195D01*
X137425848Y-97451216D01*
X137463795Y-97497743D01*
X137501255Y-97544669D01*
X137505945Y-97549424D01*
X137506026Y-97549523D01*
X137506118Y-97549599D01*
X137507628Y-97551130D01*
X138516117Y-98559620D01*
X138562512Y-98597729D01*
X138608507Y-98636324D01*
X138611504Y-98637972D01*
X138614144Y-98640140D01*
X138667060Y-98668514D01*
X138719674Y-98697438D01*
X138722930Y-98698471D01*
X138725944Y-98700087D01*
X138783400Y-98717653D01*
X138840593Y-98735796D01*
X138843987Y-98736177D01*
X138847259Y-98737177D01*
X138862495Y-98738724D01*
X138197056Y-99404163D01*
X138197056Y-99545584D01*
X138727386Y-100075914D01*
X139858757Y-98944543D01*
X139858757Y-98803122D01*
X139757718Y-98702083D01*
X139833048Y-98654277D01*
X139932460Y-98559608D01*
X140011591Y-98447432D01*
X140067427Y-98322023D01*
X140097841Y-98188158D01*
X140100030Y-98031361D01*
X140073366Y-97896699D01*
X140021054Y-97769780D01*
X139945086Y-97655439D01*
X139848356Y-97558031D01*
X139734548Y-97481267D01*
X139682297Y-97459303D01*
X139911790Y-97229810D01*
X139911790Y-97088388D01*
X139522881Y-96699480D01*
X139508739Y-96713622D01*
X139438028Y-96642911D01*
X139452170Y-96628769D01*
X139593592Y-96628769D01*
X139982500Y-97017678D01*
X140123922Y-97017678D01*
X140646754Y-96494846D01*
X140690529Y-96429332D01*
X140720682Y-96356536D01*
X140736054Y-96279257D01*
X140736054Y-96200465D01*
X140720682Y-96123185D01*
X140690529Y-96050390D01*
X140646754Y-95984875D01*
X140512830Y-95850952D01*
X140371409Y-95850952D01*
X139593592Y-96628769D01*
X139452170Y-96628769D01*
X139438028Y-96614627D01*
X139508739Y-96543916D01*
X139522881Y-96558058D01*
X140300698Y-95780241D01*
X140300698Y-95638820D01*
X140166775Y-95504896D01*
X140101260Y-95461121D01*
X140028465Y-95430968D01*
X139951185Y-95415596D01*
X139872393Y-95415596D01*
X139845055Y-95421034D01*
X139853344Y-95380715D01*
X139844353Y-95267972D01*
X139804309Y-95162196D01*
X139736382Y-95071765D01*
X139312118Y-94647501D01*
X139263485Y-94606051D01*
X139163431Y-94553314D01*
X139052646Y-94530539D01*
X138961030Y-94537845D01*
X138969461Y-94496832D01*
X138960470Y-94384089D01*
X138954611Y-94368613D01*
X139453554Y-93869670D01*
X139482880Y-93833969D01*
X139512557Y-93798601D01*
X139513823Y-93796298D01*
X139515493Y-93794265D01*
X139537322Y-93753553D01*
X139559568Y-93713088D01*
X139560363Y-93710581D01*
X139561605Y-93708265D01*
X139575107Y-93664102D01*
X139589074Y-93620073D01*
X139589367Y-93617462D01*
X139590136Y-93614946D01*
X139594806Y-93568970D01*
X139599951Y-93523098D01*
X139599987Y-93517960D01*
X139599997Y-93517862D01*
X139599988Y-93517771D01*
X139600000Y-93516117D01*
X139600000Y-91200000D01*
X143300000Y-91200000D01*
X143300000Y-92700000D01*
X143304505Y-92745944D01*
X143308532Y-92791976D01*
X143309265Y-92794501D01*
X143309522Y-92797117D01*
X143322869Y-92841323D01*
X143335757Y-92885684D01*
X143336967Y-92888019D01*
X143337727Y-92890535D01*
X143359394Y-92931285D01*
X143380664Y-92972320D01*
X143382306Y-92974376D01*
X143383539Y-92976696D01*
X143412728Y-93012485D01*
X143441545Y-93048582D01*
X143445152Y-93052240D01*
X143445215Y-93052317D01*
X143445286Y-93052376D01*
X143446447Y-93053553D01*
X147217545Y-96824651D01*
X147188978Y-96888024D01*
X147173065Y-97000000D01*
X147173065Y-98543825D01*
X146169621Y-97540381D01*
X146128133Y-97506302D01*
X145162211Y-96540381D01*
X145115846Y-96502296D01*
X145069821Y-96463676D01*
X145066823Y-96462028D01*
X145064184Y-96459860D01*
X145011268Y-96431486D01*
X144999016Y-96424751D01*
X144934548Y-96381267D01*
X144807997Y-96328070D01*
X144673524Y-96300466D01*
X144536250Y-96299508D01*
X144401405Y-96325231D01*
X144274124Y-96376656D01*
X144159255Y-96451824D01*
X144061174Y-96547872D01*
X143983617Y-96661141D01*
X143929538Y-96787317D01*
X143900997Y-96921594D01*
X143899080Y-97058858D01*
X143923861Y-97193880D01*
X143974396Y-97321517D01*
X144048760Y-97436907D01*
X144144121Y-97535656D01*
X144256846Y-97614002D01*
X144382641Y-97668961D01*
X144471951Y-97688597D01*
X145242973Y-98459620D01*
X145284469Y-98493705D01*
X145940764Y-99150000D01*
X145899998Y-99150000D01*
X145899998Y-99249998D01*
X145800000Y-99150000D01*
X145410603Y-99150000D01*
X145333324Y-99165372D01*
X145260529Y-99195525D01*
X145195014Y-99239300D01*
X145139299Y-99295015D01*
X145095524Y-99360529D01*
X145065372Y-99433325D01*
X145050000Y-99510604D01*
X145050000Y-100750000D01*
X145150000Y-100850000D01*
X145900000Y-100850000D01*
X145900000Y-100830000D01*
X146000000Y-100830000D01*
X146000000Y-100850000D01*
X146750000Y-100850000D01*
X146850000Y-100750000D01*
X146850000Y-100059236D01*
X147250383Y-100459619D01*
X147296770Y-100497722D01*
X147342773Y-100536324D01*
X147345768Y-100537970D01*
X147348409Y-100540140D01*
X147401347Y-100568525D01*
X147453940Y-100597438D01*
X147457196Y-100598471D01*
X147460210Y-100600087D01*
X147517666Y-100617653D01*
X147574859Y-100635796D01*
X147578253Y-100636177D01*
X147581525Y-100637177D01*
X147641273Y-100643246D01*
X147700927Y-100649937D01*
X147707609Y-100649983D01*
X147707733Y-100649996D01*
X147707849Y-100649985D01*
X147710002Y-100650000D01*
X151529239Y-100650000D01*
X151572639Y-100668961D01*
X151706714Y-100698439D01*
X151843961Y-100701314D01*
X151979153Y-100677476D01*
X152107139Y-100627833D01*
X152223046Y-100554277D01*
X152322458Y-100459608D01*
X152401589Y-100347432D01*
X152457425Y-100222023D01*
X152487839Y-100088158D01*
X152490028Y-99931361D01*
X152463364Y-99796699D01*
X152411052Y-99669780D01*
X152335084Y-99555439D01*
X152290562Y-99510604D01*
X152650000Y-99510604D01*
X152650000Y-100750000D01*
X152750000Y-100850000D01*
X153500000Y-100850000D01*
X153500000Y-99250000D01*
X153600000Y-99250000D01*
X153600000Y-100850000D01*
X154350000Y-100850000D01*
X154450000Y-100750000D01*
X154450000Y-99510604D01*
X162425000Y-99510604D01*
X162425000Y-100750000D01*
X162525000Y-100850000D01*
X163275000Y-100850000D01*
X163275000Y-99250000D01*
X163375000Y-99250000D01*
X163375000Y-100850000D01*
X164125000Y-100850000D01*
X164225000Y-100750000D01*
X164225000Y-99510604D01*
X164209628Y-99433325D01*
X164179476Y-99360529D01*
X164135701Y-99295015D01*
X164079986Y-99239300D01*
X164014471Y-99195525D01*
X163941676Y-99165372D01*
X163864397Y-99150000D01*
X163475000Y-99150000D01*
X163375000Y-99250000D01*
X163275000Y-99250000D01*
X163175000Y-99150000D01*
X162785603Y-99150000D01*
X162708324Y-99165372D01*
X162635529Y-99195525D01*
X162570014Y-99239300D01*
X162514299Y-99295015D01*
X162470524Y-99360529D01*
X162440372Y-99433325D01*
X162425000Y-99510604D01*
X154450000Y-99510604D01*
X154434628Y-99433325D01*
X154404476Y-99360529D01*
X154360701Y-99295015D01*
X154304986Y-99239300D01*
X154239471Y-99195525D01*
X154166676Y-99165372D01*
X154089397Y-99150000D01*
X153700000Y-99150000D01*
X153600000Y-99250000D01*
X153500000Y-99250000D01*
X153400000Y-99150000D01*
X153010603Y-99150000D01*
X152933324Y-99165372D01*
X152860529Y-99195525D01*
X152795014Y-99239300D01*
X152739299Y-99295015D01*
X152695524Y-99360529D01*
X152665372Y-99433325D01*
X152650000Y-99510604D01*
X152290562Y-99510604D01*
X152238354Y-99458031D01*
X152124546Y-99381267D01*
X151997995Y-99328070D01*
X151863522Y-99300466D01*
X151726248Y-99299508D01*
X151591403Y-99325231D01*
X151530098Y-99350000D01*
X150344239Y-99350000D01*
X150592304Y-99101935D01*
X150675000Y-99101935D01*
X150738698Y-99096855D01*
X150846738Y-99063398D01*
X150941179Y-99001165D01*
X150999462Y-98932780D01*
X151014299Y-98954985D01*
X151070014Y-99010700D01*
X151135529Y-99054475D01*
X151208324Y-99084628D01*
X151285603Y-99100000D01*
X151475000Y-99100000D01*
X151575000Y-99000000D01*
X151575000Y-97900000D01*
X151675000Y-97900000D01*
X151675000Y-99000000D01*
X151775000Y-99100000D01*
X151964397Y-99100000D01*
X152041676Y-99084628D01*
X152114471Y-99054475D01*
X152179986Y-99010700D01*
X152235701Y-98954985D01*
X152279476Y-98889471D01*
X152309628Y-98816675D01*
X152325000Y-98739396D01*
X152325000Y-98000000D01*
X152225000Y-97900000D01*
X151675000Y-97900000D01*
X151575000Y-97900000D01*
X151555000Y-97900000D01*
X151555000Y-97800000D01*
X151575000Y-97800000D01*
X151575000Y-96700000D01*
X151675000Y-96700000D01*
X151675000Y-97800000D01*
X152225000Y-97800000D01*
X152325000Y-97700000D01*
X152325000Y-96960604D01*
X152309628Y-96883325D01*
X152279476Y-96810529D01*
X152235701Y-96745015D01*
X152179986Y-96689300D01*
X152114471Y-96645525D01*
X152041676Y-96615372D01*
X151964397Y-96600000D01*
X151775000Y-96600000D01*
X151675000Y-96700000D01*
X151575000Y-96700000D01*
X151475000Y-96600000D01*
X151285603Y-96600000D01*
X151208324Y-96615372D01*
X151135529Y-96645525D01*
X151070014Y-96689300D01*
X151014299Y-96745015D01*
X150998813Y-96768191D01*
X150976165Y-96733821D01*
X150890086Y-96660457D01*
X150786976Y-96613978D01*
X150675000Y-96598065D01*
X150075000Y-96598065D01*
X150011302Y-96603145D01*
X149903262Y-96636602D01*
X149808821Y-96698835D01*
X149749204Y-96768784D01*
X149726165Y-96733821D01*
X149640086Y-96660457D01*
X149536976Y-96613978D01*
X149425000Y-96598065D01*
X149005171Y-96598065D01*
X148956551Y-96549445D01*
X148939769Y-96535660D01*
X147194110Y-94790001D01*
X158432001Y-94790001D01*
X158477945Y-94785496D01*
X158523977Y-94781469D01*
X158526502Y-94780736D01*
X158529118Y-94780479D01*
X158573324Y-94767132D01*
X158617685Y-94754244D01*
X158620020Y-94753034D01*
X158622536Y-94752274D01*
X158663286Y-94730607D01*
X158704321Y-94709337D01*
X158706377Y-94707695D01*
X158708697Y-94706462D01*
X158744486Y-94677273D01*
X158780583Y-94648456D01*
X158784241Y-94644849D01*
X158784318Y-94644786D01*
X158784377Y-94644715D01*
X158785554Y-94643554D01*
X158843554Y-94585555D01*
X158872872Y-94549863D01*
X158902558Y-94514485D01*
X158903824Y-94512181D01*
X158905493Y-94510150D01*
X158927311Y-94469459D01*
X158949569Y-94428972D01*
X158950364Y-94426465D01*
X158951606Y-94424149D01*
X158965108Y-94379986D01*
X158979075Y-94335957D01*
X158979368Y-94333346D01*
X158980137Y-94330830D01*
X158984802Y-94284898D01*
X158989952Y-94238982D01*
X158989988Y-94233833D01*
X158989997Y-94233746D01*
X158989989Y-94233665D01*
X158990001Y-94232001D01*
X158990001Y-93250000D01*
X164500000Y-93250000D01*
X164500000Y-93389396D01*
X164515372Y-93466675D01*
X164545524Y-93539471D01*
X164589299Y-93604985D01*
X164645014Y-93660700D01*
X164710529Y-93704475D01*
X164783324Y-93734628D01*
X164860603Y-93750000D01*
X165150000Y-93750000D01*
X165250000Y-93650000D01*
X165250000Y-93150000D01*
X164600000Y-93150000D01*
X164500000Y-93250000D01*
X158990001Y-93250000D01*
X158990001Y-92967999D01*
X158985492Y-92922010D01*
X158981469Y-92876023D01*
X158980736Y-92873498D01*
X158980479Y-92870882D01*
X158967132Y-92826676D01*
X158954244Y-92782315D01*
X158953034Y-92779980D01*
X158952274Y-92777464D01*
X158930586Y-92736674D01*
X158909336Y-92695679D01*
X158907697Y-92693626D01*
X158906462Y-92691303D01*
X158877271Y-92655511D01*
X158848456Y-92619416D01*
X158844844Y-92615753D01*
X158844786Y-92615682D01*
X158844720Y-92615627D01*
X158843554Y-92614445D01*
X158785554Y-92556446D01*
X158749909Y-92527167D01*
X158714485Y-92497442D01*
X158712178Y-92496174D01*
X158710149Y-92494507D01*
X158669480Y-92472700D01*
X158628972Y-92450431D01*
X158626465Y-92449636D01*
X158624149Y-92448394D01*
X158579986Y-92434892D01*
X158535957Y-92420925D01*
X158533346Y-92420632D01*
X158530830Y-92419863D01*
X158484854Y-92415193D01*
X158438982Y-92410048D01*
X158433844Y-92410012D01*
X158433746Y-92410002D01*
X158433655Y-92410011D01*
X158432001Y-92409999D01*
X157143901Y-92409999D01*
X157105069Y-92371167D01*
X157138024Y-92386022D01*
X157250000Y-92401935D01*
X157550000Y-92401935D01*
X157613698Y-92396855D01*
X157721738Y-92363398D01*
X157728276Y-92359089D01*
X157788024Y-92386022D01*
X157900000Y-92401935D01*
X158200000Y-92401935D01*
X158263698Y-92396855D01*
X158371738Y-92363398D01*
X158466179Y-92301165D01*
X158539543Y-92215086D01*
X158586022Y-92111976D01*
X158601935Y-92000000D01*
X158601935Y-91200000D01*
X158596855Y-91136302D01*
X158563398Y-91028262D01*
X158501165Y-90933821D01*
X158415086Y-90860457D01*
X158311976Y-90813978D01*
X158295474Y-90811633D01*
X158357107Y-90750000D01*
X161048065Y-90750000D01*
X161048065Y-90900000D01*
X161053145Y-90963698D01*
X161086602Y-91071738D01*
X161148835Y-91166179D01*
X161234914Y-91239543D01*
X161338024Y-91286022D01*
X161450000Y-91301935D01*
X162250000Y-91301935D01*
X162313698Y-91296855D01*
X162421738Y-91263398D01*
X162501350Y-91210937D01*
X162534914Y-91239543D01*
X162638024Y-91286022D01*
X162750000Y-91301935D01*
X163550000Y-91301935D01*
X163613698Y-91296855D01*
X163721738Y-91263398D01*
X163816179Y-91201165D01*
X163889543Y-91115086D01*
X163903654Y-91083781D01*
X163923861Y-91193880D01*
X163974396Y-91321517D01*
X164048760Y-91436907D01*
X164070279Y-91459191D01*
X164020283Y-91532208D01*
X163966204Y-91658384D01*
X163937663Y-91792661D01*
X163935746Y-91929925D01*
X163960527Y-92064947D01*
X164011062Y-92192584D01*
X164085426Y-92307974D01*
X164180787Y-92406723D01*
X164293512Y-92485069D01*
X164419307Y-92540028D01*
X164553382Y-92569506D01*
X164613548Y-92570766D01*
X164589299Y-92595015D01*
X164545524Y-92660529D01*
X164515372Y-92733325D01*
X164500000Y-92810604D01*
X164500000Y-92950000D01*
X164600000Y-93050000D01*
X165250000Y-93050000D01*
X165250000Y-93030000D01*
X165350000Y-93030000D01*
X165350000Y-93050000D01*
X165370000Y-93050000D01*
X165370000Y-93150000D01*
X165350000Y-93150000D01*
X165350000Y-93650000D01*
X165450000Y-93750000D01*
X165739397Y-93750000D01*
X165816676Y-93734628D01*
X165889471Y-93704475D01*
X165900980Y-93696785D01*
X165988024Y-93736022D01*
X166100000Y-93751935D01*
X166900000Y-93751935D01*
X166963698Y-93746855D01*
X167071738Y-93713398D01*
X167092070Y-93700000D01*
X167826842Y-93700000D01*
X167800997Y-93821594D01*
X167799080Y-93958858D01*
X167823861Y-94093880D01*
X167873540Y-94219354D01*
X167792894Y-94300000D01*
X165500000Y-94300000D01*
X165447718Y-94306955D01*
X165376731Y-94342505D01*
X165325169Y-94402871D01*
X164825169Y-95302871D01*
X164800189Y-95408687D01*
X164852576Y-96613589D01*
X164778262Y-96636602D01*
X164683821Y-96698835D01*
X164610457Y-96784914D01*
X164563978Y-96888024D01*
X164548065Y-97000000D01*
X164548065Y-97450000D01*
X161910167Y-97450000D01*
X161857997Y-97428070D01*
X161723524Y-97400466D01*
X161586250Y-97399508D01*
X161451405Y-97425231D01*
X161324124Y-97476656D01*
X161209255Y-97551824D01*
X161111174Y-97647872D01*
X161033617Y-97761141D01*
X160979538Y-97887317D01*
X160950997Y-98021594D01*
X160949080Y-98158858D01*
X160973861Y-98293880D01*
X161024396Y-98421517D01*
X161098760Y-98536907D01*
X161194121Y-98635656D01*
X161306846Y-98714002D01*
X161432641Y-98768961D01*
X161566716Y-98798439D01*
X161703963Y-98801314D01*
X161839155Y-98777476D01*
X161909992Y-98750000D01*
X164552053Y-98750000D01*
X164553145Y-98763698D01*
X164586602Y-98871738D01*
X164648835Y-98966179D01*
X164734914Y-99039543D01*
X164838024Y-99086022D01*
X164950000Y-99101935D01*
X165032697Y-99101935D01*
X166540381Y-100609620D01*
X166586793Y-100647744D01*
X166632772Y-100686325D01*
X166635766Y-100687971D01*
X166638408Y-100690141D01*
X166691346Y-100718526D01*
X166743939Y-100747439D01*
X166747195Y-100748472D01*
X166750209Y-100750088D01*
X166807665Y-100767654D01*
X166864858Y-100785797D01*
X166868252Y-100786178D01*
X166871524Y-100787178D01*
X166931272Y-100793247D01*
X166990926Y-100799938D01*
X166997608Y-100799984D01*
X166997732Y-100799997D01*
X166997848Y-100799986D01*
X167000001Y-100800001D01*
X172149242Y-100800001D01*
X172192642Y-100818962D01*
X172326717Y-100848440D01*
X172463964Y-100851315D01*
X172599156Y-100827477D01*
X172727142Y-100777834D01*
X172843049Y-100704278D01*
X172942461Y-100609609D01*
X173021592Y-100497433D01*
X173077428Y-100372024D01*
X173107842Y-100238159D01*
X173110031Y-100081362D01*
X173083367Y-99946700D01*
X173031055Y-99819781D01*
X172955087Y-99705440D01*
X172858357Y-99608032D01*
X172744549Y-99531268D01*
X172695392Y-99510604D01*
X173775000Y-99510604D01*
X173775000Y-100750000D01*
X173875000Y-100850000D01*
X174625000Y-100850000D01*
X174625000Y-99250000D01*
X174725000Y-99250000D01*
X174725000Y-100850000D01*
X175475000Y-100850000D01*
X175575000Y-100750000D01*
X175575000Y-99510604D01*
X175559628Y-99433325D01*
X175529476Y-99360529D01*
X175485701Y-99295015D01*
X175429986Y-99239300D01*
X175364471Y-99195525D01*
X175291676Y-99165372D01*
X175214397Y-99150000D01*
X174825000Y-99150000D01*
X174725000Y-99250000D01*
X174625000Y-99250000D01*
X174525000Y-99150000D01*
X174135603Y-99150000D01*
X174058324Y-99165372D01*
X173985529Y-99195525D01*
X173920014Y-99239300D01*
X173864299Y-99295015D01*
X173820524Y-99360529D01*
X173790372Y-99433325D01*
X173775000Y-99510604D01*
X172695392Y-99510604D01*
X172617998Y-99478071D01*
X172483525Y-99450467D01*
X172346251Y-99449509D01*
X172298253Y-99458665D01*
X172300030Y-99331361D01*
X172273366Y-99196699D01*
X172221054Y-99069780D01*
X172155644Y-98971330D01*
X172195014Y-99010700D01*
X172260529Y-99054475D01*
X172333324Y-99084628D01*
X172410603Y-99100000D01*
X172600000Y-99100000D01*
X172700000Y-99000000D01*
X172700000Y-97900000D01*
X172800000Y-97900000D01*
X172800000Y-99000000D01*
X172900000Y-99100000D01*
X173089397Y-99100000D01*
X173166676Y-99084628D01*
X173239471Y-99054475D01*
X173304986Y-99010700D01*
X173360701Y-98954985D01*
X173397440Y-98900000D01*
X178498065Y-98900000D01*
X178498065Y-100300000D01*
X178503145Y-100363698D01*
X178536602Y-100471738D01*
X178598835Y-100566179D01*
X178684914Y-100639543D01*
X178788024Y-100686022D01*
X178900000Y-100701935D01*
X179900000Y-100701935D01*
X179963698Y-100696855D01*
X180071738Y-100663398D01*
X180166179Y-100601165D01*
X180239543Y-100515086D01*
X180286022Y-100411976D01*
X180301935Y-100300000D01*
X180301935Y-99750000D01*
X182700000Y-99750000D01*
X182700000Y-100339396D01*
X182715372Y-100416675D01*
X182745524Y-100489471D01*
X182789299Y-100554985D01*
X182845014Y-100610700D01*
X182910529Y-100654475D01*
X182983324Y-100684628D01*
X183060603Y-100700000D01*
X183450000Y-100700000D01*
X183550000Y-100600000D01*
X183550000Y-99650000D01*
X183650000Y-99650000D01*
X183650000Y-100600000D01*
X183750000Y-100700000D01*
X184139397Y-100700000D01*
X184216676Y-100684628D01*
X184289471Y-100654475D01*
X184354986Y-100610700D01*
X184410701Y-100554985D01*
X184454476Y-100489471D01*
X184484628Y-100416675D01*
X184500000Y-100339396D01*
X184500000Y-99750000D01*
X184400000Y-99650000D01*
X183650000Y-99650000D01*
X183550000Y-99650000D01*
X182800000Y-99650000D01*
X182700000Y-99750000D01*
X180301935Y-99750000D01*
X180301935Y-98910283D01*
X180313678Y-98972691D01*
X180356638Y-99039454D01*
X180422189Y-99084243D01*
X180500000Y-99100000D01*
X182300000Y-99100000D01*
X182372691Y-99086322D01*
X182439454Y-99043362D01*
X182484243Y-98977811D01*
X182500000Y-98900000D01*
X182500000Y-98860604D01*
X182700000Y-98860604D01*
X182700000Y-99450000D01*
X182800000Y-99550000D01*
X183550000Y-99550000D01*
X183550000Y-98600000D01*
X183650000Y-98600000D01*
X183650000Y-99550000D01*
X184400000Y-99550000D01*
X184500000Y-99450000D01*
X184500000Y-99242941D01*
X185197765Y-99242941D01*
X185257948Y-99570851D01*
X185380676Y-99880827D01*
X185561274Y-100161061D01*
X185792865Y-100400880D01*
X186066625Y-100591148D01*
X186372129Y-100724619D01*
X186697739Y-100796209D01*
X187031053Y-100803191D01*
X187359376Y-100745299D01*
X187670201Y-100624738D01*
X187951689Y-100446100D01*
X188193119Y-100216190D01*
X188385294Y-99943764D01*
X188520895Y-99639200D01*
X188594756Y-99314097D01*
X188600073Y-98933306D01*
X188535318Y-98606268D01*
X188408274Y-98298036D01*
X188223780Y-98020351D01*
X187988864Y-97783789D01*
X187712474Y-97597361D01*
X187405136Y-97468169D01*
X187078558Y-97401132D01*
X186745179Y-97398804D01*
X186417697Y-97461275D01*
X186108586Y-97586164D01*
X185829619Y-97768715D01*
X185591423Y-98001973D01*
X185403070Y-98277056D01*
X185271735Y-98583484D01*
X185202420Y-98909586D01*
X185197765Y-99242941D01*
X184500000Y-99242941D01*
X184500000Y-98860604D01*
X184484628Y-98783325D01*
X184454476Y-98710529D01*
X184410701Y-98645015D01*
X184354986Y-98589300D01*
X184289471Y-98545525D01*
X184216676Y-98515372D01*
X184139397Y-98500000D01*
X183750000Y-98500000D01*
X183650000Y-98600000D01*
X183550000Y-98600000D01*
X183450000Y-98500000D01*
X183060603Y-98500000D01*
X182983324Y-98515372D01*
X182910529Y-98545525D01*
X182845014Y-98589300D01*
X182789299Y-98645015D01*
X182745524Y-98710529D01*
X182715372Y-98783325D01*
X182700000Y-98860604D01*
X182500000Y-98860604D01*
X182500000Y-97200000D01*
X182486322Y-97127309D01*
X182443362Y-97060546D01*
X182377811Y-97015757D01*
X182300000Y-97000000D01*
X180500000Y-97000000D01*
X180427309Y-97013678D01*
X180360546Y-97056638D01*
X180315757Y-97122189D01*
X180300000Y-97200000D01*
X180300000Y-98875737D01*
X180296855Y-98836302D01*
X180263398Y-98728262D01*
X180201165Y-98633821D01*
X180115086Y-98560457D01*
X180011976Y-98513978D01*
X179968960Y-98507865D01*
X180011591Y-98447432D01*
X180067427Y-98322023D01*
X180097841Y-98188158D01*
X180100030Y-98031361D01*
X180073366Y-97896699D01*
X180021054Y-97769780D01*
X179945086Y-97655439D01*
X179848356Y-97558031D01*
X179734548Y-97481267D01*
X179607997Y-97428070D01*
X179473524Y-97400466D01*
X179336250Y-97399508D01*
X179201405Y-97425231D01*
X179074124Y-97476656D01*
X178959255Y-97551824D01*
X178861174Y-97647872D01*
X178783617Y-97761141D01*
X178729538Y-97887317D01*
X178700997Y-98021594D01*
X178699080Y-98158858D01*
X178723861Y-98293880D01*
X178774396Y-98421517D01*
X178828549Y-98505546D01*
X178728262Y-98536602D01*
X178633821Y-98598835D01*
X178560457Y-98684914D01*
X178513978Y-98788024D01*
X178498065Y-98900000D01*
X173397440Y-98900000D01*
X173404476Y-98889471D01*
X173434628Y-98816675D01*
X173450000Y-98739396D01*
X173450000Y-98000000D01*
X173350000Y-97900000D01*
X172800000Y-97900000D01*
X172700000Y-97900000D01*
X172680000Y-97900000D01*
X172680000Y-97800000D01*
X172700000Y-97800000D01*
X172700000Y-97780000D01*
X172800000Y-97780000D01*
X172800000Y-97800000D01*
X173350000Y-97800000D01*
X173450000Y-97700000D01*
X173450000Y-96960604D01*
X173434628Y-96883325D01*
X173404476Y-96810529D01*
X173360701Y-96745015D01*
X173304986Y-96689300D01*
X173239471Y-96645525D01*
X173166676Y-96615372D01*
X173089397Y-96600000D01*
X173058665Y-96600000D01*
X173206730Y-96451935D01*
X174000000Y-96451935D01*
X174063698Y-96446855D01*
X174171738Y-96413398D01*
X174197992Y-96396098D01*
X174210529Y-96404475D01*
X174283324Y-96434628D01*
X174360603Y-96450000D01*
X174650000Y-96450000D01*
X174750000Y-96350000D01*
X174750000Y-95850000D01*
X174850000Y-95850000D01*
X174850000Y-96350000D01*
X174950000Y-96450000D01*
X175239397Y-96450000D01*
X175316676Y-96434628D01*
X175389471Y-96404475D01*
X175454986Y-96360700D01*
X175510701Y-96304985D01*
X175554476Y-96239471D01*
X175584628Y-96166675D01*
X175600000Y-96089396D01*
X175600000Y-95950000D01*
X186150000Y-95950000D01*
X186150000Y-96339397D01*
X186165372Y-96416676D01*
X186195525Y-96489471D01*
X186239300Y-96554986D01*
X186295015Y-96610701D01*
X186360529Y-96654476D01*
X186433325Y-96684628D01*
X186510604Y-96700000D01*
X187750000Y-96700000D01*
X187850000Y-96600000D01*
X187850000Y-95850000D01*
X186250000Y-95850000D01*
X186150000Y-95950000D01*
X175600000Y-95950000D01*
X175500000Y-95850000D01*
X174850000Y-95850000D01*
X174750000Y-95850000D01*
X174730000Y-95850000D01*
X174730000Y-95750000D01*
X174750000Y-95750000D01*
X174750000Y-95250000D01*
X174850000Y-95250000D01*
X174850000Y-95750000D01*
X175500000Y-95750000D01*
X175600000Y-95650000D01*
X175600000Y-95510604D01*
X175584628Y-95433325D01*
X175554476Y-95360529D01*
X175510701Y-95295015D01*
X175454986Y-95239300D01*
X175389471Y-95195525D01*
X175316676Y-95165372D01*
X175239397Y-95150000D01*
X174950000Y-95150000D01*
X174850000Y-95250000D01*
X174750000Y-95250000D01*
X174650000Y-95150000D01*
X174360603Y-95150000D01*
X174283324Y-95165372D01*
X174210529Y-95195525D01*
X174199020Y-95203215D01*
X174111976Y-95163978D01*
X174000000Y-95148065D01*
X173859042Y-95148065D01*
X174453554Y-94553553D01*
X174482880Y-94517852D01*
X174512557Y-94482484D01*
X174513823Y-94480181D01*
X174515493Y-94478148D01*
X174537310Y-94437459D01*
X174559568Y-94396971D01*
X174560364Y-94394461D01*
X174561605Y-94392147D01*
X174575099Y-94348011D01*
X174589074Y-94303956D01*
X174589367Y-94301343D01*
X174590136Y-94298828D01*
X174594805Y-94252858D01*
X174599951Y-94206981D01*
X174599987Y-94201843D01*
X174599997Y-94201745D01*
X174599988Y-94201654D01*
X174600000Y-94200000D01*
X174600000Y-92458858D01*
X174899080Y-92458858D01*
X174923861Y-92593880D01*
X174974396Y-92721517D01*
X175048760Y-92836907D01*
X175144121Y-92935656D01*
X175256846Y-93014002D01*
X175382641Y-93068961D01*
X175516716Y-93098439D01*
X175653963Y-93101314D01*
X175671086Y-93098295D01*
X175677015Y-93100107D01*
X175721044Y-93114074D01*
X175723655Y-93114367D01*
X175726171Y-93115136D01*
X175772147Y-93119806D01*
X175818019Y-93124951D01*
X175823157Y-93124987D01*
X175823255Y-93124997D01*
X175823346Y-93124988D01*
X175825000Y-93125000D01*
X183655226Y-93125000D01*
X183698835Y-93191179D01*
X183768784Y-93250796D01*
X183733821Y-93273835D01*
X183660457Y-93359914D01*
X183642387Y-93400000D01*
X176290033Y-93400000D01*
X176248356Y-93358031D01*
X176134548Y-93281267D01*
X176007997Y-93228070D01*
X175873524Y-93200466D01*
X175736250Y-93199508D01*
X175601405Y-93225231D01*
X175474124Y-93276656D01*
X175359255Y-93351824D01*
X175261174Y-93447872D01*
X175183617Y-93561141D01*
X175129538Y-93687317D01*
X175100997Y-93821594D01*
X175099080Y-93958858D01*
X175123861Y-94093880D01*
X175174396Y-94221517D01*
X175248760Y-94336907D01*
X175344121Y-94435656D01*
X175456846Y-94514002D01*
X175582641Y-94568961D01*
X175716716Y-94598439D01*
X175853963Y-94601314D01*
X175989155Y-94577476D01*
X176117141Y-94527833D01*
X176233048Y-94454277D01*
X176290044Y-94400000D01*
X183671700Y-94400000D01*
X183698835Y-94441179D01*
X183784914Y-94514543D01*
X183888024Y-94561022D01*
X184000000Y-94576935D01*
X185505150Y-94576935D01*
X185523861Y-94678882D01*
X185574396Y-94806519D01*
X185648760Y-94921909D01*
X185744121Y-95020658D01*
X185856846Y-95099004D01*
X185982641Y-95153963D01*
X186116716Y-95183441D01*
X186165147Y-95184456D01*
X186150000Y-95260603D01*
X186150000Y-95650000D01*
X186250000Y-95750000D01*
X187850000Y-95750000D01*
X187850000Y-95000000D01*
X187750000Y-94900000D01*
X186763929Y-94900000D01*
X186811591Y-94832434D01*
X186867427Y-94707025D01*
X186897841Y-94573160D01*
X186900030Y-94416363D01*
X186873366Y-94281701D01*
X186850000Y-94225011D01*
X186850000Y-90319238D01*
X186925097Y-90244141D01*
X186967141Y-90227833D01*
X187083048Y-90154277D01*
X187182460Y-90059608D01*
X187261591Y-89947432D01*
X187317427Y-89822023D01*
X187347841Y-89688158D01*
X187350030Y-89531361D01*
X187323366Y-89396699D01*
X187271054Y-89269780D01*
X187195086Y-89155439D01*
X187140033Y-89100000D01*
X187750000Y-89100000D01*
X187850000Y-89000000D01*
X187850000Y-88250000D01*
X186250000Y-88250000D01*
X186150000Y-88350000D01*
X186150000Y-88739397D01*
X186165372Y-88816676D01*
X186195525Y-88889471D01*
X186239300Y-88954986D01*
X186285950Y-89001636D01*
X186209255Y-89051824D01*
X186111174Y-89147872D01*
X186033617Y-89261141D01*
X186006611Y-89324151D01*
X185868800Y-89461962D01*
X185816675Y-89440372D01*
X185739396Y-89425000D01*
X185000000Y-89425000D01*
X184900000Y-89525000D01*
X184900000Y-90075000D01*
X184920000Y-90075000D01*
X184920000Y-90175000D01*
X184900000Y-90175000D01*
X184900000Y-90195000D01*
X184800000Y-90195000D01*
X184800000Y-90175000D01*
X183700000Y-90175000D01*
X183600000Y-90275000D01*
X183600000Y-90464397D01*
X183615372Y-90541676D01*
X183645525Y-90614471D01*
X183689300Y-90679986D01*
X183745015Y-90735701D01*
X183768191Y-90751187D01*
X183733821Y-90773835D01*
X183660457Y-90859914D01*
X183613978Y-90963024D01*
X183598065Y-91075000D01*
X183598065Y-91675000D01*
X183603145Y-91738698D01*
X183636602Y-91846738D01*
X183698835Y-91941179D01*
X183768784Y-92000796D01*
X183733821Y-92023835D01*
X183660457Y-92109914D01*
X183653657Y-92125000D01*
X176243814Y-92125000D01*
X176221054Y-92069780D01*
X176145086Y-91955439D01*
X176048356Y-91858031D01*
X175934548Y-91781267D01*
X175807997Y-91728070D01*
X175673524Y-91700466D01*
X175536250Y-91699508D01*
X175401405Y-91725231D01*
X175274124Y-91776656D01*
X175159255Y-91851824D01*
X175061174Y-91947872D01*
X174983617Y-92061141D01*
X174929538Y-92187317D01*
X174900997Y-92321594D01*
X174899080Y-92458858D01*
X174600000Y-92458858D01*
X174600000Y-90775912D01*
X181824088Y-90775912D01*
X181870032Y-90771407D01*
X181916064Y-90767380D01*
X181918589Y-90766647D01*
X181921205Y-90766390D01*
X181965411Y-90753043D01*
X182009772Y-90740155D01*
X182012107Y-90738945D01*
X182014623Y-90738185D01*
X182055373Y-90716518D01*
X182096408Y-90695248D01*
X182098464Y-90693606D01*
X182100784Y-90692373D01*
X182136573Y-90663184D01*
X182172670Y-90634367D01*
X182176328Y-90630760D01*
X182176405Y-90630697D01*
X182176464Y-90630626D01*
X182177641Y-90629465D01*
X183021503Y-89785603D01*
X183600000Y-89785603D01*
X183600000Y-89975000D01*
X183700000Y-90075000D01*
X184800000Y-90075000D01*
X184800000Y-89525000D01*
X184700000Y-89425000D01*
X183960604Y-89425000D01*
X183883325Y-89440372D01*
X183810529Y-89470524D01*
X183745015Y-89514299D01*
X183689300Y-89570014D01*
X183645525Y-89635529D01*
X183615372Y-89708324D01*
X183600000Y-89785603D01*
X183021503Y-89785603D01*
X183653554Y-89153553D01*
X183682880Y-89117852D01*
X183712557Y-89082484D01*
X183713823Y-89080181D01*
X183715493Y-89078148D01*
X183737320Y-89037440D01*
X183759568Y-88996971D01*
X183760363Y-88994464D01*
X183761605Y-88992148D01*
X183775107Y-88947985D01*
X183789074Y-88903956D01*
X183789367Y-88901345D01*
X183790136Y-88898829D01*
X183794806Y-88852853D01*
X183799951Y-88806981D01*
X183799987Y-88801843D01*
X183799997Y-88801745D01*
X183799988Y-88801654D01*
X183800000Y-88800000D01*
X183800000Y-87660603D01*
X186150000Y-87660603D01*
X186150000Y-88050000D01*
X186250000Y-88150000D01*
X187850000Y-88150000D01*
X187850000Y-87400000D01*
X187750000Y-87300000D01*
X186510604Y-87300000D01*
X186433325Y-87315372D01*
X186360529Y-87345524D01*
X186295015Y-87389299D01*
X186239300Y-87445014D01*
X186195525Y-87510529D01*
X186165372Y-87583324D01*
X186150000Y-87660603D01*
X183800000Y-87660603D01*
X183800000Y-86844336D01*
X184222120Y-86422216D01*
X184200997Y-86521594D01*
X184199080Y-86658858D01*
X184223861Y-86793880D01*
X184274396Y-86921517D01*
X184348760Y-87036907D01*
X184444121Y-87135656D01*
X184556846Y-87214002D01*
X184682641Y-87268961D01*
X184816716Y-87298439D01*
X184953963Y-87301314D01*
X185089155Y-87277476D01*
X185217141Y-87227833D01*
X185333048Y-87154277D01*
X185432460Y-87059608D01*
X185511591Y-86947432D01*
X185543520Y-86875718D01*
X185751582Y-86667657D01*
X185789706Y-86621245D01*
X185828287Y-86575266D01*
X185829933Y-86572272D01*
X185832103Y-86569630D01*
X185860488Y-86516692D01*
X185889401Y-86464099D01*
X185890434Y-86460843D01*
X185892050Y-86457829D01*
X185900720Y-86429468D01*
X186015254Y-86429468D01*
X186015254Y-86570889D01*
X186290599Y-86846234D01*
X186356114Y-86890009D01*
X186428909Y-86920161D01*
X186506188Y-86935534D01*
X186584981Y-86935534D01*
X186662260Y-86920162D01*
X186735056Y-86890008D01*
X186800570Y-86846233D01*
X187676955Y-85969848D01*
X187676955Y-85828427D01*
X187146625Y-85298097D01*
X186015254Y-86429468D01*
X185900720Y-86429468D01*
X185909603Y-86400415D01*
X185922818Y-86358757D01*
X185944543Y-86358757D01*
X187075914Y-85227386D01*
X186545584Y-84697056D01*
X186404163Y-84697056D01*
X185931517Y-85169702D01*
X185930871Y-85162312D01*
X185929918Y-85159030D01*
X185929584Y-85155628D01*
X185912219Y-85098112D01*
X185895478Y-85040490D01*
X185893907Y-85037459D01*
X185892918Y-85034184D01*
X185864710Y-84981132D01*
X185837099Y-84927865D01*
X185834968Y-84925196D01*
X185833362Y-84922175D01*
X185795415Y-84875648D01*
X185757955Y-84828722D01*
X185753261Y-84823963D01*
X185753184Y-84823868D01*
X185753096Y-84823795D01*
X185751582Y-84822260D01*
X184053066Y-83123745D01*
X184006701Y-83085660D01*
X183960676Y-83047040D01*
X183957678Y-83045392D01*
X183955039Y-83043224D01*
X183902123Y-83014850D01*
X183849509Y-82985926D01*
X183846253Y-82984893D01*
X183843239Y-82983277D01*
X183785783Y-82965711D01*
X183728590Y-82947568D01*
X183725196Y-82947187D01*
X183721924Y-82946187D01*
X183674175Y-82941337D01*
X183671885Y-82917975D01*
X183666653Y-82858176D01*
X183665699Y-82854894D01*
X183665366Y-82851493D01*
X183648005Y-82793989D01*
X183631260Y-82736355D01*
X183629689Y-82733324D01*
X183628700Y-82730049D01*
X183600492Y-82676997D01*
X183572881Y-82623730D01*
X183570750Y-82621061D01*
X183569144Y-82618040D01*
X183531197Y-82571513D01*
X183493737Y-82524587D01*
X183489043Y-82519828D01*
X183488966Y-82519733D01*
X183488878Y-82519660D01*
X183487364Y-82518125D01*
X183043516Y-82074278D01*
X183021054Y-82019780D01*
X182945086Y-81905439D01*
X182848356Y-81808031D01*
X182734548Y-81731267D01*
X182607997Y-81678070D01*
X182473524Y-81650466D01*
X182336250Y-81649508D01*
X182201405Y-81675231D01*
X182074124Y-81726656D01*
X181959255Y-81801824D01*
X181861174Y-81897872D01*
X181783617Y-82011141D01*
X181729538Y-82137317D01*
X181700997Y-82271594D01*
X181700229Y-82326575D01*
X181621013Y-82247358D01*
X181555498Y-82203583D01*
X181482703Y-82173430D01*
X181405423Y-82158058D01*
X181326631Y-82158058D01*
X181249352Y-82173430D01*
X181176556Y-82203583D01*
X181111042Y-82247358D01*
X180588210Y-82770190D01*
X180588210Y-82911612D01*
X180977119Y-83300520D01*
X180991261Y-83286378D01*
X181061972Y-83357089D01*
X181047830Y-83371231D01*
X181061972Y-83385373D01*
X180991261Y-83456084D01*
X180977119Y-83441942D01*
X180199302Y-84219759D01*
X180199302Y-84361180D01*
X180333225Y-84495104D01*
X180398740Y-84538879D01*
X180471535Y-84569032D01*
X180548815Y-84584404D01*
X180627607Y-84584404D01*
X180654945Y-84578966D01*
X180646656Y-84619285D01*
X180655647Y-84732028D01*
X180695691Y-84837804D01*
X180763618Y-84928235D01*
X180935383Y-85100000D01*
X176007107Y-85100000D01*
X177228554Y-83878553D01*
X177257880Y-83842852D01*
X177287557Y-83807484D01*
X177288823Y-83805181D01*
X177290493Y-83803148D01*
X177312310Y-83762459D01*
X177334568Y-83721971D01*
X177334957Y-83720743D01*
X179763946Y-83720743D01*
X179763946Y-83799535D01*
X179779318Y-83876815D01*
X179809471Y-83949610D01*
X179853246Y-84015125D01*
X179987170Y-84149048D01*
X180128591Y-84149048D01*
X180906408Y-83371231D01*
X180517500Y-82982322D01*
X180376078Y-82982322D01*
X179853246Y-83505154D01*
X179809471Y-83570668D01*
X179779318Y-83643464D01*
X179763946Y-83720743D01*
X177334957Y-83720743D01*
X177335364Y-83719461D01*
X177336605Y-83717147D01*
X177350099Y-83673011D01*
X177364074Y-83628956D01*
X177364367Y-83626343D01*
X177365136Y-83623828D01*
X177369808Y-83577832D01*
X177374951Y-83531981D01*
X177374987Y-83526843D01*
X177374997Y-83526745D01*
X177374988Y-83526654D01*
X177375000Y-83525000D01*
X177375000Y-83344774D01*
X177441179Y-83301165D01*
X177514543Y-83215086D01*
X177561022Y-83111976D01*
X177576935Y-83000000D01*
X177576935Y-81300000D01*
X177571855Y-81236302D01*
X177538398Y-81128262D01*
X177490423Y-81055457D01*
X180641243Y-81055457D01*
X180641243Y-81196878D01*
X180916588Y-81472223D01*
X180982103Y-81515998D01*
X181054898Y-81546150D01*
X181132177Y-81561523D01*
X181210970Y-81561523D01*
X181288249Y-81546151D01*
X181361045Y-81515997D01*
X181426559Y-81472222D01*
X182302944Y-80595837D01*
X182302944Y-80454416D01*
X181772614Y-79924086D01*
X180641243Y-81055457D01*
X177490423Y-81055457D01*
X177476165Y-81033821D01*
X177436482Y-81000000D01*
X177539239Y-81000000D01*
X177582639Y-81018961D01*
X177716714Y-81048439D01*
X177853961Y-81051314D01*
X177989153Y-81027476D01*
X178117139Y-80977833D01*
X178233046Y-80904277D01*
X178290042Y-80850000D01*
X178650000Y-80850000D01*
X178750000Y-80750000D01*
X178750000Y-79150000D01*
X178850000Y-79150000D01*
X178850000Y-80750000D01*
X178950000Y-80850000D01*
X179339397Y-80850000D01*
X179416676Y-80834628D01*
X179489471Y-80804475D01*
X179554986Y-80760700D01*
X179610701Y-80704985D01*
X179654476Y-80639471D01*
X179684628Y-80566675D01*
X179700000Y-80489396D01*
X179700000Y-80415019D01*
X180064466Y-80415019D01*
X180064466Y-80493812D01*
X180079839Y-80571091D01*
X180109991Y-80643886D01*
X180153766Y-80709401D01*
X180429111Y-80984746D01*
X180570532Y-80984746D01*
X181701903Y-79853375D01*
X181171573Y-79323045D01*
X181030152Y-79323045D01*
X180153767Y-80199430D01*
X180109992Y-80264944D01*
X180079838Y-80337740D01*
X180064466Y-80415019D01*
X179700000Y-80415019D01*
X179700000Y-79250000D01*
X179600000Y-79150000D01*
X178850000Y-79150000D01*
X178750000Y-79150000D01*
X178000000Y-79150000D01*
X177900000Y-79250000D01*
X177900000Y-79655901D01*
X177873522Y-79650466D01*
X177736248Y-79649508D01*
X177601403Y-79675231D01*
X177540098Y-79700000D01*
X173862321Y-79700000D01*
X173834548Y-79681267D01*
X173707997Y-79628070D01*
X173573524Y-79600466D01*
X173436250Y-79599508D01*
X173301405Y-79625231D01*
X173174124Y-79676656D01*
X173059255Y-79751824D01*
X172961174Y-79847872D01*
X172883617Y-79961141D01*
X172829538Y-80087317D01*
X172800997Y-80221594D01*
X172799080Y-80358858D01*
X172823861Y-80493880D01*
X172874396Y-80621517D01*
X172948760Y-80736907D01*
X173044121Y-80835656D01*
X173156846Y-80914002D01*
X173229330Y-80945670D01*
X173175000Y-81000000D01*
X173175000Y-82100000D01*
X173195000Y-82100000D01*
X173195000Y-82200000D01*
X173175000Y-82200000D01*
X173175000Y-83300000D01*
X173275000Y-83400000D01*
X173464397Y-83400000D01*
X173541676Y-83384628D01*
X173614471Y-83354475D01*
X173679986Y-83310700D01*
X173735701Y-83254985D01*
X173751187Y-83231809D01*
X173773835Y-83266179D01*
X173859914Y-83339543D01*
X173963024Y-83386022D01*
X174075000Y-83401935D01*
X174675000Y-83401935D01*
X174738698Y-83396855D01*
X174846738Y-83363398D01*
X174941179Y-83301165D01*
X175000796Y-83231216D01*
X175023835Y-83266179D01*
X175109914Y-83339543D01*
X175125000Y-83346343D01*
X175125000Y-83992246D01*
X173150748Y-85966498D01*
X173140061Y-85950414D01*
X173043331Y-85853006D01*
X172929523Y-85776242D01*
X172802972Y-85723045D01*
X172668499Y-85695441D01*
X172531225Y-85694483D01*
X172396380Y-85720206D01*
X172269099Y-85771631D01*
X172154230Y-85846799D01*
X172056149Y-85942847D01*
X171978592Y-86056116D01*
X171963475Y-86091387D01*
X171953722Y-86086247D01*
X171922925Y-86079916D01*
X171919983Y-86065127D01*
X171889831Y-85992331D01*
X171846056Y-85926817D01*
X171641421Y-85722183D01*
X171500000Y-85722183D01*
X171146447Y-86075736D01*
X171160589Y-86089878D01*
X171089878Y-86160589D01*
X171075736Y-86146447D01*
X170722183Y-86500000D01*
X170722183Y-86641421D01*
X170833274Y-86752513D01*
X170443961Y-87141826D01*
X170461833Y-87054891D01*
X170461711Y-87053365D01*
X170484924Y-87030152D01*
X170484924Y-86888730D01*
X170457066Y-86860872D01*
X170405139Y-86826175D01*
X170344871Y-86745941D01*
X170132739Y-86533809D01*
X170084106Y-86492359D01*
X169984052Y-86439622D01*
X169873267Y-86416847D01*
X169760524Y-86425838D01*
X169654748Y-86465882D01*
X169604697Y-86503478D01*
X169031492Y-85930273D01*
X170216116Y-85930273D01*
X170216116Y-86009066D01*
X170231489Y-86086345D01*
X170261641Y-86159141D01*
X170305416Y-86224655D01*
X170510051Y-86429289D01*
X170651472Y-86429289D01*
X171005025Y-86075736D01*
X170545406Y-85616117D01*
X170403985Y-85616117D01*
X170361132Y-85658969D01*
X170305417Y-85714684D01*
X170261642Y-85780199D01*
X170231488Y-85852994D01*
X170216116Y-85930273D01*
X169031492Y-85930273D01*
X168505204Y-85403985D01*
X170616117Y-85403985D01*
X170616117Y-85545406D01*
X171075736Y-86005025D01*
X171429289Y-85651472D01*
X171429289Y-85510051D01*
X171224655Y-85305416D01*
X171159141Y-85261641D01*
X171086345Y-85231489D01*
X171009066Y-85216116D01*
X170930273Y-85216116D01*
X170852994Y-85231488D01*
X170780199Y-85261642D01*
X170714684Y-85305417D01*
X170658969Y-85361132D01*
X170616117Y-85403985D01*
X168505204Y-85403985D01*
X168313354Y-85212136D01*
X168277709Y-85182857D01*
X168242285Y-85153132D01*
X168239978Y-85151864D01*
X168237949Y-85150197D01*
X168197280Y-85128390D01*
X168156772Y-85106121D01*
X168154265Y-85105326D01*
X168151949Y-85104084D01*
X168107786Y-85090582D01*
X168063757Y-85076615D01*
X168061146Y-85076322D01*
X168058630Y-85075553D01*
X168012654Y-85070883D01*
X167966782Y-85065738D01*
X167961644Y-85065702D01*
X167961546Y-85065692D01*
X167961455Y-85065701D01*
X167959801Y-85065689D01*
X167600000Y-85065689D01*
X167600000Y-84650000D01*
X167500000Y-84550000D01*
X166350000Y-84550000D01*
X166350000Y-84570000D01*
X166250000Y-84570000D01*
X166250000Y-84550000D01*
X166230000Y-84550000D01*
X166230000Y-84450000D01*
X166250000Y-84450000D01*
X166250000Y-83575000D01*
X166350000Y-83575000D01*
X166350000Y-84450000D01*
X167500000Y-84450000D01*
X167600000Y-84350000D01*
X167600000Y-83835604D01*
X167584628Y-83758325D01*
X167554476Y-83685529D01*
X167510701Y-83620015D01*
X167454986Y-83564300D01*
X167389471Y-83520525D01*
X167316676Y-83490372D01*
X167239397Y-83475000D01*
X166450000Y-83475000D01*
X166350000Y-83575000D01*
X166250000Y-83575000D01*
X166150000Y-83475000D01*
X165443840Y-83475000D01*
X165467427Y-83422023D01*
X165497841Y-83288158D01*
X165500030Y-83131361D01*
X165497320Y-83117674D01*
X165538024Y-83136022D01*
X165650000Y-83151935D01*
X166250000Y-83151935D01*
X166313698Y-83146855D01*
X166421738Y-83113398D01*
X166516179Y-83051165D01*
X166589543Y-82965086D01*
X166636022Y-82861976D01*
X166651935Y-82750000D01*
X166651935Y-82150000D01*
X167000000Y-82150000D01*
X167000000Y-82539397D01*
X167015372Y-82616676D01*
X167045525Y-82689471D01*
X167089300Y-82754986D01*
X167145015Y-82810701D01*
X167210529Y-82854476D01*
X167283325Y-82884628D01*
X167360604Y-82900000D01*
X167850000Y-82900000D01*
X167950000Y-82800000D01*
X167950000Y-82050000D01*
X168050000Y-82050000D01*
X168050000Y-82800000D01*
X168150000Y-82900000D01*
X168639396Y-82900000D01*
X168716675Y-82884628D01*
X168789471Y-82854476D01*
X168854985Y-82810701D01*
X168910700Y-82754986D01*
X168954475Y-82689471D01*
X168984628Y-82616676D01*
X169000000Y-82539397D01*
X169000000Y-82300000D01*
X172425000Y-82300000D01*
X172425000Y-83039396D01*
X172440372Y-83116675D01*
X172470524Y-83189471D01*
X172514299Y-83254985D01*
X172570014Y-83310700D01*
X172635529Y-83354475D01*
X172708324Y-83384628D01*
X172785603Y-83400000D01*
X172975000Y-83400000D01*
X173075000Y-83300000D01*
X173075000Y-82200000D01*
X172525000Y-82200000D01*
X172425000Y-82300000D01*
X169000000Y-82300000D01*
X169000000Y-82150000D01*
X168900000Y-82050000D01*
X168050000Y-82050000D01*
X167950000Y-82050000D01*
X167100000Y-82050000D01*
X167000000Y-82150000D01*
X166651935Y-82150000D01*
X166651935Y-81550000D01*
X166646855Y-81486302D01*
X166638897Y-81460603D01*
X167000000Y-81460603D01*
X167000000Y-81850000D01*
X167100000Y-81950000D01*
X167950000Y-81950000D01*
X167950000Y-81200000D01*
X168050000Y-81200000D01*
X168050000Y-81950000D01*
X168900000Y-81950000D01*
X169000000Y-81850000D01*
X169000000Y-81460603D01*
X168984628Y-81383324D01*
X168954475Y-81310529D01*
X168921117Y-81260604D01*
X172425000Y-81260604D01*
X172425000Y-82000000D01*
X172525000Y-82100000D01*
X173075000Y-82100000D01*
X173075000Y-81000000D01*
X172975000Y-80900000D01*
X172785603Y-80900000D01*
X172708324Y-80915372D01*
X172635529Y-80945525D01*
X172570014Y-80989300D01*
X172514299Y-81045015D01*
X172470524Y-81110529D01*
X172440372Y-81183325D01*
X172425000Y-81260604D01*
X168921117Y-81260604D01*
X168910700Y-81245014D01*
X168854985Y-81189299D01*
X168789471Y-81145524D01*
X168716675Y-81115372D01*
X168639396Y-81100000D01*
X168150000Y-81100000D01*
X168050000Y-81200000D01*
X167950000Y-81200000D01*
X167850000Y-81100000D01*
X167360604Y-81100000D01*
X167283325Y-81115372D01*
X167210529Y-81145524D01*
X167145015Y-81189299D01*
X167089300Y-81245014D01*
X167045525Y-81310529D01*
X167015372Y-81383324D01*
X167000000Y-81460603D01*
X166638897Y-81460603D01*
X166613398Y-81378262D01*
X166551165Y-81283821D01*
X166465086Y-81210457D01*
X166361976Y-81163978D01*
X166250000Y-81148065D01*
X165650000Y-81148065D01*
X165586302Y-81153145D01*
X165478262Y-81186602D01*
X165383821Y-81248835D01*
X165310457Y-81334914D01*
X165263978Y-81438024D01*
X165248065Y-81550000D01*
X165248065Y-82657835D01*
X165134548Y-82581267D01*
X165007997Y-82528070D01*
X164873524Y-82500466D01*
X164751935Y-82499617D01*
X164751935Y-81550000D01*
X164746855Y-81486302D01*
X164713398Y-81378262D01*
X164651165Y-81283821D01*
X164565086Y-81210457D01*
X164461976Y-81163978D01*
X164350000Y-81148065D01*
X163750000Y-81148065D01*
X163686302Y-81153145D01*
X163578262Y-81186602D01*
X163483821Y-81248835D01*
X163410457Y-81334914D01*
X163403657Y-81350000D01*
X162970130Y-81350000D01*
X162963398Y-81328262D01*
X162901165Y-81233821D01*
X162815086Y-81160457D01*
X162711976Y-81113978D01*
X162600000Y-81098065D01*
X161400000Y-81098065D01*
X161336302Y-81103145D01*
X161228262Y-81136602D01*
X161133821Y-81198835D01*
X161060457Y-81284914D01*
X161013978Y-81388024D01*
X160998065Y-81500000D01*
X160998065Y-82500000D01*
X161003145Y-82563698D01*
X161036602Y-82671738D01*
X161098835Y-82766179D01*
X161184914Y-82839543D01*
X161288024Y-82886022D01*
X161400000Y-82901935D01*
X162600000Y-82901935D01*
X162663698Y-82896855D01*
X162771738Y-82863398D01*
X162866179Y-82801165D01*
X162939543Y-82715086D01*
X162968882Y-82650000D01*
X163348065Y-82650000D01*
X163348065Y-82750000D01*
X163353145Y-82813698D01*
X163386602Y-82921738D01*
X163400000Y-82942070D01*
X163400000Y-83473065D01*
X162800000Y-83473065D01*
X162736302Y-83478145D01*
X162628262Y-83511602D01*
X162533821Y-83573835D01*
X162460457Y-83659914D01*
X162413978Y-83763024D01*
X162398065Y-83875000D01*
X162398065Y-84490958D01*
X160435980Y-82528874D01*
X160400335Y-82499595D01*
X160364911Y-82469870D01*
X160362604Y-82468602D01*
X160360575Y-82466935D01*
X160319906Y-82445128D01*
X160279398Y-82422859D01*
X160276891Y-82422064D01*
X160274575Y-82420822D01*
X160230412Y-82407320D01*
X160186383Y-82393353D01*
X160183772Y-82393060D01*
X160181256Y-82392291D01*
X160135280Y-82387621D01*
X160089408Y-82382476D01*
X160084270Y-82382440D01*
X160084172Y-82382430D01*
X160084081Y-82382439D01*
X160082427Y-82382427D01*
X152576935Y-82382427D01*
X152576935Y-81496173D01*
X152890380Y-81809619D01*
X152936766Y-81847721D01*
X152982771Y-81886324D01*
X152985769Y-81887972D01*
X152988407Y-81890139D01*
X153041306Y-81918504D01*
X153093938Y-81947438D01*
X153097194Y-81948471D01*
X153100208Y-81950087D01*
X153157622Y-81967640D01*
X153214857Y-81985796D01*
X153218256Y-81986177D01*
X153221523Y-81987176D01*
X153281221Y-81993240D01*
X153340925Y-81999937D01*
X153347607Y-81999983D01*
X153347731Y-81999996D01*
X153347847Y-81999985D01*
X153350000Y-82000000D01*
X155389241Y-82000000D01*
X155432641Y-82018961D01*
X155566716Y-82048439D01*
X155703963Y-82051314D01*
X155839155Y-82027476D01*
X155967141Y-81977833D01*
X156083048Y-81904277D01*
X156182460Y-81809608D01*
X156261591Y-81697432D01*
X156317427Y-81572023D01*
X156347841Y-81438158D01*
X156350030Y-81281361D01*
X156323366Y-81146699D01*
X156271054Y-81019780D01*
X156195086Y-80905439D01*
X156098356Y-80808031D01*
X155984548Y-80731267D01*
X155857997Y-80678070D01*
X155723524Y-80650466D01*
X155586250Y-80649508D01*
X155451405Y-80675231D01*
X155390100Y-80700000D01*
X154614032Y-80700000D01*
X154654476Y-80639471D01*
X154684628Y-80566675D01*
X154700000Y-80489396D01*
X154700000Y-80150000D01*
X161000000Y-80150000D01*
X161000000Y-80539397D01*
X161015372Y-80616676D01*
X161045525Y-80689471D01*
X161089300Y-80754986D01*
X161145015Y-80810701D01*
X161210529Y-80854476D01*
X161283325Y-80884628D01*
X161360604Y-80900000D01*
X161850000Y-80900000D01*
X161950000Y-80800000D01*
X161950000Y-80050000D01*
X162050000Y-80050000D01*
X162050000Y-80800000D01*
X162150000Y-80900000D01*
X162639396Y-80900000D01*
X162716675Y-80884628D01*
X162789471Y-80854476D01*
X162854985Y-80810701D01*
X162910700Y-80754986D01*
X162954475Y-80689471D01*
X162984628Y-80616676D01*
X163000000Y-80539397D01*
X163000000Y-80150000D01*
X162900000Y-80050000D01*
X162050000Y-80050000D01*
X161950000Y-80050000D01*
X161100000Y-80050000D01*
X161000000Y-80150000D01*
X154700000Y-80150000D01*
X154700000Y-79460603D01*
X161000000Y-79460603D01*
X161000000Y-79850000D01*
X161100000Y-79950000D01*
X161950000Y-79950000D01*
X161950000Y-79200000D01*
X162050000Y-79200000D01*
X162050000Y-79950000D01*
X162900000Y-79950000D01*
X163000000Y-79850000D01*
X163000000Y-79460603D01*
X162984628Y-79383324D01*
X162954475Y-79310529D01*
X162914032Y-79250000D01*
X163348065Y-79250000D01*
X163348065Y-80450000D01*
X163353145Y-80513698D01*
X163386602Y-80621738D01*
X163448835Y-80716179D01*
X163534914Y-80789543D01*
X163638024Y-80836022D01*
X163750000Y-80851935D01*
X164350000Y-80851935D01*
X164413698Y-80846855D01*
X164521738Y-80813398D01*
X164525726Y-80810770D01*
X164583324Y-80834628D01*
X164660603Y-80850000D01*
X164850000Y-80850000D01*
X164950000Y-80750000D01*
X164950000Y-79900000D01*
X164930000Y-79900000D01*
X164930000Y-79800000D01*
X164950000Y-79800000D01*
X164950000Y-79780000D01*
X165050000Y-79780000D01*
X165050000Y-79800000D01*
X165070000Y-79800000D01*
X165070000Y-79900000D01*
X165050000Y-79900000D01*
X165050000Y-80750000D01*
X165150000Y-80850000D01*
X165339397Y-80850000D01*
X165416676Y-80834628D01*
X165478302Y-80809101D01*
X165538024Y-80836022D01*
X165650000Y-80851935D01*
X166250000Y-80851935D01*
X166313698Y-80846855D01*
X166421738Y-80813398D01*
X166516179Y-80751165D01*
X166589543Y-80665086D01*
X166596343Y-80650000D01*
X167029870Y-80650000D01*
X167036602Y-80671738D01*
X167098835Y-80766179D01*
X167184914Y-80839543D01*
X167288024Y-80886022D01*
X167400000Y-80901935D01*
X168600000Y-80901935D01*
X168663698Y-80896855D01*
X168771738Y-80863398D01*
X168866179Y-80801165D01*
X168939543Y-80715086D01*
X168986022Y-80611976D01*
X169001935Y-80500000D01*
X169001935Y-79500000D01*
X168996855Y-79436302D01*
X168963398Y-79328262D01*
X168911827Y-79250000D01*
X170300000Y-79250000D01*
X170300000Y-80489396D01*
X170315372Y-80566675D01*
X170345524Y-80639471D01*
X170389299Y-80704985D01*
X170445014Y-80760700D01*
X170510529Y-80804475D01*
X170583324Y-80834628D01*
X170660603Y-80850000D01*
X171050000Y-80850000D01*
X171150000Y-80750000D01*
X171150000Y-79150000D01*
X171250000Y-79150000D01*
X171250000Y-80750000D01*
X171350000Y-80850000D01*
X171739397Y-80850000D01*
X171816676Y-80834628D01*
X171889471Y-80804475D01*
X171954986Y-80760700D01*
X172010701Y-80704985D01*
X172054476Y-80639471D01*
X172084628Y-80566675D01*
X172100000Y-80489396D01*
X172100000Y-79250000D01*
X172000000Y-79150000D01*
X171250000Y-79150000D01*
X171150000Y-79150000D01*
X170400000Y-79150000D01*
X170300000Y-79250000D01*
X168911827Y-79250000D01*
X168901165Y-79233821D01*
X168815086Y-79160457D01*
X168711976Y-79113978D01*
X168600000Y-79098065D01*
X167400000Y-79098065D01*
X167336302Y-79103145D01*
X167298336Y-79114902D01*
X167317427Y-79072023D01*
X167347841Y-78938158D01*
X167350030Y-78781361D01*
X167323366Y-78646699D01*
X167271054Y-78519780D01*
X167195086Y-78405439D01*
X167098356Y-78308031D01*
X166984548Y-78231267D01*
X166857997Y-78178070D01*
X166723524Y-78150466D01*
X166586250Y-78149508D01*
X166451405Y-78175231D01*
X166390100Y-78200000D01*
X165909957Y-78200000D01*
X165909793Y-78199912D01*
X165852337Y-78182346D01*
X165795144Y-78164203D01*
X165791750Y-78163822D01*
X165788478Y-78162822D01*
X165728730Y-78156753D01*
X165669076Y-78150062D01*
X165662394Y-78150016D01*
X165662270Y-78150003D01*
X165662154Y-78150014D01*
X165660001Y-78149999D01*
X164339999Y-78149999D01*
X164280270Y-78155855D01*
X164220431Y-78161090D01*
X164217144Y-78162045D01*
X164213747Y-78162378D01*
X164156305Y-78179721D01*
X164098610Y-78196483D01*
X164095575Y-78198056D01*
X164092303Y-78199044D01*
X164039308Y-78227222D01*
X163985984Y-78254862D01*
X163983311Y-78256996D01*
X163980294Y-78258600D01*
X163933795Y-78296524D01*
X163886841Y-78334007D01*
X163882082Y-78338701D01*
X163881987Y-78338778D01*
X163881915Y-78338866D01*
X163880380Y-78340379D01*
X163590381Y-78630379D01*
X163552296Y-78676744D01*
X163513676Y-78722769D01*
X163512028Y-78725767D01*
X163509860Y-78728406D01*
X163481486Y-78781322D01*
X163452562Y-78833936D01*
X163451529Y-78837192D01*
X163449913Y-78840206D01*
X163432347Y-78897662D01*
X163414204Y-78954855D01*
X163413823Y-78958249D01*
X163412823Y-78961521D01*
X163406754Y-79021269D01*
X163403490Y-79050369D01*
X163363978Y-79138024D01*
X163348065Y-79250000D01*
X162914032Y-79250000D01*
X162910700Y-79245014D01*
X162854985Y-79189299D01*
X162789471Y-79145524D01*
X162716675Y-79115372D01*
X162639396Y-79100000D01*
X162150000Y-79100000D01*
X162050000Y-79200000D01*
X161950000Y-79200000D01*
X161850000Y-79100000D01*
X161360604Y-79100000D01*
X161283325Y-79115372D01*
X161210529Y-79145524D01*
X161145015Y-79189299D01*
X161089300Y-79245014D01*
X161045525Y-79310529D01*
X161015372Y-79383324D01*
X161000000Y-79460603D01*
X154700000Y-79460603D01*
X154700000Y-79250000D01*
X154600000Y-79150000D01*
X153850000Y-79150000D01*
X153850000Y-79170000D01*
X153750000Y-79170000D01*
X153750000Y-79150000D01*
X153000000Y-79150000D01*
X152900000Y-79250000D01*
X152900000Y-80159931D01*
X152868729Y-80156754D01*
X152809075Y-80150063D01*
X152802393Y-80150017D01*
X152802269Y-80150004D01*
X152802153Y-80150015D01*
X152800000Y-80150000D01*
X147660167Y-80150000D01*
X147607997Y-80128070D01*
X147473524Y-80100466D01*
X147336250Y-80099508D01*
X147201405Y-80125231D01*
X147100000Y-80166201D01*
X147100000Y-79250000D01*
X147000000Y-79150000D01*
X146250000Y-79150000D01*
X146250000Y-80750000D01*
X146350000Y-80850000D01*
X146699204Y-80850000D01*
X146699080Y-80858858D01*
X146723861Y-80993880D01*
X146774396Y-81121517D01*
X146848760Y-81236907D01*
X146944121Y-81335656D01*
X147056846Y-81414002D01*
X147182641Y-81468961D01*
X147316716Y-81498439D01*
X147425000Y-81500707D01*
X147425000Y-82000000D01*
X147525000Y-82100000D01*
X148075000Y-82100000D01*
X148075000Y-82080000D01*
X148175000Y-82080000D01*
X148175000Y-82100000D01*
X148195000Y-82100000D01*
X148195000Y-82200000D01*
X148175000Y-82200000D01*
X148175000Y-82220000D01*
X148075000Y-82220000D01*
X148075000Y-82200000D01*
X147525000Y-82200000D01*
X147425000Y-82300000D01*
X147425000Y-82817893D01*
X143857107Y-79250000D01*
X145300000Y-79250000D01*
X145300000Y-80489396D01*
X145315372Y-80566675D01*
X145345524Y-80639471D01*
X145389299Y-80704985D01*
X145445014Y-80760700D01*
X145510529Y-80804475D01*
X145583324Y-80834628D01*
X145660603Y-80850000D01*
X146050000Y-80850000D01*
X146150000Y-80750000D01*
X146150000Y-79150000D01*
X145400000Y-79150000D01*
X145300000Y-79250000D01*
X143857107Y-79250000D01*
X143253553Y-78646447D01*
X143217908Y-78617168D01*
X143182484Y-78587443D01*
X143180177Y-78586175D01*
X143178148Y-78584508D01*
X143137479Y-78562701D01*
X143096971Y-78540432D01*
X143094464Y-78539637D01*
X143092148Y-78538395D01*
X143047985Y-78524893D01*
X143003956Y-78510926D01*
X143001345Y-78510633D01*
X142998829Y-78509864D01*
X142952853Y-78505194D01*
X142906981Y-78500049D01*
X142901843Y-78500013D01*
X142901745Y-78500003D01*
X142901654Y-78500012D01*
X142900000Y-78500000D01*
X137325000Y-78500000D01*
X137279011Y-78504509D01*
X137233024Y-78508532D01*
X137230499Y-78509265D01*
X137227883Y-78509522D01*
X137183677Y-78522869D01*
X137139316Y-78535757D01*
X137136981Y-78536967D01*
X137134465Y-78537727D01*
X137093675Y-78559415D01*
X137052680Y-78580665D01*
X137050627Y-78582304D01*
X137048304Y-78583539D01*
X137012512Y-78612730D01*
X136976417Y-78641545D01*
X136972754Y-78645157D01*
X136972683Y-78645215D01*
X136972628Y-78645281D01*
X136971446Y-78646447D01*
X136194829Y-79423065D01*
X134800000Y-79423065D01*
X134736302Y-79428145D01*
X134628262Y-79461602D01*
X134533821Y-79523835D01*
X134460457Y-79609914D01*
X134413978Y-79713024D01*
X134398065Y-79825000D01*
X134398065Y-80425000D01*
X134403145Y-80488698D01*
X134436602Y-80596738D01*
X134498835Y-80691179D01*
X134568784Y-80750796D01*
X134533821Y-80773835D01*
X134460457Y-80859914D01*
X134413978Y-80963024D01*
X134398065Y-81075000D01*
X134398065Y-81353091D01*
X134076604Y-81031630D01*
X134097841Y-80938158D01*
X134100030Y-80781361D01*
X134073366Y-80646699D01*
X134021054Y-80519780D01*
X133945086Y-80405439D01*
X133848356Y-80308031D01*
X133734548Y-80231267D01*
X133607997Y-80178070D01*
X133473524Y-80150466D01*
X133336250Y-80149508D01*
X133201405Y-80175231D01*
X133074124Y-80226656D01*
X132959255Y-80301824D01*
X132861174Y-80397872D01*
X132783617Y-80511141D01*
X132729538Y-80637317D01*
X132700997Y-80771594D01*
X132699080Y-80908858D01*
X131481831Y-80908858D01*
X131481832Y-79100000D01*
X132450000Y-79100000D01*
X132550000Y-79000000D01*
X132550000Y-78250000D01*
X132650000Y-78250000D01*
X132650000Y-79000000D01*
X132750000Y-79100000D01*
X133989396Y-79100000D01*
X134066675Y-79084628D01*
X134139471Y-79054476D01*
X134204985Y-79010701D01*
X134260700Y-78954986D01*
X134304475Y-78889471D01*
X134334628Y-78816676D01*
X134350000Y-78739397D01*
X134350000Y-78350000D01*
X134250000Y-78250000D01*
X132650000Y-78250000D01*
X132550000Y-78250000D01*
X132530000Y-78250000D01*
X132530000Y-78150000D01*
X132550000Y-78150000D01*
X132550000Y-78130000D01*
X132650000Y-78130000D01*
X132650000Y-78150000D01*
X134250000Y-78150000D01*
X134350000Y-78050000D01*
X134350000Y-77957009D01*
X145300000Y-77957009D01*
X145300000Y-78950000D01*
G36*
X157592893Y-90100000D02*
X157046447Y-90646447D01*
X157017168Y-90682092D01*
X156987443Y-90717516D01*
X156986175Y-90719823D01*
X156984508Y-90721852D01*
X156962701Y-90762521D01*
X156941831Y-90800484D01*
X156939397Y-90800000D01*
X156900000Y-90800000D01*
X156800000Y-90900000D01*
X156800000Y-91550000D01*
X156820000Y-91550000D01*
X156820000Y-91650000D01*
X156800000Y-91650000D01*
X156800000Y-91670000D01*
X156700000Y-91670000D01*
X156700000Y-91650000D01*
X156680000Y-91650000D01*
X156680000Y-91550000D01*
X156700000Y-91550000D01*
X156700000Y-90900000D01*
X156600000Y-90800000D01*
X156560603Y-90800000D01*
X156483324Y-90815372D01*
X156410529Y-90845525D01*
X156345014Y-90889300D01*
X156300000Y-90934314D01*
X156300000Y-90044764D01*
X156316716Y-90048439D01*
X156453963Y-90051314D01*
X156589155Y-90027476D01*
X156717141Y-89977833D01*
X156833048Y-89904277D01*
X156932460Y-89809608D01*
X157011591Y-89697432D01*
X157066654Y-89573760D01*
X157592893Y-90100000D01*
X157592893Y-90100000D01*
G37*
X157592893Y-90100000D02*
X157046447Y-90646447D01*
X157017168Y-90682092D01*
X156987443Y-90717516D01*
X156986175Y-90719823D01*
X156984508Y-90721852D01*
X156962701Y-90762521D01*
X156941831Y-90800484D01*
X156939397Y-90800000D01*
X156900000Y-90800000D01*
X156800000Y-90900000D01*
X156800000Y-91550000D01*
X156820000Y-91550000D01*
X156820000Y-91650000D01*
X156800000Y-91650000D01*
X156800000Y-91670000D01*
X156700000Y-91670000D01*
X156700000Y-91650000D01*
X156680000Y-91650000D01*
X156680000Y-91550000D01*
X156700000Y-91550000D01*
X156700000Y-90900000D01*
X156600000Y-90800000D01*
X156560603Y-90800000D01*
X156483324Y-90815372D01*
X156410529Y-90845525D01*
X156345014Y-90889300D01*
X156300000Y-90934314D01*
X156300000Y-90044764D01*
X156316716Y-90048439D01*
X156453963Y-90051314D01*
X156589155Y-90027476D01*
X156717141Y-89977833D01*
X156833048Y-89904277D01*
X156932460Y-89809608D01*
X157011591Y-89697432D01*
X157066654Y-89573760D01*
X157592893Y-90100000D01*
G36*
X158656846Y-88114002D02*
X158782641Y-88168961D01*
X158916716Y-88198439D01*
X158992929Y-88200035D01*
X160042893Y-89250000D01*
X158514032Y-89250000D01*
X158554476Y-89189471D01*
X158584628Y-89116675D01*
X158600000Y-89039396D01*
X158600000Y-88750000D01*
X158500000Y-88650000D01*
X158100000Y-88650000D01*
X158100000Y-88670000D01*
X158000000Y-88670000D01*
X158000000Y-88650000D01*
X157980000Y-88650000D01*
X157980000Y-88550000D01*
X158000000Y-88550000D01*
X158000000Y-88530000D01*
X158100000Y-88530000D01*
X158100000Y-88550000D01*
X158500000Y-88550000D01*
X158600000Y-88450000D01*
X158600000Y-88160604D01*
X158584628Y-88083325D01*
X158573277Y-88055920D01*
X158656846Y-88114002D01*
X158656846Y-88114002D01*
G37*
X158656846Y-88114002D02*
X158782641Y-88168961D01*
X158916716Y-88198439D01*
X158992929Y-88200035D01*
X160042893Y-89250000D01*
X158514032Y-89250000D01*
X158554476Y-89189471D01*
X158584628Y-89116675D01*
X158600000Y-89039396D01*
X158600000Y-88750000D01*
X158500000Y-88650000D01*
X158100000Y-88650000D01*
X158100000Y-88670000D01*
X158000000Y-88670000D01*
X158000000Y-88650000D01*
X157980000Y-88650000D01*
X157980000Y-88550000D01*
X158000000Y-88550000D01*
X158000000Y-88530000D01*
X158100000Y-88530000D01*
X158100000Y-88550000D01*
X158500000Y-88550000D01*
X158600000Y-88450000D01*
X158600000Y-88160604D01*
X158584628Y-88083325D01*
X158573277Y-88055920D01*
X158656846Y-88114002D01*
G36*
X156200000Y-86450000D02*
X156300000Y-86550000D01*
X156700000Y-86550000D01*
X156700000Y-86530000D01*
X156800000Y-86530000D01*
X156800000Y-86550000D01*
X156820000Y-86550000D01*
X156820000Y-86650000D01*
X156800000Y-86650000D01*
X156800000Y-86670000D01*
X156700000Y-86670000D01*
X156700000Y-86650000D01*
X156300000Y-86650000D01*
X156200000Y-86750000D01*
X156200000Y-86925415D01*
X156134548Y-86881267D01*
X156007997Y-86828070D01*
X155873524Y-86800466D01*
X155736250Y-86799508D01*
X155651935Y-86815592D01*
X155651935Y-86600000D01*
X155646855Y-86536302D01*
X155613398Y-86428262D01*
X155551165Y-86333821D01*
X155465086Y-86260457D01*
X155361976Y-86213978D01*
X155263616Y-86200000D01*
X156200000Y-86200000D01*
X156200000Y-86450000D01*
X156200000Y-86450000D01*
G37*
X156200000Y-86450000D02*
X156300000Y-86550000D01*
X156700000Y-86550000D01*
X156700000Y-86530000D01*
X156800000Y-86530000D01*
X156800000Y-86550000D01*
X156820000Y-86550000D01*
X156820000Y-86650000D01*
X156800000Y-86650000D01*
X156800000Y-86670000D01*
X156700000Y-86670000D01*
X156700000Y-86650000D01*
X156300000Y-86650000D01*
X156200000Y-86750000D01*
X156200000Y-86925415D01*
X156134548Y-86881267D01*
X156007997Y-86828070D01*
X155873524Y-86800466D01*
X155736250Y-86799508D01*
X155651935Y-86815592D01*
X155651935Y-86600000D01*
X155646855Y-86536302D01*
X155613398Y-86428262D01*
X155551165Y-86333821D01*
X155465086Y-86260457D01*
X155361976Y-86213978D01*
X155263616Y-86200000D01*
X156200000Y-86200000D01*
X156200000Y-86450000D01*
M02*
