G04 #@! TF.FileFunction,Legend,Bot*
%FSLAX46Y46*%
G04 Gerber Fmt 4.6, Leading zero omitted, Abs format (unit mm)*
G04 Created by KiCad (PCBNEW 4.0.5-e0-6337~49~ubuntu14.04.1) date Mon May  1 15:59:53 2017*
%MOMM*%
%LPD*%
G01*
G04 APERTURE LIST*
%ADD10C,0.100000*%
%ADD11C,0.170000*%
%ADD12C,0.150000*%
G04 APERTURE END LIST*
D10*
D11*
X171671429Y-96042857D02*
X171671429Y-94842857D01*
X171214286Y-94842857D01*
X171100000Y-94900000D01*
X171042857Y-94957143D01*
X170985714Y-95071429D01*
X170985714Y-95242857D01*
X171042857Y-95357143D01*
X171100000Y-95414286D01*
X171214286Y-95471429D01*
X171671429Y-95471429D01*
X170242857Y-94842857D02*
X170014286Y-94842857D01*
X169900000Y-94900000D01*
X169785714Y-95014286D01*
X169728572Y-95242857D01*
X169728572Y-95642857D01*
X169785714Y-95871429D01*
X169900000Y-95985714D01*
X170014286Y-96042857D01*
X170242857Y-96042857D01*
X170357143Y-95985714D01*
X170471429Y-95871429D01*
X170528572Y-95642857D01*
X170528572Y-95242857D01*
X170471429Y-95014286D01*
X170357143Y-94900000D01*
X170242857Y-94842857D01*
X169328571Y-94842857D02*
X169042857Y-96042857D01*
X168814286Y-95185714D01*
X168585714Y-96042857D01*
X168300000Y-94842857D01*
X167842857Y-95414286D02*
X167442857Y-95414286D01*
X167271428Y-96042857D02*
X167842857Y-96042857D01*
X167842857Y-94842857D01*
X167271428Y-94842857D01*
X166071428Y-96042857D02*
X166471428Y-95471429D01*
X166757143Y-96042857D02*
X166757143Y-94842857D01*
X166300000Y-94842857D01*
X166185714Y-94900000D01*
X166128571Y-94957143D01*
X166071428Y-95071429D01*
X166071428Y-95242857D01*
X166128571Y-95357143D01*
X166185714Y-95414286D01*
X166300000Y-95471429D01*
X166757143Y-95471429D01*
X143542857Y-90742857D02*
X143542857Y-89542857D01*
X143257142Y-89542857D01*
X143085714Y-89600000D01*
X142971428Y-89714286D01*
X142914285Y-89828571D01*
X142857142Y-90057143D01*
X142857142Y-90228571D01*
X142914285Y-90457143D01*
X142971428Y-90571429D01*
X143085714Y-90685714D01*
X143257142Y-90742857D01*
X143542857Y-90742857D01*
X142342857Y-90114286D02*
X141942857Y-90114286D01*
X141771428Y-90742857D02*
X142342857Y-90742857D01*
X142342857Y-89542857D01*
X141771428Y-89542857D01*
X141257143Y-90742857D02*
X141257143Y-89542857D01*
X140571428Y-90742857D01*
X140571428Y-89542857D01*
X140000000Y-90742857D02*
X140000000Y-89542857D01*
X139714285Y-89542857D01*
X139542857Y-89600000D01*
X139428571Y-89714286D01*
X139371428Y-89828571D01*
X139314285Y-90057143D01*
X139314285Y-90228571D01*
X139371428Y-90457143D01*
X139428571Y-90571429D01*
X139542857Y-90685714D01*
X139714285Y-90742857D01*
X140000000Y-90742857D01*
X138114285Y-90742857D02*
X138514285Y-90171429D01*
X138800000Y-90742857D02*
X138800000Y-89542857D01*
X138342857Y-89542857D01*
X138228571Y-89600000D01*
X138171428Y-89657143D01*
X138114285Y-89771429D01*
X138114285Y-89942857D01*
X138171428Y-90057143D01*
X138228571Y-90114286D01*
X138342857Y-90171429D01*
X138800000Y-90171429D01*
X137600000Y-90742857D02*
X137600000Y-89542857D01*
X137199999Y-89542857D02*
X136514285Y-89542857D01*
X136857142Y-90742857D02*
X136857142Y-89542857D01*
X136114285Y-90114286D02*
X135714285Y-90114286D01*
X135542856Y-90742857D02*
X136114285Y-90742857D01*
X136114285Y-89542857D01*
X135542856Y-89542857D01*
X135085714Y-90685714D02*
X134914285Y-90742857D01*
X134628571Y-90742857D01*
X134514285Y-90685714D01*
X134457142Y-90628571D01*
X134399999Y-90514286D01*
X134399999Y-90400000D01*
X134457142Y-90285714D01*
X134514285Y-90228571D01*
X134628571Y-90171429D01*
X134857142Y-90114286D01*
X134971428Y-90057143D01*
X135028571Y-90000000D01*
X135085714Y-89885714D01*
X135085714Y-89771429D01*
X135028571Y-89657143D01*
X134971428Y-89600000D01*
X134857142Y-89542857D01*
X134571428Y-89542857D01*
X134399999Y-89600000D01*
X182000000Y-98642857D02*
X182000000Y-97442857D01*
X181428571Y-98642857D02*
X181428571Y-97442857D01*
X181142856Y-97442857D01*
X180971428Y-97500000D01*
X180857142Y-97614286D01*
X180799999Y-97728571D01*
X180742856Y-97957143D01*
X180742856Y-98128571D01*
X180799999Y-98357143D01*
X180857142Y-98471429D01*
X180971428Y-98585714D01*
X181142856Y-98642857D01*
X181428571Y-98642857D01*
X180264286Y-87065000D02*
X179692857Y-87065000D01*
X180378571Y-87407857D02*
X179978571Y-86207857D01*
X179578571Y-87407857D01*
X179292857Y-86207857D02*
X178492857Y-87407857D01*
X178492857Y-86207857D02*
X179292857Y-87407857D01*
X177807143Y-86207857D02*
X177578572Y-86207857D01*
X177464286Y-86265000D01*
X177350000Y-86379286D01*
X177292858Y-86607857D01*
X177292858Y-87007857D01*
X177350000Y-87236429D01*
X177464286Y-87350714D01*
X177578572Y-87407857D01*
X177807143Y-87407857D01*
X177921429Y-87350714D01*
X178035715Y-87236429D01*
X178092858Y-87007857D01*
X178092858Y-86607857D01*
X178035715Y-86379286D01*
X177921429Y-86265000D01*
X177807143Y-86207857D01*
X176778572Y-87407857D02*
X176778572Y-86207857D01*
X176092857Y-87407857D01*
X176092857Y-86207857D01*
X182235714Y-88177857D02*
X181550000Y-88177857D01*
X181892857Y-89377857D02*
X181892857Y-88177857D01*
X181150000Y-88749286D02*
X180750000Y-88749286D01*
X180578571Y-89377857D02*
X181150000Y-89377857D01*
X181150000Y-88177857D01*
X180578571Y-88177857D01*
X179378571Y-89377857D02*
X179778571Y-88806429D01*
X180064286Y-89377857D02*
X180064286Y-88177857D01*
X179607143Y-88177857D01*
X179492857Y-88235000D01*
X179435714Y-88292143D01*
X179378571Y-88406429D01*
X179378571Y-88577857D01*
X179435714Y-88692143D01*
X179492857Y-88749286D01*
X179607143Y-88806429D01*
X180064286Y-88806429D01*
X178864286Y-89377857D02*
X178864286Y-88177857D01*
X178464286Y-89035000D01*
X178064286Y-88177857D01*
X178064286Y-89377857D01*
X177492857Y-89377857D02*
X177492857Y-88177857D01*
X176921428Y-89377857D02*
X176921428Y-88177857D01*
X176235713Y-89377857D01*
X176235713Y-88177857D01*
X175721428Y-89035000D02*
X175149999Y-89035000D01*
X175835713Y-89377857D02*
X175435713Y-88177857D01*
X175035713Y-89377857D01*
X174064285Y-89377857D02*
X174635714Y-89377857D01*
X174635714Y-88177857D01*
D12*
X179150000Y-77850000D02*
X179150000Y-81650000D01*
X179150000Y-81650000D02*
X170850000Y-81650000D01*
X170850000Y-81650000D02*
X170850000Y-77850000D01*
X170850000Y-77850000D02*
X179150000Y-77850000D01*
D10*
X160000000Y-77500000D02*
X155000000Y-85000000D01*
X160000000Y-85000000D02*
X155000000Y-77500000D01*
X155000000Y-85000000D02*
X160000000Y-85000000D01*
X160000000Y-102500000D02*
X155000000Y-95000000D01*
X160000000Y-95000000D02*
X155000000Y-102500000D01*
X155000000Y-95000000D02*
X160000000Y-95000000D01*
X155000000Y-77500000D02*
X155000000Y-102500000D01*
X160000000Y-102500000D02*
X160000000Y-77500000D01*
X160000000Y-77500000D02*
X155000000Y-77500000D01*
X155000000Y-102500000D02*
X160000000Y-102500000D01*
X152123607Y-91700000D02*
G75*
G03X152123607Y-91700000I-223607J0D01*
G01*
X147000000Y-93000000D02*
X147000000Y-87000000D01*
X153000000Y-93000000D02*
X147000000Y-93000000D01*
X153000000Y-87000000D02*
X153000000Y-93000000D01*
X147000000Y-87000000D02*
X153000000Y-87000000D01*
D12*
X148400000Y-88600000D02*
X151600000Y-88600000D01*
X151600000Y-88600000D02*
X151600000Y-91400000D01*
X151600000Y-91400000D02*
X148400000Y-91400000D01*
X148400000Y-91400000D02*
X148400000Y-88600000D01*
X131350000Y-77850000D02*
X135150000Y-77850000D01*
X135150000Y-77850000D02*
X135150000Y-86150000D01*
X135150000Y-86150000D02*
X131350000Y-86150000D01*
X131350000Y-86150000D02*
X131350000Y-77850000D01*
X132222004Y-95409010D02*
X134909010Y-92722004D01*
X134909010Y-92722004D02*
X140777996Y-98590990D01*
X140777996Y-98590990D02*
X138090990Y-101277996D01*
X138090990Y-101277996D02*
X132222004Y-95409010D01*
X167300000Y-85200000D02*
X167300000Y-83800000D01*
X165400000Y-85200000D02*
X162700000Y-85200000D01*
X162700000Y-85200000D02*
X162700000Y-83800000D01*
X162700000Y-83800000D02*
X165400000Y-83800000D01*
X154150000Y-77850000D02*
X154150000Y-81650000D01*
X154150000Y-81650000D02*
X145850000Y-81650000D01*
X145850000Y-81650000D02*
X145850000Y-77850000D01*
X145850000Y-77850000D02*
X154150000Y-77850000D01*
X145600000Y-102150000D02*
X145600000Y-98350000D01*
X145600000Y-98350000D02*
X153900000Y-98350000D01*
X153900000Y-98350000D02*
X153900000Y-102150000D01*
X153900000Y-102150000D02*
X145600000Y-102150000D01*
X188277996Y-84590990D02*
X185590990Y-87277996D01*
X185590990Y-87277996D02*
X179722004Y-81409010D01*
X179722004Y-81409010D02*
X182409010Y-78722004D01*
X182409010Y-78722004D02*
X188277996Y-84590990D01*
X189150000Y-96150000D02*
X185350000Y-96150000D01*
X185350000Y-96150000D02*
X185350000Y-87850000D01*
X185350000Y-87850000D02*
X189150000Y-87850000D01*
X189150000Y-87850000D02*
X189150000Y-96150000D01*
X162975000Y-102150000D02*
X162975000Y-98350000D01*
X162975000Y-98350000D02*
X175025000Y-98350000D01*
X175025000Y-98350000D02*
X175025000Y-102150000D01*
X175025000Y-102150000D02*
X162975000Y-102150000D01*
D10*
X156400000Y-91800000D02*
G75*
G03X156400000Y-91800000I-200000J0D01*
G01*
X156400000Y-93200000D02*
X158400000Y-93200000D01*
X156400000Y-92000000D02*
X156400000Y-93200000D01*
X158400000Y-92000000D02*
X156400000Y-92000000D01*
X158400000Y-93200000D02*
X158400000Y-92000000D01*
X158800000Y-88400000D02*
G75*
G03X158800000Y-88400000I-200000J0D01*
G01*
X158400000Y-87000000D02*
X156400000Y-87000000D01*
X158400000Y-88200000D02*
X158400000Y-87000000D01*
X156400000Y-88200000D02*
X158400000Y-88200000D01*
X156400000Y-87000000D02*
X156400000Y-88200000D01*
D12*
X163000000Y-89000000D02*
X162000000Y-89000000D01*
X162000000Y-89000000D02*
X162000000Y-91000000D01*
X162000000Y-91000000D02*
X163000000Y-91000000D01*
X163000000Y-91000000D02*
X163000000Y-89000000D01*
X178000000Y-102250000D02*
X178000000Y-99750000D01*
X178000000Y-99750000D02*
X185000000Y-99750000D01*
X185000000Y-99750000D02*
X185000000Y-102250000D01*
X185000000Y-102250000D02*
X178000000Y-102250000D01*
D10*
X169250000Y-93181981D02*
G75*
G03X169250000Y-93181981I-250000J0D01*
G01*
X166171573Y-90000000D02*
X169000000Y-92828427D01*
X169000000Y-87171573D02*
X166171573Y-90000000D01*
X171828427Y-90000000D02*
X169000000Y-87171573D01*
X169000000Y-92828427D02*
X171828427Y-90000000D01*
M02*
